<svg viewBox="0 0 800 800" xmlns="http://www.w3.org/2000/svg"><path d="M737.3705727621306,223.37703829888534 L737.3705727621305,187.92390475284503 M64.12405727361954,612.0760952471549 L62.629427237869436,575.8332430010286 M737.3705727621306,223.37703829888534 L64.12405727361954,612.0760952471549 M737.3705727621305,187.92390475284503 L62.629427237869436,575.8332430010286 M737.3705727621306,223.37703829888534 L737.3705727621306,491.72202944895207 M737.3705727621306,455.7155189135266 L737.3705727621306,491.72202944895207 M737.3705727621305,187.92390475284503 L737.3705727621306,455.7155189135266 M329.81273383072687,518.3730081631195 L64.12405727361954,612.0760952471549 M328.9176570165331,482.3135299077579 L62.629427237869436,575.8332430010286 M328.9176570165331,482.3135299077579 L329.81273383072687,518.3730081631195 M737.3705727621306,491.72202944895207 L736.6776931386829,492.13490882211966 M329.81273383072687,518.3730081631195 L340.08478822804364,511.05251590197577 M340.08478822804364,511.05251590197577 L350.9917510868997,504.0861565565983 M350.9917510868997,504.0861565565983 L362.4994011779602,497.4939587314137 M362.4994011779602,497.4939587314137 L374.57209409134833,491.2946939852566 M374.57209409134833,491.2946939852566 L387.17264377832987,485.5059882287203 M387.17264377832987,485.5059882287203 L400.2625028379214,480.1442452797588 M400.2625028379214,480.1442452797588 L413.80196331196476,475.2245551269375 M413.80196331196476,475.2245551269375 L427.75013219102,470.7607443626523 M427.75013219102,470.7607443626523 L442.065170808433,466.76528047469674 M442.065170808433,466.76528047469674 L456.7043099248185,463.2493175147249 M456.7043099248185,463.2493175147249 L471.6239564944794,460.2226441921607 M471.6239564944794,460.2226441921607 L486.7799162514418,457.6936414347623 M486.7799162514418,457.6936414347623 L502.127383813463,455.66931272553336 M502.127383813463,455.66931272553336 L517.6210643597786,454.15527084713597 M517.6210643597786,454.15527084713597 L533.215344288186,453.15569228980064 M533.215344288186,453.15569228980064 L548.8644398046102,452.6733177501933 M548.8644398046102,452.6733177501933 L564.5223483612244,452.70948358432577 M564.5223483612244,452.70948358432577 L580.1430592992963,453.26409444522176 M580.1430592992963,453.26409444522176 L595.6807130940017,454.335623095757 M595.6807130940017,454.335623095757 L611.0896033785101,455.9211037209849 M611.0896033785101,455.9211037209849 L626.3243493426933,458.0161636688242 M626.3243493426933,458.0161636688242 L641.3400071073041,460.6150151451526 M641.3400071073041,460.6150151451526 L656.0921193852973,463.710466791409 M656.0921193852973,463.710466791409 L670.5369315942255,467.2939103098853 M670.5369315942255,467.2939103098853 L684.6314207040452,471.35537224508585 M684.6314207040452,471.35537224508585 L698.3333780158324,475.88353375955865 M698.3333780158324,475.88353375955865 L711.6016218140834,480.86573346858415 M711.6016218140834,480.86573346858415 L724.3960241728954,486.2879458569204 M724.3960241728954,486.2879458569204 L736.6776931386829,492.13490882211966 M737.3705727621306,455.7155189135266 L736.6761760641673,456.12757496162 M328.9176570165331,482.3135299077579 L339.21301071480883,475.00755097422063 M339.21301071480883,475.00755097422063 L350.1445918232928,468.0550280795394 M350.1445918232928,468.0550280795394 L361.6781018008954,461.4759461953988 M361.6781018008954,461.4759461953988 L373.77781673338956,455.2890356928348 M373.77781673338956,455.2890356928348 L386.4064685926019,449.51188357449485 M386.4064685926019,449.51188357449485 L399.52542590483756,444.1608572369479 M399.52542590483756,444.1608572369479 L413.0948949629037,439.2510129703162 M413.0948949629037,439.2510129703162 L427.0738952347398,434.7961463413933 M427.0738952347398,434.7961463413933 L441.4204992413751,430.8086967244335 M441.4204992413751,430.8086967244335 L456.0918476154943,427.29979292239386 M456.0918476154943,427.29979292239386 L471.0442560433763,424.2792014052186 M471.0442560433763,424.2792014052186 L486.23343827118003,421.75528399191376 M486.23343827118003,421.75528399191376 L501.6144961112642,419.73502815812014 M501.6144961112642,419.73502815812014 L517.1420413080941,418.22403383379265 M517.1420413080941,418.22403383379265 L532.7703664877886,417.2264679244612 M532.7703664877886,417.2264679244612 L548.4535939857652,416.7450648254262 M548.4535939857652,416.7450648254262 L564.14562708993,416.78115782211046 M564.14562708993,416.78115782211046 L579.8003610555179,417.33465178804124 M579.8003610555179,417.33465178804124 L595.371842607947,418.40402299768584 M595.371842607947,418.40402299768584 L610.8142718831211,419.9863124462245 M610.8142718831211,419.9863124462245 L626.082175113956,422.0771575147611 M626.082175113956,422.0771575147611 L641.1305161634996,424.67078366513874 M641.1305161634996,424.67078366513874 L655.9147462131803,427.7600159719458 M655.9147462131803,427.7600159719458 L670.3910202699766,431.3362657472096 M670.3910202699766,431.3362657472096 L684.5162260042488,435.3895821854111 M684.5162260042488,435.3895821854111 L698.2480666429623,439.9086720629613 M698.2480666429623,439.9086720629613 L711.5452740270925,444.88090252633333 M711.5452740270925,444.88090252633333 L724.3676354241775,450.2922795070242 M724.3676354241775,450.2922795070242 L736.6761760641673,456.12757496162 M736.6761760641673,456.12757496162 L736.6776931386829,492.13490882211966" stroke="black"  stroke-width="4"  fill="red"/></svg>