<svg viewBox="0 0 800 800" xmlns="http://www.w3.org/2000/svg"><path d="M590.6437451912,532.0571049342403 L590.5379924855528,474.9277815664435 M577.3287636904461,540.1013186680362 L577.1933131689572,482.95652542386244 M590.6437451912,532.0571049342403 L577.3287636904461,540.1013186680362 M590.5379924855528,474.9277815664435 L577.1933131689572,482.95652542386244 M644.8478117085053,581.1111684562169 L644.86268694866,523.8878325601985 M577.3287636904461,540.1013186680362 L644.8478117085053,581.1111684562169 M577.1933131689572,482.95652542386244 L644.86268694866,523.8878325601985 M658.1628639318723,573.0191168926013 L658.2074374613502,515.8112361556992 M644.8478117085053,581.1111684562169 L658.1628639318723,573.0191168926013 M644.86268694866,523.8878325601985 L658.2074374613502,515.8112361556992 M658.1628639318723,573.0191168926013 L590.6437451912,532.0571049342403 M658.2074374613502,515.8112361556992 L590.5379924855528,474.9277815664435" stroke="black"  stroke-width="4"  fill="red"/>
<path d="M636.3472856363483,491.07429104741107 L636.3432110980706,434.024105221867 M627.8390710189267,501.1519867641106 L627.8161097274709,444.0822908698284 M636.3472856363483,491.07429104741107 L627.8390710189267,501.1519867641106 M636.3432110980706,434.024105221867 L627.8161097274709,444.0822908698284 M712.7947072195869,527.3056602446912 L712.9606179936885,470.1854841900888 M627.8390710189267,501.1519867641106 L712.7947072195869,527.3056602446912 M627.8161097274709,444.0822908698284 L712.9606179936885,470.1854841900888 M721.2567749101843,517.1896594933675 L721.4413670205253,460.0889826011969 M712.7947072195869,527.3056602446912 L721.2567749101843,517.1896594933675 M712.9606179936885,470.1854841900888 L721.4413670205253,460.0889826011969 M721.2567749101843,517.1896594933675 L636.3472856363483,491.07429104741107 M721.4413670205253,460.0889826011969 L636.3432110980706,434.024105221867" stroke="black"  stroke-width="4"  fill="red"/>
<path d="M658.6903562763518,443.87696413918377 L658.735678886221,386.91858557537137 M655.7854737187662,454.97251323994135 L655.8244074419767,397.99248740374344 M658.6903562763518,443.87696413918377 L655.7854737187662,454.97251323994135 M658.735678886221,386.91858557537137 L655.8244074419767,397.99248740374344 M749.5599898375602,463.91297255082236 L749.8065149733061,406.9155328115138 M655.7854737187662,454.97251323994135 L749.5599898375602,463.91297255082236 M655.8244074419767,397.99248740374344 L749.8065149733061,406.9155328115138 M752.390815497414,452.8029676433241 L752.6434015779056,395.8271714471199 M749.5599898375602,463.91297255082236 L752.390815497414,452.8029676433241 M749.8065149733061,406.9155328115138 L752.6434015779056,395.8271714471199 M752.390815497414,452.8029676433241 L658.6903562763518,443.87696413918377 M752.6434015779056,395.8271714471199 L658.735678886221,386.91858557537137" stroke="black"  stroke-width="4"  fill="red"/>
<path d="M655.7087675694099,395.1652253182508 L655.7473623098407,338.30235138883427 M658.6339858759054,406.1820509188349 L658.6790593722415,349.297510505776 M655.7087675694099,395.1652253182508 L658.6339858759054,406.1820509188349 M655.7473623098407,338.30235138883427 L658.6790593722415,349.297510505776 M751.9289840807527,397.31658088367533 L752.1795292193602,340.44947287509024 M658.6339858759054,406.1820509188349 L751.9289840807527,397.31658088367533 M658.6790593722415,349.297510505776 L752.1795292193602,340.44947287509024 M748.9306273675642,386.3140296695392 L749.1743711912535,329.46859142907397 M751.9289840807527,397.31658088367533 L748.9306273675642,386.3140296695392 M752.1795292193602,340.44947287509024 L749.1743711912535,329.46859142907397 M748.9306273675642,386.3140296695392 L655.7087675694099,395.1652253182508 M749.1743711912535,329.46859142907397 L655.7473623098407,338.30235138883427" stroke="black"  stroke-width="4"  fill="red"/>
<path d="M627.9528654706145,349.6927438997212 L627.9304070770368,292.91971264857193 M636.3648447541082,359.56432888515985 L636.3608478151878,302.7717372243246 M627.9528654706145,349.6927438997212 L636.3648447541082,359.56432888515985 M627.9304070770368,292.91971264857193 L636.3608478151878,302.7717372243246 M720.1531262750063,334.0422014963207 L720.3328409029335,277.3002458337071 M636.3648447541082,359.56432888515985 L720.1531262750063,334.0422014963207 M636.3608478151878,302.7717372243246 L720.3328409029335,277.3002458337071 M711.6963099727411,324.2075429910726 L711.8573664224127,267.48515526384585 M720.1531262750063,334.0422014963207 L711.6963099727411,324.2075429910726 M720.3328409029335,277.3002458337071 L711.8573664224127,267.48515526384585 M711.6963099727411,324.2075429910726 L627.9528654706145,349.6927438997212 M711.8573664224127,267.48515526384585 L627.9304070770368,292.91971264857193" stroke="black"  stroke-width="4"  fill="red"/>
<path d="M578.3348734664143,311.8086923233428 L578.2038694731293,255.11101882714388 M591.3756356798941,319.5981198654647 L591.273117552988,262.8849141777242 M578.3348734664143,311.8086923233428 L591.3756356798941,319.5981198654647 M578.2038694731293,255.11101882714388 L591.273117552988,262.8849141777242 M657.740100719977,280.1201718632144 L657.7828057522646,223.48588680881664 M591.3756356798941,319.5981198654647 L657.740100719977,280.1201718632144 M591.273117552988,262.8849141777242 L657.7828057522646,223.48588680881664 M644.6992713965146,272.37592764799 L644.7134901209465,215.75718299066966 M657.740100719977,280.1201718632144 L644.6992713965146,272.37592764799 M657.7828057522646,223.48588680881664 L644.7134901209465,215.75718299066966 M644.6992713965146,272.37592764799 L578.3348734664143,311.8086923233428 M644.7134901209465,215.75718299066966 L578.2038694731293,255.11101882714388" stroke="black"  stroke-width="4"  fill="red"/>
<path d="M511.7716207336937,285.0715024895336 L511.495463226472,228.42729169727647 M528.1649241021324,290.0519112142832 L527.924490382278,233.39772434915005 M511.7716207336937,285.0715024895336 L528.1649241021324,290.0519112142832 M511.495463226472,228.42729169727647 L527.924490382278,233.39772434915005 M570.963662240258,240.5598964250063 L570.817297138083,184.00519955094933 M528.1649241021324,290.0519112142832 L570.963662240258,240.5598964250063 M527.924490382278,233.39772434915005 L570.817297138083,184.00519955094933 M554.6145130058459,235.61577429234774 L554.4326163555901,179.07105949932918 M570.963662240258,240.5598964250063 L554.6145130058459,235.61577429234774 M570.817297138083,184.00519955094933 L554.4326163555901,179.07105949932918 M554.6145130058459,235.61577429234774 L511.7716207336937,285.0715024895336 M554.4326163555901,179.07105949932918 L511.495463226472,228.42729169727647" stroke="black"  stroke-width="4"  fill="red"/>
<path d="M434.68249820768517,271.9571925579919 L434.2383653091073,215.33928872740796 M452.858320946533,273.66960321810757 L452.4538046157737,217.04826119596498 M434.68249820768517,271.9571925579919 L452.858320946533,273.66960321810757 M434.2383653091073,215.33928872740796 L452.4538046157737,217.04826119596498 M468.1927574900469,218.96115888552288 L467.82321428426576,162.4501272811051 M452.858320946533,273.66960321810757 L468.1927574900469,218.96115888552288 M452.4538046157737,217.04826119596498 L467.82321428426576,162.4501272811051 M450.0883628157693,217.2625669828492 L449.6795142586292,160.75497571645462 M468.1927574900469,218.96115888552288 L450.0883628157693,217.2625669828492 M467.82321428426576,162.4501272811051 L449.6795142586292,160.75497571645462 M450.0883628157693,217.2625669828492 L434.68249820768517,271.9571925579919 M449.6795142586292,160.75497571645462 L434.2383653091073,215.33928872740796" stroke="black"  stroke-width="4"  fill="red"/>
<path d="M354.39828359314834,273.6695914058263 L353.77885588387994,217.0482494073973 M372.6334657260212,271.95718074869774 L372.0539138946432,215.33927694182796 M354.39828359314834,273.6695914058263 L372.6334657260212,271.95718074869774 M353.77885588387994,217.0482494073973 L372.0539138946432,215.33927694182796 M359.12222859089854,217.2625728398906 L358.5156546361137,160.75498156163133 M372.6334657260212,271.95718074869774 L359.12222859089854,217.2625728398906 M372.0539138946432,215.33927694182796 L358.5156546361137,160.75498156163133 M340.9590526233793,218.96115302700605 L340.3129173580818,162.4501214344524 M359.12222859089854,217.2625728398906 L340.9590526233793,218.96115302700605 M358.5156546361137,160.75498156163133 L340.3129173580818,162.4501214344524 M340.9590526233793,218.96115302700605 L354.39828359314834,273.6695914058263 M340.3129173580818,162.4501214344524 L353.77885588387994,217.0482494073973" stroke="black"  stroke-width="4"  fill="red"/>
<path d="M278.52421007445275,290.0519171347221 L277.7382182146624,233.39773025773468 M295.09003006520334,285.0715024895334 L294.3405167258186,228.42729169727647 M278.52421007445275,290.0519171347221 L295.09003006520334,285.0715024895334 M277.7382182146624,233.39773025773468 L294.3405167258186,228.42729169727647 M253.96031497881452,235.6157625463593 L253.12402039251145,179.0710477770648 M295.09003006520334,285.0715024895334 L253.96031497881452,235.6157625463593 M294.3405167258186,228.42729169727647 L253.12402039251145,179.0710477770648 M237.4399060801162,240.55989054771067 L236.5673334549406,184.00519368551522 M253.96031497881452,235.6157625463593 L237.4399060801162,240.55989054771067 M253.12402039251145,179.0710477770648 L236.5673334549406,184.00519368551522 M237.4399060801162,240.55989054771067 L278.52421007445275,290.0519171347221 M236.5673334549406,184.00519368551522 L277.7382182146624,233.39773025773468" stroke="black"  stroke-width="4"  fill="red"/>
<path d="M214.2899975888347,319.59813175800537 L213.36160686757097,262.88492604656597 M227.60059348803,311.80870420225244 L226.70187153752508,255.11103068235195 M214.2899975888347,319.59813175800537 L227.60059348803,311.80870420225244 M213.36160686757097,262.88492604656597 L226.70187153752508,255.11103068235195 M162.60216701551926,272.37592764799 L161.56420013198593,215.75718299066966 M227.60059348803,311.80870420225244 L162.60216701551926,272.37592764799 M226.70187153752508,255.11103068235195 L161.56420013198593,215.75718299066966 M149.29306920311706,280.1201718632144 L148.2254433959277,223.48588680881664 M162.60216701551926,272.37592764799 L149.29306920311706,280.1201718632144 M161.56420013198593,215.75718299066966 L148.2254433959277,223.48588680881664 M149.29306920311706,280.1201718632144 L214.2899975888347,319.59813175800537 M148.2254433959277,223.48588680881664 L213.36160686757097,262.88492604656597" stroke="black"  stroke-width="4"  fill="red"/>
<path d="M167.91629884245617,359.56432888515985 L166.8833069092977,302.7717372243246 M176.67024965605566,349.6927498723602 L175.6572226097319,292.91971860936644 M167.91629884245617,359.56432888515985 L176.67024965605566,349.6927498723602 M166.8833069092977,302.7717372243246 L175.6572226097319,292.91971860936644 M93.80961887445949,324.2075370407673 L92.61695320509989,267.4851493253892 M176.67024965605566,349.6927498723602 L93.80961887445949,324.2075370407673 M175.6572226097319,292.91971860936644 L92.61695320509989,267.4851493253892 M85.01211026110161,334.042189578483 L83.79929141852779,277.30023393956344 M93.80961887445949,324.2075370407673 L85.01211026110161,334.042189578483 M92.61695320509989,267.4851493253892 L83.79929141852779,277.30023393956344 M85.01211026110161,334.042189578483 L167.91629884245617,359.56432888515985 M83.79929141852779,277.30023393956344 L166.8833069092977,302.7717372243246" stroke="black"  stroke-width="4"  fill="red"/>
<path d="M144.03227245874996,406.1820509188349 L142.9430955904711,349.297510505776 M147.33914615673393,395.1651892426978 L146.2581316115996,338.3023153842937 M144.03227245874996,406.1820509188349 L147.33914615673393,395.1651892426978 M142.9430955904711,349.297510505776 L146.2581316115996,338.3023153842937 M54.42393030463421,386.31401165512455 L53.13911833412658,329.468573450171 M147.33914615673393,395.1651892426978 L54.42393030463421,386.31401165512455 M146.2581316115996,338.3023153842937 L53.13911833412658,329.468573450171 M51.04433220656006,397.3165989271323 L49.751038450685144,340.44949088304236 M54.42393030463421,386.31401165512455 L51.04433220656006,397.3165989271323 M53.13911833412658,329.468573450171 L49.751038450685144,340.44949088304236 M51.04433220656006,397.3165989271323 L144.03227245874996,406.1820509188349 M49.751038450685144,340.44949088304236 L142.9430955904711,349.297510505776" stroke="black"  stroke-width="4"  fill="red"/>
<path d="M145.1906334225905,454.97251323994135 L144.10012413143207,397.99248740374344 M142.67009051417688,443.87700047241935 L141.57489390064939,386.9186218376567 M145.1906334225905,454.97251323994135 L142.67009051417688,443.87700047241935 M144.10012413143207,397.99248740374344 L141.57489390064939,386.9186218376567 M48.660427282431215,452.80295551647293 L47.35659842209441,395.8271593439151 M142.67009051417688,443.87700047241935 L48.660427282431215,452.80295551647293 M141.57489390064939,386.9186218376567 L47.35659842209441,395.8271593439151 M51.10643035202702,463.9129846973192 L49.80695757623221,406.9155449343698 M48.660427282431215,452.80295551647293 L51.10643035202702,463.9129846973192 M47.35659842209441,395.8271593439151 L49.80695757623221,406.9155449343698 M51.10643035202702,463.9129846973192 L145.1906334225905,454.97251323994135 M49.80695757623221,406.9155449343698 L144.10012413143207,397.99248740374344" stroke="black"  stroke-width="4"  fill="red"/>
<path d="M171.53737349712472,501.1519623391837 L170.50166239124485,444.0822664921478 M163.3782192368865,491.07429104741107 L162.3251720785402,434.024105221867 M171.53737349712472,501.1519623391837 L163.3782192368865,491.07429104741107 M170.50166239124485,444.0822664921478 L162.3251720785402,434.024105221867 M77.56406706291477,517.1896594933675 L76.31833217475395,460.0889826011969 M163.3782192368865,491.07429104741107 L77.56406706291477,517.1896594933675 M162.3251720785402,434.024105221867 L76.31833217475395,460.0889826011969 M85.67566471422333,527.3056847624906 L84.4470514136666,470.1855086606689 M77.56406706291477,517.1896594933675 L85.67566471422333,527.3056847624906 M76.31833217475395,460.0889826011969 L84.4470514136666,470.1855086606689 M85.67566471422333,527.3056847624906 L171.53737349712472,501.1519623391837 M84.4470514136666,470.1855086606689 L170.50166239124485,444.0822664921478" stroke="black"  stroke-width="4"  fill="red"/>
<path d="M220.69839512712852,540.1013186680362 L219.7691687767277,482.95652542386244 M207.6620733642522,532.0571049342403 L206.7043906784371,474.9277815664434 M220.69839512712852,540.1013186680362 L207.6620733642522,532.0571049342403 M219.7691687767277,482.95652542386244 L206.7043906784371,474.9277815664434 M138.72398890573731,573.0191168926013 L137.60965066878674,515.8112361556992 M207.6620733642522,532.0571049342403 L138.72398890573731,573.0191168926013 M206.7043906784371,474.9277815664434 L137.60965066878674,515.8112361556992 M151.75872424019136,581.1111684562169 L150.67283170890136,523.8878325601985 M138.72398890573731,573.0191168926013 L151.75872424019136,581.1111684562169 M137.60965066878674,515.8112361556992 L150.67283170890136,523.8878325601985 M151.75872424019136,581.1111684562169 L220.69839512712852,540.1013186680362 M150.67283170890136,523.8878325601985 L219.7691687767277,482.95652542386244" stroke="black"  stroke-width="4"  fill="red"/>
<path d="M287.9316235500089,567.8552070108882 L287.15047226811396,510.6571999337772 M271.29265253237907,562.6686321271198 L270.4746996000806,505.4805506830594 M287.9316235500089,567.8552070108882 L271.29265253237907,562.6686321271198 M287.15047226811396,510.6571999337772 L270.4746996000806,505.4805506830594 M226.34534812980888,614.5535441720662 L225.4237371249789,557.2665595298218 M271.29265253237907,562.6686321271198 L226.34534812980888,614.5535441720662 M270.4746996000806,505.4805506830594 L225.4237371249789,557.2665595298218 M243.02992554469336,619.7790627154146 L242.1453176012729,562.4821651841381 M226.34534812980888,614.5535441720662 L243.02992554469336,619.7790627154146 M225.4237371249789,557.2665595298218 L242.1453176012729,562.4821651841381 M243.02992554469336,619.7790627154146 L287.9316235500089,567.8552070108882 M242.1453176012729,562.4821651841381 L287.15047226811396,510.6571999337772" stroke="black"  stroke-width="4"  fill="red"/>
<path d="M366.5617778070599,581.5492803113667 L365.9553905116586,524.3251082586429 M347.9839627160976,579.7580893386238 L347.33618512738076,522.5373362464958 M366.5617778070599,581.5492803113667 L347.9839627160976,579.7580893386238 M365.9553905116586,524.3251082586429 L347.33618512738076,522.5373362464958 M331.7369346431902,637.4389296699547 L331.050035299718,580.1085961214111 M347.9839627160976,579.7580893386238 L331.7369346431902,637.4389296699547 M347.33618512738076,522.5373362464958 L331.050035299718,580.1085961214111 M350.39007273005814,639.2449993662543 L349.7449002573196,581.9112519817073 M331.7369346431902,637.4389296699547 L350.39007273005814,639.2449993662543 M331.050035299718,580.1085961214111 L349.7449002573196,581.9112519817073 M350.39007273005814,639.2449993662543 L366.5617778070599,581.5492803113667 M349.7449002573196,581.9112519817073 L365.9553905116586,524.3251082586429" stroke="black"  stroke-width="4"  fill="red"/>
<path d="M448.66948627223763,579.7580646340326 L448.24645615887084,522.5373115890674 M430.0295412019286,581.5492556003845 L429.56484327995076,524.325083594821 M448.66948627223763,579.7580646340326 L430.0295412019286,581.5492556003845 M448.24645615887084,522.5373115890674 L429.56484327995076,524.325083594821 M444.20260705492854,639.2450242835454 L443.7677419064888,581.911276851907 M430.0295412019286,581.5492556003845 L444.20260705492854,639.2450242835454 M429.56484327995076,524.325083594821 L443.7677419064888,581.911276851907 M462.9183915688686,637.438904759135 L462.5255342835442,580.1085712576847 M444.20260705492854,639.2450242835454 L462.9183915688686,637.438904759135 M443.7677419064888,581.911276851907 L462.5255342835442,580.1085712576847 M462.9183915688686,637.438904759135 L448.66948627223763,579.7580646340326 M462.5255342835442,580.1085712576847 L448.24645615887084,522.5373115890674" stroke="black"  stroke-width="4"  fill="red"/>
<path d="M525.952792030998,562.6686567707749 L525.7025814455695,505.48057527953256 M509.1341123732175,567.8552070108882 L508.8462978948944,510.6571999337773 M525.952792030998,562.6686567707749 L509.1341123732175,567.8552070108882 M525.7025814455695,505.48057527953256 L508.8462978948944,510.6571999337773 M552.2371152544307,619.7790627154149 L552.0447102904902,562.4821651841381 M509.1341123732175,567.8552070108882 L552.2371152544307,619.7790627154149 M508.8462978948944,510.6571999337773 L552.0447102904902,562.4821651841381 M569.1026692969591,614.5535193431721 L568.9480785220708,557.2665347480496 M552.2371152544307,619.7790627154149 L569.1026692969591,614.5535193431721 M552.0447102904902,562.4821651841381 L568.9480785220708,557.2665347480496 M569.1026692969591,614.5535193431721 L525.952792030998,562.6686567707749 M568.9480785220708,557.2665347480496 L525.7025814455695,505.48057527953256" stroke="black"  stroke-width="4"  fill="red"/>
<path d="M427.6036119772093,409.1912813896738 L427.1393615509629,352.3008295968059 M374.3490840141916,440.85245352870504 L373.7660782621981,383.89998261605103 M427.6036119772093,409.1912813896738 L432.1821038495392,412.57685972010916 M432.1821038495392,412.57685972010916 L435.56579694039266,416.4414657028808 M435.56579694039266,416.4414657028808 L437.6238337312868,420.63732589619383 M437.6238337312868,420.63732589619383 L438.27599062169224,425.0035662036179 M438.27599062169224,425.0035662036179 L437.49585205347444,429.3725926950033 M437.49585205347444,429.3725926950033 L435.3120968313044,433.57638736528486 M435.3120968313044,433.57638736528486 L431.8075324374388,437.4528680079093 M431.8075324374388,437.4528680079093 L427.1161563436806,440.85245352870504 M427.1161563436806,440.85245352870504 L421.4179049806538,443.6436602912179 M421.4179049806538,443.6436602912179 L414.93210223476046,445.7184829125905 M414.93210223476046,445.7184829125905 L407.90864941679456,446.9964701633427 M407.90864941679456,446.9964701633427 L400.61872746499785,447.4280524338018 M400.61872746499785,447.4280524338018 L393.3437559616027,446.9964701633427 M393.3437559616027,446.9964701633427 L386.36457392063136,445.7184829125905 M386.36457392063136,445.7184829125905 L379.95064513867635,443.6436602912179 M379.95064513867635,443.6436602912179 L374.3490840141916,440.85245352870504 M427.1393615509629,352.3008295968059 L431.7278345879107,355.67976072656654 M431.7278345879107,355.67976072656654 L435.1188627896812,359.5367834993492 M435.1188627896812,359.5367834993492 L437.18130323721016,363.72441592945415 M437.18130323721016,363.72441592945415 L437.8347580904348,368.0821003851481 M437.8347580904348,368.0821003851481 L437.0527559804722,372.44257170464857 M437.0527559804722,372.44257170464857 L434.8640415241953,376.63814054779255 M434.8640415241953,376.63814054779255 L431.3516078619066,380.50704087796964 M431.3516078619066,380.50704087796964 L426.64975174208575,383.89998261605103 M426.64975174208575,383.89998261605103 L420.9388110249406,386.6857373253787 M420.9388110249406,386.6857373253787 L414.4385986336422,388.7565088280612 M414.4385986336422,388.7565088280612 L407.3995727980749,390.0320014810602 M407.3995727980749,390.0320014810602 L400.0935182658095,390.4627414328867 M400.0935182658095,390.4627414328867 L392.8024803587384,390.0320014810602 M392.8024803587384,390.0320014810602 L385.8079212484589,388.7565088280612 M385.8079212484589,388.7565088280612 L379.3799009057208,386.6857373253787 M379.3799009057208,386.6857373253787 L373.7660782621981,383.89998261605103 M374.3490840141916,440.85245352870504 L369.7754730173672,437.4528680079093 M369.7754730173672,437.4528680079093 L366.405173973558,433.576375272395 M366.405173973558,433.576375272395 L364.3670822195515,429.37260478047403 M364.3670822195515,429.37260478047403 L363.73829116169514,425.0035782813802 M363.73829116169514,425.0035782813802 L364.5416791894052,420.63732589619383 M364.5416791894052,420.63732589619383 L366.74508469496067,416.44147776554416 M366.74508469496067,416.44147776554416 L370.26261195871746,412.57684766425757 M370.26261195871746,412.57684766425757 L374.95840355610255,409.1912813896738 M374.95840355610255,409.1912813896738 L380.6517542512936,406.4140696730011 M380.6517542512936,406.4140696730011 L387.1241827984152,404.35114597476104 M387.1241827984152,404.35114597476104 L394.12771044898733,403.0810812407145 M394.12771044898733,403.0810812407145 L401.39428636651576,402.65229728985946 M401.39428636651576,402.65229728985946 L408.6459884978232,403.0810932798364 M408.6459884978232,403.0810932798364 L415.60550033602135,404.35112189204347 M415.60550033602135,404.35112189204347 L422.00644644906316,406.41408171799367 M422.00644644906316,406.41408171799367 L427.6036119772093,409.1912813896738 M373.7660782621981,383.89998261605103 L369.18250820841615,380.50704087796964 M369.18250820841615,380.50704087796964 L365.80493374547143,376.6381284785573 M365.80493374547143,376.6381284785573 L363.7625266920701,372.4425837664627 M363.7625266920701,372.4425837664627 L363.1325410370857,368.08211243925234 M363.1325410370857,368.08211243925234 L363.937895288459,363.72441592945415 M363.937895288459,363.72441592945415 L366.14634651791675,359.5367955383505 M366.14634651791675,359.5367955383505 L369.67179996894936,355.67974869437865 M369.67179996894936,355.67974869437865 L374.37809052329453,352.3008295968059 M374.37809052329453,352.3008295968059 L380.08410842220877,349.5290733749838 M380.08410842220877,349.5290733749838 L386.5708869662931,347.47020364583796 M386.5708869662931,347.47020364583796 L393.58989932044506,346.20263546945523 M393.58989932044506,346.20263546945523 L400.8725044955105,345.7746944934962 M400.8725044955105,345.7746944934962 L408.14017030480136,346.20264748490945 M408.14017030480136,346.20264748490945 L415.1149726788568,347.47017961045503 M415.1149726788568,347.47017961045503 L421.5299533909228,349.52908539631005 M421.5299533909228,349.52908539631005 L427.1393615509629,352.3008295968059" stroke="black"  stroke-width="4"  fill="red"/>
<path d="M704.5477207203892,454.91460459989787 L704.4006394944447,512.0052755381698 M731.1678270466122,405.14592182998854 L726.5554527632862,417.91993247969697 M726.5554527632862,417.91993247969697 L720.5659206661048,430.50849896874763 M720.5659206661048,430.50849896874763 L713.2208202112619,442.8577630569664 M713.2208202112619,442.8577630569664 L704.5477207203892,454.91460459989787 M731.1678270466122,405.14592182998854 L730.9624932701244,462.1399101068283 M704.4006394944447,512.0052755381698 L713.0546625404818,499.9250854599005 M713.0546625404818,499.9250854599005 L720.3836622242258,487.55185777910754 M720.3836622242258,487.55185777910754 L726.3601225154887,474.9388125359137 M726.3601225154887,474.9388125359137 L730.9624932701244,462.1399101068283 M704.4006394944447,512.0052755381698 L636.3472856363483,491.07429104741107 M636.3472856363483,491.07429104741107 L636.3432110980706,434.024105221867 M704.5477207203892,454.91460459989787 L636.3432110980706,434.024105221867 M627.9304070770368,292.91971264857193 L636.3608478151878,302.7717372243246 M636.3608478151878,302.7717372243246 L703.713193082543,282.34152728088804 M703.713193082543,282.34152728088804 L712.4068253253349,294.11760439578256 M712.4068253253349,294.11760439578256 L719.8184981635598,306.2220778594153 M719.8184981635598,306.2220778594153 L725.9141951072623,318.60591282129417 M725.9141951072623,318.60591282129417 L730.665105330932,331.2186673067978 M730.665105330932,331.2186673067978 L655.7473623098407,338.30235138883427 M655.7473623098407,338.30235138883427 L658.6790593722415,349.297510505776 M658.6790593722415,349.297510505776 L733.655741894123,342.2024006134046 M733.655741894123,342.2024006134046 L735.8480255685706,355.10286581650985 M735.8480255685706,355.10286581650985 L736.6433835295301,368.0821003851481 M736.6433835295301,368.0821003851481 L736.0342925013348,381.0860893424242 M736.0342925013348,381.0860893424242 L734.0194978804557,394.06040461800205 M734.0194978804557,394.06040461800205 L658.735678886221,386.91858557537137 M658.735678886221,386.91858557537137 L655.8244074419767,397.99248740374344 M655.8244074419767,397.99248740374344 L731.1678270466122,405.14592182998854 M636.3432110980706,434.024105221867 L627.8161097274709,444.0822908698284 M627.8161097274709,444.0822908698284 L696.0577102362033,465.0034694884142 M696.0577102362033,465.0034694884142 L685.0084936186854,476.37901367200527 M685.0084936186854,476.37901367200527 L672.7421017454562,487.3165995124808 M672.7421017454562,487.3165995124808 L659.3082849071628,497.76829354642575 M659.3082849071628,497.76829354642575 L644.7621805341614,507.68809355832445 M644.7621805341614,507.68809355832445 L590.5379924855528,474.9277815664435 M590.5379924855528,474.9277815664435 L577.1933131689572,482.95652542386244 M577.1933131689572,482.95652542386244 L631.4174254442914,515.7551708045976 M631.4174254442914,515.7551708045976 L614.9668283016629,524.5710849408746 M614.9668283016629,524.5710849408746 L597.5890403924428,532.7361827954034 M597.5890403924428,532.7361827954034 L579.357620834768,540.2139187113509 M579.357620834768,540.2139187113509 L560.350225347126,546.9707148914957 M560.350225347126,546.9707148914957 L525.7025814455695,505.48057527953256 M525.7025814455695,505.48057527953256 L508.8462978948944,510.6571999337773 M508.8462978948944,510.6571999337773 L543.4562492013246,552.1786034964038 M543.4562492013246,552.1786034964038 L523.2249899038588,557.5166369193965 M523.2249899038588,557.5166369193965 L502.45916814710847,562.0557589914841 M502.45916814710847,562.0557589914841 L481.2486426770686,565.775460012159 M481.2486426770686,565.775460012159 L459.6856546656287,568.6588017684202 M459.6856546656287,568.6588017684202 L448.24645615887084,522.5373115890674 M448.24645615887084,522.5373115890674 L429.56484327995076,524.325083594821 M429.56484327995076,524.325083594821 L440.9430861036143,570.4584778428215 M440.9430861036143,570.4584778428215 L418.97501078716186,571.754776891801 M418.97501078716186,571.754776891801 L396.92583759873537,572.1875431470877 M396.92583759873537,572.1875431470877 L374.89171124750874,571.7547520580628 M374.89171124750874,571.7547520580628 L352.96886844686446,570.4584778428215 M352.96886844686446,570.4584778428215 L365.9553905116586,524.3251082586429 M365.9553905116586,524.3251082586429 L347.33618512738076,522.5373362464958 M347.33618512738076,522.5373362464958 L334.28900055033097,568.6587769457909 M334.28900055033097,568.6587769457909 L312.8265730783294,565.7754600121588 M312.8265730783294,565.7754600121588 L291.74576553699865,562.0557837904283 M291.74576553699865,562.0557837904283 L271.13810666435904,557.5166617020658 M271.13810666435904,557.5166617020658 L251.09298550043218,552.1786034964038 M251.09298550043218,552.1786034964038 L287.15047226811396,510.6571999337772 M287.15047226811396,510.6571999337772 L270.4746996000806,505.4805506830594 M270.4746996000806,505.4805506830594 L234.38056881040606,546.9707148914957 M234.38056881040606,546.9707148914957 L215.6087314021159,540.2139187113509 M215.6087314021159,540.2139187113509 L197.63804518286446,532.7361581014912 M197.63804518286446,532.7361581014912 L180.54487054334052,524.5710849408746 M180.54487054334052,524.5710849408746 L164.4016172581119,515.7551708045975 M164.4016172581119,515.7551708045975 L219.7691687767277,482.95652542386244 M219.7691687767277,482.95652542386244 L206.7043906784371,474.9277815664434 M206.7043906784371,474.9277815664434 L151.3380997801888,507.68809355832445 M151.3380997801888,507.68809355832445 L137.13780347241243,497.7682812619572 M137.13780347241243,497.7682812619572 L124.06841915627791,487.31657498083644 M124.06841915627791,487.31657498083644 L112.1833159637909,476.3790259183295 M112.1833159637909,476.3790259183295 L101.53065818909431,465.0034694884142 M101.53065818909431,465.0034694884142 L170.50166239124485,444.0822664921478 M170.50166239124485,444.0822664921478 L162.3251720785402,434.024105221867 M162.3251720785402,434.024105221867 L93.39236967085498,454.91460459989787 M93.39236967085498,454.91460459989787 L85.13953924668942,442.85777524363016 M85.13953924668942,442.85777524363016 L78.22502495499339,430.50849896874763 M78.22502495499339,430.50849896874763 L72.67438012375055,417.91994462207117 M72.67438012375055,417.91994462207117 L68.50729898931905,405.14590971026973 M68.50729898931905,405.14590971026973 L144.10012413143207,397.99248740374344 M144.10012413143207,397.99248740374344 L141.57489390064939,386.9186218376567 M141.57489390064939,386.9186218376567 L66.0421155057187,394.06040461800205 M66.0421155057187,394.06040461800205 L64.47961689249166,381.0860772653192 M64.47961689249166,381.0860772653192 L64.32391533385618,368.08211243925234 M64.32391533385618,368.08211243925234 L65.57168973371631,355.10288386326295 M65.57168973371631,355.10288386326295 L68.21375576879313,342.2023946092072 M68.21375576879313,342.2023946092072 L142.9430955904711,349.297510505776 M142.9430955904711,349.297510505776 L146.2581316115996,338.3023153842937 M146.2581316115996,338.3023153842937 L71.58728996407729,331.21869727934984 M71.58728996407729,331.21869727934984 L76.77793258398935,318.60590683789746 M76.77793258398935,318.60590683789746 L83.30540074078954,306.22204799694305 M83.30540074078954,306.22204799694305 L91.13903317312827,294.11760439578256 M91.13903317312827,294.11760439578256 L100.24321741191511,282.3415332323873 M100.24321741191511,282.3415332323873 L166.8833069092977,302.7717372243246 M166.8833069092977,302.7717372243246 L175.6572226097319,292.91971860936644 M175.6572226097319,292.91971860936644 L109.05224873852171,272.5191501149835 M109.05224873852171,272.5191501149835 L120.40736018635351,261.47842461185894 M120.40736018635351,261.47842461185894 L132.90447602593474,250.89688124935856 M132.90447602593474,250.89688124935856 L146.49004123170545,240.81654052228612 M146.49004123170545,240.81654052228612 L161.10642263443788,231.27723004105405 M161.10642263443788,231.27723004105405 L213.36160686757097,262.88492604656597 M213.36160686757097,262.88492604656597 L226.70187153752508,255.11103068235195 M226.70187153752508,255.11103068235195 L174.44549485808187,223.53959982848335 M174.44549485808187,223.53959982848335 L190.81268531129885,215.10417050510262 M190.81268531129885,215.10417050510262 L208.02589954205618,207.31049053617085 M208.02589954205618,207.31049053617085 L226.0142822252954,200.18887866712475 M226.0142822252954,200.18887866712475 L244.7041829264005,193.76693479402593 M244.7041829264005,193.76693479402593 L277.7382182146624,233.39773025773468 M277.7382182146624,233.39773025773468 L294.3405167258186,228.42729169727647 M294.3405167258186,228.42729169727647 L261.2698833737108,188.82562082325944 M261.2698833737108,188.82562082325944 L281.0602786152019,183.76842787507383 M281.0602786152019,183.76842787507383 L301.3290074464276,179.47414750283258 M301.3290074464276,179.47414750283258 L321.99439843349217,175.95927824333046 M321.99439843349217,175.95927824333046 L342.9734054232629,173.23729282357692 M342.9734054232629,173.23729282357692 L353.77885588387994,217.0482494073973 M353.77885588387994,217.0482494073973 L372.0539138946432,215.33927694182796 M372.0539138946432,215.33927694182796 L361.19046474112986,171.53940566857 M361.19046474112986,171.53940566857 L382.5285647837386,170.3170126714706 M382.5285647837386,170.3170126714706 L403.938053540646,169.90900658254816 M403.938053540646,169.90900658254816 L425.3332488204135,170.3170068179669 M425.3332488204135,170.3170068179669 L446.62875299963065,171.53941152313882 M446.62875299963065,171.53941152313882 L434.2383653091073,215.33928872740796 M434.2383653091073,215.33928872740796 L452.4538046157737,217.04826119596498 M452.4538046157737,217.04826119596498 L464.78662021817934,173.23727525543325 M464.78662021817934,173.23727525543325 L485.67075172255966,175.95929581859025 M485.67075172255966,175.95929581859025 L506.2135862314984,179.4741533643163 M506.2135862314984,179.4741533643163 L526.3325963885833,183.76841614461853 M526.3325963885833,183.76841614461853 L545.9467155485296,188.8256149536212 M545.9467155485296,188.8256149536212 L511.495463226472,228.42729169727647 M511.495463226472,228.42729169727647 L527.924490382278,233.39772434915005 M527.924490382278,233.39772434915005 L562.3401300073045,193.76694066797575 M562.3401300073045,193.76694066797575 L580.8061961650525,200.18887866712475 M580.8061961650525,200.18887866712475 L598.5462626171483,207.31049053617085 M598.5462626171483,207.31049053617085 L615.4877306709093,215.10417050510273 M615.4877306709093,215.10417050510273 L631.5608817257454,223.53959982848335 M631.5608817257454,223.53959982848335 L578.2038694731293,255.11101882714388 M578.2038694731293,255.11101882714388 L591.273117552988,262.8849141777242 M591.273117552988,262.8849141777242 L644.6302016491845,231.27723004105417 M644.6302016491845,231.27723004105417 L658.9139999233876,240.81655235244546 M658.9139999233876,240.81655235244546 L672.1481602798109,250.89688124935856 M672.1481602798109,250.89688124935856 L684.2763981553893,261.47841274548455 M684.2763981553893,261.47841274548455 L695.2465735674579,272.5191560578579 M695.2465735674579,272.5191560578579 L627.9304070770368,292.91971264857193 M427.1393615509629,352.3008295968059 L431.7278345879107,355.67976072656654 M431.7278345879107,355.67976072656654 L435.1188627896812,359.5367834993492 M435.1188627896812,359.5367834993492 L437.18130323721016,363.72441592945415 M437.18130323721016,363.72441592945415 L437.8347580904348,368.0821003851481 M437.8347580904348,368.0821003851481 L437.0527559804722,372.44257170464857 M437.0527559804722,372.44257170464857 L434.8640415241953,376.63814054779255 M434.8640415241953,376.63814054779255 L431.3516078619066,380.50704087796964 M431.3516078619066,380.50704087796964 L426.64975174208575,383.89998261605103 M426.64975174208575,383.89998261605103 L420.9388110249406,386.6857373253787 M420.9388110249406,386.6857373253787 L414.4385986336422,388.7565088280612 M414.4385986336422,388.7565088280612 L407.3995727980749,390.0320014810602 M407.3995727980749,390.0320014810602 L400.0935182658095,390.4627414328867 M400.0935182658095,390.4627414328867 L392.8024803587384,390.0320014810602 M392.8024803587384,390.0320014810602 L385.8079212484589,388.7565088280612 M385.8079212484589,388.7565088280612 L379.3799009057208,386.6857373253787 M379.3799009057208,386.6857373253787 L373.7660782621981,383.89998261605103 M373.7660782621981,383.89998261605103 L369.18250820841615,380.50704087796964 M369.18250820841615,380.50704087796964 L365.80493374547143,376.6381284785573 M365.80493374547143,376.6381284785573 L363.7625266920701,372.4425837664627 M363.7625266920701,372.4425837664627 L363.1325410370857,368.08211243925234 M363.1325410370857,368.08211243925234 L363.937895288459,363.72441592945415 M363.937895288459,363.72441592945415 L366.14634651791675,359.5367955383505 M366.14634651791675,359.5367955383505 L369.67179996894936,355.67974869437865 M369.67179996894936,355.67974869437865 L374.37809052329453,352.3008295968059 M374.37809052329453,352.3008295968059 L380.08410842220877,349.5290733749838 M380.08410842220877,349.5290733749838 L386.5708869662931,347.47020364583796 M386.5708869662931,347.47020364583796 L393.58989932044506,346.20263546945523 M393.58989932044506,346.20263546945523 L400.8725044955105,345.7746944934962 M400.8725044955105,345.7746944934962 L408.14017030480136,346.20264748490945 M408.14017030480136,346.20264748490945 L415.1149726788568,347.47017961045503 M415.1149726788568,347.47017961045503 L421.5299533909228,349.52908539631005 M421.5299533909228,349.52908539631005 L427.1393615509629,352.3008295968059 M655.7854737187662,454.97251323994135 L730.9624932701244,462.1399101068283 M655.7854737187662,454.97251323994135 L655.8244074419767,397.99248740374344 M636.3472856363483,491.07429104741107 L627.8390710189267,501.1519867641106 M627.8390710189267,501.1519867641106 L695.9293513727417,522.1136417471806 M695.9293513727417,522.1136417471806 L684.9045553157739,533.5111348351328 M684.9045553157739,533.5111348351328 L672.6653310219036,544.4697850574483 M672.6653310219036,544.4697850574483 L659.2613221776769,554.9415715351676 M659.2613221776769,554.9415715351676 L644.7475463343281,564.8804087739956 M644.7475463343281,564.8804087739956 L590.6437451912,532.0571049342403 M590.6437451912,532.0571049342403 L577.3287636904461,540.1013186680362 M577.3287636904461,540.1013186680362 L631.4324895642816,572.962944182564 M560.5238842565886,604.238105195839 L579.4888075677269,597.4684313062784 M579.4888075677269,597.4684313062784 L597.6795212419051,589.9764264263605 M597.6795212419051,589.9764264263605 L615.0185462151259,581.7957273219564 M615.0185462151259,581.7957273219564 L631.4324895642816,572.962944182564 M560.5238842565886,604.238105195839 L525.952792030998,562.6686567707749 M525.952792030998,562.6686567707749 L509.1341123732175,567.8552070108882 M509.1341123732175,567.8552070108882 L543.6676804017125,609.4559093807687 M460.0845339569834,625.9674273588131 L481.5992636900012,623.078612314274 M481.5992636900012,623.078612314274 L502.76231992383805,619.3518464166708 M502.76231992383805,619.3518464166708 L523.4816757013112,614.804097064872 M523.4816757013112,614.804097064872 L543.6676804017125,609.4559093807687 M460.0845339569834,625.9674273588131 L448.66948627223763,579.7580646340326 M448.66948627223763,579.7580646340326 L430.0295412019286,581.5492556003845 M430.0295412019286,581.5492556003845 L441.3839053555947,627.7705182951721 M353.60630330171796,627.7705182951721 L375.48020523190337,629.0692515245429 M375.48020523190337,629.0692515245429 L397.4650992296995,629.502863491154 M397.4650992296995,629.502863491154 L419.46497278426824,629.0692764053853 M419.46497278426824,629.0692764053853 L441.3839053555947,627.7705182951721 M353.60630330171796,627.7705182951721 L366.5617778070599,581.5492803113667 M366.5617778070599,581.5492803113667 L347.9839627160976,579.7580893386238 M347.9839627160976,579.7580893386238 L334.9680953436265,625.9674024890763 M251.95696491881017,609.4559093807687 L271.95766153937933,614.8041218946624 M271.95766153937933,614.8041218946624 L292.51956024583086,619.3518712627309 M292.51956024583086,619.3518712627309 L313.5534773581767,623.0786123142735 M313.5534773581767,623.0786123142735 L334.9680953436265,625.9674024890763 M251.95696491881017,609.4559093807687 L287.9316235500089,567.8552070108882 M287.9316235500089,567.8552070108882 L271.29265253237907,562.6686321271198 M271.29265253237907,562.6686321271198 L235.28151110297887,604.238105195839 M165.45630915308377,572.962944182564 L181.56427591884636,581.7957273219564 M181.56427591884636,581.7957273219564 L198.6199546429969,589.9764016852977 M198.6199546429969,589.9764016852977 L216.5510961743884,597.4684313062786 M216.5510961743884,597.4684313062786 L235.28151110297887,604.238105195839 M165.45630915308377,572.962944182564 L220.69839512712852,540.1013186680362 M220.69839512712852,540.1013186680362 L207.6620733642522,532.0571049342403 M207.6620733642522,532.0571049342403 L152.42123962266936,564.8804087739956 M102.72091885157408,522.1136417471804 L113.35091396490907,533.5111471050631 M113.35091396490907,533.5111471050631 L125.2105411560699,544.4697604786026 M125.2105411560699,544.4697604786026 L138.2517353492119,554.941559227104 M138.2517353492119,554.941559227104 L152.42123962266936,564.8804087739956 M102.72091885157408,522.1136417471804 L171.53737349712472,501.1519623391837 M171.53737349712472,501.1519623391837 L163.3782192368865,491.07429104741107 M163.3782192368865,491.07429104741107 L94.59979480698144,512.0052755381698 M69.76530830301829,462.1398979634678 L73.9243514090636,474.93882470192364 M73.9243514090636,474.93882470192364 L79.46386331674842,487.55185777910754 M79.46386331674842,487.55185777910754 L86.3641806838557,499.9250976701877 M86.3641806838557,499.9250976701877 L94.59979480698144,512.0052755381698 M69.76530830301829,462.1398979634678 L145.1906334225905,454.97251323994135 M145.1906334225905,454.97251323994135 L142.67009051417688,443.87700047241935 M142.67009051417688,443.87700047241935 L67.30454659424447,451.0327485596979 M69.4666320745896,399.07295823692243 L66.83156406087187,411.998848257639 M66.83156406087187,411.998848257639 L65.5877352962338,425.0035782813802 M65.5877352962338,425.0035782813802 L65.74429616401756,438.0330384809022 M65.74429616401756,438.0330384809022 L67.30454659424447,451.0327485596979 M69.4666320745896,399.07295823692243 L144.03227245874996,406.1820509188349 M144.03227245874996,406.1820509188349 L147.33914615673393,395.1651892426978 M147.33914615673393,395.1651892426978 L72.8317478925253,388.06759180829476 M101.42049918744283,339.0935273788019 L92.33727754455776,350.8930156431153 M92.33727754455776,350.8930156431153 L84.52188620193965,363.02148254762517 M84.52188620193965,363.02148254762517 L78.00984886141907,375.4298701640921 M78.00984886141907,375.4298701640921 L72.8317478925253,388.06759180829476 M101.42049918744283,339.0935273788019 L167.91629884245617,359.56432888515985 M167.91629884245617,359.56432888515985 L176.67024965605566,349.6927498723602 M176.67024965605566,349.6927498723602 L110.20941443984162,329.25157780193194 M162.14657967000915,287.9271618752339 L147.56282174069145,297.4856026959857 M147.56282174069145,297.4856026959857 L134.00771837628633,307.5861267511592 M134.00771837628633,307.5861267511592 L121.53877201556276,318.18882159200905 M121.53877201556276,318.18882159200905 L110.20941443984162,329.25157780193194 M162.14657967000915,287.9271618752339 L214.2899975888347,319.59813175800537 M214.2899975888347,319.59813175800537 L227.60059348803,311.80870420225244 M227.60059348803,311.80870420225244 L175.45599091213086,280.17399281803364 M245.55969604537339,250.3413570670674 L226.9108578868508,256.77626085114116 M226.9108578868508,256.77626085114116 L208.96209822531083,263.91222899890124 M208.96209822531083,263.91222899890124 L191.78690878861158,271.721601239767 M191.78690878861158,271.721601239767 L175.45599091213086,280.17399281803364 M245.55969604537339,250.3413570670674 L278.52421007445275,290.0519171347221 M278.52421007445275,290.0519171347221 L295.09003006520334,285.0715024895334 M295.09003006520334,285.0715024895334 L262.0890788531178,245.39006210844752 M343.61428282562093,229.77019536740363 L322.6809581297947,232.49769365192708 M322.6809581297947,232.49769365192708 L302.06062977635634,236.0196780642475 M302.06062977635634,236.0196780642475 L281.83617010457465,240.32264592487115 M281.83617010457465,240.32264592487115 L262.0890788531178,245.39006210844752 M343.61428282562093,229.77019536740363 L354.39828359314834,273.6695914058263 M354.39828359314834,273.6695914058263 L372.6334657260212,271.95718074869774 M372.6334657260212,271.95718074869774 L361.7917187054964,228.06886824979472 M447.0445512753813,228.06887411622643 L425.7952300189885,226.843992210294 M425.7952300189885,226.843992210294 L404.4464563697194,226.43516505553805 M404.4464563697194,226.43516505553805 L383.083451070848,226.84399807566092 M383.083451070848,226.84399807566092 L361.7917187054964,228.06886824979472 M447.0445512753813,228.06887411622643 L434.68249820768517,271.9571925579919 M434.68249820768517,271.9571925579919 L452.858320946533,273.66960321810757 M452.858320946533,273.66960321810757 L465.1630517625758,229.7701777636711 M546.1471873240107,245.39005622694822 L526.5756068198397,240.32263417069305 M526.5756068198397,240.32263417069305 L506.50021609329474,236.0196839375932 M506.50021609329474,236.0196839375932 L486.00191254323477,232.49771126277471 M486.00191254323477,232.49771126277471 L465.1630517625758,229.7701777636711 M546.1471873240107,245.39005622694822 L511.7716207336937,285.0715024895336 M511.7716207336937,285.0715024895336 L528.1649241021324,290.0519112142832 M528.1649241021324,290.0519112142832 L562.5050323244348,250.34136295287715 M631.5753145983979,280.17399281803364 L615.5371563936785,271.721601239767 M615.5371563936785,271.721601239767 L598.6325313083265,263.91222899890124 M598.6325313083265,263.91222899890124 L580.9310085521802,256.77626085114116 M580.9310085521802,256.77626085114116 L562.5050323244348,250.34136295287715 M631.5753145983979,280.17399281803364 L578.3348734664143,311.8086923233428 M578.3348734664143,311.8086923233428 L591.3756356798941,319.5981198654647 M591.3756356798941,319.5981198654647 L644.6161481859848,287.927161875234 M695.1217836989338,329.2515837566541 L684.1756811061031,318.18880970193504 M684.1756811061031,318.18880970193504 L672.0740029599214,307.5861267511592 M672.0740029599214,307.5861267511592 L658.8687721119846,297.4856145498511 M658.8687721119846,297.4856145498511 L644.6161481859848,287.927161875234 M695.1217836989338,329.2515837566541 L627.9528654706145,349.6927438997212 M627.9528654706145,349.6927438997212 L636.3648447541082,359.56432888515985 M636.3648447541082,359.56432888515985 L703.5697837358956,339.0935214154566 M730.4619834325193,388.0675617765587 L725.7216862854249,375.4298761593278 M725.7216862854249,375.4298761593278 L719.6395282797079,363.021512469306 M719.6395282797079,363.021512469306 L712.2442491540778,350.8930156431153 M712.2442491540778,350.8930156431153 L703.5697837358956,339.0935214154566 M730.4619834325193,388.0675617765587 L655.7087675694099,395.1652253182508 M655.7087675694099,395.1652253182508 L658.6339858759054,406.1820509188349 M658.6339858759054,406.1820509188349 L733.4458824625644,399.07296425295453 M733.8080379990332,451.0327485596979 L735.8185915573582,438.03305058166006 M735.8185915573582,438.03305058166006 L736.4265462241815,425.0035662036179 M736.4265462241815,425.0035662036179 L735.633144157728,411.9988301753897 M735.633144157728,411.9988301753897 L733.4458824625644,399.07296425295453 M733.8080379990332,451.0327485596979 L658.6903562763518,443.87696413918377 M658.6903562763518,443.87696413918377 L655.7854737187662,454.97251323994135 M427.6036119772093,409.1912813896738 L422.00644644906316,406.41408171799367 M422.00644644906316,406.41408171799367 L415.60550033602135,404.35112189204347 M415.60550033602135,404.35112189204347 L408.6459884978232,403.0810932798364 M408.6459884978232,403.0810932798364 L401.39428636651576,402.65229728985946 M401.39428636651576,402.65229728985946 L394.12771044898733,403.0810812407145 M394.12771044898733,403.0810812407145 L387.1241827984152,404.35114597476104 M387.1241827984152,404.35114597476104 L380.6517542512936,406.4140696730011 M380.6517542512936,406.4140696730011 L374.95840355610255,409.1912813896738 M374.95840355610255,409.1912813896738 L370.26261195871746,412.57684766425757 M370.26261195871746,412.57684766425757 L366.74508469496067,416.44147776554416 M366.74508469496067,416.44147776554416 L364.5416791894052,420.63732589619383 M364.5416791894052,420.63732589619383 L363.73829116169514,425.0035782813802 M363.73829116169514,425.0035782813802 L364.3670822195515,429.37260478047403 M364.3670822195515,429.37260478047403 L366.405173973558,433.576375272395 M366.405173973558,433.576375272395 L369.7754730173672,437.4528680079093 M369.7754730173672,437.4528680079093 L374.3490840141916,440.85245352870504 M374.3490840141916,440.85245352870504 L379.95064513867635,443.6436602912179 M379.95064513867635,443.6436602912179 L386.36457392063136,445.7184829125905 M386.36457392063136,445.7184829125905 L393.3437559616027,446.9964701633427 M393.3437559616027,446.9964701633427 L400.61872746499785,447.4280524338018 M400.61872746499785,447.4280524338018 L407.90864941679456,446.9964701633427 M407.90864941679456,446.9964701633427 L414.93210223476046,445.7184829125905 M414.93210223476046,445.7184829125905 L421.4179049806538,443.6436602912179 M421.4179049806538,443.6436602912179 L427.1161563436806,440.85245352870504 M427.1161563436806,440.85245352870504 L431.8075324374388,437.4528680079093 M431.8075324374388,437.4528680079093 L435.3120968313044,433.57638736528486 M435.3120968313044,433.57638736528486 L437.49585205347444,429.3725926950033 M437.49585205347444,429.3725926950033 L438.27599062169224,425.0035662036179 M438.27599062169224,425.0035662036179 L437.6238337312868,420.63732589619383 M437.6238337312868,420.63732589619383 L435.56579694039266,416.4414657028808 M435.56579694039266,416.4414657028808 L432.1821038495392,412.57685972010916 M432.1821038495392,412.57685972010916 L427.6036119772093,409.1912813896738 M627.8390710189267,501.1519867641106 L627.8161097274709,444.0822908698284 M627.9528654706145,349.6927438997212 L627.9304070770368,292.91971264857193 M636.3648447541082,359.56432888515985 L636.3608478151878,302.7717372243246 M695.2465735674579,272.5191560578579 L695.1217836989338,329.2515837566541 M703.713193082543,282.34152728088804 L703.5697837358956,339.0935214154566 M644.6302016491845,231.27723004105417 L644.6161481859848,287.927161875234 M730.665105330932,331.2186673067978 L730.4619834325193,388.0675617765587 M591.3756356798941,319.5981198654647 L591.273117552988,262.8849141777242 M655.7087675694099,395.1652253182508 L655.7473623098407,338.30235138883427 M578.3348734664143,311.8086923233428 L578.2038694731293,255.11101882714388 M658.6339858759054,406.1820509188349 L658.6790593722415,349.297510505776 M631.5608817257454,223.53959982848335 L631.5753145983979,280.17399281803364 M733.655741894123,342.2024006134046 L733.4458824625644,399.07296425295453 M562.3401300073045,193.76694066797575 L562.5050323244348,250.34136295287715 M734.0194978804557,394.06040461800205 L733.8080379990332,451.0327485596979 M528.1649241021324,290.0519112142832 L527.924490382278,233.39772434915005 M658.6903562763518,443.87696413918377 L658.735678886221,386.91858557537137 M511.7716207336937,285.0715024895336 L511.495463226472,228.42729169727647 M545.9467155485296,188.8256149536212 L546.1471873240107,245.39005622694822 M464.78662021817934,173.23727525543325 L465.1630517625758,229.7701777636711 M452.858320946533,273.66960321810757 L452.4538046157737,217.04826119596498 M434.68249820768517,271.9571925579919 L434.2383653091073,215.33928872740796 M446.62875299963065,171.53941152313882 L447.0445512753813,228.06887411622643 M696.0577102362033,465.0034694884142 L695.9293513727417,522.1136417471806 M361.19046474112986,171.53940566857 L361.7917187054964,228.06886824979472 M644.7621805341614,507.68809355832445 L644.7475463343281,564.8804087739956 M372.6334657260212,271.95718074869774 L372.0539138946432,215.33927694182796 M590.6437451912,532.0571049342403 L590.5379924855528,474.9277815664435 M354.39828359314834,273.6695914058263 L353.77885588387994,217.0482494073973 M577.3287636904461,540.1013186680362 L577.1933131689572,482.95652542386244 M342.9734054232629,173.23729282357692 L343.61428282562093,229.77019536740363 M631.4174254442914,515.7551708045976 L631.4324895642816,572.962944182564 M261.2698833737108,188.82562082325944 L262.0890788531178,245.39006210844752 M560.350225347126,546.9707148914957 L560.5238842565886,604.238105195839 M295.09003006520334,285.0715024895334 L294.3405167258186,228.42729169727647 M525.952792030998,562.6686567707749 L525.7025814455695,505.48057527953256 M278.52421007445275,290.0519171347221 L277.7382182146624,233.39773025773468 M509.1341123732175,567.8552070108882 L508.8462978948944,510.6571999337773 M244.7041829264005,193.76693479402593 L245.55969604537339,250.3413570670674 M543.4562492013246,552.1786034964038 L543.6676804017125,609.4559093807687 M174.44549485808187,223.53959982848335 L175.45599091213086,280.17399281803364 M459.6856546656287,568.6588017684202 L460.0845339569834,625.9674273588131 M227.60059348803,311.80870420225244 L226.70187153752508,255.11103068235195 M448.66948627223763,579.7580646340326 L448.24645615887084,522.5373115890674 M214.2899975888347,319.59813175800537 L213.36160686757097,262.88492604656597 M430.0295412019286,581.5492556003845 L429.56484327995076,524.325083594821 M161.10642263443788,231.27723004105405 L162.14657967000915,287.9271618752339 M440.9430861036143,570.4584778428215 L441.3839053555947,627.7705182951721 M109.05224873852171,272.5191501149835 L110.20941443984162,329.25157780193194 M352.96886844686446,570.4584778428215 L353.60630330171796,627.7705182951721 M176.67024965605566,349.6927498723602 L175.6572226097319,292.91971860936644 M366.5617778070599,581.5492803113667 L365.9553905116586,524.3251082586429 M167.91629884245617,359.56432888515985 L166.8833069092977,302.7717372243246 M347.9839627160976,579.7580893386238 L347.33618512738076,522.5373362464958 M100.24321741191511,282.3415332323873 L101.42049918744283,339.0935273788019 M334.28900055033097,568.6587769457909 L334.9680953436265,625.9674024890763 M71.58728996407729,331.21869727934984 L72.8317478925253,388.06759180829476 M251.09298550043218,552.1786034964038 L251.95696491881017,609.4559093807687 M147.33914615673393,395.1651892426978 L146.2581316115996,338.3023153842937 M287.9316235500089,567.8552070108882 L287.15047226811396,510.6571999337772 M144.03227245874996,406.1820509188349 L142.9430955904711,349.297510505776 M271.29265253237907,562.6686321271198 L270.4746996000806,505.4805506830594 M68.21375576879313,342.2023946092072 L69.4666320745896,399.07295823692243 M234.38056881040606,546.9707148914957 L235.28151110297887,604.238105195839 M66.0421155057187,394.06040461800205 L67.30454659424447,451.0327485596979 M164.4016172581119,515.7551708045975 L165.45630915308377,572.962944182564 M142.67009051417688,443.87700047241935 L141.57489390064939,386.9186218376567 M220.69839512712852,540.1013186680362 L219.7691687767277,482.95652542386244 M145.1906334225905,454.97251323994135 L144.10012413143207,397.99248740374344 M207.6620733642522,532.0571049342403 L206.7043906784371,474.9277815664434 M68.50729898931905,405.14590971026973 L69.76530830301829,462.1398979634678 M151.3380997801888,507.68809355832445 L152.42123962266936,564.8804087739956 M93.39236967085498,454.91460459989787 L94.59979480698144,512.0052755381698 M101.53065818909431,465.0034694884142 L102.72091885157408,522.1136417471804 M163.3782192368865,491.07429104741107 L162.3251720785402,434.024105221867 M171.53737349712472,501.1519623391837 L170.50166239124485,444.0822664921478 M427.6036119772093,409.1912813896738 L427.1393615509629,352.3008295968059" stroke="black"  stroke-width="4"  fill="red"/></svg>