<svg viewBox="0 0 800 800" xmlns="http://www.w3.org/2000/svg"><path d="M657.0853398504129,179.88999179624318 L657.0853398504129,147.46560454765677 M89.513743272964,507.57760586461904 L88.25810498905571,474.484932946801 M657.0853398504129,179.88999179624318 L89.513743272964,507.57760586461904 M657.0853398504129,147.46560454765677 L88.25810498905571,474.484932946801 M657.0853398504129,179.88999179624318 L657.0853398504129,407.2588669420845 M657.0853398504129,374.36446624470943 L657.0853398504129,407.2588669420845 M657.0853398504129,147.46560454765677 L657.0853398504129,374.36446624470943 M315.7326972884935,431.6061636530703 L89.513743272964,507.57760586461904 M314.98473657428724,398.6631300480583 L88.25810498905571,474.484932946801 M314.98473657428724,398.6631300480583 L315.7326972884935,431.6061636530703 M657.0853398504129,407.2588669420845 L656.39538625755,407.66906191154794 M315.7326972884935,431.6061636530703 L324.8526301816554,424.9738504640194 M324.8526301816554,424.9738504640194 L334.59581415671187,418.6805207751902 M334.59581415671187,418.6805207751902 L344.92685933891323,412.7472638986426 M344.92685933891323,412.7472638986426 L355.8085134104742,407.193904890789 M355.8085134104742,407.193904890789 L367.20188658221804,402.03889065002363 M367.20188658221804,402.03889065002363 L379.0665359518276,397.2992909664489 M379.0665359518276,397.2992909664489 L391.36061635671797,392.9907300186976 M391.36061635671797,392.9907300186976 L404.041041602666,389.1273545439251 M404.041041602666,389.1273545439251 L417.06358881725214,385.72179705563826 M417.06358881725214,385.72179705563826 L430.38300220495216,382.7851952736496 M430.38300220495216,382.7851952736496 L443.9532051393241,380.32711027242294 M443.9532051393241,380.32711027242294 L457.72743120145435,378.355507237796 M457.72743120145435,378.355507237796 L471.6582699207129,376.8767948718872 M471.6582699207129,376.8767948718872 L485.69790268457433,375.8957561573892 M485.69790268457433,375.8957561573892 L499.7981841240676,375.41557841124427 M499.7981841240676,375.41557841124427 L513.9108449441275,375.4377881286806 M513.9108449441275,375.4377881286806 L527.9875296062797,375.9623325083652 M527.9875296062797,375.9623325083652 L541.980015102313,376.9875179734689 M541.980015102313,376.9875179734689 L555.8403248954214,378.5100203571973 M555.8403248954214,378.5100203571973 L569.5208436428255,380.5249191142964 M569.5208436428255,380.5249191142964 L582.9745382121388,383.0256533371131 M582.9745382121388,383.0256533371131 L596.154891241494,386.0041316773081 M596.154891241494,386.0041316773081 L609.0163466960049,389.45062097458003 M609.0163466960049,389.45062097458003 L621.5141457606532,393.3538985504358 M621.5141457606532,393.3538985504358 L633.6046641245683,397.701149245141 M633.6046641245683,397.701149245141 L645.2454524138316,402.4781202359169 M645.2454524138316,402.4781202359169 L656.39538625755,407.66906191154794 M657.0853398504129,374.36446624470943 L656.3938790476776,374.77383914377253 M314.98473657428724,398.6631300480583 L324.1252656673793,392.04403213792864 M324.1252656673793,392.04403213792864 L333.8903451319638,385.76326481516355 M333.8903451319638,385.76326481516355 L344.2445053864032,379.8418716428055 M344.2445053864032,379.8418716428055 L355.1504112727477,374.29963439219864 M355.1504112727477,374.29963439219864 L366.5690875189191,369.1549594305734 M366.5690875189191,369.1549594305734 L378.4600032578918,364.4248788295506 M378.4600032578918,364.4248788295506 L390.78122318146313,360.1249820578719 M390.78122318146313,360.1249820578719 L403.4895690782428,356.26938427104767 M403.4895690782428,356.26938427104767 L416.54072436265426,352.8706896552477 M416.54072436265426,352.8706896552477 L429.8893379914713,349.9400108657934 M429.8893379914713,349.9400108657934 L443.4892369520268,347.48688738341036 M443.4892369520268,347.48688738341036 L457.2935575077174,345.51926634769893 M457.2935575077174,345.51926634769893 L471.25479095087036,344.0435419145166 M471.25479095087036,344.0435419145166 L485.32501993981725,343.06448618609227 M485.32501993981725,343.06448618609227 L499.45599996543,342.58527922369524 M499.45599996543,342.58527922369524 L513.5993625286291,342.60744403653996 M513.5993625286291,342.60744403653996 L527.7066528025672,343.13092794857755 M527.7066528025672,343.13092794857755 L541.7295487858671,344.15404124356223 M541.7295487858671,344.15404124356223 L555.6199753925696,345.67346732292754 M555.6199753925696,345.67346732292754 L569.3302193268191,347.6842968344156 M569.3302193268191,347.6842968344156 L582.8131504881338,350.1799837566846 M582.8131504881338,350.1799837566846 L596.0221552951854,353.15245507252394 M596.0221552951854,353.15245507252394 L608.911583131362,356.5919995897285 M608.911583131362,356.5919995897285 L621.4365818003884,360.48741988947586 M621.4365818003884,360.48741988947586 L633.5534354774903,364.8259295272653 M633.5534354774903,364.8259295272653 L645.2196051676036,369.5933074912864 M645.2196051676036,369.5933074912864 L656.3938790476776,374.77383914377253 M656.3938790476776,374.77383914377253 L656.39538625755,407.66906191154794 M711.6190639209873,651.6888730650007 L707.8432276578654,652.3213072634308 M707.8432276578654,652.3213072634308 L703.941566906721,652.5343954523432 M703.941566906721,652.5343954523432 L700.037469534119,652.3213218731389 M700.037469534119,652.3213218731389 L696.2543305412297,651.6888876724321 M696.2543305412297,651.6888876724321 L711.6190639209873,651.6888730650007 M696.3425542946914,618.321147805736 L696.2543305412297,651.6888876724321 M696.3425542946914,618.321147805736 L700.13422194017,618.9524002314266 M700.13422194017,618.9524002314266 L704.0471163179787,619.165075708399 M704.0471163179787,619.165075708399 L707.9575630307268,618.952385649016 M707.9575630307268,618.952385649016 L711.7418950109443,618.3211332256029 M711.7418950109443,618.3211332256029 L711.6190639209873,651.6888730650007 M696.3425542946914,618.321147805736 L711.7418950109443,618.3211332256029" stroke="black"  stroke-width="4"  fill="red"/></svg>