<svg viewBox="0 0 800 800" xmlns="http://www.w3.org/2000/svg"><path d="M597.2185741680053,534.2221690534218 L597.1219501990033,482.39832062840424 M585.1096344560872,541.5719373589789 L584.9858755554613,489.7341074503589 M597.2185741680053,534.2221690534218 L585.1096344560872,541.5719373589789 M597.1219501990033,482.39832062840424 L584.9858755554613,489.7341074503589 M646.5124413198871,579.04208928456 L646.5260329597936,527.1332783025671 M585.1096344560872,541.5719373589789 L646.5124413198871,579.04208928456 M584.9858755554613,489.7341074503589 L646.5260329597936,527.1332783025671 M658.6214459523169,571.64840729192 L658.6621729605304,519.753562906022 M646.5124413198871,579.04208928456 L658.6214459523169,571.64840729192 M646.5260329597936,527.1332783025671 L658.6621729605304,519.753562906022 M658.6214459523169,571.64840729192 L597.2185741680053,534.2221690534218 M658.6621729605304,519.753562906022 L597.1219501990033,482.39832062840424" stroke="black"  stroke-width="4"  fill="red"/>
<path d="M645.0427863809841,491.5527070674775 L645.053010051216,439.81040821213514 M637.3132376150754,500.75246895760597 L637.3062401827007,448.99253285660495 M645.0427863809841,491.5527070674775 L637.3132376150754,500.75246895760597 M645.053010051216,439.81040821213514 L637.3062401827007,448.99253285660495 M714.5522533376784,524.6280147949585 L714.7177321727725,472.8224462481703 M637.3132376150754,500.75246895760597 L714.5522533376784,524.6280147949585 M637.3062401827007,448.99253285660495 L714.7177321727725,472.8224462481703 M722.239693667101,515.3931134393674 L722.4222052420026,463.60517118663915 M714.5522533376784,524.6280147949585 L722.239693667101,515.3931134393674 M714.7177321727725,472.8224462481703 L722.4222052420026,463.60517118663915 M722.239693667101,515.3931134393674 L645.0427863809841,491.5527070674775 M722.4222052420026,463.60517118663915 L645.053010051216,439.81040821213514" stroke="black"  stroke-width="4"  fill="red"/>
<path d="M668.5972825398896,442.3729383706285 L668.6597218801422,390.72543437560023 M665.9658691147383,452.49168281752816 L666.0225167035369,400.8246045189902 M668.5972825398896,442.3729383706285 L665.9658691147383,452.49168281752816 M668.6597218801422,390.72543437560023 L666.0225167035369,400.8246045189902 M751.1724056382965,460.6450847944029 L751.4184000285875,408.9622605462571 M665.9658691147383,452.49168281752816 L751.1724056382965,460.6450847944029 M666.0225167035369,400.8246045189902 L751.4184000285875,408.9622605462571 M753.7363815904898,450.51312990875954 L753.9878677123738,398.8498761786602 M751.1724056382965,460.6450847944029 L753.7363815904898,450.51312990875954 M751.4184000285875,408.9622605462571 L753.9878677123738,398.8498761786602 M753.7363815904898,450.51312990875954 L668.5972825398896,442.3729383706285 M753.9878677123738,398.8498761786602 L668.6597218801422,390.72543437560023" stroke="black"  stroke-width="4"  fill="red"/>
<path d="M665.8412594914662,391.5937205639593 L665.897354477034,340.0449965132707 M668.5052412301384,401.6301143158398 L668.5672723984162,350.06179396623884 M665.8412594914662,391.5937205639593 L668.5052412301384,401.6301143158398 M665.897354477034,340.0449965132707 L668.5672723984162,350.06179396623884 M753.2187918020177,393.55361421083694 L753.4679825829296,342.001060607715 M668.5052412301384,401.6301143158398 L753.2187918020177,393.55361421083694 M668.5672723984162,350.06179396623884 L753.4679825829296,342.001060607715 M750.4880814582122,383.53028818552957 L750.7310410818727,331.9973341175822 M753.2187918020177,393.55361421083694 L750.4880814582122,383.53028818552957 M753.4679825829296,342.001060607715 L750.7310410818727,331.9973341175822 M750.4880814582122,383.53028818552957 L665.8412594914662,391.5937205639593 M750.7310410818727,331.9973341175822 L665.897354477034,340.0449965132707" stroke="black"  stroke-width="4"  fill="red"/>
<path d="M637.3525103937748,344.16942869866364 L637.3456871293079,292.71378601036326 M644.9919952676208,353.1535801873323 L645.0019936901052,301.68024260586174 M637.3525103937748,344.16942869866364 L644.9919952676208,353.1535801873323 M637.3456871293079,292.71378601036326 L645.0019936901052,301.68024260586174 M721.029237032406,329.92590775278836 L721.2063803576693,278.49837743808007 M644.9919952676208,353.1535801873323 L721.029237032406,329.92590775278836 M645.0019936901052,301.68024260586174 L721.2063803576693,278.49837743808007 M713.3489267930263,320.9754326057039 L713.5090689384076,269.56560469741567 M721.029237032406,329.92590775278836 L713.3489267930263,320.9754326057039 M721.2063803576693,278.49837743808007 L713.5090689384076,269.56560469741567 M713.3489267930263,320.9754326057039 L637.3525103937748,344.16942869866364 M713.5090689384076,269.56560469741567 L637.3456871293079,292.71378601036326" stroke="black"  stroke-width="4"  fill="red"/>
<path d="M586.1539014854418,304.6211906005998 L586.0347739642361,253.24378194437986 M597.9851156335833,311.7044231534803 L597.8918912798763,260.31296163187517 M586.1539014854418,304.6211906005998 L597.9851156335833,311.7044231534803 M586.0347739642361,253.24378194437986 L597.8918912798763,260.31296163187517 M658.1944338812139,275.8057662536595 L658.2332669719221,224.48571014282493 M597.9851156335833,311.7044231534803 L658.1944338812139,275.8057662536595 M597.8918912798763,260.31296163187517 L658.2332669719221,224.48571014282493 M646.3631585673219,268.76371472032736 L646.3760880872297,217.45771957375246 M658.1944338812139,275.8057662536595 L646.3631585673219,268.76371472032736 M658.2332669719221,224.48571014282493 L646.3760880872297,217.45771957375246 M646.3631585673219,268.76371472032736 L586.1539014854418,304.6211906005998 M646.3760880872297,217.45771957375246 L586.0347739642361,253.24378194437986" stroke="black"  stroke-width="4"  fill="red"/>
<path d="M517.3304834659289,276.64156767623297 L517.0609769924342,225.3198438789459 M532.1956811316492,281.16771571278355 L531.9586261867496,229.83696514091184 M517.3304834659289,276.64156767623297 L532.1956811316492,281.16771571278355 M517.0609769924342,225.3198438789459 L531.9586261867496,229.83696514091184 M571.0446846759041,236.19021330549754 L570.8932562065677,184.94948745243494 M532.1956811316492,281.16771571278355 L571.0446846759041,236.19021330549754 M531.9586261867496,229.83696514091184 L570.8932562065677,184.94948745243494 M556.2196082201583,231.6971183131817 L556.0359031613823,180.46542511488678 M571.0446846759041,236.19021330549754 L556.2196082201583,231.6971183131817 M570.8932562065677,184.94948745243494 L556.0359031613823,180.46542511488678 M556.2196082201583,231.6971183131817 L517.3304834659289,276.64156767623297 M556.0359031613823,180.46542511488678 L517.0609769924342,225.3198438789459" stroke="black"  stroke-width="4"  fill="red"/>
<path d="M437.5071145430284,262.8004372015846 L437.0633810861653,211.50636279818434 M453.9872444289257,264.3561404271577 L453.57949245201553,213.05895491496506 M437.5071145430284,262.8004372015846 L453.9872444289257,264.3561404271577 M437.0633810861653,211.50636279818434 L453.57949245201553,213.05895491496506 M467.9686426261011,214.65391004244157 L467.59299425034425,163.4565447380403 M453.9872444289257,264.3561404271577 L467.9686426261011,214.65391004244157 M453.57949245201553,213.05895491496506 L467.59299425034425,163.4565447380403 M451.55347599038475,213.1107519423449 L451.1421294652617,161.91649991537167 M467.9686426261011,214.65391004244157 L451.55347599038475,213.1107519423449 M467.59299425034425,163.4565447380403 L451.1421294652617,161.91649991537167 M451.55347599038475,213.1107519423449 L437.5071145430284,262.8004372015846 M451.1421294652617,161.91649991537167 L437.0633810861653,211.50636279818434" stroke="black"  stroke-width="4"  fill="red"/>
<path d="M354.24316981050146,264.3561404271577 L353.6173030914944,213.05895491496506 M370.78314268381325,262.8004372015846 L370.1935195158601,211.50636279818434 M354.24316981050146,264.3561404271577 L370.78314268381325,262.8004372015846 M353.6173030914944,213.05895491496506 L370.1935195158601,211.50636279818434 M358.64938302679104,213.1107572633855 L358.03572865381835,161.91650522567556 M370.78314268381325,262.8004372015846 L358.64938302679104,213.1107572633855 M370.1935195158601,211.50636279818434 L358.03572865381835,161.91650522567556 M342.17482072125597,214.6538940752912 L341.5252092209879,163.45652880309876 M358.64938302679104,213.1107572633855 L342.17482072125597,214.6538940752912 M358.03572865381835,161.91650522567556 L341.5252092209879,163.45652880309876 M342.17482072125597,214.6538940752912 L354.24316981050146,264.3561404271577 M341.5252092209879,163.45652880309876 L353.6173030914944,213.05895491496506" stroke="black"  stroke-width="4"  fill="red"/>
<path d="M275.3876464051631,281.16771033235375 L274.588247608323,229.83695977120829 M290.42702835990576,276.64156767623297 L289.6608446832863,225.3198438789459 M275.3876464051631,281.16771033235375 L290.42702835990576,276.64156767623297 M274.588247608323,229.83695977120829 L289.6608446832863,225.3198438789459 M253.26787950999713,231.69711297595472 L252.42346227786277,180.46541978839355 M290.42702835990576,276.64156767623297 L253.26787950999713,231.69711297595472 M289.6608446832863,225.3198438789459 L252.42346227786277,180.46541978839355 M238.269835902606,236.1902346700722 L237.39238672477725,184.94950877407643 M253.26787950999713,231.69711297595472 L238.269835902606,236.1902346700722 M252.42346227786277,180.46541978839355 L237.39238672477725,184.94950877407643 M238.269835902606,236.1902346700722 L275.3876464051631,281.16771033235375 M237.39238672477725,184.94950877407643 L274.588247608323,229.83695977120829" stroke="black"  stroke-width="4"  fill="red"/>
<path d="M208.42288007563798,311.70443396784924 L207.4744912216655,260.3129724248024 M220.52672797228485,304.6212014025448 L219.60544022189765,253.24379272488068 M208.42288007563798,311.70443396784924 L220.52672797228485,304.6212014025448 M207.4744912216655,260.3129724248024 L219.60544022189765,253.24379272488068 M161.6976080584629,268.76371472032736 L160.6503169459258,217.45771957375223 M220.52672797228485,304.6212014025448 L161.6976080584629,268.76371472032736 M219.60544022189765,253.24379272488068 L160.6503169459258,217.45771957375223 M149.59528405467645,275.8057662536595 L148.52090187841407,224.48571014282493 M161.6976080584629,268.76371472032736 L149.59528405467645,275.8057662536595 M160.6503169459258,217.45771957375223 L148.52090187841407,224.48571014282493 M149.59528405467645,275.8057662536595 L208.42288007563798,311.70443396784924 M148.52090187841407,224.48571014282493 L207.4744912216655,260.3129724248024" stroke="black"  stroke-width="4"  fill="red"/>
<path d="M159.82054901436092,353.1535910745446 L158.761913378891,301.68025347164826 M167.8058429534329,344.1694450057678 L166.76555345845748,292.71380228532325 M159.82054901436092,353.1535910745446 L167.8058429534329,344.1694450057678 M158.761913378891,301.68025347164826 L166.76555345845748,292.71380228532325 M92.70219031751458,320.9754650976257 L91.49886589746586,269.5656371250226 M167.8058429534329,344.1694450057678 L92.70219031751458,320.9754650976257 M166.76555345845748,292.71380228532325 L91.49886589746586,269.5656371250226 M84.67740450550485,329.9259131759692 L83.45556311080793,278.4983828505432 M92.70219031751458,320.9754650976257 L84.67740450550485,329.9259131759692 M91.49886589746586,269.5656371250226 L83.45556311080793,278.4983828505432 M84.67740450550485,329.9259131759692 L159.82054901436092,353.1535910745446 M83.45556311080793,278.4983828505432 L158.761913378891,301.68025347164826" stroke="black"  stroke-width="4"  fill="red"/>
<path d="M134.44147750525764,401.630103343124 L133.3225645147113,350.06178301492764 M137.49177800509295,391.5937205639591 L136.38051084078666,340.0449965132706 M134.44147750525764,401.630103343124 L137.49177800509295,391.5937205639591 M133.3225645147113,350.06178301492764 L136.38051084078666,340.0449965132706 M53.15530885135195,383.5302827151535 L51.858549555056356,331.9973286579125 M137.49177800509295,391.5937205639591 L53.15530885135195,383.5302827151535 M136.38051084078666,340.0449965132706 L51.858549555056356,331.9973286579125 M50.03881820262109,393.5536196900605 L48.7341215214891,342.0010660762341 M53.15530885135195,383.5302827151535 L50.03881820262109,393.5536196900605 M51.858549555056356,331.9973286579125 L48.7341215214891,342.0010660762341 M50.03881820262109,393.5536196900605 L134.44147750525764,401.630103343124 M48.7341215214891,342.0010660762341 L133.3225645147113,350.06178301492764" stroke="black"  stroke-width="4"  fill="red"/>
<path d="M135.02320472180776,452.49168281752816 L133.90099023629284,400.8246045189902 M132.78124410958492,442.372927325791 L131.65496854733112,390.72542335214825 M135.02320472180776,452.49168281752816 L132.78124410958492,442.372927325791 M133.90099023629284,400.8246045189902 L131.65496854733112,390.72542335214825 M47.3288467830219,450.51312990875954 L46.01213228762617,398.8498761786602 M132.78124410958492,442.372927325791 L47.3288467830219,450.51312990875954 M131.65496854733112,390.72542335214825 L46.01213228762617,398.8498761786602 M49.50282371652611,460.64511802618017 L48.18986679567024,408.96229371390484 M47.3288467830219,450.51312990875954 L49.50282371652611,460.64511802618017 M46.01213228762617,398.8498761786602 L48.18986679567024,408.96229371390484 M49.50282371652611,460.64511802618017 L135.02320472180776,452.49168281752816 M48.18986679567024,408.96229371390484 L133.90099023629284,400.8246045189902" stroke="black"  stroke-width="4"  fill="red"/>
<path d="M161.81824008780995,500.7524912547876 L160.75139660056095,448.9925551110763 M154.44280999905766,491.55269593526873 L153.36032515772553,439.81039710128664 M161.81824008780995,500.7524912547876 L154.44280999905766,491.55269593526873 M160.75139660056095,448.9925551110763 L153.36032515772553,439.81039710128664 M76.32835867814157,515.3931022646808 L75.06949002973738,463.6051600332995 M154.44280999905766,491.55269593526873 L76.32835867814157,515.3931022646808 M153.36032515772553,439.81039710128664 L75.06949002973738,463.6051600332995 M83.6602738701095,524.6280036037956 L82.41684902782191,472.8224350783494 M76.32835867814157,515.3931022646808 L83.6602738701095,524.6280036037956 M75.06949002973738,463.6051600332995 L82.41684902782191,472.8224350783494 M83.6602738701095,524.6280036037956 L161.81824008780995,500.7524912547876 M82.41684902782191,472.8224350783494 L160.75139660056095,448.9925551110763" stroke="black"  stroke-width="4"  fill="red"/>
<path d="M212.45073878452655,541.5719373589786 L211.49363363614694,489.7341074503588 M200.62469178658802,534.2221690534218 L199.6417179684542,482.39832062840424 M212.45073878452655,541.5719373589786 L200.62469178658802,534.2221690534218 M211.49363363614694,489.7341074503588 L199.6417179684542,482.39832062840424 M137.78128342082613,571.64840729192 L136.6545028602518,519.753562906022 M200.62469178658802,534.2221690534218 L137.78128342082613,571.64840729192 M199.6417179684542,482.39832062840424 L136.6545028602518,519.753562906022 M149.60570510067237,579.04208928456 L148.50478226824836,527.1332783025671 M137.78128342082613,571.64840729192 L149.60570510067237,579.04208928456 M136.6545028602518,519.753562906022 L148.50478226824836,527.1332783025671 M149.60570510067237,579.04208928456 L212.45073878452655,541.5719373589786 M148.50478226824836,527.1332783025671 L211.49363363614694,489.7341074503588" stroke="black"  stroke-width="4"  fill="red"/>
<path d="M282.0519245837294,570.7719987595276 L281.2485950088254,518.878811189404 M266.9309950817229,566.0302310154725 L266.09408912896964,514.1460123053155 M282.0519245837294,570.7719987595276 L266.9309950817229,566.0302310154725 M281.2485950088254,518.878811189404 L266.09408912896964,514.1460123053155 M225.88567339572626,613.4666346131683 L224.95329216287521,561.4930518594863 M266.9309950817229,566.0302310154725 L225.88567339572626,613.4666346131683 M266.09408912896964,514.1460123053155 L224.95329216287521,561.4930518594863 M241.04814200036978,618.2442535410594 L240.14952132486735,566.2617147112901 M225.88567339572626,613.4666346131683 L241.04814200036978,618.2442535410594 M224.95329216287521,561.4930518594863 L240.14952132486735,566.2617147112901 M241.04814200036978,618.2442535410594 L282.0519245837294,570.7719987595276 M240.14952132486735,566.2617147112901 L281.2485950088254,518.878811189404" stroke="black"  stroke-width="4"  fill="red"/>
<path d="M363.700052853081,585.3165566708208 L363.079013327108,533.39590852177 M346.80101107025337,583.6784881399908 L346.14213553026167,531.760928957663 M363.700052853081,585.3165566708208 L346.80101107025337,583.6784881399908 M363.079013327108,533.39590852177 L346.14213553026167,531.760928957663 M331.88867355096335,636.431685288502 L331.19343349453,584.4151267229668 M346.80101107025337,583.6784881399908 L331.88867355096335,636.431685288502 M346.14213553026167,531.760928957663 L331.19343349453,584.4151267229668 M348.8565312642898,638.0835000846284 L348.1994363273646,586.0638576112424 M331.88867355096335,636.431685288502 L348.8565312642898,638.0835000846284 M331.19343349453,584.4151267229668 L348.1994363273646,586.0638576112424 M348.8565312642898,638.0835000846284 L363.700052853081,585.3165566708208 M348.1994363273646,586.0638576112424 L363.079013327108,533.39590852177" stroke="black"  stroke-width="4"  fill="red"/>
<path d="M449.13868027515593,583.6784881399908 L448.7094230614226,531.760928957663 M432.17658920518,585.3165566708208 L431.7092127101078,533.39590852177 M449.13868027515593,583.6784881399908 L432.17658920518,585.3165566708208 M448.7094230614226,531.760928957663 L431.7092127101078,533.39590852177 M444.9891101950193,638.0835000846284 L444.5486444825451,586.0638576112424 M432.17658920518,585.3165566708208 L444.9891101950193,638.0835000846284 M431.7092127101078,533.39590852177 L444.5486444825451,586.0638576112424 M462.02050945594675,636.4316625053095 L461.6184756252129,584.4151039823169 M444.9891101950193,638.0835000846284 L462.02050945594675,636.4316625053095 M444.5486444825451,586.0638576112424 L461.6184756252129,584.4151039823169 M462.02050945594675,636.4316625053095 L449.13868027515593,583.6784881399908 M461.6184756252129,584.4151039823169 L448.7094230614226,531.760928957663" stroke="black"  stroke-width="4"  fill="red"/>
<path d="M529.6879041009095,566.0302310154725 L529.4397266623314,514.1460123053155 M514.3845005816911,570.7720213068687 L514.1019279152771,518.878833694117 M529.6879041009095,566.0302310154725 L514.3845005816911,570.7720213068687 M529.4397266623314,514.1460123053155 L514.1019279152771,518.878833694117 M553.5611493596336,618.2442762587991 L553.3656521517094,566.2617373864628 M514.3845005816911,570.7720213068687 L553.5611493596336,618.2442762587991 M514.1019279152771,518.878833694117 L553.3656521517094,566.2617373864628 M568.9074344413498,613.4666573137299 L568.7465258693474,561.4930745174743 M553.5611493596336,618.2442762587991 L568.9074344413498,613.4666573137299 M553.3656521517094,566.2617373864628 L568.7465258693474,561.4930745174743 M568.9074344413498,613.4666573137299 L529.6879041009095,566.0302310154725 M568.7465258693474,561.4930745174743 L529.4397266623314,514.1460123053155" stroke="black"  stroke-width="4"  fill="red"/>
<path d="M425.2686597751479,407.5555736705053 L424.7926084735732,355.9757005291133 M376.8390821377757,436.41422816260274 L376.25453242298806,384.778268078937 M425.2686597751479,407.5555736705053 L429.4212921079609,410.64145225799666 M429.4212921079609,410.64145225799666 L432.4878083451928,414.1639602795532 M432.4878083451928,414.1639602795532 L434.3496117170626,417.9884074632116 M434.3496117170626,417.9884074632116 L434.9341195284539,421.96816155780016 M434.9341195284539,421.96816155780016 L434.21763547061914,425.950464053087 M434.21763547061914,425.950464053087 L432.22650747927844,429.78216855607 M432.22650747927844,429.78216855607 L429.0362399306592,433.3155378100929 M429.0362399306592,433.3155378100929 L424.768813216964,436.41422816260274 M424.768813216964,436.41422816260274 L419.58790447495494,438.9583909797328 M419.58790447495494,438.9583909797328 L413.69292714416275,440.84957767528556 M413.69292714416275,440.84957767528556 L407.31102106365915,442.0144553474148 M407.31102106365915,442.0144553474148 L400.68860056079177,442.40784015519716 M400.68860056079177,442.40784015519716 L394.0813214462355,442.0144553474148 M394.0813214462355,442.0144553474148 L387.7442515282371,440.84957767528556 M387.7442515282371,440.84957767528556 L381.9220660072961,438.9583909797328 M381.9220660072961,438.9583909797328 L376.8390821377757,436.41422816260274 M424.7926084735732,355.9757005291133 L428.9543114524049,359.05556756100975 M428.9543114524049,359.05556756100975 L432.0274826938405,362.57121757256186 M432.0274826938405,362.57121757256186 L433.89326645556173,366.38822389123777 M433.89326645556173,366.38822389123777 L434.4789224915703,370.3602404748275 M434.4789224915703,370.3602404748275 L433.7607049407678,374.33480613968254 M433.7607049407678,374.33480613968254 L431.76502304992107,378.1590717158085 M431.76502304992107,378.1590717158085 L428.5675517025393,381.6855858604416 M428.5675517025393,381.6855858604416 L424.29054526850143,384.778268078937 M424.29054526850143,384.778268078937 L419.0980478384375,387.3175005019093 M419.0980478384375,387.3175005019093 L413.1899194805788,389.2050237121873 M413.1899194805788,389.2050237121873 L406.7938083243373,390.3676454908847 M406.7938083243373,390.3676454908847 L400.1566794854879,390.7602685815224 M400.1566794854879,390.7602685815224 L393.53475929133305,390.3676454908847 M393.53475929133305,390.3676454908847 L387.183683442408,389.2050237121873 M387.183683442408,389.2050237121873 L381.3486701675449,387.3175005019093 M381.3486701675449,387.3175005019093 L376.25453242298806,384.778268078937 M376.8390821377757,436.41422816260274 L372.6909240713577,433.3155378100929 M372.6909240713577,433.3155378100929 L369.6366559687354,429.78216855607 M369.6366559687354,429.78216855607 L367.79301035247823,425.950464053087 M367.79301035247823,425.950464053087 L367.22980518915335,421.96816155780016 M367.22980518915335,421.96816155780016 L367.967493807066,417.9884074632116 M367.967493807066,417.9884074632116 L369.9765002196683,414.1639602795532 M369.9765002196683,414.1639602795532 L373.17859785386474,410.64145225799666 M373.17859785386474,410.64145225799666 L377.4500057088893,407.5555736705053 M377.4500057088893,407.5555736705053 L382.62644023910593,405.02422252745134 M382.62644023910593,405.02422252745134 L388.5091694540623,403.14389722641454 M388.5091694540623,403.14389722641454 L394.87291775562915,401.9862769480055 M394.87291775562915,401.9862769480055 L401.47403555586357,401.595440629987 M401.47403555586357,401.595440629987 L408.06011005920357,401.9862769480055 M408.06011005920357,401.9862769480055 L414.37930153547984,403.1438972264144 M414.37930153547984,403.1438972264144 L420.189656995855,405.02422252745134 M420.189656995855,405.02422252745134 L425.2686597751479,407.5555736705053 M376.25453242298806,384.778268078937 L372.09732410102254,381.6855858604416 M372.09732410102254,381.6855858604416 L369.03645577550844,378.1590717158083 M369.03645577550844,378.1590717158083 L367.18891060344356,374.33480613968254 M367.18891060344356,374.33480613968254 L366.62465179437964,370.3602404748275 M366.62465179437964,370.3602404748275 L367.3641678309366,366.38822389123777 M367.3641678309366,366.38822389123777 L369.37780711690493,362.57121757256186 M369.37780711690493,362.57121757256186 L372.58716054724187,359.05556756100975 M372.58716054724187,359.05556756100975 L376.86816522918696,355.9757005291133 M376.86816522918696,355.9757005291133 L382.0561680574674,353.4492832018317 M382.0561680574674,353.4492832018317 L387.9519935183495,351.5726242868685 M387.9519935183495,351.5726242868685 L394.3298660614038,350.41726184017796 M394.3298660614038,350.41726184017796 L400.9455976182597,350.0271879199528 M400.9455976182597,350.0271879199528 L407.54621927506435,350.41726184017796 M407.54621927506435,350.41726184017796 L413.87933770822497,351.5726242868685 M413.87933770822497,351.5726242868685 L419.7024689253624,353.4492832018317 M419.7024689253624,353.4492832018317 L424.7926084735732,355.9757005291133" stroke="black"  stroke-width="4"  fill="red"/>
<path d="M707.0733850393532,458.88467807280813 L706.9251047678661,510.6635815148775 M734.4941896422661,407.3495050869715 L730.8505096628058,417.9470139848461 M730.8505096628058,417.9470139848461 L726.2746477859334,428.42908650662935 M726.2746477859334,428.42908650662935 L720.7771962385079,438.76578719439203 M720.7771962385079,438.76578719439203 L714.3714102234942,448.9274388681197 M714.3714102234942,448.9274388681197 L707.0733850393532,458.88467807280813 M734.4941896422661,407.3495050869715 L734.285740666839,459.0292106166453 M706.9251047678661,510.6635815148775 L714.2070175017527,500.6872500411105 M714.2070175017527,500.6872500411105 L720.5987025883499,490.50607760688274 M720.5987025883499,490.50607760688274 L726.0840958744634,480.1494820089812 M726.0840958744634,480.1494820089812 L730.6499665851327,469.6471957719717 M730.6499665851327,469.6471957719717 L734.285740666839,459.0292106166453 M706.9251047678661,510.6635815148775 L645.0427863809841,491.5527070674775 M645.0427863809841,491.5527070674775 L645.053010051216,439.81040821213514 M707.0733850393532,458.88467807280813 L645.053010051216,439.81040821213514 M637.3456871293079,292.71378601036326 L645.0019936901052,301.68024260586174 M645.0019936901052,301.68024260586174 L706.1345439143522,283.0833172429641 M706.1345439143522,283.0833172429641 L713.4454243345144,292.7772586815281 M713.4454243345144,292.7772586815281 L719.8996859336502,302.7019938011208 M719.8996859336502,302.7019938011208 L725.4774392302954,312.83080108414697 M725.4774392302954,312.83080108414697 L730.1612174692832,323.1363204061432 M730.1612174692832,323.1363204061432 L733.935857702505,333.59058389583936 M733.935857702505,333.59058389583936 L665.897354477034,340.0449965132707 M665.897354477034,340.0449965132707 L668.5672723984162,350.06179396623884 M668.5672723984162,350.06179396623884 L736.6595810638369,343.59691500001486 M736.6595810638369,343.59691500001486 L738.6302245566447,354.2584240288112 M738.6302245566447,354.2584240288112 L739.6613425000651,364.9833069633403 M739.6613425000651,364.9833069633403 L739.7475499434377,375.74184627319084 M739.7475499434377,375.74184627319084 L738.8861426108901,386.5040292712881 M738.8861426108901,386.5040292712881 L737.0771329222714,397.23972255827016 M737.0771329222714,397.23972255827016 L668.6597218801422,390.72543437560023 M668.6597218801422,390.72543437560023 L666.0225167035369,400.8246045189902 M666.0225167035369,400.8246045189902 L734.4941896422661,407.3495050869715 M645.053010051216,439.81040821213514 L637.3062401827007,448.99253285660495 M637.3062401827007,448.99253285660495 L699.3604960941236,468.0949342973473 M699.3604960941236,468.0949342973473 L690.3814658340993,477.572028894111 M690.3814658340993,477.572028894111 L680.5726502226452,486.7613241987125 M680.5726502226452,486.7613241987125 L669.9603414452852,495.6358006112489 M669.9603414452852,495.6358006112489 L658.5734137178563,504.16927873315103 M658.5734137178563,504.16927873315103 L646.4430400376995,512.3364842821187 M646.4430400376995,512.3364842821187 L597.1219501990033,482.39832062840424 M597.1219501990033,482.39832062840424 L584.9858755554613,489.7341074503589 M584.9858755554613,489.7341074503589 L634.3068958350077,519.7074669905496 M634.3068958350077,519.7074669905496 L620.8276362718841,527.0930095268807 M620.8276362718841,527.0930095268807 L606.7101768505565,534.0438655018386 M606.7101768505565,534.0438655018386 L591.9944005214954,540.5391763710452 M591.9944005214954,540.5391763710452 L576.7221619154255,546.559296254414 M576.7221619154255,546.559296254414 L560.9370161926856,552.0861064196479 M560.9370161926856,552.0861064196479 L529.4397266623314,514.1460123053155 M529.4397266623314,514.1460123053155 L514.1019279152771,518.878833694117 M514.1019279152771,518.878833694117 L545.5647287273571,556.8476601373009 M545.5647287273571,556.8476601373009 L528.9126775213865,561.3674372270266 M528.9126775213865,561.3674372270266 L511.8855434949399,565.3489011635984 M511.8855434949399,565.3489011635984 L494.5326816156027,568.7799110363594 M494.5326816156027,568.7799110363594 L476.90463625245,571.6499642309516 M476.90463625245,571.6499642309516 L459.05285144315314,573.9502323223326 M459.05285144315314,573.9502323223326 L448.7094230614226,531.760928957663 M448.7094230614226,531.760928957663 L431.7092127101078,533.39590852177 M431.7092127101078,533.39590852177 L441.99686342064786,575.5962482911377 M441.99686342064786,575.5962482911377 L423.8594166062784,576.7689506120271 M423.8594166062784,576.7689506120271 L405.6533596861218,577.3562014356235 M405.6533596861218,577.3562014356235 L387.4319840579168,577.3561787204458 M387.4319840579168,577.3561787204458 L369.2486749151713,576.7689278989676 M369.2486749151713,576.7689278989676 L351.15672730548215,575.5962709999674 M351.15672730548215,575.5962709999674 L363.079013327108,533.39590852177 M363.079013327108,533.39590852177 L346.14213553026167,531.760928957663 M346.14213553026167,531.760928957663 L334.1644248928193,573.9502550252253 M334.1644248928193,573.9502550252253 L316.4017443920616,571.6499415363542 M316.4017443920616,571.6499415363542 L298.88487219357796,568.7799337206095 M298.88487219357796,568.7799337206095 L281.6649503983989,565.3489465073642 M281.6649503983989,565.3489465073642 L264.792005770986,561.3674598845623 M264.792005770986,561.3674598845623 L248.31510832228838,556.8476374960464 M248.31510832228838,556.8476374960464 L281.2485950088254,518.878811189404 M281.2485950088254,518.878811189404 L266.09408912896964,514.1460123053155 M266.09408912896964,514.1460123053155 L233.127188621712,552.0861290437563 M233.127188621712,552.0861290437563 L217.55616572485312,546.5593414628443 M217.55616572485312,546.5593414628443 L202.5171239531569,540.5391763710452 M202.5171239531569,540.5391763710452 L188.0529499305986,534.0438655018386 M188.0529499305986,534.0438655018386 L174.20470090032626,527.093032061098 M174.20470090032626,527.093032061098 L161.0115655567636,519.7074669905496 M161.0115655567636,519.7074669905496 L211.49363363614694,489.7341074503588 M211.49363363614694,489.7341074503588 L199.6417179684542,482.39832062840424 M199.6417179684542,482.39832062840424 L149.16094367747996,512.3364842821187 M149.16094367747996,512.3364842821187 L137.34689689829906,504.1693011850771 M137.34689689829906,504.1693011850771 L126.29054178291426,495.6357894005831 M126.29054178291426,495.6357894005831 L116.02201267567705,486.7613241987124 M116.02201267567705,486.7613241987124 L106.56913363443863,477.57206242906625 M106.56913363443863,477.57206242906625 L97.95720802198167,468.0949677814458 M97.95720802198167,468.0949677814458 L160.75139660056095,448.9925551110763 M160.75139660056095,448.9925551110763 L153.36032515772553,439.81039710128664 M153.36032515772553,439.81039710128664 L90.60114523587993,458.8846557830009 M90.60114523587993,458.8846557830009 L83.68872998049477,448.92744999523916 M83.68872998049477,448.92744999523916 L77.67660146244236,438.7658205213469 M77.67660146244236,438.7658205213469 L72.57955226770684,428.4291197782886 M72.57955226770684,428.4291197782886 L68.40974376980256,417.9470139848461 M68.40974376980256,417.9470139848461 L65.17653106583197,407.3495271929969 M65.17653106583197,407.3495271929969 L133.90099023629284,400.8246045189902 M133.90099023629284,400.8246045189902 L131.65496854733112,390.72542335214825 M131.65496854733112,390.72542335214825 L62.98523797465282,397.23972255827016 M62.98523797465282,397.23972255827016 L61.59206819705969,386.5040182553363 M61.59206819705969,386.5040182553363 L61.14756250614721,375.74184627319084 M61.14756250614721,375.74184627319084 L61.65049280195598,364.9833398966075 M61.65049280195598,364.9833398966075 L63.09703197268561,354.258445946302 M63.09703197268561,354.258445946302 L65.48073471444474,343.5968931202875 M65.48073471444474,343.5968931202875 L133.3225645147113,350.06178301492764 M133.3225645147113,350.06178301492764 L136.38051084078666,340.0449965132706 M136.38051084078666,340.0449965132706 L68.59200794459707,333.59057297368236 M68.59200794459707,333.59057297368236 L72.77157584674387,323.13633676165307 M72.77157584674387,323.13633676165307 L77.85458606923771,312.83079564141303 M77.85458606923771,312.83079564141303 L83.82473500725882,302.7019720659421 M83.82473500725882,302.7019720659421 L90.66340367333157,292.777258681528 M90.66340367333157,292.777258681528 L98.34980622302032,283.0833280759658 M98.34980622302032,283.0833280759658 L158.761913378891,301.68025347164826 M158.761913378891,301.68025347164826 L166.76555345845748,292.71380228532325 M166.76555345845748,292.71380228532325 L106.38528079091861,274.1439210652592 M106.38528079091861,274.1439210652592 L115.65404009834185,264.9728005703179 M115.65404009834185,264.9728005703179 L125.69679561910766,256.10654334514356 M125.69679561910766,256.10654334514356 L136.4847275326129,247.56848564208246 M136.4847275326129,247.56848564208246 L147.98700032738782,239.38109864733315 M147.98700032738782,239.38109864733315 L160.1711338599717,231.5657865469757 M160.1711338599717,231.5657865469757 L207.4744912216655,260.3129724248024 M207.4744912216655,260.3129724248024 L219.60544022189765,253.24379272488068 M219.60544022189765,253.24379272488068 L172.30086776838982,224.52966584094895 M172.30086776838982,224.52966584094895 L185.71289213177948,217.4960247728037 M185.71289213177948,217.4960247728037 L199.7017452420647,210.89128726701472 M199.7017452420647,210.89128726701472 L214.22899433045419,204.73246275873078 M214.22899433045419,204.73246275873078 L229.25488576102182,199.03539680804147 M229.25488576102182,199.03539680804147 L244.73852679355224,193.81468775344 M244.73852679355224,193.81468775344 L274.588247608323,229.83695977120829 M274.588247608323,229.83695977120829 L289.6608446832863,225.3198438789459 M289.6608446832863,225.3198438789459 L259.77778125877785,189.32410273198764 M259.77778125877785,189.32410273198764 L276.03127140475914,185.06770643912682 M276.03127140475914,185.06770643912682 L292.6163274251662,181.3232319292939 M292.6163274251662,181.3232319292939 L309.48838801079546,178.1002231720487 M309.48838801079546,178.1002231720487 L326.6023646310191,175.40682831499953 M326.6023646310191,175.40682831499953 L343.9126045145898,173.24984811404556 M343.9126045145898,173.24984811404556 L353.6173030914944,213.05895491496506 M353.6173030914944,213.05895491496506 L370.1935195158601,211.50636279818434 M370.1935195158601,211.50636279818434 L360.43613242074576,171.7073258217573 M360.43613242074576,171.7073258217573 L377.9958666826917,170.60889162112426 M377.9958666826917,170.60889162112426 L395.615190952745,170.05897242377432 M395.615190952745,170.05897242377432 L413.247269751555,170.0589617889592 M413.247269751555,170.0589617889592 L430.8452563260972,170.6088809853494 M430.8452563260972,170.6088809853494 L448.36245947508695,171.7073258217573 M448.36245947508695,171.7073258217573 L437.0633810861653,211.50636279818434 M437.0633810861653,211.50636279818434 L453.57949245201553,213.05895491496506 M453.57949245201553,213.05895491496506 L464.8262180858419,173.24985875443076 M464.8262180858419,173.24985875443076 L482.05291429114754,175.40683363707512 M482.05291429114754,175.40683363707512 L499.06257749196516,178.10023914533087 M499.06257749196516,178.10023914533087 L515.8098007283642,181.32324258377866 M515.8098007283642,181.32324258377866 L532.2497749666467,185.0676957780994 M532.2497749666467,185.0676957780994 L548.3384254327038,189.32409206352088 M548.3384254327038,189.32409206352088 L517.0609769924342,225.3198438789459 M517.0609769924342,225.3198438789459 L531.9586261867496,229.83696514091184 M531.9586261867496,229.83696514091184 L563.203723438538,193.814703767918 M563.203723438538,193.814703767918 L578.4851351534646,199.03541283621712 M578.4851351534646,199.03541283621712 L593.2903361422949,204.73246275873078 M593.2903361422949,204.73246275873078 L607.5789899703765,210.89128191391342 M607.5789899703765,210.89128191391342 L621.312029111512,217.4960247728037 M621.312029111512,217.4960247728037 L634.4516074607743,224.52966047589894 M634.4516074607743,224.52966047589894 L586.0347739642361,253.24378194437986 M586.0347739642361,253.24378194437986 L597.8918912798763,260.31296163187517 M597.8918912798763,260.31296163187517 L646.3087902574572,231.5657811757559 M646.3087902574572,231.5657811757559 L658.1901808807162,239.38109864733315 M658.1901808807162,239.38109864733315 L669.3752980745354,247.56849102734736 M669.3752980745354,247.56849102734736 L679.8325089056489,256.10654334514356 M679.8325089056489,256.10654334514356 L689.5318484908541,264.97282757312337 M689.5318484908541,264.97282757312337 L698.445318969232,274.14392647388934 M698.445318969232,274.14392647388934 L637.3456871293079,292.71378601036326 M424.7926084735732,355.9757005291133 L428.9543114524049,359.05556756100975 M428.9543114524049,359.05556756100975 L432.0274826938405,362.57121757256186 M432.0274826938405,362.57121757256186 L433.89326645556173,366.38822389123777 M433.89326645556173,366.38822389123777 L434.4789224915703,370.3602404748275 M434.4789224915703,370.3602404748275 L433.7607049407678,374.33480613968254 M433.7607049407678,374.33480613968254 L431.76502304992107,378.1590717158085 M431.76502304992107,378.1590717158085 L428.5675517025393,381.6855858604416 M428.5675517025393,381.6855858604416 L424.29054526850143,384.778268078937 M424.29054526850143,384.778268078937 L419.0980478384375,387.3175005019093 M419.0980478384375,387.3175005019093 L413.1899194805788,389.2050237121873 M413.1899194805788,389.2050237121873 L406.7938083243373,390.3676454908847 M406.7938083243373,390.3676454908847 L400.1566794854879,390.7602685815224 M400.1566794854879,390.7602685815224 L393.53475929133305,390.3676454908847 M393.53475929133305,390.3676454908847 L387.183683442408,389.2050237121873 M387.183683442408,389.2050237121873 L381.3486701675449,387.3175005019093 M381.3486701675449,387.3175005019093 L376.25453242298806,384.778268078937 M376.25453242298806,384.778268078937 L372.09732410102254,381.6855858604416 M372.09732410102254,381.6855858604416 L369.03645577550844,378.1590717158083 M369.03645577550844,378.1590717158083 L367.18891060344356,374.33480613968254 M367.18891060344356,374.33480613968254 L366.62465179437964,370.3602404748275 M366.62465179437964,370.3602404748275 L367.3641678309366,366.38822389123777 M367.3641678309366,366.38822389123777 L369.37780711690493,362.57121757256186 M369.37780711690493,362.57121757256186 L372.58716054724187,359.05556756100975 M372.58716054724187,359.05556756100975 L376.86816522918696,355.9757005291133 M376.86816522918696,355.9757005291133 L382.0561680574674,353.4492832018317 M382.0561680574674,353.4492832018317 L387.9519935183495,351.5726242868685 M387.9519935183495,351.5726242868685 L394.3298660614038,350.41726184017796 M394.3298660614038,350.41726184017796 L400.9455976182597,350.0271879199528 M400.9455976182597,350.0271879199528 L407.54621927506435,350.41726184017796 M407.54621927506435,350.41726184017796 L413.87933770822497,351.5726242868685 M413.87933770822497,351.5726242868685 L419.7024689253624,353.4492832018317 M419.7024689253624,353.4492832018317 L424.7926084735732,355.9757005291133 M665.9658691147383,452.49168281752816 L734.285740666839,459.0292106166453 M665.9658691147383,452.49168281752816 L666.0225167035369,400.8246045189902 M645.0427863809841,491.5527070674775 L637.3132376150754,500.75246895760597 M637.3132376150754,500.75246895760597 L699.2292860918783,519.8914661664637 M699.2292860918783,519.8914661664637 L690.2701712699077,529.386668260656 M690.2701712699077,529.386668260656 L680.4831544926185,538.5934905141471 M680.4831544926185,538.5934905141471 L669.8944719602933,547.4848647588335 M669.8944719602933,547.4848647588335 L658.5329354976088,556.0345648662656 M658.5329354976088,556.0345648662656 L646.4296499055599,564.2172717417147 M646.4296499055599,564.2172717417147 L597.2185741680053,534.2221690534218 M597.2185741680053,534.2221690534218 L585.1096344560872,541.5719373589789 M585.1096344560872,541.5719373589789 L634.3206410993062,571.6022240757136 M561.1153161654952,604.0419980537945 L576.8650037238672,598.5047791706013 M576.8650037238672,598.5047791706013 L592.1029600667428,592.4733090866955 M592.1029600667428,592.4733090866955 L606.7857300420267,585.965737571529 M606.7857300420267,585.965737571529 L620.871554557353,579.0017443504007 M620.871554557353,579.0017443504007 L634.3206410993062,571.6022240757136 M561.1153161654952,604.0419980537945 L529.6879041009095,566.0302310154725 M529.6879041009095,566.0302310154725 L514.3845005816911,570.7720213068687 M514.3845005816911,570.7720213068687 L545.77757882895,608.8125105147064 M459.4603150848891,625.9471939183263 L477.2719339000497,623.6426130065863 M477.2719339000497,623.6426130065863 L494.86031547293106,620.7671760372816 M494.86031547293106,620.7671760372816 L512.1741364646701,617.3297262577319 M512.1741364646701,617.3297262577319 L529.1629708293513,613.3407839526474 M529.1629708293513,613.3407839526474 L545.77757882895,608.8125105147064 M459.4603150848891,625.9471939183263 L449.13868027515593,583.6784881399908 M449.13868027515593,583.6784881399908 L432.17658920518,585.3165566708208 M432.17658920518,585.3165566708208 L442.4426967030909,627.5962948755389 M351.8066340824221,627.5963176269229 L369.8579945199966,628.7711717466652 M369.8579945199966,628.7711717466652 L388.0004772873818,629.3595227220376 M388.0004772873818,629.3595227220376 L406.18091266148315,629.3595454797676 M406.18091266148315,629.3595454797676 L424.3460411029062,628.7711945022775 M424.3460411029062,628.7711945022775 L442.4426967030909,627.5962948755389 M351.8066340824221,627.5963176269229 L363.700052853081,585.3165566708208 M363.700052853081,585.3165566708208 L346.80101107025337,583.6784881399908 M346.80101107025337,583.6784881399908 L334.8524153426689,625.9472166637759 M249.19474132093535,608.8124878308727 L265.63498045717654,613.3408066527566 M265.63498045717654,613.3408066527566 L282.470316834404,617.3297716866346 M282.470316834404,617.3297716866346 L299.6517938879589,620.7671987640952 M299.6517938879589,620.7671987640952 L317.1295010263739,623.6425902694286 M317.1295010263739,623.6425902694286 L334.8524153426689,625.9472166637759 M249.19474132093535,608.8124878308727 L282.0519245837294,570.7719987595276 M282.0519245837294,570.7719987595276 L266.9309950817229,566.0302310154725 M266.9309950817229,566.0302310154725 L234.04054552821182,604.0420207204891 M162.08386586665736,571.6022240757136 L175.24810692036385,579.0017669272361 M175.24810692036385,579.0017669272361 L189.06592503171592,585.965737571529 M189.06592503171592,585.965737571529 L203.49821846259636,592.4733090866955 M203.49821846259636,592.4733090866955 L218.50402189866526,598.504824464218 M218.50402189866526,598.504824464218 L234.04054552821182,604.0420207204891 M162.08386586665736,571.6022240757136 L212.45073878452655,541.5719373589786 M212.45073878452655,541.5719373589786 L200.62469178658802,534.2221690534218 M200.62469178658802,534.2221690534218 L150.25910400826962,564.2172717417145 M99.16554901914009,519.8914997145956 L107.75919335008109,529.3867018596281 M107.75919335008109,529.3867018596281 L117.19185922050406,538.5934905141469 M117.19185922050406,538.5934905141469 L127.4382946104036,547.4848535268395 M127.4382946104036,547.4848535268395 L138.470733133782,556.034587360838 M138.470733133782,556.034587360838 L150.25910400826962,564.2172717417145 M99.16554901914009,519.8914997145956 L161.81824008780995,500.7524912547876 M161.81824008780995,500.7524912547876 L154.44280999905766,491.55269593526873 M154.44280999905766,491.55269593526873 L91.82496940747222,510.66355918237105 M66.45166595440202,459.0292327654255 L69.67879124992453,469.6471957719717 M69.67879124992453,469.6471957719717 L73.84040891537063,480.1495153447396 M73.84040891537063,480.1495153447396 L78.92717664818394,490.5061109979197 M78.92717664818394,490.5061109979197 L84.92695245830816,500.68726118958523 M84.92695245830816,500.68726118958523 L91.82496940747222,510.66355918237105 M66.45166595440202,459.0292327654255 L135.02320472180776,452.49168281752816 M135.02320472180776,452.49168281752816 L132.78124410958492,442.372927325791 M132.78124410958492,442.372927325791 L64.26419068957443,448.89985678061896 M66.74866966731406,395.1525700066454 L64.3713193353264,405.8349657263627 M64.3713193353264,405.8349657263627 L62.9290779435899,416.58078539614473 M62.9290779435899,416.58078539614473 L62.42836816073134,427.3602417563601 M62.42836816073134,427.3602417563601 L62.87300013081858,438.1433294563561 M62.87300013081858,438.1433294563561 L64.26419068957443,448.89985678061896 M66.74866966731406,395.1525700066454 L134.44147750525764,401.630103343124 M134.44147750525764,401.630103343124 L137.49177800509295,391.5937205639591 M137.49177800509295,391.5937205639591 L69.85206317290294,385.12665094799877 M99.539417762894,334.51993347693747 L91.8708313856473,344.2330267312742 M91.8708313856473,344.2330267312742 L85.048165062429,354.1773241594864 M85.048165062429,354.1773241594864 L79.09215259174658,364.3260982292213 M79.09215259174658,364.3260982292213 L74.02136515369745,374.6519002728802 M74.02136515369745,374.6519002728802 L69.85206317290294,385.12665094799877 M99.539417762894,334.51993347693747 L159.82054901436092,353.1535910745446 M159.82054901436092,353.1535910745446 L167.8058429534329,344.1694450057678 M167.8058429534329,344.1694450057678 L107.55640901121046,325.56282555665894 M161.22067724102394,282.89998997299654 L149.06385450562948,290.730897714701 M149.06385450562948,290.730897714701 L137.58746784980332,298.9345994114601 M137.58746784980332,298.9345994114601 L126.82392363929932,307.4896450550291 M126.82392363929932,307.4896450550291 L116.80398648129483,316.37351564303947 M116.80398648129483,316.37351564303947 L107.55640901121046,325.56282555665894 M161.22067724102394,282.89998997299654 L208.42288007563798,311.70443396784924 M208.42288007563798,311.70443396784924 L220.52672797228485,304.6212014025448 M220.52672797228485,304.6212014025448 L173.32331800121955,275.84980983877176 M245.60060822368504,245.07325042813022 L230.15108121649473,250.30445042465283 M230.15108121649473,250.30445042465283 L215.15837066138977,256.01295342964056 M215.15837066138977,256.01295342964056 L200.6632813717074,262.18412893391167 M200.6632813717074,262.18412893391167 L186.70548086989083,268.80209660480375 M186.70548086989083,268.80209660480375 L173.32331800121955,275.84980983877176 M245.60060822368504,245.07325042813022 L275.3876464051631,281.16771033235375 M275.3876464051631,281.16771033235375 L290.42702835990576,276.64156767623297 M290.42702835990576,276.64156767623297 L260.6067946330966,240.57363384217956 M344.55754490746784,224.4669912261229 L327.28507333032,226.62832289111714 M327.28507333032,226.62832289111714 L310.2084829182751,229.32714903257488 M310.2084829182751,229.32714903257488 L293.3733312870072,232.5566536420373 M293.3733312870072,232.5566536420373 L276.82461263723496,236.30867033417871 M276.82461263723496,236.30867033417871 L260.6067946330966,240.57363384217956 M344.55754490746784,224.4669912261229 L354.24316981050146,264.3561404271577 M354.24316981050146,264.3561404271577 L370.78314268381325,262.8004372015846 M370.78314268381325,262.8004372015846 L361.0450591408869,222.92135604900625 M448.7801806928429,222.92135604900625 L431.3010296437767,221.82069397897408 M431.3010296437767,221.82069397897408 L413.74128614696826,221.26966459724758 M413.74128614696826,221.26966459724758 L396.1475450754898,221.26967525353336 M396.1475450754898,221.26967525353336 L378.56655649606216,221.8207046362196 M378.56655649606216,221.8207046362196 L361.0450591408869,222.92135604900625 M448.7801806928429,222.92135604900625 L437.5071145430284,262.8004372015846 M437.5071145430284,262.8004372015846 L453.9872444289257,264.3561404271577 M453.9872444289257,264.3561404271577 L465.2081852753702,224.46700188797786 M548.5390267879441,240.5736231522476 L532.4853313336125,236.30865965168482 M532.4853313336125,236.30865965168482 L516.0810636454714,232.55666431798966 M516.0810636454714,232.55666431798966 L499.370206633996,229.3271650380599 M499.370206633996,229.3271650380599 L482.39747622642585,226.6283282239275 M482.39747622642585,226.6283282239275 L465.2081852753702,224.46700188797786 M548.5390267879441,240.5736231522476 L517.3304834659289,276.64156767623297 M517.3304834659289,276.64156767623297 L532.1956811316492,281.16771571278355 M532.1956811316492,281.16771571278355 L563.3720136983763,245.07326647480397 M634.4647137229023,275.8498044629946 L621.3538084364716,268.80209660480375 M621.3538084364716,268.80209660480375 L607.6507066015183,262.18412357008094 M607.6507066015183,262.18412357008094 L593.3931729952985,256.01295342964056 M593.3931729952985,256.01295342964056 L578.6201917475835,250.30446648502198 M578.6201917475835,250.30446648502198 L563.3720136983763,245.07326647480397 M634.4647137229023,275.8498044629946 L586.1539014854418,304.6211906005998 M586.1539014854418,304.6211906005998 L597.9851156335833,311.7044231534803 M597.9851156335833,311.7044231534803 L646.2959929232093,282.89998459105107 M698.3181497840875,325.56283097600704 L689.4243053212429,316.3735426994451 M689.4243053212429,316.3735426994451 L679.7462812329284,307.4896450550291 M679.7462812329284,307.4896450550291 L669.3120118544774,298.9346048074482 M669.3120118544774,298.9346048074482 L658.1513948524794,290.7308977147011 M658.1513948524794,290.7308977147011 L646.2959929232093,282.89998459105107 M698.3181497840875,325.56283097600704 L637.3525103937748,344.16942869866364 M637.3525103937748,344.16942869866364 L644.9919952676208,353.1535801873323 M644.9919952676208,353.1535801873323 L705.9904088994232,334.51992262250246 M733.7298738231087,385.1266618915681 L729.9637177088753,374.6518838852453 M729.9637177088753,374.6518838852453 L725.2904071262429,364.3261036826659 M725.2904071262429,364.3261036826659 L719.7250666687619,354.1773459375155 M719.7250666687619,354.1773459375155 L713.2851200664658,344.23302673127444 M713.2851200664658,344.23302673127444 L705.9904088994232,334.51992262250246 M733.7298738231087,385.1266618915681 L665.8412594914662,391.5937205639593 M665.8412594914662,391.5937205639593 L668.5052412301384,401.6301143158398 M668.5052412301384,401.6301143158398 L736.4474242662047,395.15259192918825 M736.8631325955911,448.89985678061896 L738.6683238848559,438.14334049369575 M738.6683238848559,438.14334049369575 L739.5280152932673,427.3602417563601 M739.5280152932673,427.3602417563601 L739.4421884618132,416.58075239868367 M739.4421884618132,416.58075239868367 L738.4135357284922,405.8349437660661 M738.4135357284922,405.8349437660661 L736.4474242662047,395.15259192918825 M736.8631325955911,448.89985678061896 L668.5972825398896,442.3729383706285 M668.5972825398896,442.3729383706285 L665.9658691147383,452.49168281752816 M425.2686597751479,407.5555736705053 L420.189656995855,405.02422252745134 M420.189656995855,405.02422252745134 L414.37930153547984,403.1438972264144 M414.37930153547984,403.1438972264144 L408.06011005920357,401.9862769480055 M408.06011005920357,401.9862769480055 L401.47403555586357,401.595440629987 M401.47403555586357,401.595440629987 L394.87291775562915,401.9862769480055 M394.87291775562915,401.9862769480055 L388.5091694540623,403.14389722641454 M388.5091694540623,403.14389722641454 L382.62644023910593,405.02422252745134 M382.62644023910593,405.02422252745134 L377.4500057088893,407.5555736705053 M377.4500057088893,407.5555736705053 L373.17859785386474,410.64145225799666 M373.17859785386474,410.64145225799666 L369.9765002196683,414.1639602795532 M369.9765002196683,414.1639602795532 L367.967493807066,417.9884074632116 M367.967493807066,417.9884074632116 L367.22980518915335,421.96816155780016 M367.22980518915335,421.96816155780016 L367.79301035247823,425.950464053087 M367.79301035247823,425.950464053087 L369.6366559687354,429.78216855607 M369.6366559687354,429.78216855607 L372.6909240713577,433.3155378100929 M372.6909240713577,433.3155378100929 L376.8390821377757,436.41422816260274 M376.8390821377757,436.41422816260274 L381.9220660072961,438.9583909797328 M381.9220660072961,438.9583909797328 L387.7442515282371,440.84957767528556 M387.7442515282371,440.84957767528556 L394.0813214462355,442.0144553474148 M394.0813214462355,442.0144553474148 L400.68860056079177,442.40784015519716 M400.68860056079177,442.40784015519716 L407.31102106365915,442.0144553474148 M407.31102106365915,442.0144553474148 L413.69292714416275,440.84957767528556 M413.69292714416275,440.84957767528556 L419.58790447495494,438.9583909797328 M419.58790447495494,438.9583909797328 L424.768813216964,436.41422816260274 M424.768813216964,436.41422816260274 L429.0362399306592,433.3155378100929 M429.0362399306592,433.3155378100929 L432.22650747927844,429.78216855607 M432.22650747927844,429.78216855607 L434.21763547061914,425.950464053087 M434.21763547061914,425.950464053087 L434.9341195284539,421.96816155780016 M434.9341195284539,421.96816155780016 L434.3496117170626,417.9884074632116 M434.3496117170626,417.9884074632116 L432.4878083451928,414.1639602795532 M432.4878083451928,414.1639602795532 L429.4212921079609,410.64145225799666 M429.4212921079609,410.64145225799666 L425.2686597751479,407.5555736705053 M637.3132376150754,500.75246895760597 L637.3062401827007,448.99253285660495 M637.3525103937748,344.16942869866364 L637.3456871293079,292.71378601036326 M644.9919952676208,353.1535801873323 L645.0019936901052,301.68024260586174 M698.445318969232,274.14392647388934 L698.3181497840875,325.56283097600704 M706.1345439143522,283.0833172429641 L705.9904088994232,334.51992262250246 M646.3087902574572,231.5657811757559 L646.2959929232093,282.89998459105107 M733.935857702505,333.59058389583936 L733.7298738231087,385.1266618915681 M597.9851156335833,311.7044231534803 L597.8918912798763,260.31296163187517 M665.8412594914662,391.5937205639593 L665.897354477034,340.0449965132707 M586.1539014854418,304.6211906005998 L586.0347739642361,253.24378194437986 M668.5052412301384,401.6301143158398 L668.5672723984162,350.06179396623884 M634.4516074607743,224.52966047589894 L634.4647137229023,275.8498044629946 M736.6595810638369,343.59691500001486 L736.4474242662047,395.15259192918825 M563.203723438538,193.814703767918 L563.3720136983763,245.07326647480397 M737.0771329222714,397.23972255827016 L736.8631325955911,448.89985678061896 M532.1956811316492,281.16771571278355 L531.9586261867496,229.83696514091184 M668.5972825398896,442.3729383706285 L668.6597218801422,390.72543437560023 M517.3304834659289,276.64156767623297 L517.0609769924342,225.3198438789459 M548.3384254327038,189.32409206352088 L548.5390267879441,240.5736231522476 M464.8262180858419,173.24985875443076 L465.2081852753702,224.46700188797786 M453.9872444289257,264.3561404271577 L453.57949245201553,213.05895491496506 M437.5071145430284,262.8004372015846 L437.0633810861653,211.50636279818434 M448.36245947508695,171.7073258217573 L448.7801806928429,222.92135604900625 M699.3604960941236,468.0949342973473 L699.2292860918783,519.8914661664637 M360.43613242074576,171.7073258217573 L361.0450591408869,222.92135604900625 M646.4430400376995,512.3364842821187 L646.4296499055599,564.2172717417147 M370.78314268381325,262.8004372015846 L370.1935195158601,211.50636279818434 M597.2185741680053,534.2221690534218 L597.1219501990033,482.39832062840424 M354.24316981050146,264.3561404271577 L353.6173030914944,213.05895491496506 M585.1096344560872,541.5719373589789 L584.9858755554613,489.7341074503589 M343.9126045145898,173.24984811404556 L344.55754490746784,224.4669912261229 M634.3068958350077,519.7074669905496 L634.3206410993062,571.6022240757136 M259.77778125877785,189.32410273198764 L260.6067946330966,240.57363384217956 M560.9370161926856,552.0861064196479 L561.1153161654952,604.0419980537945 M290.42702835990576,276.64156767623297 L289.6608446832863,225.3198438789459 M529.6879041009095,566.0302310154725 L529.4397266623314,514.1460123053155 M275.3876464051631,281.16771033235375 L274.588247608323,229.83695977120829 M514.3845005816911,570.7720213068687 L514.1019279152771,518.878833694117 M244.73852679355224,193.81468775344 L245.60060822368504,245.07325042813022 M545.5647287273571,556.8476601373009 L545.77757882895,608.8125105147064 M172.30086776838982,224.52966584094895 L173.32331800121955,275.84980983877176 M459.05285144315314,573.9502323223326 L459.4603150848891,625.9471939183263 M220.52672797228485,304.6212014025448 L219.60544022189765,253.24379272488068 M449.13868027515593,583.6784881399908 L448.7094230614226,531.760928957663 M208.42288007563798,311.70443396784924 L207.4744912216655,260.3129724248024 M432.17658920518,585.3165566708208 L431.7092127101078,533.39590852177 M160.1711338599717,231.5657865469757 L161.22067724102394,282.89998997299654 M441.99686342064786,575.5962482911377 L442.4426967030909,627.5962948755389 M106.38528079091861,274.1439210652592 L107.55640901121046,325.56282555665894 M351.15672730548215,575.5962709999674 L351.8066340824221,627.5963176269229 M167.8058429534329,344.1694450057678 L166.76555345845748,292.71380228532325 M363.700052853081,585.3165566708208 L363.079013327108,533.39590852177 M159.82054901436092,353.1535910745446 L158.761913378891,301.68025347164826 M346.80101107025337,583.6784881399908 L346.14213553026167,531.760928957663 M98.34980622302032,283.0833280759658 L99.539417762894,334.51993347693747 M334.1644248928193,573.9502550252253 L334.8524153426689,625.9472166637759 M68.59200794459707,333.59057297368236 L69.85206317290294,385.12665094799877 M248.31510832228838,556.8476374960464 L249.19474132093535,608.8124878308727 M137.49177800509295,391.5937205639591 L136.38051084078666,340.0449965132706 M282.0519245837294,570.7719987595276 L281.2485950088254,518.878811189404 M134.44147750525764,401.630103343124 L133.3225645147113,350.06178301492764 M266.9309950817229,566.0302310154725 L266.09408912896964,514.1460123053155 M65.48073471444474,343.5968931202875 L66.74866966731406,395.1525700066454 M233.127188621712,552.0861290437563 L234.04054552821182,604.0420207204891 M62.98523797465282,397.23972255827016 L64.26419068957443,448.89985678061896 M161.0115655567636,519.7074669905496 L162.08386586665736,571.6022240757136 M132.78124410958492,442.372927325791 L131.65496854733112,390.72542335214825 M212.45073878452655,541.5719373589786 L211.49363363614694,489.7341074503588 M135.02320472180776,452.49168281752816 L133.90099023629284,400.8246045189902 M200.62469178658802,534.2221690534218 L199.6417179684542,482.39832062840424 M65.17653106583197,407.3495271929969 L66.45166595440202,459.0292327654255 M149.16094367747996,512.3364842821187 L150.25910400826962,564.2172717417145 M90.60114523587993,458.8846557830009 L91.82496940747222,510.66355918237105 M97.95720802198167,468.0949677814458 L99.16554901914009,519.8914997145956 M154.44280999905766,491.55269593526873 L153.36032515772553,439.81039710128664 M161.81824008780995,500.7524912547876 L160.75139660056095,448.9925551110763 M425.2686597751479,407.5555736705053 L424.7926084735732,355.9757005291133" stroke="black"  stroke-width="4"  fill="red"/></svg>