<svg viewBox="0 0 800 800" xmlns="http://www.w3.org/2000/svg"><path d="M471.32362329956686,119.05886640096321 L471.32362329956686,86.67278537119768 M-95.57744335827817,446.3593498397561 L-96.83159822926962,413.3057726544322 M471.32362329956686,119.05886640096321 L-95.57744335827817,446.3593498397561 M471.32362329956686,86.67278537119768 L-96.83159822926962,413.3057726544322 M471.32362329956686,119.05886640096321 L471.32362329956686,346.15912762304356 M471.32362329956686,313.30358841906957 L471.32362329956686,346.15912762304356 M471.32362329956686,86.67278537119768 L471.32362329956686,313.30358841906957 M130.37425525200626,370.4776604018582 L-95.57744335827817,446.3593498397561 M129.62717817968866,337.57354574523606 L-96.83159822926962,413.3057726544322 M129.62717817968866,337.57354574523606 L130.37425525200626,370.4776604018582 M471.32362329956686,346.15912762304356 L470.634484818894,346.5688379875662 M130.37425525200626,370.4776604018582 L139.48341384302455,363.853182637371 M139.48341384302455,363.853182637371 L149.21508720619187,357.56728789749934 M149.21508720619187,357.56728789749934 L159.5339272764088,351.6410405793589 M159.5339272764088,351.6410405793589 L170.40272574583287,346.09424231801097 M170.40272574583287,346.09424231801097 L181.7826387697418,340.94531821865735 M181.7826387697418,340.94531821865735 L193.63327122512248,336.21131790512516 M193.63327122512248,336.21131790512516 L205.91282738532698,331.9078470976192 M205.91282738532698,331.9078470976192 L218.57827195822512,328.0490358203191 M218.57827195822512,328.0490358203191 L231.58543431636414,324.6475016626614 M231.58543431636414,324.6475016626614 L244.88911212948307,321.7143691863405 M244.88911212948307,321.7143691863405 L258.4432832061344,319.25918817035233 M258.4432832061344,319.25918817035233 L272.2012363773206,317.2899143904525 M272.2012363773206,317.2899143904525 L286.1156171832114,315.81294897750934 M286.1156171832114,315.81294897750934 L300.13866350426076,314.8330692635925 M300.13866350426076,314.8330692635925 L314.2222868505072,314.3534588001437 M314.2222868505072,314.3534588001437 L328.318274952302,314.37564227898713 M328.318274952302,314.37564227898713 L342.3783293984749,314.8995669611695 M342.3783293984749,314.8995669611695 L356.35428415154763,315.92354127065585 M356.35428415154763,315.92354127065585 L370.1982193542655,317.4442449678271 M370.1982193542655,317.4442449678271 L383.8625759166851,319.45676332056894 M383.8625759166851,319.45676332056894 L397.3003762714317,321.95454317229394 M397.3003762714317,321.95454317229394 L410.465158012318,324.9295027337938 M410.465158012318,324.9295027337938 L423.3114189244242,328.3719203435371 M423.3114189244242,328.3719203435371 L435.7944530708619,332.2705865815194 M435.7944530708619,332.2705865815194 L447.87068767858597,336.6127014278553 M447.87068767858597,336.6127014278553 L459.49772352343024,341.3840288980714 M459.49772352343024,341.3840288980714 L470.634484818894,346.5688379875662 M471.32362329956686,313.30358841906957 L470.63297938964166,313.7124776843872 M129.62717817968866,337.57354574523606 L138.75690863825628,330.96226764712014 M138.75690863825628,330.96226764712014 L148.510451623588,324.68892043211474 M148.510451623588,324.68892043211474 L158.85237945786258,318.77452280236605 M158.85237945786258,318.77452280236605 L169.74540109094062,313.2388331590048 M169.74540109094062,313.2388331590048 L181.15058729618767,308.1002361239515 M181.15058729618767,308.1002361239515 L193.0274550898041,303.37574364711304 M193.0274550898041,303.37574364711304 L205.3341187060222,299.0809267798095 M205.3341187060222,299.0809267798095 L218.027450944254,295.22988400188547 M218.027450944254,295.22988400188547 L231.06318757460255,291.83520460890736 M231.06318757460255,291.83520460890736 L244.39603113163068,288.90798812768844 M244.39603113163068,288.90798812768844 L257.9798631515364,286.45776276899824 M257.9798631515364,286.45776276899824 L271.7678752626041,284.4924662836745 M271.7678752626041,284.4924662836745 L285.71261488401774,283.01848527350967 M285.71261488401774,283.01848527350967 L299.7662212837272,282.04058620296405 M299.7662212837272,282.04058620296405 L313.88050694873834,281.5619453763777 M313.88050694873834,281.5619453763777 L328.00716052258764,281.5840840036799 M328.00716052258764,281.5840840036799 L342.09778442303167,282.1069494710532 M342.09778442303167,282.1069494710532 L356.10411373637663,283.12885405848544 M356.10411373637663,283.12885405848544 L369.9781301726407,284.6464850856439 M369.9781301726407,284.6464850856439 L383.6721768045262,286.6549390001875 M383.6721768045262,286.6549390001875 L397.1391792111214,289.14767751425313 M397.1391792111214,289.14767751425313 L410.33257888045165,292.1166371481048 M410.33257888045165,292.1166371481048 L423.20677912761073,295.5521181823541 M423.20677912761073,295.5521181823541 L435.716980744774,299.44293642682567 M435.716980744774,299.44293642682567 L447.81951955310706,303.77632054294327 M447.81951955310706,303.77632054294327 L459.471906813177,308.5380663196204 M459.471906813177,308.5380663196204 L470.63297938964166,313.7124776843872 M470.63297938964166,313.7124776843872 L470.634484818894,346.5688379875662" stroke="black"  stroke-width="4"  fill="red"/>
<path d="M443.61825637210774,527.5302374806483 L443.5563374951729,494.3203152836468 M435.8585673883221,532.2401392153045 L435.7792598188174,499.02125735983 M443.61825637210774,527.5302374806483 L435.8585673883221,532.2401392153045 M443.5563374951729,494.3203152836468 L435.7792598188174,499.02125735983 M475.2069079804869,556.2518802954529 L475.21561781809146,522.9875121243958 M435.8585673883221,532.2401392153045 L475.2069079804869,556.2518802954529 M435.7792598188174,499.02125735983 L475.21561781809146,522.9875121243958 M482.96663856683983,551.51383765317 L482.9927373768508,518.2584196003257 M475.2069079804869,556.2518802954529 L482.96663856683983,551.51383765317 M475.21561781809146,522.9875121243958 L482.9927373768508,518.2584196003257 M482.96663856683983,551.51383765317 L443.61825637210774,527.5302374806483 M482.9927373768508,518.2584196003257 L443.5563374951729,494.3203152836468" stroke="black"  stroke-width="4"  fill="red"/>
<path d="M474.26511906166456,500.18665810924347 L474.271670626307,467.0289947649984 M469.3118452131359,506.082078574672 L469.307361096425,472.9131128749689 M474.26511906166456,500.18665810924347 L469.3118452131359,506.082078574672 M474.271670626307,467.0289947649984 L469.307361096425,472.9131128749689 M518.8083951737586,521.3820812523321 L518.9144378434125,488.1838732246215 M469.3118452131359,506.082078574672 L518.8083951737586,521.3820812523321 M469.307361096425,472.9131128749689 L518.9144378434125,488.1838732246215 M523.7346849610485,515.4641426036825 L523.8516426048118,482.2772299133918 M518.8083951737586,521.3820812523321 L523.7346849610485,515.4641426036825 M518.9144378434125,488.1838732246215 L523.8516426048118,482.2772299133918 M523.7346849610485,515.4641426036825 L474.26511906166456,500.18665810924347 M523.8516426048118,482.2772299133918 L474.271670626307,467.0289947649984" stroke="black"  stroke-width="4"  fill="red"/>
<path d="M489.35938567057207,468.6711234331184 L489.3993982457636,435.57420683060286 M487.6731150099928,475.1554492025389 L487.70941609672826,442.04598893303637 M489.35938567057207,468.6711234331184 L487.6731150099928,475.1554492025389 M489.3993982457636,435.57420683060286 L487.70941609672826,442.04598893303637 M542.2754368101105,480.380338004162 L542.4330757120977,447.26078736550926 M487.6731150099928,475.1554492025389 L542.2754368101105,480.380338004162 M487.70941609672826,442.04598893303637 L542.4330757120977,447.26078736550926 M543.918491976315,473.88754667966987 L544.0796501070834,440.78053728219163 M542.2754368101105,480.380338004162 L543.918491976315,473.88754667966987 M542.4330757120977,447.26078736550926 L544.0796501070834,440.78053728219163 M543.918491976315,473.88754667966987 L489.35938567057207,468.6711234331184 M544.0796501070834,440.78053728219163 L489.3993982457636,435.57420683060286" stroke="black"  stroke-width="4"  fill="red"/>
<path d="M487.5932622777154,436.1306247277 L487.6292092435036,403.0970086010433 M489.30040346780936,442.5621782646915 L489.34015447694713,409.51600437588445 M487.5932622777154,436.1306247277 L489.30040346780936,442.5621782646915 M487.6292092435036,403.0970086010433 L489.34015447694713,409.51600437588445 M543.586808453622,437.38656996344184 L543.7464956767403,404.3504997709018 M489.30040346780936,442.5621782646915 L543.586808453622,437.38656996344184 M489.34015447694713,409.51600437588445 L543.7464956767403,404.3504997709018 M541.836906028071,430.9633905282583 L541.9926001813226,397.93988017174024 M543.586808453622,437.38656996344184 L541.836906028071,430.9633905282583 M543.7464956767403,404.3504997709018 L541.9926001813226,397.93988017174024 M541.836906028071,430.9633905282583 L487.5932622777154,436.1306247277 M541.9926001813226,397.93988017174024 L487.6292092435036,403.0970086010433" stroke="black"  stroke-width="4"  fill="red"/>
<path d="M469.3370121191975,405.7400402582135 L469.33263961331534,372.76607282413465 M474.23257094001104,411.4972925853242 L474.2389781606805,378.51198585392706 M469.3370121191975,405.7400402582135 L474.23257094001104,411.4972925853242 M469.33263961331534,372.76607282413465 L474.2389781606805,378.51198585392706 M522.9589963180247,396.61246218750557 L523.072513863103,363.65650981344515 M474.23257094001104,411.4972925853242 L522.9589963180247,396.61246218750557 M474.2389781606805,378.51198585392706 L523.072513863103,363.65650981344515 M518.0372756575517,390.87679043995206 L518.1398984528516,357.93218217787444 M522.9589963180247,396.61246218750557 L518.0372756575517,390.87679043995206 M523.072513863103,363.65650981344515 L518.1398984528516,357.93218217787444 M518.0372756575517,390.87679043995206 L469.3370121191975,405.7400402582135 M518.1398984528516,357.93218217787444 L469.33263961331534,372.76607282413465" stroke="black"  stroke-width="4"  fill="red"/>
<path d="M436.52775788365824,380.3966134348369 L436.45141820933856,347.47278018024315 M444.1094738946631,384.9357128867964 L444.04973356993685,352.0028742306305 M436.52775788365824,380.3966134348369 L444.1094738946631,384.9357128867964 M436.45141820933856,347.47278018024315 L444.04973356993685,352.0028742306305 M482.69299934301733,361.9310222115207 L482.71788448683213,329.0439417961686 M444.1094738946631,384.9357128867964 L482.69299934301733,361.9310222115207 M444.04973356993685,352.0028742306305 L482.71788448683213,329.0439417961686 M475.1112441355832,357.4183125105494 L475.1195296713593,324.54024268671594 M482.69299934301733,361.9310222115207 L475.1112441355832,357.4183125105494 M482.71788448683213,329.0439417961686 L475.1195296713593,324.54024268671594 M475.1112441355832,357.4183125105494 L436.52775788365824,380.3966134348369 M475.1195296713593,324.54024268671594 L436.45141820933856,347.47278018024315" stroke="black"  stroke-width="4"  fill="red"/>
<path d="M392.4241178178932,362.4666231184268 L392.25141182850115,329.57847401097604 M401.9500807273421,365.3670835958736 L401.7981704289798,332.4731499222287 M392.4241178178932,362.4666231184268 L401.9500807273421,365.3670835958736 M392.25141182850115,329.57847401097604 L401.7981704289798,332.4731499222287 M426.84542185590493,336.5444584733375 L426.7483829860041,303.70821472427974 M401.9500807273421,365.3670835958736 L426.84542185590493,336.5444584733375 M401.7981704289798,332.4731499222287 L426.7483829860041,303.70821472427974 M417.34516954692657,333.665179152072 L417.22744709105814,300.83472373736595 M426.84542185590493,336.5444584733375 L417.34516954692657,333.665179152072 M426.7483829860041,303.70821472427974 L417.22744709105814,300.83472373736595 M417.34516954692657,333.665179152072 L392.4241178178932,362.4666231184268 M417.22744709105814,300.83472373736595 L392.25141182850115,329.57847401097604" stroke="black"  stroke-width="4"  fill="red"/>
<path d="M341.2714544785885,353.5969061801586 L340.9870998035405,320.7264754446096 M351.8323033530021,354.59383683376814 L351.57100644355984,321.7214124276585 M341.2714544785885,353.5969061801586 L351.8323033530021,354.59383683376814 M340.9870998035405,320.7264754446096 L351.57100644355984,321.7214124276585 M360.7919070961573,322.7434966089952 L360.5511829177828,289.93503930365455 M351.8323033530021,354.59383683376814 L360.7919070961573,322.7434966089952 M351.57100644355984,321.7214124276585 L360.5511829177828,289.93503930365455 M350.2726881768655,321.7546051623086 L350.00908779768656,288.9481429172405 M360.7919070961573,322.7434966089952 L350.2726881768655,321.7546051623086 M360.5511829177828,289.93503930365455 L350.00908779768656,288.9481429172405 M350.2726881768655,321.7546051623086 L341.2714544785885,353.5969061801586 M350.00908779768656,288.9481429172405 L340.9870998035405,320.7264754446096" stroke="black"  stroke-width="4"  fill="red"/>
<path d="M287.91399048431316,354.59383683376814 L287.5129205970778,321.7214124276585 M298.5131881308938,353.5969061801587 L298.13534395049476,320.7264754446096 M287.91399048431316,354.59383683376814 L298.5131881308938,353.5969061801587 M287.5129205970778,321.7214124276585 L298.13534395049476,320.7264754446096 M290.7375939515102,321.75460857215455 L290.3443500184248,288.9481463202062 M298.5131881308938,353.5969061801587 L290.7375939515102,321.75460857215455 M298.13534395049476,320.7264754446096 L290.3443500184248,288.9481463202062 M280.18031291152556,322.74348637687547 L279.76402681858144,289.935029092175 M290.7375939515102,321.75460857215455 L280.18031291152556,322.74348637687547 M290.3443500184248,288.9481463202062 L279.76402681858144,289.935029092175 M280.18031291152556,322.74348637687547 L287.91399048431316,354.59383683376814 M279.76402681858144,289.935029092175 L287.5129205970778,321.7214124276585" stroke="black"  stroke-width="4"  fill="red"/>
<path d="M237.38154496583385,365.36708014796955 L236.86927170450232,332.47314648119834 M247.01912920141305,362.4666231184268 L246.52814095830792,329.57847401097604 M237.38154496583385,365.36708014796955 L247.01912920141305,362.4666231184268 M236.86927170450232,332.47314648119834 L246.52814095830792,329.57847401097604 M223.2066860943022,333.6651757318534 L222.66556397710616,300.83472032402574 M247.01912920141305,362.4666231184268 L223.2066860943022,333.6651757318534 M246.52814095830792,329.57847401097604 L222.66556397710616,300.83472032402574 M213.595592429011,336.5444721642516 L213.0333026760669,303.7082283876814 M223.2066860943022,333.6651757318534 L213.595592429011,336.5444721642516 M222.66556397710616,300.83472032402574 L213.0333026760669,303.7082283876814 M213.595592429011,336.5444721642516 L237.38154496583385,365.36708014796955 M213.0333026760669,303.7082283876814 L236.86927170450232,332.47314648119834" stroke="black"  stroke-width="4"  fill="red"/>
<path d="M194.4689719452947,384.93571981689445 L193.86122240507092,352.0028811469881 M202.2253979759392,380.3966203569735 L201.63501545049485,347.4727870886377 M194.4689719452947,384.93571981689445 L202.2253979759392,380.3966203569735 M193.86122240507092,352.0028811469881 L201.63501545049485,347.4727870886377 M164.52633558224474,357.4183125105494 L163.8552071843742,324.54024268671594 M202.2253979759392,380.3966203569735 L164.52633558224474,357.4183125105494 M201.63501545049485,347.4727870886377 L163.8552071843742,324.54024268671594 M156.77088609743515,361.9310222115206 L156.08239711856,329.0439417961686 M164.52633558224474,357.4183125105494 L156.77088609743515,361.9310222115206 M163.8552071843742,324.54024268671594 L156.08239711856,329.0439417961686 M156.77088609743515,361.9310222115206 L194.4689719452947,384.93571981689445 M156.08239711856,329.0439417961686 L193.86122240507092,352.0028811469881" stroke="black"  stroke-width="4"  fill="red"/>
<path d="M163.32347267822865,411.49729956210194 L162.64507444734858,378.5119928169747 M168.44063395621566,405.7400507081835 L167.77399235702075,372.76608325350594 M163.32347267822865,411.49729956210194 L168.44063395621566,405.7400507081835 M162.64507444734858,378.5119928169747 L167.77399235702075,372.76608325350594 M120.31247411184893,390.876811261528 L119.54135595713694,357.93220295823585 M168.44063395621566,405.7400507081835 L120.31247411184893,390.876811261528 M167.77399235702075,372.76608325350594 L119.54135595713694,357.93220295823585 M115.17000552713847,396.61246566280533 L114.3870212662597,363.656513281877 M120.31247411184893,390.876811261528 L115.17000552713847,396.61246566280533 M119.54135595713694,357.93220295823585 L114.3870212662597,363.656513281877 M115.17000552713847,396.61246566280533 L163.32347267822865,411.49729956210194 M114.3870212662597,363.656513281877 L162.64507444734858,378.5119928169747" stroke="black"  stroke-width="4"  fill="red"/>
<path d="M147.05997593176573,442.5621712331209 L146.34295057586186,409.51599735803063 M149.01467913030518,436.1306247277 L148.3025533969164,403.0970086010433 M147.05997593176573,442.5621712331209 L149.01467913030518,436.1306247277 M146.34295057586186,409.51599735803063 L148.3025533969164,403.0970086010433 M94.9699166496112,430.96338702271464 L94.13892326245423,397.9398766730576 M149.01467913030518,436.1306247277 L94.9699166496112,430.96338702271464 M148.3025533969164,403.0970086010433 L94.13892326245423,397.9398766730576 M92.97279727084134,437.38657347465505 L92.13671742366876,404.3505032752556 M94.9699166496112,430.96338702271464 L92.97279727084134,437.38657347465505 M94.13892326245423,397.9398766730576 L92.13671742366876,404.3505032752556 M92.97279727084134,437.38657347465505 L147.05997593176573,442.5621712331209 M92.13671742366876,404.3505032752556 L146.34295057586186,409.51599735803063" stroke="black"  stroke-width="4"  fill="red"/>
<path d="M147.43276020365283,475.1554492025389 L146.71361917331768,442.04598893303637 M145.99605992446794,468.6711163553308 L145.2743164621129,435.57419976651954 M147.43276020365283,475.1554492025389 L145.99605992446794,468.6711163553308 M146.71361917331768,442.04598893303637 L145.2743164621129,435.57419976651954 M91.2361848281895,473.88754667966987 L90.39240368733073,440.78053728219163 M145.99605992446794,468.6711163553308 L91.2361848281895,473.88754667966987 M145.2743164621129,435.57419976651954 L90.39240368733073,440.78053728219163 M92.62931959169924,480.3803592998545 L91.78794639162271,447.2608086201061 M91.2361848281895,473.88754667966987 L92.62931959169924,480.3803592998545 M90.39240368733073,440.78053728219163 L91.78794639162271,447.2608086201061 M92.62931959169924,480.3803592998545 L147.43276020365283,475.1554492025389 M91.78794639162271,447.2608086201061 L146.71361917331768,442.04598893303637" stroke="black"  stroke-width="4"  fill="red"/>
<path d="M164.60363938022255,506.0820928632222 L163.91998136784667,472.91312713614946 M159.8772929806247,500.18665097546625 L159.18361162633303,467.0289876449094 M164.60363938022255,506.0820928632222 L159.8772929806247,500.18665097546625 M163.91998136784667,472.91312713614946 L159.18361162633303,467.0289876449094 M109.81974361544144,515.4641354426846 L109.01303143291727,482.2772227660736 M159.8772929806247,500.18665097546625 L109.81974361544144,515.4641354426846 M159.18361162633303,467.0289876449094 L109.01303143291727,482.2772227660736 M114.51820466147063,521.382074080776 L113.72138922755062,488.18386606674164 M109.81974361544144,515.4641354426846 L114.51820466147063,521.382074080776 M109.01303143291727,482.2772227660736 L113.72138922755062,488.18386606674164 M114.51820466147063,521.382074080776 L164.60363938022255,506.0820928632222 M113.72138922755062,488.18386606674164 L163.91998136784667,472.91312713614946" stroke="black"  stroke-width="4"  fill="red"/>
<path d="M197.0501170822917,532.2401392153042 L196.43678193876167,499.02125735983 M189.4717123007967,527.5302374806483 L188.8417999146267,494.3203152836468 M197.0501170822917,532.2401392153042 L189.4717123007967,527.5302374806483 M196.43678193876167,499.02125735983 L188.8417999146267,494.3203152836468 M149.20020090501515,551.51383765317 L148.4781338280418,518.2584196003257 M189.4717123007967,527.5302374806483 L149.20020090501515,551.51383765317 M188.8417999146267,494.3203152836468 L148.4781338280418,518.2584196003257 M156.77756414503773,556.2518802954529 L156.0720672990711,522.9875121243958 M149.20020090501515,551.51383765317 L156.77756414503773,556.2518802954529 M148.4781338280418,518.2584196003257 L156.0720672990711,522.9875121243958 M156.77756414503773,556.2518802954529 L197.0501170822917,532.2401392153042 M156.0720672990711,522.9875121243958 L196.43678193876167,499.02125735983" stroke="black"  stroke-width="4"  fill="red"/>
<path d="M241.65216875267168,550.9522147699204 L241.13737655772863,517.6978584429929 M231.96232696034428,547.9135801906268 L231.42601824492033,514.664971316865 M241.65216875267168,550.9522147699204 L231.96232696034428,547.9135801906268 M241.13737655772863,517.6978584429929 L231.42601824492033,514.664971316865 M205.6595343046599,578.3119261387164 L205.062042818752,545.0060507163892 M231.96232696034428,547.9135801906268 L205.6595343046599,578.3119261387164 M231.42601824492033,514.664971316865 L205.062042818752,545.0060507163892 M215.37599531591138,581.3735349868465 L214.80013837697274,548.0619203035599 M205.6595343046599,578.3119261387164 L215.37599531591138,581.3735349868465 M205.062042818752,545.0060507163892 L214.80013837697274,548.0619203035599 M215.37599531591138,581.3735349868465 L241.65216875267168,550.9522147699204 M214.80013837697274,548.0619203035599 L241.13737655772863,517.6978584429929" stroke="black"  stroke-width="4"  fill="red"/>
<path d="M293.97418013859203,560.2727042994215 L293.5762036284401,527.0007505975909 M283.144882819548,559.2229920508044 L282.7226601154142,525.9530178303835 M293.97418013859203,560.2727042994215 L283.144882819548,559.2229920508044 M293.5762036284401,527.0007505975909 L282.7226601154142,525.9530178303835 M273.5887116002763,593.0284624314912 L273.14318567188457,559.6950471137034 M283.144882819548,559.2229920508044 L273.5887116002763,593.0284624314912 M282.7226601154142,525.9530178303835 L273.14318567188457,559.6950471137034 M284.4621077612095,594.0869836052436 L284.04102610875543,560.7515920478885 M273.5887116002763,593.0284624314912 L284.4621077612095,594.0869836052436 M273.14318567188457,559.6950471137034 L284.04102610875543,560.7515920478885 M284.4621077612095,594.0869836052436 L293.97418013859203,560.2727042994215 M284.04102610875543,560.7515920478885 L293.5762036284401,527.0007505975909" stroke="black"  stroke-width="4"  fill="red"/>
<path d="M348.72523116119373,559.2229920508044 L348.4501531979813,525.9530178303835 M337.8555303988624,560.2727042994215 L337.55602471740934,527.0007505975909 M348.72523116119373,559.2229920508044 L337.8555303988624,560.2727042994215 M348.4501531979813,525.9530178303835 L337.55602471740934,527.0007505975909 M346.0660905589335,594.0869836052436 L345.78382993016373,560.7515920478885 M337.8555303988624,560.2727042994215 L346.0660905589335,594.0869836052436 M337.55602471740934,527.0007505975909 L345.78382993016373,560.7515920478885 M356.9802056150517,593.0284478314938 L356.7225730260989,559.6950325409683 M346.0660905589335,594.0869836052436 L356.9802056150517,593.0284478314938 M345.78382993016373,560.7515920478885 L356.7225730260989,559.6950325409683 M356.9802056150517,593.0284478314938 L348.72523116119373,559.2229920508044 M356.7225730260989,559.6950325409683 L348.4501531979813,525.9530178303835" stroke="black"  stroke-width="4"  fill="red"/>
<path d="M400.34303913144845,547.9135801906268 L400.1840012815644,514.664971316865 M390.53626376319494,550.9522292187786 L390.3551846547959,517.6978728645342 M400.34303913144845,547.9135801906268 L390.53626376319494,550.9522292187786 M400.1840012815644,514.664971316865 L390.3551846547959,517.6978728645342 M415.6415675450472,581.3735495449002 L415.5162884069243,548.0619348343354 M390.53626376319494,550.9522292187786 L415.6415675450472,581.3735495449002 M390.3551846547959,517.6978728645342 L415.5162884069243,548.0619348343354 M425.47582241159176,578.3119406857621 L425.37270847236437,545.0060652361528 M415.6415675450472,581.3735495449002 L425.47582241159176,578.3119406857621 M415.5162884069243,548.0619348343354 L425.37270847236437,545.0060652361528 M425.47582241159176,578.3119406857621 L400.34303913144845,547.9135801906268 M425.37270847236437,545.0060652361528 L400.1840012815644,514.664971316865" stroke="black"  stroke-width="4"  fill="red"/>
<path d="M333.42876924765864,446.3593498397561 L333.1237045493093,413.3057726544322 M302.39397437521984,464.85264394120406 L302.01938138109927,431.76312494442084 M333.42876924765864,446.3593498397561 L336.08987221234884,448.3368523007757 M336.08987221234884,448.3368523007757 L338.0549668309328,450.5941570145209 M338.0549668309328,450.5941570145209 L339.2480535468947,453.04495133558737 M339.2480535468947,453.04495133558737 L339.6226196883485,455.5952699217437 M339.6226196883485,455.5952699217437 L339.1634801118944,458.14722158208326 M339.1634801118944,458.14722158208326 L337.88751918490203,460.6026665614363 M337.88751918490203,460.6026665614363 L335.8431218601731,462.86693140446823 M335.8431218601731,462.86693140446823 L333.1084559978284,464.85264394120406 M333.1084559978284,464.85264394120406 L329.7884096975071,466.4830023916313 M329.7884096975071,466.4830023916313 L326.01077170923713,467.69491862186237 M326.01077170923713,467.69491862186237 L321.921098501954,468.4413992101654 M321.921098501954,468.4413992101654 L317.67729808303557,468.69348930491867 M317.67729808303557,468.69348930491867 L313.44320061638814,468.4413992101654 M313.44320061638814,468.4413992101654 L309.3822594603452,467.69491862186237 M309.3822594603452,467.69491862186237 L305.6512681495258,466.4830023916313 M305.6512681495258,466.4830023916313 L302.39397437521984,464.85264394120406 M333.1237045493093,413.3057726544322 L335.7906201940246,415.2794227714122 M335.7906201940246,415.2794227714122 L337.7599794934175,417.5323327135302 M337.7599794934175,417.5323327135302 L338.95561693537326,419.97835875600174 M338.95561693537326,419.97835875600174 L339.33091888575217,422.5237189659266 M339.33091888575217,422.5237189659266 L338.87066844686046,425.0707126861573 M338.87066844686046,425.0707126861573 L337.5917892756063,427.52139062891126 M337.5917892756063,427.52139062891126 L335.5427755898062,429.78126255909683 M335.5427755898062,429.78126255909683 L332.80197082082066,431.76312494442084 M332.80197082082066,431.76312494442084 L329.4744982208254,433.3903238840951 M329.4744982208254,433.3903238840951 L325.6884327498623,434.5998924681236 M325.6884327498623,434.5998924681236 L321.5896566010881,435.34492742767407 M321.5896566010881,435.34492742767407 L317.3364307398597,435.59652939644127 M317.3364307398597,435.59652939644127 L313.0929509303503,435.34492742767407 M313.0929509303503,435.34492742767407 L309.023034449423,434.5998924681236 M309.023034449423,434.5998924681236 L305.28382281682775,433.3903238840951 M305.28382281682775,433.3903238840951 L302.01938138109927,431.76312494442084 M302.39397437521984,464.85264394120406 L299.73573862404965,462.86693140446823 M299.73573862404965,462.86693140446823 L297.7784928937633,460.6026665614363 M297.7784928937633,460.6026665614363 L296.5970420880916,458.14722158208326 M296.5970420880916,458.14722158208326 L296.23612717684125,455.5952699217437 M296.23612717684125,455.5952699217437 L296.7088551264442,453.04495133558737 M296.7088551264442,453.04495133558737 L297.9962729598059,450.5941570145209 M297.9962729598059,450.5941570145209 L300.0482512773315,448.3368523007757 M300.0482512773315,448.3368523007757 L302.78546834723454,446.3593498397562 M302.78546834723454,446.3593498397562 L306.10264746902624,444.737201406767 M306.10264746902624,444.737201406767 L309.8724365810293,443.53224540966755 M309.8724365810293,443.53224540966755 L313.95047386307556,442.79041552732576 M313.95047386307556,442.79041552732576 L318.18062301682306,442.5399585638306 M318.18062301682306,442.5399585638306 L322.401132077551,442.79041552732576 M322.401132077551,442.79041552732576 L326.45061631411306,443.53224540966755 M326.45061631411306,443.53224540966755 L330.17402664816365,444.737201406767 M330.17402664816365,444.737201406767 L333.42876924765864,446.3593498397561 M302.01938138109927,431.76312494442084 L299.35534601659026,429.78126255909683 M299.35534601659026,429.78126255909683 L297.3938707106282,427.52139062891115 M297.3938707106282,427.52139062891115 L296.2099209792898,425.0707126861573 M296.2099209792898,425.0707126861573 L295.84833086744976,422.5237189659266 M295.84833086744976,422.5237189659266 L296.322229869239,419.97835875600174 M296.322229869239,419.97835875600174 L297.6126165551407,417.5323327135302 M297.6126165551407,417.5323327135302 L299.66924455486145,415.2794227714122 M299.66924455486145,415.2794227714122 L302.41261149369655,413.3057726544323 M302.41261149369655,413.3057726544323 L305.7372038487839,411.6867859248463 M305.7372038487839,411.6867859248463 L309.5153853384564,410.48417943284846 M309.5153853384564,410.48417943284846 L313.60247376153416,409.7437964213582 M313.60247376153416,409.7437964213582 L317.84198774894713,409.4938280200247 M317.84198774894713,409.4938280200247 L322.07181896249523,409.7437964213582 M322.07181896249523,409.7437964213582 L326.13022791554647,410.48417943284846 M326.13022791554647,410.48417943284846 L329.86182525038873,411.6867859248463 M329.86182525038873,411.6867859248463 L333.1237045493093,413.3057726544322" stroke="black"  stroke-width="4"  fill="red"/>
<path d="M514.0157631740653,479.25222860981944 L513.9207417422516,512.4333490209211 M531.5876497690854,446.2272963193327 L529.2526952586397,453.0184254360688 M529.2526952586397,453.0184254360688 L526.3203770010516,459.73558024975307 M526.3203770010516,459.73558024975307 L522.797482740585,466.3595774257053 M522.797482740585,466.3595774257053 L518.692506718261,472.8713991397141 M518.692506718261,472.8713991397141 L514.0157631740653,479.25222860981944 M531.5876497690854,446.2272963193327 L531.4540708384122,479.34484841096616 M513.9207417422516,512.4333490209211 L518.5871600551957,506.04028478265514 M518.5871600551957,506.04028478265514 L522.6830998760436,499.51595371325993 M522.6830998760436,499.51595371325993 L526.1982669234187,492.87920741816856 M526.1982669234187,492.87920741816856 L529.1241826103305,486.14909918766205 M529.1241826103305,486.14909918766205 L531.4540708384122,479.34484841096616 M513.9207417422516,512.4333490209211 L474.26511906166456,500.18665810924347 M474.26511906166456,500.18665810924347 L474.271670626307,467.0289947649984 M514.0157631740653,479.25222860981944 L474.271670626307,467.0289947649984 M469.33263961331534,372.76607282413465 L474.2389781606805,378.51198585392706 M474.2389781606805,378.51198585392706 L513.4141320396709,366.594645417528 M513.4141320396709,366.594645417528 L518.0991135168081,372.80674758170437 M518.0991135168081,372.80674758170437 L522.2351538160251,379.1667476813576 M522.2351538160251,379.1667476813576 L525.8095072970035,385.65752194920094 M525.8095072970035,385.65752194920094 L528.8109808585405,392.26153738387814 M528.8109808585405,392.26153738387814 L531.2298577323478,398.96087152580515 M531.2298577323478,398.96087152580515 L487.6292092435036,403.0970086010433 M487.6292092435036,403.0970086010433 L489.34015447694713,409.51600437588445 M489.34015447694713,409.51600437588445 L532.9752827377266,405.3731602219624 M532.9752827377266,405.3731602219624 L534.2381167236832,412.2053021046952 M534.2381167236832,412.2053021046952 L534.8988809802488,419.0780554538218 M534.8988809802488,419.0780554538218 L534.9541247063366,425.97237658766153 M534.9541247063366,425.97237658766153 L534.4021149393425,432.86903268131005 M534.4021149393425,432.86903268131005 L533.2428596381934,439.7487135546321 M533.2428596381934,439.7487135546321 L489.3993982457636,435.57420683060286 M489.3993982457636,435.57420683060286 L487.70941609672826,442.04598893303637 M487.70941609672826,442.04598893303637 L531.5876497690854,446.2272963193327 M474.271670626307,467.0289947649984 L469.307361096425,472.9131128749689 M469.307361096425,472.9131128749689 L509.0731653244325,485.15437408776404 M509.0731653244325,485.15437408776404 L503.3191947992335,491.22751577401925 M503.3191947992335,491.22751577401925 L497.0334786048361,497.1162290090589 M497.0334786048361,497.1162290090589 L490.2328653825933,502.8031990075506 M490.2328653825933,502.8031990075506 L482.93585839867654,508.2716494046342 M482.93585839867654,508.2716494046342 L475.1624340316802,513.5053838549148 M475.1624340316802,513.5053838549148 L443.5563374951729,494.3203152836468 M443.5563374951729,494.3203152836468 L435.7792598188174,499.02125735983 M435.7792598188174,499.02125735983 L467.3853117802107,518.2288802702112 M467.3853117802107,518.2288802702112 L458.74749010218125,522.9617069603995 M458.74749010218125,522.9617069603995 L449.70069517571096,527.4159764356762 M449.70069517571096,527.4159764356762 L440.27048491906254,531.5783220577655 M440.27048491906254,531.5783220577655 L430.48368074886537,535.4361542917528 M430.48368074886537,535.4361542917528 L420.36819382050635,538.9778622343918 M420.36819382050635,538.9778622343918 L400.1840012815644,514.664971316865 M400.1840012815644,514.664971316865 L390.3551846547959,517.6978728645342 M390.3551846547959,517.6978728645342 L410.51727602438496,542.0291761237664 M410.51727602438496,542.0291761237664 L399.846255986749,544.9255539509509 M399.846255986749,544.9255539509509 L388.9348741916596,547.4769682434464 M388.9348741916596,547.4769682434464 L377.81475844529785,549.6756388245477 M377.81475844529785,549.6756388245477 L366.5182987498634,551.5148353757567 M366.5182987498634,551.5148353757567 L355.0784616360267,552.988900437859 M355.0784616360267,552.988900437859 L348.4501531979813,525.9530178303835 M348.4501531979813,525.9530178303835 L337.55602471740934,527.0007505975909 M337.55602471740934,527.0007505975909 L344.14858953206783,554.0437055887758 M344.14858953206783,554.0437055887758 L332.5256935900773,554.7952003932057 M332.5256935900773,554.7952003932057 L320.8588307034395,555.1715243204028 M320.8588307034395,555.1715243204028 L309.1821512339367,555.1715097639908 M309.1821512339367,555.1715097639908 L297.52986564985235,554.7951858381514 M297.52986564985235,554.7951858381514 L285.93612665188243,554.0437201411195 M285.93612665188243,554.0437201411195 L293.5762036284401,527.0007505975909 M293.5762036284401,527.0007505975909 L282.7226601154142,525.9530178303835 M282.7226601154142,525.9530178303835 L275.04706576152915,552.9889149863982 M275.04706576152915,552.9889149863982 L263.66432875206397,551.5148208325329 M263.66432875206397,551.5148208325329 L252.4391113950752,549.6756533611405 M252.4391113950752,549.6756533611405 L241.40418673324166,547.4769973007816 M241.40418673324166,547.4769973007816 L230.59161307574016,544.9255684704243 M230.59161307574016,544.9255684704243 L220.0328356219402,542.0291616147263 M220.0328356219402,542.0291616147263 L241.13737655772863,517.6978584429929 M241.13737655772863,517.6978584429929 L231.42601824492033,514.664971316865 M231.42601824492033,514.664971316865 L210.30006495902353,538.9778767324444 M210.30006495902353,538.9778767324444 L200.3217928961024,535.4361832623617 M200.3217928961024,535.4361832623617 L190.68442665769726,531.5783220577655 M190.68442665769726,531.5783220577655 L181.41544898561133,527.4159764356762 M181.41544898561133,527.4159764356762 L172.54117031204927,522.9617214008479 M172.54117031204927,522.9617214008479 L164.08670365992162,518.2288802702112 M164.08670365992162,518.2288802702112 L196.43678193876167,499.02125735983 M196.43678193876167,499.02125735983 L188.8417999146267,494.3203152836468 M188.8417999146267,494.3203152836468 L156.4925507253606,513.5053838549148 M156.4925507253606,513.5053838549148 L148.92183596194417,508.27166379234836 M148.92183596194417,508.27166379234836 L141.83666756315938,502.8031918234964 M141.83666756315938,502.8031918234964 L135.25635631471158,497.11622900905866 M135.25635631471158,497.11622900905866 L129.19873251721594,491.22753726399515 M129.19873251721594,491.22753726399515 L123.68001115151367,485.15439554514955 M123.68001115151367,485.15439554514955 L163.91998136784667,472.91312713614946 M163.91998136784667,472.91312713614946 L159.18361162633303,467.0289876449094 M159.18361162633303,467.0289876449094 L118.96607576795833,479.25221432599494 M118.96607576795833,479.25221432599494 L114.53643999598648,472.8714062702297 M114.53643999598648,472.8714062702297 L110.6837288139564,466.35959878238975 M110.6837288139564,466.35959878238975 L107.4174216535306,459.7356015710027 M107.4174216535306,459.7356015710027 L104.74531180448764,453.0184254360688 M104.74531180448764,453.0184254360688 L102.67339422969422,446.2273104853857 M102.67339422969422,446.2273104853857 L146.71361917331768,442.04598893303637 M146.71361917331768,442.04598893303637 L145.2743164621129,435.57419976651954 M145.2743164621129,435.57419976651954 L101.26916287134236,439.7487135546321 M101.26916287134236,439.7487135546321 L100.37638741511546,432.86902562203295 M100.37638741511546,432.86902562203295 L100.09153787460542,425.97237658766153 M100.09153787460542,425.97237658766153 L100.4138272549182,419.07807655822194 M100.4138272549182,419.07807655822194 L101.34080305418468,412.2053161499308 M101.34080305418468,412.2053161499308 L102.86833497241219,405.3731462009265 M102.86833497241219,405.3731462009265 L146.34295057586186,409.51599735803063 M146.34295057586186,409.51599735803063 L148.3025533969164,403.0970086010433 M148.3025533969164,403.0970086010433 L104.86211090853305,398.96086452663394 M104.86211090853305,398.96086452663394 L107.54047480982092,392.2615478648678 M107.54047480982092,392.2615478648678 L110.79778547172248,385.6575184613712 M110.79778547172248,385.6575184613712 L114.62359516671387,379.1667337529517 M114.62359516671387,379.1667337529517 L119.00597241644562,372.80674758170426 M119.00597241644562,372.80674758170426 L123.93159717044921,366.59465235956634 M123.93159717044921,366.59465235956634 L162.64507444734858,378.5119928169747 M162.64507444734858,378.5119928169747 L167.77399235702075,372.76608325350594 M167.77399235702075,372.76608325350594 L129.08091535746115,360.8660733301174 M129.08091535746115,360.8660733301174 L135.02055096572036,354.9890069339965 M135.02055096572036,354.9890069339965 L141.45618127153796,349.3073039811047 M141.45618127153796,349.3073039811047 L148.3693378664679,343.8359188823615 M148.3693378664679,343.8359188823615 L155.74026064067775,338.5892516942662 M155.74026064067775,338.5892516942662 L163.54813556606928,333.5810187149326 M163.54813556606928,333.5810187149326 L193.86122240507092,352.0028811469881 M193.86122240507092,352.0028811469881 L201.63501545049485,347.4727870886377 M201.63501545049485,347.4727870886377 L171.32114995252,329.0721096254438 M171.32114995252,329.0721096254438 L179.91588575754056,324.56478954533213 M179.91588575754056,324.56478954533213 L188.88026678165585,320.3323208004408 M188.88026678165585,320.3323208004408 L198.1896644166061,316.38560343071424 M198.1896644166061,316.38560343071424 L207.81860361188308,312.73479163800596 M207.81860361188308,312.73479163800596 L217.7408793525709,309.389240375688 M217.7408793525709,309.389240375688 L236.86927170450232,332.47314648119834 M236.86927170450232,332.47314648119834 L246.52814095830792,329.57847401097604 M246.52814095830792,329.57847401097604 L227.37838188991523,306.51156950187715 M227.37838188991523,306.51156950187715 L237.79399477051317,303.78397218864336 M237.79399477051317,303.78397218864336 L248.422082741779,301.38442620895546 M248.422082741779,301.38442620895546 L259.2340898848331,299.31904755952473 M259.2340898848331,299.31904755952473 L270.2011224250982,297.59305776203166 M270.2011224250982,297.59305776203166 L281.2939250095412,296.21081489834705 M281.2939250095412,296.21081489834705 L287.5129205970778,321.7214124276585 M287.5129205970778,321.7214124276585 L298.13534395049476,320.7264754446096 M298.13534395049476,320.7264754446096 L291.88258434033924,295.2223308920279 M291.88258434033924,295.2223308920279 L303.13526870018563,294.51842881894424 M303.13526870018563,294.51842881894424 L314.42613971720067,294.16602786236433 M314.42613971720067,294.16602786236433 L325.7251841316098,294.1660210473285 M325.7251841316098,294.1660210473285 L337.00238145920736,294.5184220032934 M337.00238145920736,294.5184220032934 L348.2278108969445,295.2223308920279 M348.2278108969445,295.2223308920279 L340.9870998035405,320.7264754446096 M340.9870998035405,320.7264754446096 L351.57100644355984,321.7214124276585 M351.57100644355984,321.7214124276585 L358.77816867912424,296.2108217169522 M358.77816867912424,296.2108217169522 L369.8174345398472,297.59306117254096 M369.8174345398472,297.59306117254096 L380.71762062528774,299.31905779557394 M380.71762062528774,299.31905779557394 L391.449629103997,301.38443303659596 M391.449629103997,301.38443303659596 L401.98474530950267,303.7839653568102 M401.98474530950267,303.7839653568102 L412.2947251058811,306.51156266527664 M412.2947251058811,306.51156266527664 L392.25141182850115,329.57847401097604 M392.25141182850115,329.57847401097604 L401.7981704289798,332.4731499222287 M401.7981704289798,332.4731499222287 L421.8207523155986,309.38925063813633 M421.8207523155986,309.38925063813633 L431.61343482638017,312.73480190923215 M431.61343482638017,312.73480190923215 L441.10095047588703,316.38560343071424 M441.10095047588703,316.38560343071424 L450.25745074269093,320.3323173700496 M450.25745074269093,320.3323173700496 L459.0579002512867,324.56478954533213 M459.0579002512867,324.56478954533213 L467.4780463412046,329.0721061873953 M467.4780463412046,329.0721061873953 L436.45141820933856,347.47278018024315 M436.45141820933856,347.47278018024315 L444.04973356993685,352.0028742306305 M444.04973356993685,352.0028742306305 L475.0764036635715,333.5810152729306 M475.0764036635715,333.5810152729306 L482.6902739218084,338.5892516942662 M482.6902739218084,338.5892516942662 L489.8579560423002,343.835922333364 M489.8579560423002,343.835922333364 L496.5591789088612,349.30730398110484 M496.5591789088612,349.30730398110484 L502.77474033041455,354.9890242380196 M502.77474033041455,354.9890242380196 L508.4866986293142,360.8660767960928 M508.4866986293142,360.8660767960928 L469.33263961331534,372.76607282413465 M333.1237045493093,413.3057726544322 L335.7906201940246,415.2794227714122 M335.7906201940246,415.2794227714122 L337.7599794934175,417.5323327135302 M337.7599794934175,417.5323327135302 L338.95561693537326,419.97835875600174 M338.95561693537326,419.97835875600174 L339.33091888575217,422.5237189659266 M339.33091888575217,422.5237189659266 L338.87066844686046,425.0707126861573 M338.87066844686046,425.0707126861573 L337.5917892756063,427.52139062891126 M337.5917892756063,427.52139062891126 L335.5427755898062,429.78126255909683 M335.5427755898062,429.78126255909683 L332.80197082082066,431.76312494442084 M332.80197082082066,431.76312494442084 L329.4744982208254,433.3903238840951 M329.4744982208254,433.3903238840951 L325.6884327498623,434.5998924681236 M325.6884327498623,434.5998924681236 L321.5896566010881,435.34492742767407 M321.5896566010881,435.34492742767407 L317.3364307398597,435.59652939644127 M317.3364307398597,435.59652939644127 L313.0929509303503,435.34492742767407 M313.0929509303503,435.34492742767407 L309.023034449423,434.5998924681236 M309.023034449423,434.5998924681236 L305.28382281682775,433.3903238840951 M305.28382281682775,433.3903238840951 L302.01938138109927,431.76312494442084 M302.01938138109927,431.76312494442084 L299.35534601659026,429.78126255909683 M299.35534601659026,429.78126255909683 L297.3938707106282,427.52139062891115 M297.3938707106282,427.52139062891115 L296.2099209792898,425.0707126861573 M296.2099209792898,425.0707126861573 L295.84833086744976,422.5237189659266 M295.84833086744976,422.5237189659266 L296.322229869239,419.97835875600174 M296.322229869239,419.97835875600174 L297.6126165551407,417.5323327135302 M297.6126165551407,417.5323327135302 L299.66924455486145,415.2794227714122 M299.66924455486145,415.2794227714122 L302.41261149369655,413.3057726544323 M302.41261149369655,413.3057726544323 L305.7372038487839,411.6867859248463 M305.7372038487839,411.6867859248463 L309.5153853384564,410.48417943284846 M309.5153853384564,410.48417943284846 L313.60247376153416,409.7437964213582 M313.60247376153416,409.7437964213582 L317.84198774894713,409.4938280200247 M317.84198774894713,409.4938280200247 L322.07181896249523,409.7437964213582 M322.07181896249523,409.7437964213582 L326.13022791554647,410.48417943284846 M326.13022791554647,410.48417943284846 L329.86182525038873,411.6867859248463 M329.86182525038873,411.6867859248463 L333.1237045493093,413.3057726544322 M487.6731150099928,475.1554492025389 L531.4540708384122,479.34484841096616 M487.6731150099928,475.1554492025389 L487.70941609672826,442.04598893303637 M474.26511906166456,500.18665810924347 L469.3118452131359,506.082078574672 M469.3118452131359,506.082078574672 L508.9890829164588,518.3467912031529 M508.9890829164588,518.3467912031529 L503.24787466516244,524.4315365930903 M503.24787466516244,524.4315365930903 L496.97612766851097,530.3314815028637 M496.97612766851097,530.3314815028637 L490.19065469121824,536.029280023514 M490.19065469121824,536.029280023514 L482.90991901775567,541.5081258445903 M482.90991901775567,541.5081258445903 L475.15385332491917,546.751793903857 M475.15385332491917,546.751793903857 L443.61825637210774,527.5302374806483 M443.61825637210774,527.5302374806483 L435.8585673883221,532.2401392153045 M435.8585673883221,532.2401392153045 L467.3941200638831,551.484242378723 M420.4824525721176,572.2724007776333 L430.57521708761664,568.7240226874828 M430.57521708761664,568.7240226874828 L440.340052389657,564.8589169821458 M440.340052389657,564.8589169821458 L449.74911141045067,560.6887144541959 M449.74911141045067,560.6887144541959 L458.77563395656057,556.2260263273438 M458.77563395656057,556.2260263273438 L467.3941200638831,551.484242378723 M420.4824525721176,572.2724007776333 L400.34303913144845,547.9135801906268 M400.34303913144845,547.9135801906268 L390.53626376319494,550.9522292187786 M390.53626376319494,550.9522292187786 L410.6536752986255,575.3294556371532 M355.3395737736121,586.3097575637419 L366.75367158825026,584.8329287464779 M366.75367158825026,584.8329287464779 L378.0247138083528,582.9902821477572 M378.0247138083528,582.9902821477572 L389.1198112498406,580.7874847252516 M389.1198112498406,580.7874847252516 L400.0066497347349,578.2312781210304 M400.0066497347349,578.2312781210304 L410.6536752986255,575.3294556371532 M355.3395737736121,586.3097575637419 L348.72523116119373,559.2229920508044 M348.72523116119373,559.2229920508044 L337.8555303988624,560.2727042994215 M337.8555303988624,560.2727042994215 L344.4342898239747,587.3665396466721 M286.35260196495585,587.3665542262856 L297.9203317631251,588.1194279532516 M297.9203317631251,588.1194279532516 L309.5464548604296,588.4964568831838 M309.5464548604296,588.4964568831838 L321.19689886701667,588.4964714668641 M321.19689886701667,588.4964714668641 L332.8375338366686,588.119442535575 M332.8375338366686,588.119442535575 L344.4342898239747,587.3665396466721 M286.35260196495585,587.3665542262856 L293.97418013859203,560.2727042994215 M293.97418013859203,560.2727042994215 L283.144882819548,559.2229920508044 M283.144882819548,559.2229920508044 L275.4879459741371,586.3097721395527 M220.59652481783706,575.329441100827 L231.13181077608914,578.2312926677862 M231.13181077608914,578.2312926677862 L241.92028419594763,580.7875138371444 M241.92028419594763,580.7875138371444 L252.93057257705271,582.9902967116255 M252.93057257705271,582.9902967116255 L264.13069205657297,584.8329141759809 M264.13069205657297,584.8329141759809 L275.4879459741371,586.3097721395527 M220.59652481783706,575.329441100827 L241.65216875267168,550.9522147699204 M241.65216875267168,550.9522147699204 L231.96232696034428,547.9135801906268 M231.96232696034428,547.9135801906268 L210.88536521604397,572.2724153029761 M164.7738585306163,551.484242378723 L173.20980905267595,556.2260407951027 M173.20980905267595,556.2260407951027 L182.06458688868076,560.6887144541959 M182.06458688868076,560.6887144541959 L191.31313473933523,564.8589169821458 M191.31313473933523,564.8589169821458 L200.92920108254373,568.7240517126814 M200.92920108254373,568.7240517126814 L210.88536521604397,572.2724153029761 M164.7738585306163,551.484242378723 L197.0501170822917,532.2401392153042 M197.0501170822917,532.2401392153042 L189.4717123007967,527.5302374806483 M189.4717123007967,527.5302374806483 L157.19627729630648,546.751793903857 M124.45434404501032,518.3468127015726 L129.96135034216292,524.4315581240895 M129.96135034216292,524.4315581240895 L136.00602107170755,530.3314815028637 M136.00602107170755,530.3314815028637 L142.57217415444347,536.029272825792 M142.57217415444347,536.029272825792 L149.6420162472149,541.5081402596335 M149.6420162472149,541.5081402596335 L157.19627729630648,546.751793903857 M124.45434404501032,518.3468127015726 L164.60363938022255,506.0820928632222 M164.60363938022255,506.0820928632222 L159.8772929806247,500.18665097546625 M159.8772929806247,500.18665097546625 L119.75033063818853,512.4333347097338 M103.490530195607,479.34486260441713 L105.55854681809592,486.14909918766205 M105.55854681809592,486.14909918766205 L108.22540779201802,492.8792287804945 M108.22540779201802,492.8792287804945 L111.48512635354803,499.51597511100965 M111.48512635354803,499.51597511100965 L115.32992163427616,506.04029192685584 M115.32992163427616,506.04029192685584 L119.75033063818853,512.4333347097338 M103.490530195607,479.34486260441713 L147.43276020365283,475.1554492025389 M147.43276020365283,475.1554492025389 L145.99605992446794,468.6711163553308 M145.99605992446794,468.6711163553308 L102.08874538879371,472.85372389930296 M103.68085705279327,438.4112178656924 L102.15739590585514,445.2567444236571 M102.15739590585514,445.2567444236571 L101.2331742228946,452.1429145175823 M101.2331742228946,452.1429145175823 L100.91230779870244,459.05063978168903 M100.91230779870244,459.05063978168903 L101.19723826183201,465.9606920924209 M101.19723826183201,465.9606920924209 L102.08874538879371,472.85372389930296 M103.68085705279327,438.4112178656924 L147.05997593176573,442.5621712331209 M147.05997593176573,442.5621712331209 L149.01467913030518,436.1306247277 M149.01467913030518,436.1306247277 L105.66958347893677,431.98637675469604 M124.69392779398498,399.5564202590633 L119.77972005586548,405.7807953503009 M119.77972005586548,405.7807953503009 L115.40759747801388,412.1533314303373 M115.40759747801388,412.1533314303373 L111.59084675866268,418.65690087749056 M111.59084675866268,418.65690087749056 L108.34136874008595,425.2739139499125 M108.34136874008595,425.2739139499125 L105.66958347893677,431.98637675469604 M124.69392779398498,399.5564202590633 L163.32347267822865,411.49729956210194 M163.32347267822865,411.49729956210194 L168.44063395621566,405.7400507081835 M168.44063395621566,405.7400507081835 L129.8314014417757,393.8164980768465 M164.22070726976193,366.4771650574768 L156.43033373566735,371.4953920849463 M156.43033373566735,371.4953920849463 L149.07599939876184,376.7525141119021 M149.07599939876184,376.7525141119021 L142.17847100868062,382.2347854763261 M142.17847100868062,382.2347854763261 L135.75746323814343,387.9277754800099 M135.75746323814343,387.9277754800099 L129.8314014417757,393.8164980768465 M164.22070726976193,366.4771650574768 L194.4689719452947,384.93571981689445 M194.4689719452947,384.93571981689445 L202.2253979759392,380.3966203569735 M202.2253979759392,380.3966203569735 L171.97635973941397,361.95924636081315 M218.29332109690824,342.2369143731062 L208.39290641366404,345.58918847395444 M208.39290641366404,345.58918847395444 L198.7852302917796,349.2473293959141 M198.7852302917796,349.2473293959141 L189.4964414005911,353.2019615698912 M189.4964414005911,353.2019615698912 L180.55195960709256,357.44290851096196 M180.55195960709256,357.44290851096196 L171.97635973941397,361.95924636081315 M218.29332109690824,342.2369143731062 L237.38154496583385,365.36708014796955 M237.38154496583385,365.36708014796955 L247.01912920141305,362.4666231184268 M247.01912920141305,362.4666231184268 L227.90963285830355,339.3534558636138 M281.7072177486972,329.0319462808569 L270.6386179696409,330.41697766346897 M270.6386179696409,330.41697766346897 L259.69554337735894,332.14644795378763 M259.69554337735894,332.14644795378763 L248.90718834698978,334.21598929574884 M248.90718834698978,334.21598929574884 L238.30238620432027,336.62036848052037 M238.30238620432027,336.62036848052037 L227.90963285830355,339.3534558636138 M281.7072177486972,329.0319462808569 L287.91399048431316,354.59383683376814 M287.91399048431316,354.59383683376814 L298.5131881308938,353.5969061801587 M298.5131881308938,353.5969061801587 L292.2727986840081,328.0414674658523 M348.4954963267864,328.0414674658523 L337.29445155588314,327.33613772246497 M337.29445155588314,327.33613772246497 L326.04176127812286,326.98302533402716 M326.04176127812286,326.98302533402716 L314.76728456720514,326.9830321628219 M314.76728456720514,326.9830321628219 L303.50097994851325,327.3361445518748 M303.50097994851325,327.3361445518748 L292.2727986840081,328.0414674658523 M348.4954963267864,328.0414674658523 L341.2714544785885,353.5969061801586 M341.2714544785885,353.5969061801586 L351.8323033530021,354.59383683376814 M351.8323033530021,354.59383683376814 L359.0229420996933,329.03195311322065 M412.42327509980487,339.3534490132578 L402.1356952844212,336.6203616349309 M402.1356952844212,336.6203616349309 L391.62346066313137,334.21599613714636 M391.62346066313137,334.21599613714636 L380.9147565035149,332.14645821047316 M380.9147565035149,332.14645821047316 L370.0382378072695,330.41698108085734 M370.0382378072695,330.41698108085734 L359.0229420996933,329.03195311322065 M412.42327509980487,339.3534490132578 L392.4241178178932,362.4666231184268 M392.4241178178932,362.4666231184268 L401.9500807273421,365.3670835958736 M401.9500807273421,365.3670835958736 L421.9285966113351,342.23692465618626 M467.48644513748843,361.9592429158905 L459.08467341023805,357.44290851096196 M459.08467341023805,357.44290851096196 L450.303408420726,353.2019581326241 M450.303408420726,353.2019581326241 L441.1668507127669,349.2473293959141 M441.1668507127669,349.2473293959141 L431.69998221950493,345.5891987658108 M431.69998221950493,345.5891987658108 L421.9285966113351,342.23692465618626 M467.48644513748843,361.9592429158905 L436.52775788365824,380.3966134348369 M436.52775788365824,380.3966134348369 L444.1094738946631,384.9357128867964 M444.1094738946631,384.9357128867964 L475.0682028354273,366.47716160860136 M508.40520567051533,393.81650154969043 L502.70582417686455,387.92779281838114 M502.70582417686455,387.92779281838114 L496.5039222193389,382.2347854763261 M496.5039222193389,382.2347854763261 L489.81740076691756,376.75251756977616 M489.81740076691756,376.75251756977616 L482.66541893671507,371.4953920849463 M482.66541893671507,371.4953920849463 L475.0682028354273,366.47716160860136 M508.40520567051533,393.81650154969043 L469.3370121191975,405.7400402582135 M469.3370121191975,405.7400402582135 L474.23257094001104,411.4972925853242 M474.23257094001104,411.4972925853242 L513.3217669842546,399.5564133032901 M531.0978584922975,431.9863837675888 L528.6844184384113,425.27390344833645 M528.6844184384113,425.27390344833645 L525.6896527934748,418.65690437218416 M525.6896527934748,418.65690437218416 L522.1232537472869,412.1533453862028 M522.1232537472869,412.1533453862028 L517.9963868295484,405.7807953503009 M517.9963868295484,405.7807953503009 L513.3217669842546,399.5564133032901 M531.0978584922975,431.9863837675888 L487.5932622777154,436.1306247277 M487.5932622777154,436.1306247277 L489.30040346780936,442.5621782646915 M489.30040346780936,442.5621782646915 L532.8393277487196,438.41123191416557 M533.1057232730801,472.85372389930296 L534.2625316554975,465.96069916540364 M534.2625316554975,465.96069916540364 L534.8134418185682,459.05063978168903 M534.8134418185682,459.05063978168903 L534.7584419974119,452.14289337204514 M534.7584419974119,452.14289337204514 L534.0992575045668,445.25673035099044 M534.0992575045668,445.25673035099044 L532.8393277487196,438.41123191416557 M533.1057232730801,472.85372389930296 L489.35938567057207,468.6711234331184 M489.35938567057207,468.6711234331184 L487.6731150099928,475.1554492025389 M333.42876924765864,446.3593498397561 L330.17402664816365,444.737201406767 M330.17402664816365,444.737201406767 L326.45061631411306,443.53224540966755 M326.45061631411306,443.53224540966755 L322.401132077551,442.79041552732576 M322.401132077551,442.79041552732576 L318.18062301682306,442.5399585638306 M318.18062301682306,442.5399585638306 L313.95047386307556,442.79041552732576 M313.95047386307556,442.79041552732576 L309.8724365810293,443.53224540966755 M309.8724365810293,443.53224540966755 L306.10264746902624,444.737201406767 M306.10264746902624,444.737201406767 L302.78546834723454,446.3593498397562 M302.78546834723454,446.3593498397562 L300.0482512773315,448.3368523007757 M300.0482512773315,448.3368523007757 L297.9962729598059,450.5941570145209 M297.9962729598059,450.5941570145209 L296.7088551264442,453.04495133558737 M296.7088551264442,453.04495133558737 L296.23612717684125,455.5952699217437 M296.23612717684125,455.5952699217437 L296.5970420880916,458.14722158208326 M296.5970420880916,458.14722158208326 L297.7784928937633,460.6026665614363 M297.7784928937633,460.6026665614363 L299.73573862404965,462.86693140446823 M299.73573862404965,462.86693140446823 L302.39397437521984,464.85264394120406 M302.39397437521984,464.85264394120406 L305.6512681495258,466.4830023916313 M305.6512681495258,466.4830023916313 L309.3822594603452,467.69491862186237 M309.3822594603452,467.69491862186237 L313.44320061638814,468.4413992101654 M313.44320061638814,468.4413992101654 L317.67729808303557,468.69348930491867 M317.67729808303557,468.69348930491867 L321.921098501954,468.4413992101654 M321.921098501954,468.4413992101654 L326.01077170923713,467.69491862186237 M326.01077170923713,467.69491862186237 L329.7884096975071,466.4830023916313 M329.7884096975071,466.4830023916313 L333.1084559978284,464.85264394120406 M333.1084559978284,464.85264394120406 L335.8431218601731,462.86693140446823 M335.8431218601731,462.86693140446823 L337.88751918490203,460.6026665614363 M337.88751918490203,460.6026665614363 L339.1634801118944,458.14722158208326 M339.1634801118944,458.14722158208326 L339.6226196883485,455.5952699217437 M339.6226196883485,455.5952699217437 L339.2480535468947,453.04495133558737 M339.2480535468947,453.04495133558737 L338.0549668309328,450.5941570145209 M338.0549668309328,450.5941570145209 L336.08987221234884,448.3368523007757 M336.08987221234884,448.3368523007757 L333.42876924765864,446.3593498397561 M469.3118452131359,506.082078574672 L469.307361096425,472.9131128749689 M469.3370121191975,405.7400402582135 L469.33263961331534,372.76607282413465 M474.23257094001104,411.4972925853242 L474.2389781606805,378.51198585392706 M508.4866986293142,360.8660767960928 L508.40520567051533,393.81650154969043 M513.4141320396709,366.594645417528 L513.3217669842546,399.5564133032901 M475.0764036635715,333.5810152729306 L475.0682028354273,366.47716160860136 M531.2298577323478,398.96087152580515 L531.0978584922975,431.9863837675888 M444.1094738946631,384.9357128867964 L444.04973356993685,352.0028742306305 M487.5932622777154,436.1306247277 L487.6292092435036,403.0970086010433 M436.52775788365824,380.3966134348369 L436.45141820933856,347.47278018024315 M489.30040346780936,442.5621782646915 L489.34015447694713,409.51600437588445 M467.4780463412046,329.0721061873953 L467.48644513748843,361.9592429158905 M532.9752827377266,405.3731602219624 L532.8393277487196,438.41123191416557 M421.8207523155986,309.38925063813633 L421.9285966113351,342.23692465618626 M533.2428596381934,439.7487135546321 L533.1057232730801,472.85372389930296 M401.9500807273421,365.3670835958736 L401.7981704289798,332.4731499222287 M489.35938567057207,468.6711234331184 L489.3993982457636,435.57420683060286 M392.4241178178932,362.4666231184268 L392.25141182850115,329.57847401097604 M412.2947251058811,306.51156266527664 L412.42327509980487,339.3534490132578 M358.77816867912424,296.2108217169522 L359.0229420996933,329.03195311322065 M351.8323033530021,354.59383683376814 L351.57100644355984,321.7214124276585 M341.2714544785885,353.5969061801586 L340.9870998035405,320.7264754446096 M348.2278108969445,295.2223308920279 L348.4954963267864,328.0414674658523 M509.0731653244325,485.15437408776404 L508.9890829164588,518.3467912031529 M291.88258434033924,295.2223308920279 L292.2727986840081,328.0414674658523 M475.1624340316802,513.5053838549148 L475.15385332491917,546.751793903857 M298.5131881308938,353.5969061801587 L298.13534395049476,320.7264754446096 M443.61825637210774,527.5302374806483 L443.5563374951729,494.3203152836468 M287.91399048431316,354.59383683376814 L287.5129205970778,321.7214124276585 M435.8585673883221,532.2401392153045 L435.7792598188174,499.02125735983 M281.2939250095412,296.21081489834705 L281.7072177486972,329.0319462808569 M467.3853117802107,518.2288802702112 L467.3941200638831,551.484242378723 M227.37838188991523,306.51156950187715 L227.90963285830355,339.3534558636138 M420.36819382050635,538.9778622343918 L420.4824525721176,572.2724007776333 M247.01912920141305,362.4666231184268 L246.52814095830792,329.57847401097604 M400.34303913144845,547.9135801906268 L400.1840012815644,514.664971316865 M237.38154496583385,365.36708014796955 L236.86927170450232,332.47314648119834 M390.53626376319494,550.9522292187786 L390.3551846547959,517.6978728645342 M217.7408793525709,309.389240375688 L218.29332109690824,342.2369143731062 M410.51727602438496,542.0291761237664 L410.6536752986255,575.3294556371532 M171.32114995252,329.0721096254438 L171.97635973941397,361.95924636081315 M355.0784616360267,552.988900437859 L355.3395737736121,586.3097575637419 M202.2253979759392,380.3966203569735 L201.63501545049485,347.4727870886377 M348.72523116119373,559.2229920508044 L348.4501531979813,525.9530178303835 M194.4689719452947,384.93571981689445 L193.86122240507092,352.0028811469881 M337.8555303988624,560.2727042994215 L337.55602471740934,527.0007505975909 M163.54813556606928,333.5810187149326 L164.22070726976193,366.4771650574768 M344.14858953206783,554.0437055887758 L344.4342898239747,587.3665396466721 M129.08091535746115,360.8660733301174 L129.8314014417757,393.8164980768465 M285.93612665188243,554.0437201411195 L286.35260196495585,587.3665542262856 M168.44063395621566,405.7400507081835 L167.77399235702075,372.76608325350594 M293.97418013859203,560.2727042994215 L293.5762036284401,527.0007505975909 M163.32347267822865,411.49729956210194 L162.64507444734858,378.5119928169747 M283.144882819548,559.2229920508044 L282.7226601154142,525.9530178303835 M123.93159717044921,366.59465235956634 L124.69392779398498,399.5564202590633 M275.04706576152915,552.9889149863982 L275.4879459741371,586.3097721395527 M104.86211090853305,398.96086452663394 L105.66958347893677,431.98637675469604 M220.0328356219402,542.0291616147263 L220.59652481783706,575.329441100827 M149.01467913030518,436.1306247277 L148.3025533969164,403.0970086010433 M241.65216875267168,550.9522147699204 L241.13737655772863,517.6978584429929 M147.05997593176573,442.5621712331209 L146.34295057586186,409.51599735803063 M231.96232696034428,547.9135801906268 L231.42601824492033,514.664971316865 M102.86833497241219,405.3731462009265 L103.68085705279327,438.4112178656924 M210.30006495902353,538.9778767324444 L210.88536521604397,572.2724153029761 M101.26916287134236,439.7487135546321 L102.08874538879371,472.85372389930296 M164.08670365992162,518.2288802702112 L164.7738585306163,551.484242378723 M145.99605992446794,468.6711163553308 L145.2743164621129,435.57419976651954 M197.0501170822917,532.2401392153042 L196.43678193876167,499.02125735983 M147.43276020365283,475.1554492025389 L146.71361917331768,442.04598893303637 M189.4717123007967,527.5302374806483 L188.8417999146267,494.3203152836468 M102.67339422969422,446.2273104853857 L103.490530195607,479.34486260441713 M156.4925507253606,513.5053838549148 L157.19627729630648,546.751793903857 M118.96607576795833,479.25221432599494 L119.75033063818853,512.4333347097338 M123.68001115151367,485.15439554514955 L124.45434404501032,518.3468127015726 M159.8772929806247,500.18665097546625 L159.18361162633303,467.0289876449094 M164.60363938022255,506.0820928632222 L163.91998136784667,472.91312713614946 M333.42876924765864,446.3593498397561 L333.1237045493093,413.3057726544322" stroke="black"  stroke-width="4"  fill="red"/>
<path d="M75.3448791626426,553.8821634307642 L74.4569979047464,520.622270076056 M107.25715352156442,534.9744049673444 L106.44274456297632,501.75032735636023 M75.3448791626426,553.8821634307642 L107.25715352156442,534.9744049673444 M74.4569979047464,520.622270076056 L106.44274456297632,501.75032735636023 M75.3448791626426,553.8821634307642 L328.80475018963057,713.3272146288023 M328.80475018963057,713.3272146288023 L328.478858853857,679.7731826344882 M74.4569979047464,520.622270076056 L328.478858853857,679.7731826344882 M107.25715352156442,534.9744049673444 L129.89538920599222,549.1469017381208 M129.89538920599222,549.1469017381208 L129.13027382495721,515.8959594694837 M106.44274456297632,501.75032735636023 L129.13027382495721,515.8959594694837 M130.62047563568302,548.715819403074 L139.7953242327207,555.2353668650936 M139.7953242327207,555.2353668650936 L149.61410917539385,561.413083403792 M149.61410917539385,561.413083403792 L160.0427547612867,567.2257439534736 M160.0427547612867,567.2257439534736 L171.0447150031007,572.6513992552041 M171.0447150031007,572.6513992552041 L182.58096945645502,577.6695795863391 M182.58096945645502,577.6695795863391 L194.61051114647185,582.2612077194327 M194.61051114647185,582.2612077194327 L207.09018967372378,586.408757680097 M207.09018967372378,586.408757680097 L219.97510942303006,590.096339919408 M219.97510942303006,590.096339919408 L233.21845911335865,593.3099017469428 M233.21845911335865,593.3099017469428 L246.7722391876424,596.0370318086871 M246.7722391876424,596.0370318086871 L260.5869085082096,598.2672143103537 M260.5869085082096,598.2672143103537 L274.6118983728278,599.9919058151058 M274.6118983728278,599.9919058151058 L288.79585020209447,601.2043749407401 M288.79585020209447,601.2043749407401 L303.0865830288602,601.8999628021068 M303.0865830288602,601.8999628021068 L317.4315971311662,602.0759598839727 M317.4315971311662,602.0759598839727 L331.77804881494717,601.7317425956562 M331.77804881494717,601.7317425956562 L346.0732329676437,600.8685696603409 M346.0732329676437,600.8685696603409 L360.2644613347363,599.4898284310971 M360.2644613347363,599.4898284310971 L374.29973458044515,597.6008240040521 M374.29973458044515,597.6008240040521 L388.1275734491039,595.2088720161158 M388.1275734491039,595.2088720161158 L401.697374972843,592.32318331928 M401.697374972843,592.32318331928 L414.9596449591555,588.9548478860113 M414.9596449591555,588.9548478860113 L427.8662507700087,585.1168302611375 M427.8662507700087,585.1168302611375 L440.3704090258477,580.8238601984132 M440.3704090258477,580.8238601984132 L452.42716782964123,576.0922776636087 M452.42716782964123,576.0922776636087 L463.9932881734575,570.9401524901427 M463.9932881734575,570.9401524901427 L475.0276918694483,565.3869950440336 M475.0276918694483,565.3869950440336 L485.49135604286624,559.4538004991217 M485.49135604286624,559.4538004991217 L495.34760611274544,553.1629323527393 M495.34760611274544,553.1629323527393 L504.5622595531251,546.5379481941345 M504.5622595531251,546.5379481941345 L513.1036218104978,539.6035705782072 M513.1036218104978,539.6035705782072 L520.9427129680271,532.3855428198814 M520.9427129680271,532.3855428198814 L528.0533227791153,524.9105293889546 M528.0533227791153,524.9105293889546 L534.4119658464502,517.2059890967398 M534.4119658464502,517.2059890967398 L539.9981389762329,509.3000932932928 M539.9981389762329,509.3000932932928 L544.7942658451257,501.22154607931157 M544.7942658451257,501.22154607931157 L548.7856622764511,492.9995076030855 M548.7856622764511,492.9995076030855 L628.1581725349373,309.5882333233544 M613.8245322230646,279.274588016209 L617.9755873481231,281.99125847904156 M617.9755873481231,281.99125847904156 L621.5716132705314,284.9723965673103 M621.5716132705314,284.9723965673103 L624.5636869760426,288.17826160016693 M624.5636869760426,288.17826160016693 L626.9107889636,291.56598954756976 M626.9107889636,291.56598954756976 L628.5804635717219,295.0901711815535 M628.5804635717219,295.0901711815535 L629.5492571852841,298.7034399219698 M629.5492571852841,298.7034399219698 L629.8031505974715,302.3571318857249 M629.8031505974715,302.3571318857249 L629.3376981007735,306.0018599953228 M629.3376981007735,306.0018599953228 L628.1581725349373,309.5882333233544 M613.8245322230646,279.274588016209 L576.0273454372714,257.231945626928 M576.0273454372714,257.231945626928 L642.465682830382,217.86778054074637 M895.9020194909928,364.18931773418274 L642.465682830382,217.86778054074637 M328.80475018963057,713.3272146288023 L895.9020194909928,364.18931773418274 M129.89538920599222,549.1469017381208 L130.62047563568302,548.715819403074 M658.1888626796259,252.83836976120688 L655.3820663098974,251.53806994917818 M655.3820663098974,251.53806994917818 L652.162509080267,250.63343698624828 M652.162509080267,250.63343698624828 L648.6912946348551,250.16957917197237 M648.6912946348551,250.16957917197237 L645.1418924850924,250.16957917197237 M645.1418924850924,250.16957917197237 L641.6916608441204,250.63344619389682 M641.6916608441204,250.63344619389682 L638.5130244171827,251.5380573903683 M638.5130244171827,251.5380573903683 L635.7650339540188,252.83836976120688 M635.7650339540188,252.83836976120688 L633.5853099122778,254.4695122375083 M633.5853099122778,254.4695122375083 L632.0833448236358,256.35007658561835 M632.0833448236358,256.35007658561835 L631.3347967334895,258.38602594275994 M631.3347967334895,258.38602594275994 L631.3778063115211,260.47544387170615 M631.3778063115211,260.47544387170615 L632.2108266776842,262.51355898264 M632.2108266776842,262.51355898264 L633.7926820801238,264.39802490612306 M633.7926820801238,264.39802490612306 L636.0443794987319,266.0340245696917 M636.0443794987319,266.0340245696917 L638.8531704929684,267.3391840802432 M638.8531704929684,267.3391840802432 L642.0781008061307,268.24771362204297 M642.0781008061307,268.24771362204297 L645.5570025315894,268.71373299317383 M645.5570025315894,268.71373299317383 L649.1148810741582,268.7137329931737 M649.1148810741582,268.7137329931737 L652.5727007645708,268.2477035317163 M652.5727007645708,268.2477035317163 L655.7565340718967,267.339195849543 M655.7565340718967,267.339195849543 L658.5063007986181,266.0340245696917 M658.5063007986181,266.0340245696917 L660.6840288191127,264.398023226065 M660.6840288191127,264.398023226065 L662.1806208019915,262.51356234112814 M662.1806208019915,262.51356234112814 L662.9214830530441,260.47545058516266 M662.9214830530441,260.47545058516266 L662.8699970940283,258.38603265260883 M662.8699970940283,258.38603265260883 L662.0293872512742,256.35008077707755 M662.0293872512742,256.35008077707755 L660.4423349876943,254.46951139962198 M660.4423349876943,254.46951139962198 L658.1888626796259,252.83836976120688 M548.9580376648446,459.8556491218702 L544.9579274618459,468.06189731324685 M544.9579274618459,468.06189731324685 L540.1512713552697,476.1249663378395 M540.1512713552697,476.1249663378395 L534.5527809282032,484.0157497948484 M534.5527809282032,484.0157497948484 L528.1800669061879,491.7055959952064 M528.1800669061879,491.7055959952064 L521.0536740412331,499.1663845585556 M521.0536740412331,499.1663845585556 L513.1971366449077,506.37070590531255 M513.1971366449077,506.37070590531255 L504.6367207229505,513.2919429563458 M504.6367207229505,513.2919429563458 L495.4014689496143,519.9043977625629 M495.4014689496143,519.9043977625629 L485.5231455521243,526.1833909822053 M485.5231455521243,526.1833909822053 L475.03600916642245,532.1054058778082 M475.03600916642245,532.1054058778082 L463.97681694266697,537.6481174531739 M463.97681694266697,537.6481174531739 L452.3846804620531,542.7905664233099 M452.3846804620531,542.7905664233099 L440.3007720829295,547.5132755469454 M440.3007720829295,547.5132755469454 L427.7684306574528,551.7982054997783 M427.7684306574528,551.7982054997783 L414.8327125492741,555.6290437305017 M414.8327125492741,555.6290437305017 L401.5405104400582,558.9910850896687 M401.5405104400582,558.9910850896687 L387.9400699512577,561.8713865922279 M387.9400699512577,561.8713865922279 L374.0810018868332,564.2588766277007 M374.0810018868332,564.2588766277007 L360.0140287955859,566.1443595448053 M360.0140287955859,566.1443595448053 L345.79075186204904,567.520531753966 M345.79075186204904,567.520531753966 L331.46329378731826,568.382096868682 M331.46329378731826,568.382096868682 L317.0844679015331,568.72567310337 M317.0844679015331,568.72567310337 L302.70710446498873,568.5500037817445 M302.70710446498873,568.5500037817445 L288.3841725601053,567.855711485272 M288.3841725601053,567.855711485272 L274.1682963244831,566.6455012817313 M274.1682963244831,566.6455012817313 L260.11178011686417,564.9240244133687 M260.11178011686417,564.9240244133687 L246.26610363042158,562.698001174496 M246.26610363042158,562.698001174496 L232.68195438616735,559.9759609264663 M232.68195438616735,559.9759609264663 L219.40898940170976,556.7684020659773 M219.40898940170976,556.7684020659773 L206.49531993097224,553.0877153274805 M206.49531993097224,553.0877153274805 L193.98786550274494,548.94792998619 M193.98786550274494,548.94792998619 L181.93162481013786,544.3649089602794 M181.93162481013786,544.3649089602794 L170.3698465021492,539.3561486934761 M170.3698465021492,539.3561486934761 L159.34363004241123,533.9406940798264 M159.34363004241123,533.9406940798264 L148.89208293936264,528.1389799394188 M148.89208293936264,528.1389799394188 L139.0518316995017,521.9729178291344 M139.0518316995017,521.9729178291344 L129.85702602471258,515.4656926289954 M548.9580376648446,459.8556491218702 L628.4991639133605,276.80636076996734 M614.1331563291632,246.55434005555867 L618.2933126256223,249.26546701066673 M618.2933126256223,249.26546701066673 L621.8972541603649,252.24052664143755 M621.8972541603649,252.24052664143755 L624.8959495577815,255.4398605049929 M624.8959495577815,255.4398605049929 L627.2482874242856,258.82069297585895 M627.2482874242856,258.82069297585895 L628.9217382063225,262.3377081463989 M628.9217382063225,262.3377081463989 L629.8927934753473,265.9436364152406 M629.8927934753473,265.9436364152406 L630.147399380705,269.5899131491036 M630.147399380705,269.5899131491036 L629.6810962066614,273.2272515976184 M629.6810962066614,273.2272515976184 L628.4991639133605,276.80636076996734 M614.1331563291632,246.55434005555867 L576.2534668671251,224.55682816563234 M576.2534668671251,224.55682816563234 L642.8334106094932,185.27392825361 M896.8315982292696,331.29773238855853 L642.8334106094932,185.27392825361 M328.478858853857,679.7731826344882 L896.8315982292696,331.29773238855853 M129.13027382495721,515.8959594694837 L129.85702602471258,515.4656926289954 M658.5921940680108,220.17227999329384 L660.8506161887962,221.80006879642428 M660.8506161887962,221.80006879642428 L662.4411945465022,223.67677446751327 M662.4411945465022,223.67677446751327 L663.2837281856583,225.70854560810903 M663.2837281856583,225.70854560810903 L663.3354368293614,227.79367540577573 M663.3354368293614,227.79367540577573 L662.5930822396447,229.82760665577933 M662.5930822396447,229.82760665577933 L661.0933553372611,231.70820424797864 M661.0933553372611,231.70820424797864 L658.9110051566316,233.34085325751118 M658.9110051566316,233.34085325751118 L656.1553602393523,234.6433511723751 M656.1553602393523,234.6433511723751 L652.9646879191927,235.54999852802018 M652.9646879191927,235.54999852802018 L649.4994130790586,236.01507389122435 M649.4994130790586,236.01507389122435 L645.9338394552676,236.01507389122446 M645.9338394552676,236.01507389122446 L642.4473913029425,235.55000859768768 M642.4473913029425,235.55000859768768 L639.2154440528318,234.64333942717803 M639.2154440528318,234.64333942717803 L636.4005193337838,233.34085325751118 M636.4005193337838,233.34085325751118 L634.1438795438671,231.70820592459324 M634.1438795438671,231.70820592459324 L632.5585203333794,229.82760330417813 M632.5585203333794,229.82760330417813 L631.7236088872967,227.79366870609346 M631.7236088872967,227.79366870609346 L631.6804132862288,225.70853891203473 M631.6804132862288,225.70853891203473 L632.4304870635705,223.67677028466346 M632.4304870635705,223.67677028466346 L633.9356105024143,221.8000696325886 M633.9356105024143,221.8000696325886 L636.1199655757976,220.17227999329384 M636.1199655757976,220.17227999329384 L638.8738267853058,218.87464149037248 M638.8738267853058,218.87464149037248 L642.0592799389252,217.97189102375143 M642.0592799389252,217.97189102375143 L645.5169340161902,217.50897832391615 M645.5169340161902,217.50897832391615 L649.0739945854216,217.50897832391615 M649.0739945854216,217.50897832391615 L652.5527221059928,217.9718818350447 M652.5527221059928,217.9718818350447 L655.7792728419794,218.8746540233529 M655.7792728419794,218.8746540233529 L658.5921940680108,220.17227999329384 M895.9020194909928,364.18931773418274 L896.8315982292696,331.29773238855853 M130.62047563568302,548.715819403074 L129.85702602471258,515.4656926289954 M548.7856622764511,492.9995076030855 L548.9580376648446,459.8556491218702 M628.1581725349373,309.5882333233544 L628.4991639133605,276.80636076996734 M613.8245322230646,279.274588016209 L614.1331563291632,246.55434005555867 M576.0273454372714,257.231945626928 L576.2534668671251,224.55682816563234 M642.465682830382,217.86778054074637 L642.8334106094932,185.27392825361 M658.1888626796259,252.83836976120688 L658.5921940680108,220.17227999329384" stroke="black"  stroke-width="4"  fill="red"/></svg>