<svg viewBox="0 0 800 800" xmlns="http://www.w3.org/2000/svg"><path d="M242.98945154099715,623.3885283127955 L243.85763313243024,499.6505621961502 M215.02931435762923,639.7849185387943 L215.83819540141383,516.0125665463952 M242.98945154099715,623.3885283127955 L215.02931435762923,639.7849185387943 M243.85763313243024,499.6505621961502 L215.83819540141383,516.0125665463952 M359.7104002752816,723.3630147156522 L360.83185359175945,599.4159946313596 M215.02931435762923,639.7849185387943 L359.7104002752816,723.3630147156522 M215.83819540141383,516.0125665463952 L360.83185359175945,599.4159946313596 M387.6690535515527,706.8729552426545 L388.84979786443057,582.960316797457 M359.7104002752816,723.3630147156522 L387.6690535515527,706.8729552426545 M360.83185359175945,599.4159946313596 L388.84979786443057,582.960316797457 M387.6690535515527,706.8729552426545 L242.98945154099715,623.3885283127955 M388.84979786443057,582.960316797457 L243.85763313243024,499.6505621961502" stroke="black"  stroke-width="4"  fill="red"/>
<path d="M338.4997948735305,539.8423203743106 L339.569027397947,416.2801723614679 M320.80441724111085,560.3881924348201 L321.83666821870156,436.78271254980973 M338.4997948735305,539.8423203743106 L320.80441724111085,560.3881924348201 M339.569027397947,416.2801723614679 L321.83666821870156,436.78271254980973 M501.9611460844319,613.7034089121117 L503.38231090201793,489.9857724539001 M320.80441724111085,560.3881924348201 L501.9611460844319,613.7034089121117 M321.83666821870156,436.78271254980973 L503.38231090201793,489.9857724539001 M519.561200762003,593.0825280478715 L521.0189366073812,469.40822160308716 M501.9611460844319,613.7034089121117 L519.561200762003,593.0825280478715 M503.38231090201793,489.9857724539001 L521.0189366073812,469.40822160308716 M519.561200762003,593.0825280478715 L338.4997948735305,539.8423203743106 M521.0189366073812,469.40822160308716 L339.569027397947,416.2801723614679" stroke="black"  stroke-width="4"  fill="red"/>
<path d="M384.2439180536925,443.60331410703856 L385.4067775109262,320.2449557857191 M378.4706079777977,466.23033604745905 L379.62210173067,342.823942836183 M384.2439180536925,443.60331410703856 L378.4706079777977,466.23033604745905 M385.4067775109262,320.2449557857191 L379.62210173067,342.823942836183 M577.7618946115547,484.4614492309195 L579.3379955767673,361.01640745982337 M378.4706079777977,466.23033604745905 L577.7618946115547,484.4614492309195 M379.62210173067,342.823942836183 L579.3379955767673,361.01640745982337 M583.3838643319759,461.8060972245514 L584.9706856423707,338.40909036084275 M577.7618946115547,484.4614492309195 L583.3838643319759,461.8060972245514 M579.3379955767673,361.01640745982337 L584.9706856423707,338.40909036084275 M583.3838643319759,461.8060972245514 L384.2439180536925,443.60331410703856 M584.9706856423707,338.40909036084275 L385.4067775109262,320.2449557857191" stroke="black"  stroke-width="4"  fill="red"/>
<path d="M376.2013843641573,344.2491608000076 L377.34324110825605,221.10260411840594 M382.7973209697061,366.72186463669306 L383.9540369902453,243.52727514701897 M376.2013843641573,344.2491608000076 L382.7973209697061,366.72186463669306 M377.34324110825605,221.10260411840594 L383.9540369902453,243.52727514701897 M580.4817933006796,348.63774236379504 L582.0562900139778,225.48179981536398 M382.7973209697061,366.72186463669306 L580.4817933006796,348.63774236379504 M383.9540369902453,243.52727514701897 L582.0562900139778,225.48179981536398 M573.7369769759259,326.1930267936828 L575.2959847452046,203.0851163154921 M580.4817933006796,348.63774236379504 L573.7369769759259,326.1930267936828 M582.0562900139778,225.48179981536398 L575.2959847452046,203.0851163154921 M573.7369769759259,326.1930267936828 L376.2013843641573,344.2491608000076 M575.2959847452046,203.0851163154921 L377.34324110825605,221.10260411840594" stroke="black"  stroke-width="4"  fill="red"/>
<path d="M315.68601294939583,251.47718411645494 L316.6965264093626,128.52969556785132 M333.8898441652501,271.6190284544316 L334.9394986767793,148.62821340988344 M315.68601294939583,251.47718411645494 L333.8898441652501,271.6190284544316 M316.6965264093626,128.52969556785132 L334.9394986767793,148.62821340988344 M510.8403223501018,219.54171799434852 L512.2610207277216,96.66304597205357 M333.8898441652501,271.6190284544316 L510.8403223501018,219.54171799434852 M334.9394986767793,148.62821340988344 L512.2610207277216,96.66304597205357 M492.54620482125597,199.47233453208435 L493.927384113312,76.63698528434787 M510.8403223501018,219.54171799434852 L492.54620482125597,199.47233453208435 M512.2610207277216,96.66304597205357 L493.927384113312,76.63698528434787 M492.54620482125597,199.47233453208435 L315.68601294939583,251.47718411645494 M493.927384113312,76.63698528434787 L316.6965264093626,128.52969556785132" stroke="black"  stroke-width="4"  fill="red"/></svg>