<svg viewBox="0 0 800 800" xmlns="http://www.w3.org/2000/svg"><path d="M246.69030178398737,628.1600976728255 L247.59502508784578,515.1108554252553 M221.16008675739806,643.1654013350328 L222.01066520432164,530.08476231284 M246.69030178398737,628.1600976728255 L221.16008675739806,643.1654013350328 M247.59502508784578,515.1108554252553 L222.01066520432164,530.08476231284 M353.5667876702115,719.6529388259396 L354.70405869386684,606.4128172042233 M221.16008675739806,643.1654013350328 L353.5667876702115,719.6529388259396 M222.01066520432164,530.08476231284 L354.70405869386684,606.4128172042233 M379.09547799840993,704.5618164030277 L380.28688405420655,591.3530870555758 M353.5667876702115,719.6529388259396 L379.09547799840993,704.5618164030277 M354.70405869386684,606.4128172042233 L380.28688405420655,591.3530870555758 M379.09547799840993,704.5618164030277 L246.69030178398737,628.1600976728255 M380.28688405420655,591.3530870555758 L247.59502508784578,515.1108554252553" stroke="black"  stroke-width="4"  fill="red"/>
<path d="M346.99866983889206,541.0312675530333 L348.1143534615952,428.1650416998607 M330.8749885868558,559.8188274259123 L331.95705092481217,446.9130353823999 M346.99866983889206,541.0312675530333 L330.8749885868558,559.8188274259123 M348.1143534615952,428.1650416998607 L331.95705092481217,446.9130353823999 M496.52889673829407,608.5715071807801 L497.96709998921585,495.5633057381121 M330.8749885868558,559.8188274259123 L496.52889673829407,608.5715071807801 M331.95705092481217,446.9130353823999 L497.96709998921585,495.5633057381121 M512.5652054477094,589.7152855338918 L514.0366531646035,476.7466483130587 M496.52889673829407,608.5715071807801 L512.5652054477094,589.7152855338918 M497.96709998921585,495.5633057381121 L514.0366531646035,476.7466483130587 M512.5652054477094,589.7152855338918 L346.99866983889206,541.0312675530333 M514.0366531646035,476.7466483130587 L348.1143534615952,428.1650416998607" stroke="black"  stroke-width="4"  fill="red"/>
<path d="M395.31196452217023,440.57738119811097 L396.52607929570024,327.9236645794507 M390.09465793250865,461.24853309332696 L391.2986262957179,348.55095528960493 M395.31196452217023,440.57738119811097 L390.09465793250865,461.24853309332696 M396.52607929570024,327.9236645794507 L391.2986262957179,348.55095528960493 M572.1593147016923,477.90373982463785 L573.7513786943822,365.1708716814953 M390.09465793250865,461.24853309332696 L572.1593147016923,477.90373982463785 M391.2986262957179,348.55095528960493 L573.7513786943822,365.1708716814953 M577.2382930055836,457.2067003569649 L578.8399132426019,344.5176933741438 M572.1593147016923,477.90373982463785 L577.2382930055836,457.2067003569649 M573.7513786943822,365.1708716814953 L578.8399132426019,344.5176933741438 M577.2382930055836,457.2067003569649 L395.31196452217023,440.57738119811097 M578.8399132426019,344.5176933741438 L396.52607929570024,327.9236645794507" stroke="black"  stroke-width="4"  fill="red"/>
<path d="M387.4454509321529,336.8212795706785 L388.63816854909044,224.38874820080744 M393.52183260404615,357.3312760560082 L394.7283450050245,244.85488567396663 M387.4454509321529,336.8212795706785 L393.52183260404615,357.3312760560082 M388.63816854909044,224.38874820080744 L394.7283450050245,244.85488567396663 M573.9410136736548,340.82659687201397 L575.5286309175093,228.3854951732228 M393.52183260404615,357.3312760560082 L573.9410136736548,340.82659687201397 M394.7283450050245,244.85488567396663 L575.5286309175093,228.3854951732228 M567.7288235627813,320.3421379354997 L569.3020719258374,207.94489453587897 M573.9410136736548,340.82659687201397 L567.7288235627813,320.3421379354997 M575.5286309175093,228.3854951732228 L569.3020719258374,207.94489453587897 M567.7288235627813,320.3421379354997 L387.4454509321529,336.8212795706785 M569.3020719258374,207.94489453587897 L388.63816854909044,224.38874820080744" stroke="black"  stroke-width="4"  fill="red"/>
<path d="M324.7981579572888,239.88794831217746 L325.8544121959021,127.66360934614073 M341.45283324600086,258.25357428530157 L342.54496407158365,145.9896747162057 M324.7981579572888,239.88794831217746 L341.45283324600086,258.25357428530157 M325.8544121959021,127.66360934614073 L342.54496407158365,145.9896747162057 M502.7991688809378,210.76863217971714 L504.22913995255306,98.60712817459927 M341.45283324600086,258.25357428530157 L502.7991688809378,210.76863217971714 M342.54496407158365,145.9896747162057 L504.22913995255306,98.60712817459927 M486.06236646879063,192.46900821503596 L487.4561175888376,80.3470611740604 M502.7991688809378,210.76863217971714 L486.06236646879063,192.46900821503596 M504.22913995255306,98.60712817459927 L487.4561175888376,80.3470611740604 M486.06236646879063,192.46900821503596 L324.7981579572888,239.88794831217746 M487.4561175888376,80.3470611740604 L325.8544121959021,127.66360934614073" stroke="black"  stroke-width="4"  fill="red"/></svg>