<svg viewBox="0 0 800 800" xmlns="http://www.w3.org/2000/svg"><path d="M640.8012117481258,547.8653044278019 L640.7875360600158,531.2765181212137 M633.2750316339807,552.5998297345625 L633.252211159275,536.0067218888585 M640.8012117481258,547.8653044278019 L633.2750316339807,552.5998297345625 M640.7875360600158,531.2765181212137 L633.252211159275,536.0067218888585 M633.2750316339807,552.5998297345625 L655.8399211808726,566.8379117609365 M655.8445019330868,550.2318497288632 L633.252211159275,536.0067218888585 M655.8399211808726,566.8379117609365 L655.8445019330868,550.2318497288632 M663.3661095807813,562.0861229288669 L663.3798351497974,545.4843772045226 M655.8399211808726,566.8379117609365 L663.3661095807813,562.0861229288669 M655.8445019330868,550.2318497288632 L663.3798351497974,545.4843772045226 M663.3661095807813,562.0861229288669 L640.8012117481258,547.8653044278019 M640.7875360600158,531.2765181212137 L663.3798351497974,545.4843772045226" stroke="black"  stroke-width="4"  fill="red"/>
<path d="M701.6490212993567,493.4322039251982 L701.7087479162992,476.8936024664131 M696.891779129043,499.3160916655785 L696.9458154375163,482.7720211935364 M701.6490212993567,493.4322039251982 L696.891779129043,499.3160916655785 M701.7087479162992,476.8936024664131 L696.9458154375163,482.7720211935364 M696.891779129043,499.3160916655785 L725.2075927170469,508.327277291164 M725.295871137647,491.77485184655234 L696.9458154375163,482.7720211935364 M725.2075927170469,508.327277291164 L725.295871137647,491.77485184655234 M729.9488169276185,502.42975204812683 L730.042746925246,485.88279180883364 M725.2075927170469,508.327277291164 L729.9488169276185,502.42975204812683 M725.295871137647,491.77485184655234 L730.042746925246,485.88279180883364 M729.9488169276185,502.42975204812683 L701.6490212993567,493.4322039251982 M701.7087479162992,476.8936024664131 L730.042746925246,485.88279180883364" stroke="black"  stroke-width="4"  fill="red"/>
<path d="M732.077834616267,430.7926341483717 L732.17344112863,414.31292170205086 M730.5056102619887,437.21047290674915 L730.5994162325503,420.7246708909347 M732.077834616267,430.7926341483717 L730.5056102619887,437.21047290674915 M732.17344112863,414.31292170205086 L730.5994162325503,420.7246708909347 M730.5056102619887,437.21047290674915 L761.5928597154485,440.26370410985066 M761.723898458871,423.77500952207845 L730.5994162325503,420.7246708909347 M761.5928597154485,440.26370410985066 L761.723898458871,423.77500952207845 M763.1397824656576,433.84077611958946 L763.2725611307492,417.35816984813516 M761.5928597154485,440.26370410985066 L763.1397824656576,433.84077611958946 M761.723898458871,423.77500952207845 L763.2725611307492,417.35816984813516 M763.1397824656576,433.84077611958946 L732.077834616267,430.7926341483717 M732.17344112863,414.31292170205086 L763.2725611307492,417.35816984813516" stroke="black"  stroke-width="4"  fill="red"/>
<path d="M729.7836072541115,366.33610282072505 L729.875693082956,349.91825898236107 M731.4730794613163,372.64682409612556 L731.5672452294098,356.2228659630142 M729.7836072541115,366.33610282072505 L731.4730794613163,372.64682409612556 M729.875693082956,349.91825898236107 L731.5672452294098,356.2228659630142 M731.4730794613163,372.64682409612556 L762.2132827627502,369.6469565888772 M762.34385415111,353.2259034084426 L731.5672452294098,356.2228659630142 M762.2132827627502,369.6469565888772 L762.34385415111,353.2259034084426 M760.4990734242991,363.3411917833894 L760.6275062718842,346.9262539621527 M762.2132827627502,369.6469565888772 L760.4990734242991,363.3411917833894 M762.34385415111,353.2259034084426 L760.6275062718842,346.9262539621527 M760.4990734242991,363.3411917833894 L729.7836072541115,366.33610282072505 M729.875693082956,349.91825898236107 L760.6275062718842,346.9262539621527" stroke="black"  stroke-width="4"  fill="red"/>
<path d="M695.777339644231,306.3323069901953 L695.8287205240716,289.97321681494134 M700.4887652576081,311.93562304052807 L700.5457273541487,295.570998983708 M695.777339644231,306.3323069901953 L700.4887652576081,311.93562304052807 M695.8287205240716,289.97321681494134 L700.5457273541487,295.570998983708 M700.4887652576081,311.93562304052807 L727.9522649358807,303.37391223189115 M728.0414376046216,287.0177477227436 L700.5457273541487,295.570998983708 M727.9522649358807,303.37391223189115 L728.0414376046216,287.0177477227436 M723.2258883458959,297.7832935545083 L723.3094447213462,281.43266523238253 M727.9522649358807,303.37391223189115 L723.2258883458959,297.7832935545083 M728.0414376046216,287.0177477227436 L723.3094447213462,281.43266523238253 M723.2258883458959,297.7832935545083 L695.777339644231,306.3323069901953 M695.8287205240716,289.97321681494134 L723.3094447213462,281.43266523238253" stroke="black"  stroke-width="4"  fill="red"/>
<path d="M633.9877139276628,256.3433635796864 L633.9665919612451,240.0340741734925 M641.215654533798,260.73091978199363 L641.202966548827,244.4172282858192 M633.9877139276628,256.3433635796864 L641.215654533798,260.73091978199363 M633.9665919612451,240.0340741734925 L641.202966548827,244.4172282858192 M641.215654533798,260.73091978199363 L662.9121642725049,247.5835878119574 M662.9248079197487,231.28310507084188 L641.202966548827,244.4172282858192 M662.9121642725049,247.5835878119574 L662.9248079197487,231.28310507084188 M655.6842162789342,243.21135038727869 L655.6884259188132,226.9152721975429 M662.9121642725049,247.5835878119574 L655.6842162789342,243.21135038727869 M662.9248079197487,231.28310507084188 L655.6884259188132,226.9152721975429 M655.6842162789342,243.21135038727869 L633.9877139276628,256.3433635796864 M633.9665919612451,240.0340741734925 L655.6884259188132,226.9152721975429" stroke="black"  stroke-width="4"  fill="red"/>
<path d="M550.6619812824838,220.8035065763421 L550.5441051228272,204.53009496498134 M559.7001798781705,223.5933262895362 L559.5927692430867,207.31708415209698 M550.6619812824838,220.8035065763421 L559.7001798781705,223.5933262895362 M550.5441051228272,204.53009496498134 L559.5927692430867,207.31708415209698 M559.7001798781705,223.5933262895362 L573.7454866136275,207.19717605767835 M573.6546074520973,190.9376039276625 L559.5927692430867,207.31708415209698 M573.7454866136275,207.19717605767835 L573.6546074520973,190.9376039276625 M564.721877058324,204.41954935102433 L564.6205660800216,188.1628095058428 M573.7454866136275,207.19717605767835 L564.721877058324,204.41954935102433 M573.6546074520973,190.9376039276625 L564.6205660800216,188.1628095058428 M564.721877058324,204.41954935102433 L550.6619812824838,220.8035065763421 M550.5441051228272,204.53009496498134 L564.6205660800216,188.1628095058428" stroke="black"  stroke-width="4"  fill="red"/>
<path d="M453.69424688721324,202.75625882475788 L453.4642165096053,186.50121614659668 M463.7029565666452,203.71269902916163 L463.48450376027154,187.4566803259179 M453.69424688721324,202.75625882475788 L463.7029565666452,203.71269902916163 M453.4642165096053,186.50121614659668 L463.48450376027154,187.4566803259179 M463.7029565666452,203.71269902916163 L468.91521670950647,185.6380128994955 M468.70332340928974,169.40048700966054 L463.48450376027154,187.4566803259179 M468.91521670950647,185.6380128994955 L468.70332340928974,169.40048700966054 M458.93006998901967,184.68619809191102 L458.7066535938877,168.44964884582112 M468.91521670950647,185.6380128994955 L458.93006998901967,184.68619809191102 M468.70332340928974,169.40048700966054 L458.7066535938877,168.44964884582112 M458.93006998901967,184.68619809191102 L453.69424688721324,202.75625882475788 M453.4642165096053,186.50121614659668 L458.7066535938877,168.44964884582112" stroke="black"  stroke-width="4"  fill="red"/>
<path d="M351.95703601910316,203.71269243154006 L351.60899170281385,187.45667373502795 M362.0282953331418,202.75625882475788 L361.69197377843045,186.50121614659668 M351.95703601910316,203.71269243154006 L362.0282953331418,202.75625882475788 M351.60899170281385,187.45667373502795 L361.69197377843045,186.50121614659668 M362.0282953331418,202.75625882475788 L357.97483992695453,184.68620465594586 M357.63464469250835,168.44965540311955 L361.69197377843045,186.50121614659668 M357.97483992695453,184.68620465594586 L357.63464469250835,168.44965540311955 M347.92744613861146,185.6380128994955 L347.57558367153956,169.40048700966054 M357.97483992695453,184.68620465594586 L347.92744613861146,185.6380128994955 M357.63464469250835,168.44965540311955 L347.57558367153956,169.40048700966054 M347.92744613861146,185.6380128994955 L351.95703601910316,203.71269243154006 M351.60899170281385,187.45667373502795 L347.57558367153956,169.40048700966054" stroke="black"  stroke-width="4"  fill="red"/>
<path d="M254.65893442476133,223.59334287155502 L254.1968249410514,207.31710071729913 M263.87971940563534,220.8034933206136 L263.42850018846354,204.53008172270768 M254.65893442476133,223.59334287155502 L263.87971940563534,220.8034933206136 M254.1968249410514,207.31710071729913 L263.42850018846354,204.53008172270768 M263.87971940563534,220.8034933206136 L250.89188088000716,204.4195394527178 M250.42658741283785,188.1627996176337 L263.42850018846354,204.53008172270768 M250.89188088000716,204.4195394527178 L250.42658741283785,188.1627996176337 M241.68651221065474,207.1971595482238 L241.21036500505528,190.9375874350352 M250.89188088000716,204.4195394527178 L241.68651221065474,207.1971595482238 M250.42658741283785,188.1627996176337 L241.21036500505528,190.9375874350352 M241.68651221065474,207.1971595482238 L254.65893442476133,223.59334287155502 M254.1968249410514,207.31710071729913 L241.21036500505528,190.9375874350352" stroke="black"  stroke-width="4"  fill="red"/>
<path d="M170.71345184733127,260.73091978199363 L170.1509511802844,244.41722828581908 M178.2284835523084,256.3433635796864 L177.67508803216774,240.0340741734925 M170.71345184733127,260.73091978199363 L178.2284835523084,256.3433635796864 M170.1509511802844,244.41722828581908 L177.67508803216774,240.0340741734925 M178.2284835523084,256.3433635796864 L157.39124862088926,243.21135038727869 M156.81452795746532,226.9152721975429 L177.67508803216774,240.0340741734925 M157.39124862088926,243.21135038727869 L156.81452795746532,226.9152721975429 M149.87721188252078,247.5835878119574 L149.29138956022246,231.28310507084188 M157.39124862088926,243.21135038727869 L149.87721188252078,247.5835878119574 M156.81452795746532,226.9152721975429 L149.29138956022246,231.28310507084188 M149.87721188252078,247.5835878119574 L170.71345184733127,260.73091978199363 M170.1509511802844,244.41722828581908 L149.29138956022246,231.28310507084188" stroke="black"  stroke-width="4"  fill="red"/>
<path d="M108.0898622130444,311.93562304052796 L107.44984966725474,295.570998983708 M113.16793509109789,306.33231038032 L112.5343666855565,289.97322020171464 M108.0898622130444,311.93562304052796 L113.16793509109789,306.33231038032 M107.44984966725474,295.570998983708 L112.5343666855565,289.97322020171464 M113.16793509109789,306.33231038032 L86.27876363520357,297.7832901720384 M85.61433504808195,281.43266185326513 L112.5343666855565,289.97322020171464 M86.27876363520357,297.7832901720384 L85.61433504808195,281.43266185326513 M81.18658651752548,303.3739156193657 L80.51568166142215,287.0177511068665 M86.27876363520357,297.7832901720384 L81.18658651752548,303.3739156193657 M85.61433504808195,281.43266185326513 L80.51568166142215,287.0177511068665 M81.18658651752548,303.3739156193657 L108.0898622130444,311.93562304052796 M107.44984966725474,295.570998983708 L80.51568166142215,287.0177511068665" stroke="black"  stroke-width="4"  fill="red"/>
<path d="M73.1330194523062,372.6468171965332 L72.44641260303308,356.22285907009996 M75.2354319634249,366.33610282072493 L74.55188468607957,349.91825898236107 M73.1330194523062,372.6468171965332 L75.2354319634249,366.33610282072493 M72.44641260303308,356.22285907009996 L74.55188468607957,349.91825898236107 M75.2354319634249,366.33610282072493 L44.71593189851251,363.3411917833894 M43.996502222002164,346.9262539621527 L74.55188468607957,349.91825898236107 M44.71593189851251,363.3411917833894 L43.996502222002164,346.9262539621527 M42.58910660478699,369.64694969470554 L41.86655990945292,353.22589652095064 M44.71593189851251,363.3411917833894 L42.58910660478699,369.64694969470554 M43.996502222002164,346.9262539621527 L41.86655990945292,353.22589652095064 M42.58910660478699,369.64694969470554 L73.1330194523062,372.6468171965332 M72.44641260303308,356.22285907009996 L41.86655990945292,353.22589652095064" stroke="black"  stroke-width="4"  fill="red"/>
<path d="M69.87591490903856,437.2104799235344 L69.17959896720765,420.72467790106873 M68.72360765691155,430.79262714328 L68.02649583423135,414.31291470361293 M69.87591490903856,437.2104799235344 L68.72360765691155,430.79262714328 M69.17959896720765,420.72467790106873 L68.02649583423135,414.31291470361293 M68.72360765691155,430.79262714328 L37.46219992580711,433.8407620983012 M36.72743886925093,417.3581558401514 L68.02649583423135,414.31291470361293 M37.46219992580711,433.8407620983012 L36.72743886925093,417.3581558401514 M38.588872511541695,440.26370410985066 L37.85484551956392,423.77500952207845 M37.46219992580711,433.8407620983012 L38.588872511541695,440.26370410985066 M36.72743886925093,417.3581558401514 L37.85484551956392,423.77500952207845 M38.588872511541695,440.26370410985066 L69.87591490903856,437.2104799235344 M69.17959896720765,420.72467790106873 L37.85484551956392,423.77500952207845" stroke="black"  stroke-width="4"  fill="red"/>
<path d="M99.42595464616727,499.31607740468394 L98.75964259555195,482.7720069458842 M95.05380420031338,493.43218968591873 L94.38273052752936,476.89358824038186 M99.42595464616727,499.31607740468394 L95.05380420031338,493.43218968591873 M98.75964259555195,482.7720069458842 L94.38273052752936,476.89358824038186 M95.05380420031338,493.43218968591873 L66.16522411091626,502.42976632046646 M65.45852674760988,485.88280606793387 L94.38273052752936,476.89358824038186 M66.16522411091626,502.42976632046646 L65.45852674760988,485.88280606793387 M70.5205076227362,508.3273201732537 L69.8185299653411,491.77489468894237 M66.16522411091626,502.42976632046646 L70.5205076227362,508.3273201732537 M65.45852674760988,485.88280606793387 L69.8185299653411,491.77489468894237 M70.5205076227362,508.3273201732537 L99.42595464616727,499.31607740468394 M98.75964259555195,482.7720069458842 L69.8185299653411,491.77489468894237" stroke="black"  stroke-width="4"  fill="red"/>
<path d="M159.55620745783958,552.5998297345625 L158.9583110205529,536.0067218888585 M152.33982168253328,547.8653044278019 L151.7335328429941,531.2765181212137 M159.55620745783958,552.5998297345625 L152.33982168253328,547.8653044278019 M158.9583110205529,536.0067218888585 L151.7335328429941,531.2765181212137 M152.33982168253328,547.8653044278019 L128.84441259904668,562.0861229288669 M128.20846123463014,545.4843772045226 L151.7335328429941,531.2765181212137 M128.84441259904668,562.0861229288669 L128.20846123463014,545.4843772045226 M136.05967705533828,566.8379117609365 L135.43211400198788,550.2318497288632 M128.84441259904668,562.0861229288669 L136.05967705533828,566.8379117609365 M128.20846123463014,545.4843772045226 L135.43211400198788,550.2318497288632 M136.05967705533828,566.8379117609365 L159.55620745783958,552.5998297345625 M158.9583110205529,536.0067218888585 L135.43211400198788,550.2318497288632" stroke="black"  stroke-width="4"  fill="red"/>
<path d="M244.65479131255535,591.3696037614282 L244.15774436218754,574.7413697608436 M235.2958104563779,588.2989467451839 L234.78754469374735,571.6734778042896 M244.65479131255535,591.3696037614282 L235.2958104563779,588.2989467451839 M244.15774436218754,574.7413697608436 L234.78754469374735,571.6734778042896 M235.2958104563779,588.2989467451839 L219.75120715784118,606.4130978594912 M219.2227664798925,589.7713598157386 L234.78754469374735,571.6734778042896 M219.75120715784118,606.4130978594912 L219.2227664798925,589.7713598157386 M229.12565337648664,609.4979159113884 L228.60846843384334,592.8534174091776 M219.75120715784118,606.4130978594912 L229.12565337648664,609.4979159113884 M219.2227664798925,589.7713598157386 L228.60846843384334,592.8534174091776 M229.12565337648664,609.4979159113884 L244.65479131255535,591.3696037614282 M244.15774436218754,574.7413697608436 L228.60846843384334,592.8534174091776" stroke="black"  stroke-width="4"  fill="red"/>
<path d="M346.15179926240745,611.3474262729453 L345.7776271133283,594.7012741474637 M335.61261157208406,610.2836785035859 L335.2256013225193,593.6384773314783 M346.15179926240745,611.3474262729453 L335.61261157208406,610.2836785035859 M345.7776271133283,594.7012741474637 L335.2256013225193,593.6384773314783 M335.61261157208406,610.2836785035859 L329.7603585906085,630.4811374360165 M329.36517886359695,613.8179404232562 L335.2256013225193,593.6384773314783 M329.7603585906085,630.4811374360165 L329.36517886359695,613.8179404232562 M340.325797790598,631.550351154179 L339.9435202305418,614.8862050063897 M329.7603585906085,630.4811374360165 L340.325797790598,631.550351154179 M329.36517886359695,613.8179404232562 L339.9435202305418,614.8862050063897 M340.325797790598,631.550351154179 L346.15179926240745,611.3474262729453 M345.7776271133283,594.7012741474637 L339.9435202305418,614.8862050063897" stroke="black"  stroke-width="4"  fill="red"/>
<path d="M453.44419848340465,610.2836785035859 L453.20128833679127,593.6384773314783 M442.8354065528358,611.3474262729453 L442.57948794750314,594.7012741474637 M453.44419848340465,610.2836785035859 L442.8354065528358,611.3474262729453 M453.20128833679127,593.6384773314783 L442.57948794750314,594.7012741474637 M442.8354065528358,611.3474262729453 L447.3394694245376,631.550351154179 M447.0884163720649,614.8862050063897 L442.57948794750314,594.7012741474637 M447.3394694245376,631.550351154179 L447.0884163720649,614.8862050063897 M457.97487051836725,630.4811374360165 L457.7368913066275,613.8179404232562 M447.3394694245376,631.550351154179 L457.97487051836725,630.4811374360165 M447.0884163720649,614.8862050063897 L457.7368913066275,613.8179404232562 M457.97487051836725,630.4811374360165 L453.44419848340465,610.2836785035859 M453.20128833679127,593.6384773314783 L457.7368913066275,613.8179404232562" stroke="black"  stroke-width="4"  fill="red"/>
<path d="M555.1995272229719,588.2989467451839 L555.0813882607213,571.6734778042896 M545.6396696989359,591.3696329638217 L545.5098215298126,574.7413989369547 M555.1995272229719,588.2989467451839 L545.6396696989359,591.3696329638217 M555.0813882607213,571.6734778042896 L545.5098215298126,574.7413989369547 M545.6396696989359,591.3696329638217 L559.9825715066695,609.4979159113884 M559.8699618774873,592.8534174091776 L545.5098215298126,574.7413989369547 M559.9825715066695,609.4979159113884 L559.8699618774873,592.8534174091776 M569.5588208159422,606.41306854511 L569.4579607173193,589.7713305276038 M559.9825715066695,609.4979159113884 L569.5588208159422,606.41306854511 M559.8699618774873,592.8534174091776 L569.4579607173193,589.7713305276038 M569.5588208159422,606.41306854511 L555.1995272229719,588.2989467451839 M555.0813882607213,571.6734778042896 L569.4579607173193,589.7713305276038" stroke="black"  stroke-width="4"  fill="red"/>
<path d="M416.38386014572643,392.50806984805183 L416.10361099290003,376.06494933938905 M416.10361099290003,376.06494933938905 L418.6379637259288,378.01170910634926 M418.6379637259288,378.01170910634926 L420.4984991000223,380.2339818712144 M420.4984991000223,380.2339818712144 L421.61330439964615,382.64676367869185 M421.61330439964615,382.64676367869185 L421.9388574392917,385.1575673613097 M421.9388574392917,385.1575673613097 L421.4618420593847,387.6700348370957 M421.4618420593847,387.6700348370957 L420.1999304327418,390.08748739174973 M420.1999304327418,390.08748739174973 L418.20084375233023,392.3167920128718 M418.20084375233023,392.3167920128718 L415.54110852167275,394.2718602772035 M415.54110852167275,394.2718602772035 L412.3227211246348,395.8770774885123 M412.3227211246348,395.8770774885123 L408.6695432977988,397.07033022253904 M408.6695432977988,397.07033022253904 L404.7224425839238,397.80528329456877 M404.7224425839238,397.80528329456877 L400.63370443705935,398.0535046547735 M400.63370443705935,398.0535046547735 L396.56128458966134,397.80529723130746 M396.56128458966134,397.80529723130746 L392.6623907226438,397.0703162884748 M392.6623907226438,397.0703162884748 L389.0875512224351,395.87709141823507 M389.0875512224351,395.87709141823507 L385.9745723777923,394.2718602772035 M385.9745723777923,394.2718602772035 L383.44316799466634,392.31680592964483 M383.44316799466634,392.31680592964483 L381.5904844252377,390.087501300417 M381.5904844252377,390.087501300417 L380.48723898161154,387.6700209372153 M380.48723898161154,387.6700209372153 L380.1751938345137,385.1575673613097 M380.1751938345137,385.1575673613097 L380.66560884739596,382.64674979706103 M380.66560884739596,382.64674979706103 L381.93877176217666,380.2339957440835 M381.93877176217666,380.2339957440835 L383.94524852856875,378.01172297115113 M383.94524852856875,378.01172297115113 L386.6073876579229,376.06494933938905 M386.6073876579229,376.06494933938905 L389.8228266352735,374.4680267022253 M389.8228266352735,374.4680267022253 L393.4681527315974,373.2818059730239 M393.4681527315974,373.2818059730239 L397.4036936797769,372.55155132780567 M397.4036936797769,372.55155132780567 L401.4789238343363,372.3049800107534 M401.4789238343363,372.3049800107534 L405.5379440744427,372.5515374828151 M405.5379440744427,372.5515374828151 L409.4255865414559,373.28181982066326 M409.4255865414559,373.28181982066326 L412.9930359058594,374.4680128502829 M412.9930359058594,374.4680128502829 L416.10361099290003,376.06494933938905 M416.38386014572643,392.50806984805183 L413.276920031042,390.9095956618705 M413.276920031042,390.9095956618705 L409.71366195466794,389.7222599279969 M409.71366195466794,389.7222599279969 L405.83060699740304,388.99127386393377 M405.83060699740304,388.99127386393377 L401.776395635441,388.74447876277486 M401.776395635441,388.74447876277486 L397.70601279456224,388.99128772226766 M397.70601279456224,388.99128772226766 L393.77517306824467,389.72224606701513 M393.77517306824467,389.72224606701513 L390.13422307755053,390.90960952715454 M390.13422307755053,390.90960952715454 L386.9226679548526,392.50806984805183 M386.9226679548526,392.50806984805183 L384.26377158113826,394.4567169628217 M384.26377158113826,394.4567169628217 L382.2597716458398,396.6811269041053 M382.2597716458398,396.6811269041053 L380.98822332944485,399.09619957140796 M380.98822332944485,399.09619957140796 L380.4984972873534,401.6094280631786 M380.4984972873534,401.6094280631786 L380.81027736993053,404.1242921731746 M380.81027736993053,404.1242921731746 L381.91231211310037,406.5440900949304 M381.91231211310037,406.5440900949304 L383.7628843200498,408.77553027251236 M383.7628843200498,408.77553027251236 L386.2913566936196,410.73245617881776 M386.2913566936196,410.73245617881776 L389.4006951759002,412.33922310596427 M389.4006951759002,412.33922310596427 L392.97132609769767,413.5335890604131 M392.97132609769767,413.5335890604131 L396.86560589658734,414.26927264695473 M396.86560589658734,414.26927264695473 L400.9331850830566,414.51771731938584 M400.9331850830566,414.51771731938584 L405.01704374735584,414.269258696894 M405.01704374735584,414.269258696894 L408.95941558217714,413.5336030078 M408.95941558217714,413.5336030078 L412.60819836828557,412.33920916291765 M412.60819836828557,412.33920916291765 L415.82269458018595,410.73245617881776 M415.82269458018595,410.73245617881776 L418.4791924456299,408.77551634241274 M418.4791924456299,408.77551634241274 L420.4758195852473,406.5440761729344 M420.4758195852473,406.5440761729344 L421.736143171589,404.12430608638545 M421.736143171589,404.12430608638545 L422.2125013634694,401.6094280631786 M422.2125013634694,401.6094280631786 L421.88724555690203,399.0962134663737 M421.88724555690203,399.0962134663737 L420.77367861510953,396.6811130178992 M420.77367861510953,396.6811130178992 L418.91527353879684,394.45670308468107 M418.91527353879684,394.45670308468107 L416.38386014572643,392.50806984805183" stroke="black"  stroke-width="4"  fill="red"/>
<path d="M720.5560031207958,482.87306686138425 L720.4735338534429,499.41723124768055 M751.3081943884456,422.7542482104574 L748.148114082642,433.05627601353615 M748.148114082642,433.05627601353615 L744.192117152787,443.2771452334026 M744.192117152787,443.2771452334026 L739.4460270061086,453.3930222706789 M739.4460270061086,453.3930222706789 L733.9178366616682,463.38006334104966 M733.9178366616682,463.38006334104966 L727.6172441571555,473.21456593797484 M727.6172441571555,473.21456593797484 L720.5560031207958,482.87306686138425 M751.3081943884456,422.7542482104574 L751.1896187508996,439.2419751541971 M720.4735338534429,499.41723124768055 L727.5263848020693,489.74973911601137 M727.5263848020693,489.74973911601137 L733.8195243594032,479.9060516322885 M733.8195243594032,479.9060516322885 L739.3412097105308,469.90965240236415 M739.3412097105308,469.90965240236415 L744.0817508965756,459.78426483154806 M744.0817508965756,459.78426483154806 L748.0331607050798,449.5537540173766 M748.0331607050798,449.5537540173766 L751.1896187508996,439.2419751541971 M720.4735338534429,499.41723124768055 L701.6490212993567,493.4322039251982 M701.6490212993567,493.4322039251982 L701.7087479162992,476.8936024664131 M720.5560031207958,482.87306686138425 L701.7087479162992,476.8936024664131 M695.8287205240716,289.97321681494134 L700.5457273541487,295.570998983708 M700.5457273541487,295.570998983708 L718.8494138341491,289.8771420453297 M718.8494138341491,289.8771420453297 L725.9165770243709,299.08293598276987 M725.9165770243709,299.08293598276987 L732.2769584145082,308.5033266525062 M732.2769584145082,308.5033266525062 L737.9140863647592,318.118516729024 M737.9140863647592,318.118516729024 L742.8128244456248,327.9082136955801 M742.8128244456248,327.9082136955801 L746.9594395211707,337.8514779209555 M746.9594395211707,337.8514779209555 L750.3418789939732,347.9269957950962 M750.3418789939732,347.9269957950962 L729.875693082956,349.91825898236107 M729.875693082956,349.91825898236107 L731.5672452294098,356.2228659630142 M731.5672452294098,356.2228659630142 L752.0500031190982,354.2283169591093 M752.0500031190982,354.2283169591093 L754.1729892045819,364.4715087874481 M754.1729892045819,364.4715087874481 L755.50767176663,374.7888650231995 M755.50767176663,374.7888650231995 L756.0478057875523,385.1575673613097 M756.0478057875523,385.1575673613097 L755.7889352056242,395.5544647721175 M755.7889352056242,395.5544647721175 L754.7283853460592,405.9561528996959 M754.7283853460592,405.9561528996959 L752.8653460081798,416.33905621737085 M752.8653460081798,416.33905621737085 L732.17344112863,414.31292170205086 M732.17344112863,414.31292170205086 L730.5994162325503,420.7246708909347 M730.5994162325503,420.7246708909347 L751.3081943884456,422.7542482104574 M701.7087479162992,476.8936024664131 L696.9458154375163,482.7720211935364 M696.9458154375163,482.7720211935364 L715.8037608983125,488.7605482593556 M715.8037608983125,488.7605482593556 L707.5402478716999,498.0847831579665 M707.5402478716999,498.0847831579665 L698.5560096183546,507.17282167127905 M698.5560096183546,507.17282167127905 L688.8696158797554,516.0023748252759 M688.8696158797554,516.0023748252759 L678.5016267559748,524.5517030739861 M678.5016267559748,524.5517030739861 L667.4744257959217,532.7995228847878 M667.4744257959217,532.7995228847878 L655.8122340390737,540.7252595178907 M655.8122340390737,540.7252595178907 L640.7875360600158,531.2765181212137 M640.7875360600158,531.2765181212137 L633.252211159275,536.0067218888585 M633.252211159275,536.0067218888585 L648.276898038598,545.4669441281258 M648.276898038598,545.4669441281258 L635.6418130344654,552.8290000136742 M635.6418130344654,552.8290000136742 L622.44321151139,559.818426825578 M622.44321151139,559.818426825578 L608.7112872671419,566.4173778076183 M608.7112872671419,566.4173778076183 L594.4778985610463,572.6089430595905 M594.4778985610463,572.6089430595905 L579.7761904868216,578.3771738813839 M579.7761904868216,578.3771738813839 L564.6407658403615,583.7072233157548 M564.6407658403615,583.7072233157548 L555.0813882607213,571.6734778042896 M555.0813882607213,571.6734778042896 L545.5098215298126,574.7413989369547 M545.5098215298126,574.7413989369547 L555.0582856768335,586.784550205681 M555.0582856768335,586.784550205681 L539.2969282049137,591.3759159761169 M539.2969282049137,591.3759159761169 L523.1982322000925,595.495238784559 M523.1982322000925,595.495238784559 L506.8008592786141,599.1317177675362 M506.8008592786141,599.1317177675362 L490.14445268486105,602.275867235453 M490.14445268486105,602.275867235453 L473.26947103815655,604.9193275933785 M473.26947103815655,604.9193275933785 L456.216916290168,607.0552029525209 M456.216916290168,607.0552029525209 L453.20128833679127,593.6384773314783 M453.20128833679127,593.6384773314783 L442.57948794750314,594.7012741474637 M442.57948794750314,594.7012741474637 L445.5772876940788,608.1216335613142 M445.5772876940788,608.1216335613142 L428.3255011782526,609.4238845834398 M428.3255011782526,609.4238845834398 L411.00594404564475,610.2066373814635 M411.00594404564475,610.2066373814635 L393.66100704107,610.467785863088 M393.66100704107,610.467785863088 L376.3332149226812,610.2066373814635 M376.3332149226812,610.2066373814635 L359.06504697507035,609.4238845834398 M359.06504697507035,609.4238845834398 L341.89870813930037,608.1216629865119 M341.89870813930037,608.1216629865119 L345.7776271133283,594.7012741474637 M345.7776271133283,594.7012741474637 L335.2256013225193,593.6384773314783 M335.2256013225193,593.6384773314783 L331.32914024183697,607.0552029525209 M331.32914024183697,607.0552029525209 L314.4167620872,604.9193569946344 M314.4167620872,604.9193569946344 L297.7153761746859,602.275867235453 M297.7153761746859,602.275867235453 L281.2653411662965,599.1317471255463 M281.2653411662965,599.1317471255463 L265.10675759753997,595.495238784559 M265.10675759753997,595.495238784559 L249.278502838536,591.3759159761169 M249.278502838536,591.3759159761169 L233.818577115644,586.784550205681 M233.818577115644,586.784550205681 L244.15774436218754,574.7413697608436 M244.15774436218754,574.7413697608436 L234.78754469374735,571.6734778042896 M234.78754469374735,571.6734778042896 L224.43808139206467,583.7072525586659 M224.43808139206467,583.7072525586659 L209.65263228377083,578.3771738813839 M209.65263228377083,578.3771738813839 L195.32961935002155,572.6089430595905 M195.32961935002155,572.6089430595905 L181.50264841229819,566.417392364699 M181.50264841229819,566.417392364699 L168.2040755982166,559.8183977604808 M168.2040755982166,559.8183977604808 L155.4642951275454,552.829000013674 M155.4642951275454,552.829000013674 L143.31254285989633,545.4669441281258 M143.31254285989633,545.4669441281258 L158.9583110205529,536.0067218888585 M158.9583110205529,536.0067218888585 L151.7335328429941,531.2765181212137 M151.7335328429941,531.2765181212137 L136.08850732138876,540.7252595178907 M136.08850732138876,540.7252595178907 L124.94665499622647,532.7995228847878 M124.94665499622647,532.7995228847878 L114.46098670222966,524.5516742704021 M114.46098670222966,524.5516742704021 L104.65420314404378,516.0024179358252 M104.65420314404378,516.0024179358252 L95.54751203231558,507.1728216712787 M95.54751203231558,507.1728216712787 L87.15992050268352,498.0847831579665 M87.15992050268352,498.0847831579665 L79.50851315409506,488.76057679874543 M79.50851315409506,488.76057679874543 L98.75964259555195,482.7720069458842 M98.75964259555195,482.7720069458842 L94.38273052752936,476.89358824038186 M94.38273052752936,476.89358824038186 L75.1428428755097,482.873066861384 M75.1428428755097,482.873066861384 L68.7157004868937,473.21456593797484 M68.7157004868937,473.21456593797484 L63.0607397889313,463.3800491646591 M63.0607397889313,463.3800491646591 L58.18816976403082,453.39303641043807 M58.18816976403082,453.39303641043807 L54.10629675313021,443.27715933610705 M54.10629675313021,443.27715933610705 L50.82124985240432,433.0563041441645 M50.82124985240432,433.0563041441645 L48.337553709345,422.75424119661864 M48.337553709345,422.75424119661864 L69.17959896720765,420.72467790106873 M69.17959896720765,420.72467790106873 L68.02649583423135,414.31291470361293 M68.02649583423135,414.31291470361293 L47.20155627827381,416.339098230168 M47.20155627827381,416.339098230168 L46.0201998922347,405.9561528996959 M46.0201998922347,405.9561528996959 L45.642551039264504,395.554471736392 M45.642551039264504,395.554471736392 L46.06625620115176,385.1575743066852 M46.06625620115176,385.1575743066852 L47.28711490740136,374.78887194975266 M47.28711490740136,374.78887194975266 L49.29912981023881,364.47150187959835 M49.29912981023881,364.47150187959835 L52.09461128363205,354.2283169591093 M52.09461128363205,354.2283169591093 L72.44641260303308,356.22285907009996 M72.44641260303308,356.22285907009996 L74.55188468607957,349.91825898236107 M74.55188468607957,349.91825898236107 L54.21641825702079,347.92698891718624 M54.21641825702079,347.92698891718624 L58.26035564995243,337.85148478066446 M58.26035564995243,337.85148478066446 L63.05976460692432,327.9082205373501 M63.05976460692432,327.9082205373501 L68.60121459236416,318.11852355315534 M68.60121459236416,318.11852355315534 L74.86958179432065,308.5033232490914 M74.86958179432065,308.5033232490914 L81.84844539188214,299.08294277266884 M81.84844539188214,299.08294277266884 L89.5199808533821,289.87714543201696 M89.5199808533821,289.87714543201696 L107.44984966725474,295.570998983708 M107.44984966725474,295.570998983708 L112.5343666855565,289.97322020171464 M112.5343666855565,289.97322020171464 L94.61389960572706,284.28782578776054 M94.61389960572706,284.28782578776054 L103.36622055531018,275.4700130300856 M103.36622055531018,275.4700130300856 L112.75833864689548,266.91569258398545 M112.75833864689548,266.91569258398545 L122.76795427001935,258.64232282524915 M122.76795427001935,258.64232282524915 L133.3716303542675,250.6666672788051 M133.3716303542675,250.6666672788051 L144.54481179913432,243.00482151060305 M144.54481179913432,243.00482151060305 L156.2620102380144,235.67212304420786 M156.2620102380144,235.67212304420786 L170.1509511802844,244.41722828581908 M170.1509511802844,244.41722828581908 L177.67508803216774,240.0340741734925 M177.67508803216774,240.0340741734925 L163.78548703045917,231.2991732689219 M163.78548703045917,231.2991732689219 L176.3274099001867,224.53020128332992 M176.3274099001867,224.53020128332992 L189.3422980904688,218.12692667672889 M189.3422980904688,218.12692667672889 L202.80154478597314,212.10188180020248 M202.80154478597314,212.10188180020248 L216.67577811901856,206.4668295020739 M216.67577811901856,206.4668295020739 L230.9350374374401,201.23267971402242 M230.9350374374401,201.23267971402242 L245.5487478972988,196.40950175139483 M245.5487478972988,196.40950175139483 L254.1968249410514,207.31710071729913 M254.1968249410514,207.31710071729913 L263.42850018846354,204.53008172270768 M263.42850018846354,204.53008172270768 L254.77011807799715,193.63063857822078 M254.77011807799715,193.63063857822078 L269.891570389167,189.49246375283326 M269.891570389167,189.49246375283326 L285.28476799712496,185.78775659215057 M285.28476799712496,185.78775659215057 L300.91736589332356,182.5235574761365 M300.91736589332356,182.5235574761365 L316.75666958955924,179.70603665279748 M316.75666958955924,179.70603665279748 L332.769555740663,177.34058192265422 M332.769555740663,177.34058192265422 L348.92280944429433,175.43160201004116 M348.92280944429433,175.43160201004116 L351.60899170281385,187.45667373502795 M351.60899170281385,187.45667373502795 L361.69197377843045,186.50121614659668 M361.69197377843045,186.50121614659668 L358.9899056965436,174.47920021288633 M358.9899056965436,174.47920021288633 L375.29936829221845,173.3168752911355 M375.29936829221845,173.3168752911355 L391.66116170228213,172.61860570030558 M391.66116170228213,172.61860570030558 L408.04147212093704,172.38569889239488 M408.04147212093704,172.38569889239488 L424.40649177278567,172.61860570030558 M424.40649177278567,172.61860570030558 L440.7224094341177,173.31688185702785 M440.7224094341177,173.31688185702785 L456.955595930133,174.47921334877708 M456.955595930133,174.47921334877708 L453.4642165096053,186.50121614659668 M453.4642165096053,186.50121614659668 L463.48450376027154,187.4566803259179 M463.48450376027154,187.4566803259179 L466.960121745431,175.43160201004116 M466.960121745431,175.43160201004116 L482.9880803691125,177.34057534965336 M482.9880803691125,177.34057534965336 L498.8456916375427,179.70604322997917 M498.8456916375427,179.70604322997917 L514.4999764683857,182.52353772964682 M514.4999764683857,182.52353772964682 L529.9182569232685,185.7877467102453 M529.9182569232685,185.7877467102453 L545.0682719167298,189.4924571583407 M545.0682719167298,189.4924571583407 L559.918039772534,193.63063527731106 M559.918039772534,193.63063527731106 L550.5441051228272,204.53009496498134 M550.5441051228272,204.53009496498134 L559.5927692430867,207.31708415209698 M559.5927692430867,207.31708415209698 L568.9569613264114,196.40950505476576 M568.9569613264114,196.40950505476576 L583.2540321914367,201.23267640637755 M583.2540321914367,201.23267640637755 L597.1696542603406,206.4668295020739 M597.1696542603406,206.4668295020739 L610.6739522957182,212.10189838663518 M610.6739522957182,212.10189838663518 L623.7376326263261,218.12692335409167 M623.7376326263261,218.12692335409167 L636.3321228205347,224.5302046116584 M636.3321228205347,224.5302046116584 L648.4296500213134,231.29917660327192 M648.4296500213134,231.29917660327192 L633.9665919612451,240.0340741734925 M633.9665919612451,240.0340741734925 L641.202966548827,244.4172282858192 M641.202966548827,244.4172282858192 L655.6660344832662,235.67212638245087 M655.6660344832662,235.67212638245087 L666.9018275547389,243.00482485537918 M666.9018275547389,243.00482485537918 L677.5720055402487,250.66666392719617 M677.5720055402487,250.66666392719617 L687.652031655587,258.6423127490609 M687.652031655587,258.6423127490609 L697.118512827224,266.91569258398545 M697.118512827224,266.91569258398545 L705.9490293120462,275.47000965630855 M705.9490293120462,275.47000965630855 L714.1224333058225,284.28782916943646 M714.1224333058225,284.28782916943646 L695.8287205240716,289.97321681494134 M416.10361099290003,376.06494933938905 L418.6379637259288,378.01170910634926 M418.6379637259288,378.01170910634926 L420.4984991000223,380.2339818712144 M420.4984991000223,380.2339818712144 L421.61330439964615,382.64676367869185 M421.61330439964615,382.64676367869185 L421.9388574392917,385.1575673613097 M421.9388574392917,385.1575673613097 L421.4618420593847,387.6700348370957 M421.4618420593847,387.6700348370957 L420.1999304327418,390.08748739174973 M420.1999304327418,390.08748739174973 L418.20084375233023,392.3167920128718 M418.20084375233023,392.3167920128718 L415.54110852167275,394.2718602772035 M415.54110852167275,394.2718602772035 L412.3227211246348,395.8770774885123 M412.3227211246348,395.8770774885123 L408.6695432977988,397.07033022253904 M408.6695432977988,397.07033022253904 L404.7224425839238,397.80528329456877 M404.7224425839238,397.80528329456877 L400.63370443705935,398.0535046547735 M400.63370443705935,398.0535046547735 L396.56128458966134,397.80529723130746 M396.56128458966134,397.80529723130746 L392.6623907226438,397.0703162884748 M392.6623907226438,397.0703162884748 L389.0875512224351,395.87709141823507 M389.0875512224351,395.87709141823507 L385.9745723777923,394.2718602772035 M385.9745723777923,394.2718602772035 L383.44316799466634,392.31680592964483 M383.44316799466634,392.31680592964483 L381.5904844252377,390.087501300417 M381.5904844252377,390.087501300417 L380.48723898161154,387.6700209372153 M380.48723898161154,387.6700209372153 L380.1751938345137,385.1575673613097 M380.1751938345137,385.1575673613097 L380.66560884739596,382.64674979706103 M380.66560884739596,382.64674979706103 L381.93877176217666,380.2339957440835 M381.93877176217666,380.2339957440835 L383.94524852856875,378.01172297115113 M383.94524852856875,378.01172297115113 L386.6073876579229,376.06494933938905 M386.6073876579229,376.06494933938905 L389.8228266352735,374.4680267022253 M389.8228266352735,374.4680267022253 L393.4681527315974,373.2818059730239 M393.4681527315974,373.2818059730239 L397.4036936797769,372.55155132780567 M397.4036936797769,372.55155132780567 L401.4789238343363,372.3049800107534 M401.4789238343363,372.3049800107534 L405.5379440744427,372.5515374828151 M405.5379440744427,372.5515374828151 L409.4255865414559,373.28181982066326 M409.4255865414559,373.28181982066326 L412.9930359058594,374.4680128502829 M412.9930359058594,374.4680128502829 L416.10361099290003,376.06494933938905 M730.5056102619887,437.21047290674915 L751.1896187508996,439.2419751541971 M730.5056102619887,437.21047290674915 L730.5994162325503,420.7246708909347 M701.6490212993567,493.4322039251982 L696.891779129043,499.3160916655785 M696.891779129043,499.3160916655785 L715.7269561828493,505.31017912393804 M715.7269561828493,505.31017912393804 L707.4733216158205,514.6430494230652 M707.4733216158205,514.6430494230652 L698.4998581304251,523.739478546717 M698.4998581304251,523.739478546717 L688.825115200465,532.5771590398622 M688.825115200465,532.5771590398622 L678.4696298447252,541.1343335650874 M678.4696298447252,541.1343335650874 L667.45575989549,549.3897013767714 M667.45575989549,549.3897013767714 L655.8076980026369,557.3226713056299 M655.8076980026369,557.3226713056299 L640.8012117481258,547.8653044278019 M640.8012117481258,547.8653044278019 L633.2750316339807,552.5998297345625 M633.2750316339807,552.5998297345625 L648.281506829089,562.0686739897353 M564.7474246146261,600.3435213570924 L579.8643257622266,595.0086810018379 M579.8643257622266,595.0086810018379 L594.5480598466279,589.2352554362217 M594.5480598466279,589.2352554362217 L608.7640681265865,583.0381026701052 M608.7640681265865,583.0381026701052 L622.4792473487283,576.4331833969084 M622.4792473487283,576.4331833969084 L635.6617790724994,569.4374203544858 M635.6617790724994,569.4374203544858 L648.281506829089,562.0686739897353 M564.7474246146261,600.3435213570924 L555.1995272229719,588.2989467451839 M555.1995272229719,588.2989467451839 L545.6396696989359,591.3696329638217 M545.6396696989359,591.3696329638217 L555.176680451299,603.4236102792097 M456.4565511229584,623.7123831453814 L473.48818237503093,621.574604536089 M473.48818237503093,621.574604536089 L490.34245622085484,618.9287866595491 M490.34245622085484,618.9287866595491 L506.9784247526173,615.781830311184 M506.9784247526173,615.781830311184 L523.3556825129364,612.142101092365 M523.3556825129364,612.142101092365 L539.4346381536985,608.0190915166197 M539.4346381536985,608.0190915166197 L555.176680451299,603.4236102792097 M456.4565511229584,623.7123831453814 L453.44419848340465,610.2836785035859 M453.44419848340465,610.2836785035859 L442.8354065528358,611.3474262729453 M442.8354065528358,611.3474262729453 L445.82997455225774,624.7797635048396 M342.2782652558272,624.7797929562382 L359.4236571014709,626.0831738164843 M359.4236571014709,626.0831738164843 L376.67072422242904,626.8666231824793 M376.67072422242904,626.8666231824793 L393.9773173951577,627.128004016462 M393.9773173951577,627.128004016462 L411.30101350797054,626.8666231824793 M411.30101350797054,626.8666231824793 L428.59934409519565,626.0831738164843 M428.59934409519565,626.0831738164843 L445.82997455225774,624.7797635048396 M342.2782652558272,624.7797929562382 L346.15179926240745,611.3474262729453 M346.15179926240745,611.3474262729453 L335.61261157208406,610.2836785035859 M335.61261157208406,610.2836785035859 L331.7215780920187,623.7123831453814 M234.3290046576034,603.4236102792097 L249.77035069119677,608.0190915166195 M249.77035069119677,608.0190915166195 L265.57952532060375,612.142101092365 M265.57952532060375,612.142101092365 L281.718576920908,615.7818596954171 M281.718576920908,615.7818596954171 L298.14867820891834,618.9287866595491 M298.14867820891834,618.9287866595491 L314.8297806144722,621.5746339635539 M314.8297806144722,621.5746339635539 L331.7215780920187,623.7123831453814 M234.3290046576034,603.4236102792097 L244.65479131255535,591.3696037614282 M244.65479131255535,591.3696037614282 L235.2958104563779,588.2989467451839 M235.2958104563779,588.2989467451839 L224.9597522817617,600.3435506262642 M143.93015708770554,562.0686739897353 L156.06772543860356,569.4374203544855 M156.06772543860356,569.4374203544855 L168.7925510139166,576.4331543054943 M168.7925510139166,576.4331543054943 L182.07543254086784,583.0381172403365 M182.07543254086784,583.0381172403365 L195.88601231757622,589.2352554362217 M195.88601231757622,589.2352554362217 L210.19197367080602,595.0086810018379 M210.19197367080602,595.0086810018379 L224.9597522817617,600.3435506262642 M143.93015708770554,562.0686739897353 L159.55620745783958,552.5998297345625 M159.55620745783958,552.5998297345625 L152.33982168253328,547.8653044278019 M152.33982168253328,547.8653044278019 L136.71451125257846,557.3226713056299 M80.19854034012707,505.31020768980056 L87.8415446401134,514.643049423065 M87.8415446401134,514.643049423065 L96.21980120114551,523.739478546717 M96.21980120114551,523.739478546717 L105.31624199844146,532.5772021900343 M105.31624199844146,532.5772021900343 L115.11187921881498,541.1343047351068 M115.11187921881498,541.1343047351068 L125.58552762310063,549.3897013767714 M125.58552762310063,549.3897013767714 L136.71451125257846,557.3226713056299 M80.19854034012707,505.31020768980056 L99.42595464616727,499.31607740468394 M99.42595464616727,499.31607740468394 L95.05380420031338,493.43218968591873 M95.05380420031338,493.43218968591873 L75.83760382767264,499.41723124768055 M49.05895754057542,439.2419681337084 L51.54064792083989,449.553782174586 M51.54064792083989,449.553782174586 L54.82271346798598,459.7842789475334 M54.82271346798598,459.7842789475334 L58.90062907837,469.9096665553949 M58.90062907837,469.9096665553949 L63.76826727728593,479.9060374426365 M63.76826727728593,479.9060374426365 L69.41732618663491,489.74973911601137 M69.41732618663491,489.74973911601137 L75.83760382767264,499.41723124768055 M49.05895754057542,439.2419681337084 L69.87591490903856,437.2104799235344 M69.87591490903856,437.2104799235344 L68.72360765691155,430.79262714328 M68.72360765691155,430.79262714328 L47.9237148594662,432.82073642406215 M52.80514034007297,370.65034208914824 L50.013928384181725,380.9034409689334 M50.013928384181725,380.9034409689334 L48.00526854007069,391.2307637816872 M48.00526854007069,391.2307637816872 L46.78683544255637,401.6094350152206 M46.78683544255637,401.6094350152206 L46.36461332627249,412.0162948259199 M46.36461332627249,412.0162948259199 L46.74279159381854,422.4279092818774 M46.74279159381854,422.4279092818774 L47.9237148594662,432.82073642406215 M52.80514034007297,370.65034208914824 L73.1330194523062,372.6468171965332 M73.1330194523062,372.6468171965332 L75.2354319634249,366.33610282072493 M75.2354319634249,366.33610282072493 L54.923849440356435,364.34289902319983 M90.18056613408248,306.2361405474319 L82.51885437659746,315.45103370349307 M82.51885437659746,315.45103370349307 L75.54904029601602,324.8806947033445 M75.54904029601602,324.8806947033445 L69.28892328122555,334.50533896942557 M69.28892328122555,334.50533896942557 L63.75490030018534,344.30462173614546 M63.75490030018534,344.30462173614546 L58.96207249707038,354.25759159054985 M58.96207249707038,354.25759159054985 L54.923849440356435,364.34289902319983 M90.18056613408248,306.2361405474319 L108.0898622130444,311.93562304052796 M108.0898622130444,311.93562304052796 L113.16793509109789,306.33231038032 M113.16793509109789,306.33231038032 L95.26801935364585,300.6412854877095 M156.8400486525224,251.97702571740433 L145.13708865633475,259.31709515131377 M145.13708865633475,259.31709515131377 L133.97756338175645,266.9866248695173 M133.97756338175645,266.9866248695173 L123.38692989919718,274.9702596678943 M123.38692989919718,274.9702596678943 L113.38971264805014,283.2518856017516 M113.38971264805014,283.2518856017516 L104.00931889935566,291.8147201834819 M104.00931889935566,291.8147201834819 L95.26801935364585,300.6412854877095 M156.8400486525224,251.97702571740433 L170.71345184733127,260.73091978199363 M170.71345184733127,260.73091978199363 L178.2284835523084,256.3433635796864 M178.2284835523084,256.3433635796864 L164.35442260461357,247.59967220234944 M246.02021287673165,212.67465212626303 L231.42376608629573,217.5027392766881 M231.42376608629573,217.5027392766881 L217.1814085203893,222.74220835895346 M217.1814085203893,222.74220835895346 L203.3236806526452,228.38297784149415 M203.3236806526452,228.38297784149415 L189.88050908387874,234.41412464387497 M189.88050908387874,234.41412464387497 L176.88123190091454,240.823871844849 M176.88123190091454,240.823871844849 L164.35442260461357,247.59967220234944 M246.02021287673165,212.67465212626303 L254.65893442476133,223.59334287155502 M254.65893442476133,223.59334287155502 L263.87971940563534,220.8034933206136 M263.87971940563534,220.8034933206136 L255.23071713681904,209.89295724724377 M349.2733991041232,191.67531614356835 L333.13892110066473,193.58625241134303 M333.13892110066473,193.58625241134303 L317.1446815862449,195.95412972594534 M317.1446815862449,195.95412972594534 L301.3238600247055,198.77453384487023 M301.3238600247055,198.77453384487023 L285.70954420276746,202.0420702722746 M285.70954420276746,202.0420702722746 L270.3343932993813,205.75056110020842 M270.3343932993813,205.75056110020842 L255.23071713681904,209.89295724724377 M349.2733991041232,191.67531614356835 L351.95703601910316,203.71269243154006 M351.95703601910316,203.71269243154006 L362.0282953331418,202.75625882475788 M362.0282953331418,202.75625882475788 L359.3288095369278,190.72193788461072 M457.18121823321354,190.72195103397098 L440.9667646459134,189.5584274647731 M440.9667646459134,189.5584274647731 L424.66968607706906,188.85943495963227 M424.66968607706906,188.85943495963227 L408.32357637663654,188.626289183234 M408.32357637663654,188.626289183234 L391.9622112421887,188.85943495963227 M391.9622112421887,188.85943495963227 L375.619362899638,189.5584208921456 M375.619362899638,189.5584208921456 L359.3288095369278,190.72193788461072 M457.18121823321354,190.72195103397098 L453.69424688721324,202.75625882475788 M453.69424688721324,202.75625882475788 L463.7029565666452,203.71269902916163 M463.7029565666452,203.71269902916163 L467.1742028092891,191.67531614356835 M560.0248767237385,209.89295394296892 L545.1922556275463,205.75055449898457 M545.1922556275463,205.75055449898457 L530.0597242232891,202.04206038027098 M530.0597242232891,202.04206038027098 L514.6592298576047,198.7745140781817 M514.6592298576047,198.7745140781817 L499.02299918959545,195.9541363098607 M499.02299918959545,195.9541363098607 L483.1836754445235,193.58624583160793 M483.1836754445235,193.58624583160793 L467.1742028092891,191.67531614356835 M560.0248767237385,209.89295394296892 L550.6619812824838,220.8035065763421 M550.6619812824838,220.8035065763421 L559.7001798781705,223.5933262895362 M559.7001798781705,223.5933262895362 L569.0533552080408,212.67465543299863 M648.4338955854935,247.59967554005948 L636.350447440312,240.82387517653842 M636.350447440312,240.82387517653842 L623.7705904721713,234.4141213178758 M623.7705904721713,234.4141213178758 L610.7220660050475,228.38299444474058 M610.7220660050475,228.38299444474058 L597.2334143742494,222.74220835895346 M597.2334143742494,222.74220835895346 L583.3338966698782,217.50273596567922 M583.3338966698782,217.50273596567922 L569.0533552080408,212.67465543299863 M648.4338955854935,247.59967554005948 L633.9877139276628,256.3433635796864 M633.9877139276628,256.3433635796864 L641.215654533798,260.73091978199363 M641.215654533798,260.73091978199363 L655.6618460314892,251.97702905900678 M714.0496253265776,300.6412888727374 L705.885885743088,291.81471680635116 M705.885885743088,291.81471680635116 L697.0657786895217,283.2518856017517 M697.0657786895217,283.2518856017517 L687.6104256082663,274.97024958163786 M687.6104256082663,274.97024958163786 L677.5422187733077,266.9866215145512 M677.5422187733077,266.9866215145512 L666.8845230400848,259.3170984994482 M666.8845230400848,259.3170984994482 L655.6618460314892,251.97702905900678 M714.0496253265776,300.6412888727374 L695.777339644231,306.3323069901953 M695.777339644231,306.3323069901953 L700.4887652576081,311.93562304052807 M700.4887652576081,311.93562304052807 L718.7710012744855,306.2361371573936 M750.2256000334827,364.3429059077912 L746.847311411228,354.257584724156 M746.847311411228,354.257584724156 L742.7057365774701,344.3046148876866 M742.7057365774701,344.3046148876866 L737.8129103547794,334.50533213860206 M737.8129103547794,334.50533213860206 L732.1825463719374,324.880698110107 M732.1825463719374,324.880698110107 L725.8297601801503,315.45102690689487 M725.8297601801503,315.45102690689487 L718.7710012744855,306.2361371573936 M750.2256000334827,364.3429059077912 L729.7836072541115,366.33610282072505 M729.7836072541115,366.33610282072505 L731.4730794613163,372.64682409612556 M731.4730794613163,372.64682409612556 L751.9316051277933,370.65034208914824 M752.7450101534971,432.8206943713477 L754.6059907402877,422.4279092818774 M754.6059907402877,422.4279092818774 L755.6654436672617,412.0162878549834 M755.6654436672617,412.0162878549834 L755.9241739110781,401.6094280631786 M755.9241739110781,401.6094280631786 L755.3848487103992,391.23075684846344 M755.3848487103992,391.23075684846344 L754.0519146226294,380.90344788345783 M754.0519146226294,380.90344788345783 L751.9316051277933,370.65034208914824 M752.7450101534971,432.8206943713477 L732.077834616267,430.7926341483717 M732.077834616267,430.7926341483717 L730.5056102619887,437.21047290674915 M416.38386014572643,392.50806984805183 L413.276920031042,390.9095956618705 M413.276920031042,390.9095956618705 L409.71366195466794,389.7222599279969 M409.71366195466794,389.7222599279969 L405.83060699740304,388.99127386393377 M405.83060699740304,388.99127386393377 L401.776395635441,388.74447876277486 M401.776395635441,388.74447876277486 L397.70601279456224,388.99128772226766 M397.70601279456224,388.99128772226766 L393.77517306824467,389.72224606701513 M393.77517306824467,389.72224606701513 L390.13422307755053,390.90960952715454 M390.13422307755053,390.90960952715454 L386.9226679548526,392.50806984805183 M386.9226679548526,392.50806984805183 L384.26377158113826,394.4567169628217 M384.26377158113826,394.4567169628217 L382.2597716458398,396.6811269041053 M382.2597716458398,396.6811269041053 L380.98822332944485,399.09619957140796 M380.98822332944485,399.09619957140796 L380.4984972873534,401.6094280631786 M380.4984972873534,401.6094280631786 L380.81027736993053,404.1242921731746 M380.81027736993053,404.1242921731746 L381.91231211310037,406.5440900949304 M381.91231211310037,406.5440900949304 L383.7628843200498,408.77553027251236 M383.7628843200498,408.77553027251236 L386.2913566936196,410.73245617881776 M386.2913566936196,410.73245617881776 L389.4006951759002,412.33922310596427 M389.4006951759002,412.33922310596427 L392.97132609769767,413.5335890604131 M392.97132609769767,413.5335890604131 L396.86560589658734,414.26927264695473 M396.86560589658734,414.26927264695473 L400.9331850830566,414.51771731938584 M400.9331850830566,414.51771731938584 L405.01704374735584,414.269258696894 M405.01704374735584,414.269258696894 L408.95941558217714,413.5336030078 M408.95941558217714,413.5336030078 L412.60819836828557,412.33920916291765 M412.60819836828557,412.33920916291765 L415.82269458018595,410.73245617881776 M415.82269458018595,410.73245617881776 L418.4791924456299,408.77551634241274 M418.4791924456299,408.77551634241274 L420.4758195852473,406.5440761729344 M420.4758195852473,406.5440761729344 L421.736143171589,404.12430608638545 M421.736143171589,404.12430608638545 L422.2125013634694,401.6094280631786 M422.2125013634694,401.6094280631786 L421.88724555690203,399.0962134663737 M421.88724555690203,399.0962134663737 L420.77367861510953,396.6811130178992 M420.77367861510953,396.6811130178992 L418.91527353879684,394.45670308468107 M418.91527353879684,394.45670308468107 L416.38386014572643,392.50806984805183 M696.891779129043,499.3160916655785 L696.9458154375163,482.7720211935364 M695.777339644231,306.3323069901953 L695.8287205240716,289.97321681494134 M700.4887652576081,311.93562304052807 L700.5457273541487,295.570998983708 M714.1224333058225,284.28782916943646 L714.0496253265776,300.6412888727374 M718.8494138341491,289.8771420453297 L718.7710012744855,306.2361371573936 M655.6660344832662,235.67212638245087 L655.6618460314892,251.97702905900678 M750.3418789939732,347.9269957950962 L750.2256000334827,364.3429059077912 M641.215654533798,260.73091978199363 L641.202966548827,244.4172282858192 M729.7836072541115,366.33610282072505 L729.875693082956,349.91825898236107 M633.9877139276628,256.3433635796864 L633.9665919612451,240.0340741734925 M731.4730794613163,372.64682409612556 L731.5672452294098,356.2228659630142 M648.4296500213134,231.29917660327192 L648.4338955854935,247.59967554005948 M752.0500031190982,354.2283169591093 L751.9316051277933,370.65034208914824 M568.9569613264114,196.40950505476576 L569.0533552080408,212.67465543299863 M752.8653460081798,416.33905621737085 L752.7450101534971,432.8206943713477 M559.7001798781705,223.5933262895362 L559.5927692430867,207.31708415209698 M732.077834616267,430.7926341483717 L732.17344112863,414.31292170205086 M550.6619812824838,220.8035065763421 L550.5441051228272,204.53009496498134 M559.918039772534,193.63063527731106 L560.0248767237385,209.89295394296892 M466.960121745431,175.43160201004116 L467.1742028092891,191.67531614356835 M463.7029565666452,203.71269902916163 L463.48450376027154,187.4566803259179 M453.69424688721324,202.75625882475788 L453.4642165096053,186.50121614659668 M456.955595930133,174.47921334877708 L457.18121823321354,190.72195103397098 M715.8037608983125,488.7605482593556 L715.7269561828493,505.31017912393804 M358.9899056965436,174.47920021288633 L359.3288095369278,190.72193788461072 M655.8122340390737,540.7252595178907 L655.8076980026369,557.3226713056299 M362.0282953331418,202.75625882475788 L361.69197377843045,186.50121614659668 M640.8012117481258,547.8653044278019 L640.7875360600158,531.2765181212137 M351.95703601910316,203.71269243154006 L351.60899170281385,187.45667373502795 M633.2750316339807,552.5998297345625 L633.252211159275,536.0067218888585 M348.92280944429433,175.43160201004116 L349.2733991041232,191.67531614356835 M648.276898038598,545.4669441281258 L648.281506829089,562.0686739897353 M254.77011807799715,193.63063857822078 L255.23071713681904,209.89295724724377 M564.6407658403615,583.7072233157548 L564.7474246146261,600.3435213570924 M263.87971940563534,220.8034933206136 L263.42850018846354,204.53008172270768 M555.1995272229719,588.2989467451839 L555.0813882607213,571.6734778042896 M254.65893442476133,223.59334287155502 L254.1968249410514,207.31710071729913 M545.6396696989359,591.3696329638217 L545.5098215298126,574.7413989369547 M245.5487478972988,196.40950175139483 L246.02021287673165,212.67465212626303 M555.0582856768335,586.784550205681 L555.176680451299,603.4236102792097 M163.78548703045917,231.2991732689219 L164.35442260461357,247.59967220234944 M456.216916290168,607.0552029525209 L456.4565511229584,623.7123831453814 M178.2284835523084,256.3433635796864 L177.67508803216774,240.0340741734925 M453.44419848340465,610.2836785035859 L453.20128833679127,593.6384773314783 M170.71345184733127,260.73091978199363 L170.1509511802844,244.41722828581908 M442.8354065528358,611.3474262729453 L442.57948794750314,594.7012741474637 M156.2620102380144,235.67212304420786 L156.8400486525224,251.97702571740433 M445.5772876940788,608.1216335613142 L445.82997455225774,624.7797635048396 M94.61389960572706,284.28782578776054 L95.26801935364585,300.6412854877095 M341.89870813930037,608.1216629865119 L342.2782652558272,624.7797929562382 M113.16793509109789,306.33231038032 L112.5343666855565,289.97322020171464 M346.15179926240745,611.3474262729453 L345.7776271133283,594.7012741474637 M108.0898622130444,311.93562304052796 L107.44984966725474,295.570998983708 M335.61261157208406,610.2836785035859 L335.2256013225193,593.6384773314783 M89.5199808533821,289.87714543201696 L90.18056613408248,306.2361405474319 M331.32914024183697,607.0552029525209 L331.7215780920187,623.7123831453814 M54.21641825702079,347.92698891718624 L54.923849440356435,364.34289902319983 M233.818577115644,586.784550205681 L234.3290046576034,603.4236102792097 M75.2354319634249,366.33610282072493 L74.55188468607957,349.91825898236107 M244.65479131255535,591.3696037614282 L244.15774436218754,574.7413697608436 M73.1330194523062,372.6468171965332 L72.44641260303308,356.22285907009996 M235.2958104563779,588.2989467451839 L234.78754469374735,571.6734778042896 M52.09461128363205,354.2283169591093 L52.80514034007297,370.65034208914824 M224.43808139206467,583.7072525586659 L224.9597522817617,600.3435506262642 M47.20155627827381,416.339098230168 L47.9237148594662,432.82073642406215 M143.31254285989633,545.4669441281258 L143.93015708770554,562.0686739897353 M68.72360765691155,430.79262714328 L68.02649583423135,414.31291470361293 M159.55620745783958,552.5998297345625 L158.9583110205529,536.0067218888585 M69.87591490903856,437.2104799235344 L69.17959896720765,420.72467790106873 M152.33982168253328,547.8653044278019 L151.7335328429941,531.2765181212137 M48.337553709345,422.75424119661864 L49.05895754057542,439.2419681337084 M136.08850732138876,540.7252595178907 L136.71451125257846,557.3226713056299 M75.1428428755097,482.873066861384 L75.83760382767264,499.41723124768055 M79.50851315409506,488.76057679874543 L80.19854034012707,505.31020768980056 M95.05380420031338,493.43218968591873 L94.38273052752936,476.89358824038186 M99.42595464616727,499.31607740468394 L98.75964259555195,482.7720069458842 M416.38386014572643,392.50806984805183 L416.10361099290003,376.06494933938905" stroke="black"  stroke-width="4"  fill="red"/></svg>