<svg viewBox="0 0 800 800" xmlns="http://www.w3.org/2000/svg"><path d="M249.8610166070223,632.1496014269326 L250.7967487050414,528.0969704572478 M226.3760801892089,645.9840959424314 L227.2620072663044,541.9025842913516 M249.8610166070223,632.1496014269326 L226.3760801892089,645.9840959424314 M250.7967487050414,528.0969704572478 L227.2620072663044,541.9025842913516 M348.45203711678664,716.5038601829499 L349.60287790527457,612.2756484207778 M226.3760801892089,645.9840959424314 L348.45203711678664,716.5038601829499 M227.2620072663044,541.9025842913516 L349.60287790527457,612.2756484207778 M371.93541377496103,702.5901538527669 L373.13604952236994,598.3908180456731 M348.45203711678664,716.5038601829499 L371.93541377496103,702.5901538527669 M349.60287790527457,612.2756484207778 L373.13604952236994,598.3908180456731 M371.93541377496103,702.5901538527669 L249.8610166070223,632.1496014269326 M373.13604952236994,598.3908180456731 L250.7967487050414,528.0969704572478" stroke="black"  stroke-width="4"  fill="red"/>
<path d="M354.1620374641884,541.9889708950684 L355.31692577138926,438.12537101486333 M339.36130093782447,559.2966176031221 L340.4853967119965,455.39662110383375 M354.1620374641884,541.9889708950684 L339.36130093782447,559.2966176031221 M355.31692577138926,438.12537101486333 L340.4853967119965,455.39662110383375 M491.96677750516324,604.2090860815929 L493.4194309116897,500.2148845318476 M339.36130093782447,559.2966176031221 L491.96677750516324,604.2090860815929 M340.4853967119965,455.39662110383375 L493.4194309116897,500.2148845318476 M506.6868414472624,586.8381143361391 L508.16993894595066,482.88030735442413 M491.96677750516324,604.2090860815929 L506.6868414472624,586.8381143361391 M493.4194309116897,500.2148845318476 L508.16993894595066,482.88030735442413 M506.6868414472624,586.8381143361391 L354.1620374641884,541.9889708950684 M508.16993894595066,482.88030735442413 L355.31692577138926,438.12537101486333" stroke="black"  stroke-width="4"  fill="red"/>
<path d="M404.5721169796294,437.98867939405557 L405.82922634045985,334.34487799701475 M399.822699785237,457.01358054050695 L401.07068880011616,353.3294309436837 M404.5721169796294,437.98867939405557 L399.822699785237,457.01358054050695 M405.82922634045985,334.34487799701475 L401.07068880011616,353.3294309436837 M567.3880029673576,472.34240929650235 L568.9933563553097,368.6257958328527 M399.822699785237,457.01358054050695 L567.3880029673576,472.34240929650235 M401.07068880011616,353.3294309436837 L568.9933563553097,368.6257958328527 M572.0099899028721,453.29366596017707 L573.6239198107912,349.6174006581152 M567.3880029673576,472.34240929650235 L572.0099899028721,453.29366596017707 M568.9933563553097,368.6257958328527 L573.6239198107912,349.6174006581152 M572.0099899028721,453.29366596017707 L404.5721169796294,437.98867939405557 M573.6239198107912,349.6174006581152 L405.82922634045985,334.34487799701475" stroke="black"  stroke-width="4"  fill="red"/>
<path d="M396.7902284875355,330.5518420179229 L398.0253390800391,227.13707192575077 M402.4291971938609,349.4098707965886 L403.67720594707714,245.95475475315922 M396.7902284875355,330.5518420179229 L402.4291971938609,349.4098707965886 M398.0253390800391,227.13707192575077 L403.67720594707714,245.95475475315922 M568.3167597049078,334.2345266849533 L569.9150050647056,230.81187279925518 M402.4291971938609,349.4098707965886 L568.3167597049078,334.2345266849533 M403.67720594707714,245.95475475315922 L569.9150050647056,230.81187279925518 M562.5530374379284,315.3999625282104 L564.1378574229877,212.0176539238507 M568.3167597049078,334.2345266849533 L562.5530374379284,315.3999625282104 M569.9150050647056,230.81187279925518 L564.1378574229877,212.0176539238507 M562.5530374379284,315.3999625282104 L396.7902284875355,330.5518420179229 M564.1378574229877,212.0176539238507 L398.0253390800391,227.13707192575077" stroke="black"  stroke-width="4"  fill="red"/>
<path d="M332.311458555944,230.16020604074495 L333.40561360800746,126.9612577039801 M347.662043121756,247.03094363554612 L348.78932616281315,143.79560443332605 M332.311458555944,230.16020604074495 L347.662043121756,247.03094363554612 M333.40561360800746,126.9612577039801 L348.78932616281315,143.79560443332605 M495.87552342334357,203.4110769220211 L497.31270444232223,100.26992871777907 M347.662043121756,247.03094363554612 L495.87552342334357,203.4110769220211 M348.78932616281315,143.79560443332605 L497.31270444232223,100.26992871777907 M480.44966837144466,186.60090071235763 L481.85340718614816,83.4961398170501 M495.87552342334357,203.4110769220211 L480.44966837144466,186.60090071235763 M497.31270444232223,100.26992871777907 L481.85340718614816,83.4961398170501 M480.44966837144466,186.60090071235763 L332.311458555944,230.16020604074495 M481.85340718614816,83.4961398170501 L333.40561360800746,126.9612577039801" stroke="black"  stroke-width="4"  fill="red"/></svg>