<svg viewBox="0 0 800 800" xmlns="http://www.w3.org/2000/svg"><path d="M278.4030031193432,653.1602590863042 L279.00348966444403,615.7656270714708 M262.37446685026,662.7555030456404 L262.9571360144529,625.3505599891212 M278.4030031193432,653.1602590863042 L262.37446685026,662.7555030456404 M279.00348966444403,615.7656270714708 L262.9571360144529,625.3505599891212 M312.31808056732905,691.6064901956873 L312.9584151130407,654.1706178598096 M262.37446685026,662.7555030456404 L312.31808056732905,691.6064901956873 M262.9571360144529,625.3505599891212 L312.9584151130407,654.1706178598096 M328.3455644405416,681.9786001196545 L329.0037127844955,644.5530368805637 M312.31808056732905,691.6064901956873 L328.3455644405416,681.9786001196545 M312.9584151130407,654.1706178598096 L329.0037127844955,644.5530368805637 M328.3455644405416,681.9786001196545 L278.4030031193432,653.1602590863042 M329.0037127844955,644.5530368805637 L279.00348966444403,615.7656270714708" stroke="black"  stroke-width="4"  fill="red"/>
<path d="M406.9811802786594,542.787406300578 L407.7223799428309,505.5122638635246 M397.0311124276002,554.7229699922431 L397.7616378992964,517.434827773378 M406.9811802786594,542.787406300578 L397.0311124276002,554.7229699922431 M407.7223799428309,505.5122638635246 L397.7616378992964,517.434827773378 M459.13384748163116,573.0000733635703 L459.9351446294929,535.6920612117692 M397.0311124276002,554.7229699922431 L459.13384748163116,573.0000733635703 M397.7616378992964,517.434827773378 L459.9351446294929,535.6920612117692 M469.05073561112454,561.0386580248238 L469.86263095891763,523.7436446749606 M459.13384748163116,573.0000733635703 L469.05073561112454,561.0386580248238 M459.9351446294929,535.6920612117692 L469.86263095891763,523.7436446749606 M469.05073561112454,561.0386580248238 L406.9811802786594,542.787406300578 M469.86263095891763,523.7436446749606 L407.7223799428309,505.5122638635246" stroke="black"  stroke-width="4"  fill="red"/>
<path d="M469.02580181785584,415.6472850226489 L469.8306632819297,378.51179809160664 M466.02513861955595,428.6799645107169 L466.8272757886732,391.53006282636966 M469.02580181785584,415.6472850226489 L466.02513861955595,428.6799645107169 M469.8306632819297,378.51179809160664 L466.8272757886732,391.53006282636966 M533.7957982218111,434.87959863273807 L534.6739729691558,397.7228478137881 M466.02513861955595,428.6799645107169 L533.7957982218111,434.87959863273807 M466.8272757886732,391.53006282636966 L534.6739729691558,397.7228478137881 M536.7447501490428,421.83725079664384 L537.6255331497398,384.6949146494049 M533.7957982218111,434.87959863273807 L536.7447501490428,421.83725079664384 M534.6739729691558,397.7228478137881 L537.6255331497398,384.6949146494049 M536.7447501490428,421.83725079664384 L469.02580181785584,415.6472850226489 M537.6255331497398,384.6949146494049 L469.8306632819297,378.51179809160664" stroke="black"  stroke-width="4"  fill="red"/>
<path d="M459.8468482605847,284.67701244722315 L460.63523272171665,247.68764239812998 M463.93193956739856,297.50626461833093 L464.72546230062517,260.5024805574589 M459.8468482605847,284.67701244722315 L463.93193956739856,297.50626461833093 M460.63523272171665,247.68764239812998 L464.72546230062517,260.5024805574589 M530.5951371930787,291.4079525823254 L531.4622313669311,254.41101740287291 M463.93193956739856,297.50626461833093 L530.5951371930787,291.4079525823254 M464.72546230062517,260.5024805574589 L531.4622313669311,254.41101740287291 M526.4600795063839,278.588104930711 L527.3219250870113,241.60558361492718 M530.5951371930787,291.4079525823254 L526.4600795063839,278.588104930711 M531.4622313669311,254.41101740287291 L527.3219250870113,241.60558361492718 M526.4600795063839,278.588104930711 L459.8468482605847,284.67701244722315 M527.3219250870113,241.60558361492718 L460.63523272171665,247.68764239812998" stroke="black"  stroke-width="4"  fill="red"/>
<path d="M381.9387297291614,162.62443812080218 L382.63565593174326,125.77329517824933 M392.5593031938945,174.02729989050505 L393.2683968097924,137.163158835677 M381.9387297291614,162.62443812080218 L392.5593031938945,174.02729989050505 M382.63565593174326,125.77329517824933 L393.2683968097924,137.163158835677 M451.7624995866936,156.60352970245106 L452.5359068272678,119.75925698332276 M392.5593031938945,174.02729989050505 L451.7624995866936,156.60352970245106 M393.2683968097924,137.163158835677 L452.5359068272678,119.75925698332276 M441.1121801591478,145.22478548129442 L441.87335568813637,108.39350980431271 M451.7624995866936,156.60352970245106 L441.1121801591478,145.22478548129442 M452.5359068272678,119.75925698332276 L441.87335568813637,108.39350980431271 M441.1121801591478,145.22478548129442 L381.9387297291614,162.62443812080218 M441.87335568813637,108.39350980431271 L382.63565593174326,125.77329517824933" stroke="black"  stroke-width="4"  fill="red"/></svg>