<svg viewBox="0 0 800 800" xmlns="http://www.w3.org/2000/svg"><path d="M465.86042533734224,115.06761732564308 L465.86042533734224,85.36916315282838 M-98.10610702227314,440.67384659740685 L-99.35813179927601,410.31385923194887 M465.86042533734224,115.06761732564308 L-98.10610702227314,440.67384659740685 M465.86042533734224,85.36916315282838 L-99.35813179927601,410.31385923194887 M465.86042533734224,115.06761732564308 L465.8604253373423,339.85540404766334 M465.86042533734224,309.6933958948259 L465.8604253373423,339.85540404766334 M465.86042533734224,85.36916315282838 L465.86042533734224,309.6933958948259 M124.45653260223798,362.18045097124525 L-98.10610702227314,440.67384659740685 M123.70674280684625,331.97407270931376 L-99.35813179927601,410.31385923194887 M123.70674280684625,331.97407270931376 L124.45653260223798,362.18045097124525 M465.8604253373423,339.85540404766334 L465.2800125025357,340.2012656941945 M124.45653260223798,362.18045097124525 L133.0612483570021,356.04820588611926 M133.0612483570021,356.04820588611926 L142.19781554386805,350.2126115936886 M142.19781554386805,350.2126115936886 L151.83756765272835,344.6904456966986 M151.83756765272835,344.6904456966986 L161.95064600065808,339.4974327933453 M161.95064600065808,339.4974327933453 L172.50590050150862,334.6483377928388 M172.50590050150862,334.6483377928388 L183.47104068876575,330.1569018793007 M183.47104068876575,330.1569018793007 L194.81280391798308,326.03576566553636 M194.81280391798308,326.03576566553636 L206.49693484850755,322.2965114400364 M206.49693484850755,322.2965114400364 L218.48838597959642,318.94958299374014 M218.48838597959642,318.94958299374014 L230.751330286419,316.00432387568674 M230.751330286419,316.00432387568674 L243.2492506563704,313.4689339122151 M243.2492506563704,313.4689339122151 L255.94512634540226,311.35043365620857 M255.94512634540226,311.35043365620857 L268.80142468832696,309.65468979978266 M268.80142468832696,309.65468979978266 L281.7802030260848,308.3864040703163 M281.7802030260848,308.3864040703163 L294.84325166212204,307.54907503877655 M294.84325166212204,307.54907503877655 L307.95221833320585,307.1449985376105 M307.95221833320585,307.1449985376105 L321.0685675300081,307.17529400828346 M321.0685675300081,307.17529400828346 L334.15375694884096,307.63988158034306 M334.15375694884096,307.63988158034306 L347.16937088818077,308.53748191463944 M347.16937088818077,308.53748191463944 L360.0771219442087,309.865610601179 M360.0771219442087,309.865610601179 L372.8389954261171,311.62060474773057 M372.8389954261171,311.62060474773057 L385.4173426522615,313.79761602295275 M385.4173426522615,313.79761602295275 L397.77492255055887,316.39062035474547 M397.77492255055887,316.39062035474547 L409.8750826919656,319.39240672649544 M409.8750826919656,319.39240672649544 L421.6817834557678,322.794620553393 M421.6817834557678,322.794620553393 L433.15966737182634,326.587780248291 M433.15966737182634,326.587780248291 L444.2742372555962,330.76127959627263 M444.2742372555962,330.76127959627263 L454.99187866318255,335.30336967474625 M454.99187866318255,335.30336967474625 L465.2800125025357,340.2012656941945 M465.86042533734224,309.6933958948259 L465.2787416764204,310.03856785670746 M123.70674280684625,331.97407270931376 L132.33097596818578,325.85398517844897 M132.33097596818578,325.85398517844897 L141.48816542127355,320.0299814326306 M141.48816542127355,320.0299814326306 L151.14957989333197,314.5188025242386 M151.14957989333197,314.5188025242386 L161.28529410206752,309.3361385491885 M161.28529410206752,309.3361385491885 L171.86408928862556,304.4967218242017 M171.86408928862556,304.4967218242017 L182.85360456028926,300.01426302385926 M182.85360456028926,300.01426302385926 L194.22050544218357,295.9013745323848 M194.22050544218357,295.9013745323848 L205.93046327752577,292.16961264867825 M205.93046327752577,292.16961264867825 L217.9483561690884,288.8293976134712 M217.9483561690884,288.8293976134712 L230.23828159348977,285.89005182542235 M230.23828159348977,285.89005182542235 L242.7636459845383,283.3597564812569 M242.7636459845383,283.3597564812569 L255.48735154159883,281.24551612679943 M255.48735154159883,281.24551612679943 L268.37178785806566,279.5531840450849 M268.37178785806566,279.5531840450849 L281.37893400624773,278.28745119700955 M281.37893400624773,278.28745119700955 L294.47050173873765,277.4518081246089 M294.47050173873765,277.4518081246089 L307.60806015866217,277.0485453817888 M307.60806015866217,277.0485453817888 L320.75299487697504,277.0787798378376 M320.75299487697504,277.0787798378376 L333.8666847758061,277.54243180701474 M333.8666847758061,277.54243180701474 L346.91063562114095,278.4382248917675 M346.91063562114095,278.4382248917675 L359.84648168817824,279.7636803868236 M359.84648168817824,279.7636803868236 L372.636130417735,281.5151438045706 M372.636130417735,281.5151438045706 L385.2418558455418,283.6877779179522 M385.2418558455418,283.6877779179522 L397.6263402251978,286.2755724206229 M397.6263402251978,286.2755724206229 L409.7528553923427,289.2713327226927 M409.7528553923427,289.2713327226927 L421.5852869215923,292.66672321283147 M421.5852869215923,292.66672321283147 L433.08820356470443,296.4522837601655 M433.08820356470443,296.4522837601655 L444.22703572494686,300.61743204984657 M444.22703572494686,300.61743204984657 L454.9680979174911,305.1504455016526 M454.9680979174911,305.1504455016526 L465.2787416764204,310.03856785670746 M465.2787416764204,310.03856785670746 L465.2800125025357,340.2012656941945" stroke="black"  stroke-width="4"  fill="red"/>
<path d="M440.3347286776667,524.3356860436344 L440.27741218784206,493.81607810712455 M433.185429350116,528.6954702275991 L433.11201625175715,498.1676602171822 M440.3347286776667,524.3356860436344 L433.185429350116,528.6954702275991 M440.27741218784206,493.81607810712455 L433.11201625175715,498.1676602171822 M469.43825963823684,550.9226362372265 L469.4463223511761,520.353188943525 M433.185429350116,528.6954702275991 L469.43825963823684,550.9226362372265 M433.11201625175715,498.1676602171822 L469.4463223511761,520.353188943525 M476.5875976573644,546.5366799126882 L476.6117572403251,515.9754249913276 M469.43825963823684,550.9226362372265 L476.5875976573644,546.5366799126882 M469.4463223511761,520.353188943525 L476.6117572403251,515.9754249913276 M476.5875976573644,546.5366799126882 L440.3347286776667,524.3356860436344 M476.6117572403251,515.9754249913276 L440.27741218784206,493.81607810712455" stroke="black"  stroke-width="4"  fill="red"/>
<path d="M472.26382527451506,495.9283547426837 L472.2781484955517,465.46247113776883 M467.70495140839114,501.3807818191282 L467.7090803264572,470.9045486538407 M472.26382527451506,495.9283547426837 L467.70495140839114,501.3807818191282 M472.2781484955517,465.46247113776883 L467.7090803264572,470.9045486538407 M513.2951551725607,515.5312588619942 L513.4015402986986,485.02824977522425 M467.70495140839114,501.3807818191282 L513.2951551725607,515.5312588619942 M467.7090803264572,470.9045486538407 L513.4015402986986,485.02824977522425 M517.8290617628215,510.0579430800251 L517.9455290036688,479.56527638698753 M513.2951551725607,515.5312588619942 L517.8290617628215,510.0579430800251 M513.4015402986986,485.02824977522425 L517.9455290036688,479.56527638698753 M517.8290617628215,510.0579430800251 L472.26382527451506,495.9283547426837 M517.9455290036688,479.56527638698753 L472.2781484955517,465.46247113776883" stroke="black"  stroke-width="4"  fill="red"/>
<path d="M488.07336699726403,463.17296016069554 L488.122832261629,432.7696299511622 M486.5258245863716,469.16394095529654 L486.5718812804734,438.7491211963646 M488.07336699726403,463.17296016069554 L486.5258245863716,469.16394095529654 M488.122832261629,432.7696299511622 L486.5718812804734,438.7491211963646 M536.7889817341475,473.99136951311425 L536.947163232863,443.56730746981566 M486.5258245863716,469.16394095529654 L536.7889817341475,473.99136951311425 M486.5718812804734,438.7491211963646 L536.947163232863,443.56730746981566 M538.2965683040023,467.9924984393774 L538.4579799791675,437.57992357440276 M536.7889817341475,473.99136951311425 L538.2965683040023,467.9924984393774 M536.947163232863,443.56730746981566 L538.4579799791675,437.57992357440276 M538.2965683040023,467.9924984393774 L488.07336699726403,463.17296016069554 M538.4579799791675,437.57992357440276 L488.122832261629,432.7696299511622" stroke="black"  stroke-width="4"  fill="red"/>
<path d="M486.4139511379168,429.34918399875926 L486.45950997044883,399.01112859016257 M487.98906962612233,435.2851197477539 L488.03815974996985,404.9355588092385 M486.4139511379168,429.34918399875926 L487.98906962612233,435.2851197477539 M486.45950997044883,399.01112859016257 L488.03815974996985,404.9355588092385 M537.9273260857365,430.5083457512758 L538.0870945528095,400.16804188324625 M487.98906962612233,435.2851197477539 L537.9273260857365,430.5083457512758 M488.03815974996985,404.9355588092385 L538.0870945528095,400.16804188324625 M536.312768892503,424.58012482518666 L536.4688311303598,394.2513286485985 M537.9273260857365,430.5083457512758 L536.312768892503,424.58012482518666 M538.0870945528095,400.16804188324625 L536.4688311303598,394.2513286485985 M536.312768892503,424.58012482518666 L486.4139511379168,429.34918399875926 M536.4688311303598,394.2513286485985 L486.45950997044883,399.01112859016257" stroke="black"  stroke-width="4"  fill="red"/>
<path d="M467.67907593708384,397.7562502777919 L467.68308969866473,367.47978953503605 M472.18326542487387,403.06455577159863 L472.19723012499804,372.777703576827 M467.67907593708384,397.7562502777919 L472.18326542487387,403.06455577159863 M467.68308969866473,367.47978953503605 L472.19723012499804,372.777703576827 M516.9807540800775,389.3404779821533 L517.0934459833987,359.08052674801706 M472.18326542487387,403.06455577159863 L516.9807540800775,389.3404779821533 M472.19723012499804,372.777703576827 L517.0934459833987,359.08052674801706 M512.4524746343006,384.0521371645543 L512.5551093709873,353.8025821673169 M516.9807540800775,389.3404779821533 L512.4524746343006,384.0521371645543 M517.0934459833987,359.08052674801706 L512.5551093709873,353.8025821673169 M512.4524746343006,384.0521371645543 L467.67907593708384,397.7562502777919 M512.5551093709873,353.8025821673169 L467.68308969866473,367.47978953503605" stroke="black"  stroke-width="4"  fill="red"/>
<path d="M433.8786642420754,371.39611985910165 L433.80833652562654,341.1715137399216 M440.84717830560464,375.5777372351673 L440.7921425485354,345.3448771531764 M433.8786642420754,371.39611985910165 L440.84717830560464,375.5777372351673 M433.80833652562654,341.1715137399216 L440.7921425485354,345.3448771531764 M476.31025048448254,354.3849220058521 L476.3331756076839,324.1940027823417 M440.84717830560464,375.5777372351673 L476.31025048448254,354.3849220058521 M440.7921425485354,345.3448771531764 L476.3331756076839,324.1940027823417 M469.34170022845103,350.2276717996947 L469.3493331530824,320.0450116998319 M476.31025048448254,354.3849220058521 L469.34170022845103,350.2276717996947 M476.3331756076839,324.1940027823417 L469.3493331530824,320.0450116998319 M469.34170022845103,350.2276717996947 L433.8786642420754,371.39611985910165 M469.3493331530824,320.0450116998319 L433.80833652562654,341.1715137399216" stroke="black"  stroke-width="4"  fill="red"/>
<path d="M388.3775995376127,352.7150538694966 L388.20765480644826,322.52745088260724 M397.1286049620472,355.3854592168557 L396.9777982582928,325.19255380725883 M388.3775995376127,352.7150538694966 L397.1286049620472,355.3854592168557 M388.20765480644826,322.52745088260724 L396.9777982582928,325.19255380725883 M420.0221728270424,328.84914481265935 L419.92196703315915,298.70912208811126 M397.1286049620472,355.3854592168557 L420.0221728270424,328.84914481265935 M396.9777982582928,325.19255380725883 L419.92196703315915,298.70912208811126 M411.2948142011477,326.19827304993316 L411.17557368531595,296.0635564925665 M420.0221728270424,328.84914481265935 L411.2948142011477,326.19827304993316 M419.92196703315915,298.70912208811126 L411.17557368531595,296.0635564925665 M411.2948142011477,326.19827304993316 L388.3775995376127,352.7150538694966 M411.17557368531595,296.0635564925665 L388.20765480644826,322.52745088260724" stroke="black"  stroke-width="4"  fill="red"/>
<path d="M335.54733589750765,343.4146614315589 L335.2618854792474,313.2455592024281 M345.2481727521691,344.33224521436046 L344.98393837767867,314.1613153602416 M335.54733589750765,343.4146614315589 L345.2481727521691,344.33224521436046 M335.2618854792474,313.2455592024281 L344.98393837767867,314.1613153602416 M353.52406162049704,315.0177097268072 L353.2789579107911,284.9054197195321 M345.2481727521691,344.33224521436046 L353.52406162049704,315.0177097268072 M344.98393837767867,314.1613153602416 L353.2789579107911,284.9054197195321 M343.8614966223237,314.10757024143686 L343.5953441395638,283.99710916662923 M353.52406162049704,315.0177097268072 L343.8614966223237,314.10757024143686 M353.2789579107911,284.9054197195321 L343.5953441395638,283.99710916662923 M343.8614966223237,314.10757024143686 L335.54733589750765,343.4146614315589 M343.5953441395638,283.99710916662923 L335.2618854792474,313.2455592024281" stroke="black"  stroke-width="4"  fill="red"/>
<path d="M280.3701048652656,344.3322388848693 L279.96373720600684,314.1613090433557 M290.1097697722274,343.41466775944355 L289.7247885059537,313.2455655177073 M280.3701048652656,344.3322388848693 L290.1097697722274,343.41466775944355 M279.96373720600684,314.1613090433557 L289.7247885059537,313.2455655177073 M283.0364533276986,314.10757024143686 L282.63760512000607,283.99710916662923 M290.1097697722274,343.41466775944355 L283.0364533276986,314.10757024143686 M289.7247885059537,313.2455655177073 L282.63760512000607,283.99710916662923 M273.3353535801535,315.0177222833413 L272.91528827075376,284.9054322508372 M283.0364533276986,314.10757024143686 L273.3353535801535,315.0177222833413 M282.63760512000607,283.99710916662923 L272.91528827075376,284.9054322508372 M273.3353535801535,315.0177222833413 L280.3701048652656,344.3322388848693 M272.91528827075376,284.9054322508372 L279.96373720600684,314.1613090433557" stroke="black"  stroke-width="4"  fill="red"/>
<path d="M228.02170089495746,355.3854592168557 L227.4998512791252,325.19255380725883 M236.8857474009473,352.7150538694966 L236.38353236576057,322.52745088260724 M228.02170089495746,355.3854592168557 L236.8857474009473,352.7150538694966 M227.4998512791252,325.19255380725883 L236.38353236576057,322.52745088260724 M215.0912220591207,326.19826990104343 L214.54322399737637,296.0635533499824 M236.8857474009473,352.7150538694966 L215.0912220591207,326.19826990104343 M236.38353236576057,322.52745088260724 L214.54322399737637,296.0635533499824 M206.2516441256136,328.8491385102492 L205.68412022204038,298.7091157983115 M215.0912220591207,326.19826990104343 L206.2516441256136,328.8491385102492 M214.54322399737637,296.0635533499824 L205.68412022204038,298.7091157983115 M206.2516441256136,328.8491385102492 L228.02170089495746,355.3854592168557 M205.68412022204038,298.7091157983115 L227.4998512791252,325.19255380725883" stroke="black"  stroke-width="4"  fill="red"/>
<path d="M183.4481954435298,375.5777436194859 L182.8268138663285,345.3448835249011 M190.59375508797422,371.3961262360689 L189.98844519611163,341.17152010429334 M183.4481954435298,375.5777436194859 L190.59375508797422,371.3961262360689 M182.8268138663285,345.3448835249011 L189.98844519611163,341.17152010429334 M156.0269600286647,350.2276717996947 L155.34762973646895,320.0450116998318 M190.59375508797422,371.3961262360689 L156.0269600286647,350.2276717996947 M189.98844519611163,341.17152010429334 L155.34762973646895,320.0450116998318 M148.88239587408816,354.384922005852 L148.1870004703132,324.1940027823417 M156.0269600286647,350.2276717996947 L148.88239587408816,354.384922005852 M155.34762973646895,320.0450116998318 L148.1870004703132,324.1940027823417 M148.88239587408816,354.384922005852 L183.4481954435298,375.5777436194859 M148.1870004703132,324.1940027823417 L182.8268138663285,345.3448835249011" stroke="black"  stroke-width="4"  fill="red"/>
<path d="M150.94835491777235,403.0645429061069 L150.25283635962086,372.77769073649995 M155.67730325254885,397.7562438544128 L154.99272915264726,367.4797831242415 M150.94835491777235,403.0645429061069 L155.67730325254885,397.7562438544128 M150.25283635962086,372.77769073649995 L154.99272915264726,367.4797831242415 M111.4841128872635,384.0521243660953 L110.70347928129519,353.80256939403864 M155.67730325254885,397.7562438544128 L111.4841128872635,384.0521243660953 M154.99272915264726,367.4797831242415 L110.70347928129519,353.80256939403864 M106.73192511703564,389.34046196079487 L105.94024644178558,359.0805107581291 M111.4841128872635,384.0521243660953 L106.73192511703564,389.34046196079487 M110.70347928129519,353.80256939403864 L105.94024644178558,359.0805107581291 M106.73192511703564,389.34046196079487 L150.94835491777235,403.0645429061069 M105.94024644178558,359.0805107581291 L150.25283635962086,372.77769073649995" stroke="black"  stroke-width="4"  fill="red"/>
<path d="M133.77831957667377,435.2851327272467 L133.0416295420029,404.9355717635965 M135.60480391771864,429.3491710403065 L134.87276112037563,399.0111156568504 M133.77831957667377,435.2851327272467 L135.60480391771864,429.3491710403065 M133.0416295420029,404.9355717635965 L134.87276112037563,399.0111156568504 M85.90789178505412,424.58013129596725 L85.06624139095845,394.25133510680655 M135.60480391771864,429.3491710403065 L85.90789178505412,424.58013129596725 M134.87276112037563,399.0111156568504 L85.06624139095845,394.25133510680655 M84.04230697188098,430.5083587138357 L83.19583660966549,400.16805482066695 M85.90789178505412,424.58013129596725 L84.04230697188098,430.5083587138357 M85.06624139095845,394.25133510680655 L83.19583660966549,400.16805482066695 M84.04230697188098,430.5083587138357 L133.77831957667377,435.2851327272467 M83.19583660966549,400.16805482066695 L133.0416295420029,404.9355717635965" stroke="black"  stroke-width="4"  fill="red"/>
<path d="M133.80717893728695,469.16396060515126 L133.06713638347009,438.74914080857025 M132.51328997312112,463.17295362141067 L131.7709702743689,432.76962342443016 M133.80717893728695,469.16396060515126 L132.51328997312112,463.17295362141067 M133.06713638347009,438.74914080857025 L131.7709702743689,432.76962342443016 M82.08602235597061,467.9925115351076 L81.23084610217961,437.5799366450325 M132.51328997312112,463.17295362141067 L82.08602235597061,467.9925115351076 M131.7709702743689,432.76962342443016 L81.23084610217961,437.5799366450325 M83.33965671071786,473.99134983745546 L82.48657705729153,443.5672878317981 M82.08602235597061,467.9925115351076 L83.33965671071786,473.99134983745546 M81.23084610217961,437.5799366450325 L82.48657705729153,443.5672878317981 M83.33965671071786,473.99134983745546 L133.80717893728695,469.16396060515126 M82.48657705729153,443.5672878317981 L133.06713638347009,438.74914080857025" stroke="black"  stroke-width="4"  fill="red"/>
<path d="M151.264044904302,501.3807884265892 L150.55983003837287,470.90455524877063 M146.93603313726453,495.9283415472629 L146.2226582739003,465.46245796741675 M151.264044904302,501.3807884265892 L146.93603313726453,495.9283415472629 M150.55983003837287,470.90455524877063 L146.2226582739003,465.46245796741675 M100.77254148341518,510.0579430800251 L99.95434071033566,479.56527638698753 M146.93603313726453,495.9283415472629 L100.77254148341518,510.0579430800251 M146.2226582739003,465.46245796741675 L99.95434071033566,479.56527638698753 M105.0747237921189,515.5312654947944 L104.26556492191082,485.0282563955021 M100.77254148341518,510.0579430800251 L105.0747237921189,515.5312654947944 M99.95434071033566,479.56527638698753 L104.26556492191082,485.0282563955021 M105.0747237921189,515.5312654947944 L151.264044904302,501.3807884265892 M104.26556492191082,485.0282563955021 L150.55983003837287,470.90455524877063" stroke="black"  stroke-width="4"  fill="red"/>
<path d="M184.62707926630418,528.6954702275991 L183.99521350249614,498.1676602171822 M177.662368927383,524.3356860436343 L177.01523669871457,493.81607810712444 M184.62707926630418,528.6954702275991 L177.662368927383,524.3356860436343 M183.99521350249614,498.1676602171822 L177.01523669871457,493.81607810712444 M140.46953163000296,546.5366799126882 L139.73669094686215,515.9754249913276 M177.662368927383,524.3356860436343 L140.46953163000296,546.5366799126882 M177.01523669871457,493.81607810712444 L139.73669094686215,515.9754249913276 M147.43317255772473,550.9226362372265 L146.71559110613236,520.353188943525 M140.46953163000296,546.5366799126882 L147.43317255772473,550.9226362372265 M139.73669094686215,515.9754249913276 L146.71559110613236,520.353188943525 M147.43317255772473,550.9226362372265 L184.62707926630418,528.6954702275991 M146.71559110613236,520.353188943525 L183.99521350249614,498.1676602171822" stroke="black"  stroke-width="4"  fill="red"/>
<path d="M230.69866911050235,548.2971732628184 L230.16891545001207,517.7326285802735 M221.77760849339288,545.4826295951658 L221.22796682967527,514.9233452314189 M230.69866911050235,548.2971732628184 L221.77760849339288,545.4826295951658 M230.16891545001207,517.7326285802735 L221.22796682967527,514.9233452314189 M197.4428015176996,573.6396615076603 L196.83606564623622,543.027968121523 M221.77760849339288,545.4826295951658 L197.4428015176996,573.6396615076603 M221.22796682967527,514.9233452314189 L196.83606564623622,543.027968121523 M206.38838154174996,576.4756061211798 L205.80164291845188,545.8586607432717 M197.4428015176996,573.6396615076603 L206.38838154174996,576.4756061211798 M196.83606564623622,543.027968121523 L205.80164291845188,545.8586607432717 M206.38838154174996,576.4756061211798 L230.69866911050235,548.2971732628184 M205.80164291845188,545.8586607432717 L230.16891545001207,517.7326285802735" stroke="black"  stroke-width="4"  fill="red"/>
<path d="M284.88948525130286,558.1325893569166 L284.48126773880284,527.549700135988 M274.9096980994982,557.1599638562795 L274.47902551454393,526.5788861216112 M284.88948525130286,558.1325893569166 L274.9096980994982,557.1599638562795 M284.48126773880284,527.549700135988 L274.47902551454393,526.5788861216112 M266.0234920952022,588.4835125816732 L265.5708762485142,557.8443832285973 M274.9096980994982,557.1599638562795 L266.0234920952022,588.4835125816732 M274.47902551454393,526.5788861216112 L265.5708762485142,557.8443832285973 M276.0440972309851,589.4643833627885 L275.6141207625426,558.8234457562983 M266.0234920952022,588.4835125816732 L276.0440972309851,589.4643833627885 M265.5708762485142,557.8443832285973 L275.6141207625426,558.8234457562983 M276.0440972309851,589.4643833627885 L284.88948525130286,558.1325893569166 M275.6141207625426,558.8234457562983 L284.48126773880284,527.549700135988" stroke="black"  stroke-width="4"  fill="red"/>
<path d="M341.69765220687583,557.1599370257768 L341.41761398424376,526.5788593410874 M331.6766624967592,558.1326027756745 L331.3739831717935,527.5497135297578 M341.69765220687583,557.1599370257768 L331.6766624967592,558.1326027756745 M341.41761398424376,526.5788593410874 L331.3739831717935,527.5497135297578 M339.1954712714961,589.4643833627885 L338.90854679999256,558.8234457562983 M331.6766624967592,558.1326027756745 L339.1954712714961,589.4643833627885 M331.3739831717935,527.5497135297578 L338.90854679999256,558.8234457562983 M349.257671152346,588.4835261100828 L348.99357455342863,557.8443967320634 M339.1954712714961,589.4643833627885 L349.257671152346,588.4835261100828 M338.90854679999256,558.8234457562983 L348.99357455342863,557.8443967320634 M349.257671152346,588.4835261100828 L341.69765220687583,557.1599370257768 M348.99357455342863,557.8443967320634 L341.41761398424376,526.5788593410874" stroke="black"  stroke-width="4"  fill="red"/>
<path d="M395.32417019950975,545.4826162219778 L395.1653320434374,514.9233318832366 M386.2839662734763,548.2971732628184 L386.10470276926407,517.7326285802735 M395.32417019950975,545.4826162219778 L386.2839662734763,548.2971732628184 M395.1653320434374,514.9233318832366 L386.10470276926407,517.7326285802735 M409.4011849723013,576.4755926362054 L409.2735148910869,545.8586472832591 M386.2839662734763,548.2971732628184 L409.4011849723013,576.4755926362054 M386.10470276926407,517.7326285802735 L409.2735148910869,545.8586472832591 M418.46683608658293,573.6396480329342 L418.35970679225954,543.0279546717627 M409.4011849723013,576.4755926362054 L418.46683608658293,573.6396480329342 M409.2735148910869,545.8586472832591 L418.35970679225954,543.0279546717627 M418.46683608658293,573.6396480329342 L395.32417019950975,545.4826162219778 M418.35970679225954,543.0279546717627 L395.1653320434374,514.9233318832366" stroke="black"  stroke-width="4"  fill="red"/>
<path d="M324.8687922474384,440.67384659740685 L324.5557860531877,410.31385923194887 M296.27608343899647,457.75109638438744 L295.8987209285866,427.358182982465 M324.8687922474384,440.67384659740685 L327.31394845559544,442.4999171132083 M327.31394845559544,442.4999171132083 L329.11812042795395,444.5843672277971 M329.11812042795395,444.5843672277971 L330.2115290168939,446.84749502388854 M330.2115290168939,446.84749502388854 L330.5515425063876,449.2025312989373 M330.5515425063876,449.2025312989373 L330.1243639777728,451.5590808692257 M330.1243639777728,451.5590808692257 L328.94572963269917,453.8265051725781 M328.94572963269917,453.8265051725781 L327.06026995686335,455.9174179663812 M327.06026995686335,455.9174179663812 L324.54014042205404,457.75109638438744 M324.54014042205404,457.75109638438744 L321.48197949025837,459.2566304360827 M321.48197949025837,459.2566304360827 L318.0034752328419,460.3757737329321 M318.0034752328419,460.3757737329321 L314.2387466629273,461.0650771749389 M314.2387466629273,461.0650771749389 L310.33302825400744,461.29788027205734 M310.33302825400744,461.29788027205734 L306.4371877898596,461.0650902460069 M306.4371877898596,461.0650902460069 L302.7016010809318,460.3757606643169 M302.7016010809318,460.3757606643169 L299.27047967034537,459.2566435007162 M299.27047967034537,459.2566435007162 L296.27608343899647,457.75109638438744 M324.5557860531877,410.31385923194887 L327.00629375554263,412.13640054328107 M327.00629375554263,412.13640054328107 L328.8143854862086,414.2168245544011 M328.8143854862086,414.2168245544011 L329.9101295438103,416.47558410789225 M329.9101295438103,416.47558410789225 L330.25080173500663,418.8260780298649 M330.25080173500663,418.8260780298649 L329.82257660383164,421.1780856863395 M329.82257660383164,421.1780856863395 L328.6412274712091,423.44114302314335 M328.6412274712091,423.44114302314335 L326.7514863388327,425.5280315605213 M326.7514863388327,425.5280315605213 L324.2256716633792,427.358182982465 M324.2256716633792,427.358182982465 L321.1606396345994,428.86082272918327 M321.1606396345994,428.86082272918327 L317.6743430935145,429.9778154240714 M317.6743430935145,429.9778154240714 L313.90120243112426,430.66579464299116 M313.90120243112426,430.66579464299116 L309.9867780111882,430.8981505662481 M309.9867780111882,430.8981505662481 L306.0822755186333,430.66580768895096 M306.0822755186333,430.66580768895096 L302.3384067045839,429.9778023805652 M302.3384067045839,429.9778023805652 L298.8997041790577,428.8608357687067 M298.8997041790577,428.8608357687067 L295.8987209285866,427.358182982465 M296.27608343899647,457.75109638438744 L293.8335681866869,455.91743101913823 M293.8335681866869,455.91743101913823 L292.0366788164158,453.8265182179007 M292.0366788164158,453.8265182179007 L290.95402375040794,451.5590808692257 M290.95402375040794,451.5590808692257 L290.6266192205693,449.2025312989373 M290.6266192205693,449.2025312989373 L291.06636447954173,446.8474820033639 M291.06636447954173,446.8474820033639 L292.2555480054892,444.58438024028544 M292.2555480054892,444.58438024028544 L294.1479953856845,442.4999171132083 M294.1479953856845,442.4999171132083 L296.6704656294577,440.67384659740685 M296.6704656294577,440.67384659740685 L299.7259637738043,439.17592039396743 M299.7259637738043,439.17592039396743 L303.1972072643173,438.0632269066401 M303.1972072643173,438.0632269066401 L306.9512041806397,437.3782199111896 M306.9512041806397,437.3782199111896 L310.84429175402556,437.1469432333224 M310.84429175402556,437.1469432333224 L314.7275872995817,437.3782199111896 M314.7275872995817,437.3782199111896 L318.4526029357018,438.0632398959855 M318.4526029357018,438.0632398959855 L321.87671483018914,439.17592039396743 M321.87671483018914,439.17592039396743 L324.8687922474384,440.67384659740685 M295.8987209285866,427.358182982465 L293.45086634245297,425.52804458816445 M293.45086634245297,425.52804458816445 L291.6500898797367,423.44115604335013 M291.6500898797367,423.44115604335013 L290.56514740397705,421.1780856863395 M290.56514740397705,421.1780856863395 L290.23714035620367,418.8260780298648 M290.23714035620367,418.8260780298648 L290.6779880225563,416.4755711124907 M290.6779880225563,416.4755711124907 L291.8699331262325,414.2168375417641 M291.8699331262325,414.2168375417641 L293.76669275481936,412.1364005432813 M293.76669275481936,412.1364005432813 L296.2948581963568,410.31385923194887 M296.2948581963568,410.31385923194887 L299.3572152282791,408.8188295419129 M299.3572152282791,408.8188295419129 L302.83621838583963,407.7082885288419 M302.83621838583963,407.7082885288419 L306.5985793850152,407.02460703259726 M306.5985793850152,407.02460703259726 L310.50031673613023,406.79377794279617 M310.50031673613023,406.79377794279617 L314.3922185542233,407.02460703259726 M314.3922185542233,407.02460703259726 L318.12546945578805,407.7083014930556 M318.12546945578805,407.7083014930556 L321.5571316243379,408.8188295419129 M321.5571316243379,408.8188295419129 L324.5557860531877,410.31385923194887" stroke="black"  stroke-width="4"  fill="red"/>
<path d="M508.89088240963696,476.7690528813663 L508.79469866843846,507.25641879406703 M526.9691588415204,442.6129324637109 L524.5907829293424,449.6372179413363 M524.5907829293424,449.6372179413363 L521.5858085210898,456.58545525615034 M521.5858085210898,456.58545525615034 L517.9612386009283,463.43708674504035 M517.9612386009283,463.43708674504035 L513.7259786034269,470.17167433770373 M513.7259786034269,470.17167433770373 L508.89088240963696,476.7690528813663 M526.9691588415204,442.6129324637109 L526.8331979659669,473.03516493878556 M508.79469866843846,507.25641879406703 L513.619082885361,500.64651479704344 M513.619082885361,500.64651479704344 L517.8449907834399,493.89911394119883 M517.8449907834399,493.89911394119883 L521.4615891929166,487.0344181844521 M521.4615891929166,487.0344181844521 L524.4599887312273,480.07290323244035 M524.4599887312273,480.07290323244035 L526.8331979659669,473.03516493878556 M508.79469866843846,507.25641879406703 L472.26382527451506,495.9283547426837 M472.26382527451506,495.9283547426837 L472.2781484955517,465.46247113776883 M508.89088240963696,476.7690528813663 L472.2781484955517,465.46247113776883 M467.68308969866473,367.47978953503605 L472.19723012499804,372.777703576827 M472.19723012499804,372.777703576827 L508.2188466234802,361.7880378526844 M508.2188466234802,361.7880378526844 L513.0623655826544,368.1923424223464 M513.0623655826544,368.1923424223464 L517.3325065240098,374.7534173827131 M517.3325065240098,374.7534173827131 L521.0155620138244,381.4530983795066 M521.0155620138244,381.4530983795066 L524.0994524304379,388.2727000896332 M524.0994524304379,388.2727000896332 L526.57372602788,395.19314763006537 M526.57372602788,395.19314763006537 L486.45950997044883,399.01112859016257 M486.45950997044883,399.01112859016257 L488.03815974996985,404.9355588092385 M488.03815974996985,404.9355588092385 L528.1841553083768,401.1113666630315 M528.1841553083768,401.1113666630315 L529.511201799221,408.1664337248783 M529.511201799221,408.1664337248783 L530.2080546243724,415.26599060209514 M530.2080546243724,415.26599060209514 L530.2708414626917,422.38963919297214 M530.2708414626917,422.38963919297214 L529.6975253314846,429.5169260795658 M529.6975253314846,429.5169260795658 L528.4879296105494,436.6271332995127 M528.4879296105494,436.6271332995127 L488.122832261629,432.7696299511622 M488.122832261629,432.7696299511622 L486.5718812804734,438.7491211963646 M486.5718812804734,438.7491211963646 L526.9691588415204,442.6129324637109 M472.2781484955517,465.46247113776883 L467.7090803264572,470.9045486538407 M467.7090803264572,470.9045486538407 L504.34192832258907,482.22789058216347 M504.34192832258907,482.22789058216347 L498.4342001418226,488.5200740749675 M498.4342001418226,488.5200740749675 L491.9675391670463,494.6195287000081 M491.9675391670463,494.6195287000081 L484.9598408897767,500.5076267676484 M484.9598408897767,500.5076267676484 L477.43066343843486,506.166246731098 M477.43066343843486,506.166246731098 L469.4013688855247,511.5780016583062 M469.4013688855247,511.5780016583062 L440.27741218784206,493.81607810712455 M440.27741218784206,493.81607810712455 L433.11201625175715,498.1676602171822 M433.11201625175715,498.1676602171822 L462.2359314919112,515.9505636918229 M462.2359314919112,515.9505636918229 L453.34490570413107,520.8630710747133 M453.34490570413107,520.8630710747133 L444.02325292358955,525.4830150513108 M444.02325292358955,525.4830150513108 L434.2982204052943,529.7958594428056 M434.2982204052943,529.7958594428056 L424.1984703997651,533.7881249238005 M424.1984703997651,533.7881249238005 L413.7539634971869,537.4471778749278 M413.7539634971869,537.4471778749278 L395.1653320434374,514.9233318832366 M395.1653320434374,514.9233318832366 L386.10470276926407,517.7326285802735 M386.10470276926407,517.7326285802735 L404.67282476986134,540.27360462767 M404.67282476986134,540.27360462767 L393.67436384729587,543.2880014396512 M393.67436384729587,543.2880014396512 L382.42245230862727,545.9390851886751 M382.42245230862727,545.9390851886751 L370.95096080772316,548.2183981554892 M370.95096080772316,548.2183981554892 L359.29458326560894,550.1186918328617 M359.29458326560894,550.1186918328617 L347.4886831254717,551.6338565899226 M347.4886831254717,551.6338565899226 L341.41761398424376,526.5788593410874 M341.41761398424376,526.5788593410874 L331.3739831717935,527.5497135297578 M331.3739831717935,527.5497135297578 L337.41189518031376,552.6112858776095 M337.41189518031376,552.6112858776095 L325.42439754158846,553.4037995609855 M325.42439754158846,553.4037995609855 L313.39034914052615,553.8006727773936 M313.39034914052615,553.8006727773936 L301.3464024101411,553.8006862661914 M301.3464024101411,553.8006862661914 L289.32922126304425,553.4037860736269 M289.32922126304425,553.4037860736269 L277.37549233191544,552.6112723931244 M277.37549233191544,552.6112723931244 L284.48126773880284,527.549700135988 M284.48126773880284,527.549700135988 L274.47902551454393,526.5788861216112 M274.47902551454393,526.5788861216112 L267.34037316908405,551.6338835518055 M267.34037316908405,551.6338835518055 L255.5989903495915,550.1186918328617 M255.5989903495915,550.1186918328617 L244.02362749223755,548.2183981554892 M244.02362749223755,548.2183981554892 L232.6492565837675,545.9390851886751 M232.6492565837675,545.9390851886751 L221.5103066383713,543.2880014396512 M221.5103066383713,543.2880014396512 L210.64030941349026,540.2736180674583 M210.64030941349026,540.2736180674583 L230.16891545001207,517.7326285802735 M230.16891545001207,517.7326285802735 L221.22796682967527,514.9233452314189 M221.22796682967527,514.9233452314189 L201.67962596371004,537.4471778749278 M201.67962596371004,537.4471778749278 L191.39098593528033,533.7881249238005 M191.39098593528033,533.7881249238005 L181.46134472758362,529.7958594428054 M181.46134472758362,529.7958594428054 L171.9200593724638,525.483001665008 M171.9200593724638,525.483001665008 L162.79528188429776,520.8630710747133 M162.79528188429776,520.8630710747133 L154.11357602507064,515.9505636918229 M154.11357602507064,515.9505636918229 L183.99521350249614,498.1676602171822 M183.99521350249614,498.1676602171822 L177.01523669871457,493.81607810712444 M177.01523669871457,493.81607810712444 L147.13445170971062,511.5780016583061 M147.13445170971062,511.5780016583061 L139.33574981883987,506.166246731098 M139.33574981883987,506.166246731098 L132.04768384767283,500.5076267676484 M132.04768384767283,500.5076267676484 L125.29087501865615,494.6195287000081 M125.29087501865615,494.6195287000081 L119.08410930852045,488.5200740749675 M119.08410930852045,488.5200740749675 L113.44452146783595,482.2278839669152 M113.44452146783595,482.2278839669152 L150.55983003837287,470.90455524877063 M150.55983003837287,470.90455524877063 L146.2226582739003,465.46245796741675 M146.2226582739003,465.46245796741675 L109.12813324325265,476.7690528813663 M109.12813324325265,476.7690528813663 L104.57414864844088,470.17167433770373 M104.57414864844088,470.17167433770373 L100.62584667132649,463.43708674504035 M100.62584667132649,463.43708674504035 L97.29322196405576,456.5854552561501 M97.29322196405576,456.5854552561501 L94.58427625512019,449.6372244981894 M94.58427625512019,449.6372244981894 L92.50522329119872,442.6129520966143 M92.50522329119872,442.6129520966143 L133.06713638347009,438.74914080857025 M133.06713638347009,438.74914080857025 L131.7709702743689,432.76962342443016 M131.7709702743689,432.76962342443016 L91.24151680283506,436.6271332995126 M91.24151680283506,436.6271332995126 L90.33487362653557,429.5169195586343 M90.33487362653557,429.5169195586343 L90.06526921002944,422.3896457012024 M90.06526921002944,422.3896457012024 L90.43159312481947,415.2659711154505 M90.43159312481947,415.2659711154505 L91.43092115143719,408.1664466907207 M91.43092115143719,408.1664466907207 L93.0585811860401,401.11137960380256 M93.0585811860401,401.11137960380256 L133.0416295420029,404.9355717635965 M133.0416295420029,404.9355717635965 L134.87276112037563,399.0111156568504 M134.87276112037563,399.0111156568504 L94.92121729876862,395.1931282504278 M94.92121729876862,395.1931282504278 L97.6903344382302,388.2727129848422 M97.6903344382302,388.2727129848422 L101.06482744091988,381.4530983795066 M101.06482744091988,381.4530983795066 L105.03336400425246,374.75342380637244 M105.03336400425246,374.75342380637244 L109.58305925487196,368.1923424223464 M109.58305925487196,368.1923424223464 L114.69948504828517,361.78802505121075 M114.69948504828517,361.78802505121075 L150.25283635962086,372.77769073649995 M150.25283635962086,372.77769073649995 L154.99272915264726,367.4797831242415 M154.99272915264726,367.4797831242415 L119.45811292187943,356.5061393237211 M119.45811292187943,356.5061393237211 L125.57772195151858,350.4371432145367 M125.57772195151858,350.4371432145367 L132.2150386054377,344.573585694293 M132.2150386054377,344.573585694293 L139.35017922748278,338.9314148581941 M139.35017922748278,338.9314148581941 L146.96210788243076,333.52583372012975 M146.96210788243076,333.52583372012975 L155.02851083432887,328.3713916196882 M155.02851083432887,328.3713916196882 L182.8268138663285,345.3448835249011 M182.8268138663285,345.3448835249011 L189.98844519611163,341.17152010429334 M189.98844519611163,341.17152010429334 L162.1893472816431,324.2175925499412 M162.1893472816431,324.2175925499412 L171.0324391804196,319.5623945979338 M171.0324391804196,319.5623945979338 L180.26068647537764,315.1955697190158 M180.26068647537764,315.1955697190158 L189.84791208131043,311.1286498905516 M189.84791208131043,311.1286498905516 L199.76704719416912,307.3723583794758 M199.76704719416912,307.3723583794758 L209.9902311294469,303.9365608045389 M209.9902311294469,303.9365608045389 L227.4998512791252,325.19255380725883 M227.4998512791252,325.19255380725883 L236.38353236576057,322.52745088260724 M236.38353236576057,322.52745088260724 L218.85419183519156,301.2871476669545 M218.85419183519156,301.2871476669545 L229.56311084917712,298.4659226333531 M229.56311084917712,298.4659226333531 L240.49317803412296,295.9884432330266 M240.49317803412296,295.9884432330266 L251.61418298900855,293.8611549650983 M251.61418298900855,293.8611549650983 L262.89548797708943,292.08958335994 M262.89548797708943,292.08958335994 L274.30612545511326,290.6782860664563 M274.30612545511326,290.6782860664563 L279.96373720600684,314.1613090433557 M279.96373720600684,314.1613090433557 L289.7247885059537,313.2455655177073 M289.7247885059537,313.2455655177073 L284.03607088000183,289.7685124559148 M284.03607088000183,289.7685124559148 L295.603025599104,289.03117432196746 M295.603025599104,289.03117432196746 L307.2097422204704,288.6620163964392 M307.2097422204704,288.6620163964392 L318.82443699460714,288.66202894087803 M318.82443699460714,288.66202894087803 L330.41541372194064,289.0311680491026 M330.41541372194064,289.0311680491026 L341.9509612480495,289.7685124559148 M341.9509612480495,289.7685124559148 L335.2618854792474,313.2455592024281 M335.2618854792474,313.2455592024281 L344.98393837767867,314.1613153602416 M344.98393837767867,314.1613153602416 L351.6421413920524,290.67829861794735 M351.6421413920524,290.67829861794735 L362.99263375390314,292.0895770817258 M362.99263375390314,292.0895770817258 L374.1984633171306,293.8611549650983 M374.1984633171306,293.8611549650983 L385.22883607208837,295.98843694798995 M385.22883607208837,295.98843694798995 L396.0533281916704,298.4659226333531 M396.0533281916704,298.4659226333531 L406.6420359618984,301.2871476669545 M406.6420359618984,301.2871476669545 L388.20765480644826,322.52745088260724 M388.20765480644826,322.52745088260724 L396.9777982582928,325.19255380725883 M396.9777982582928,325.19255380725883 L415.3931221715802,303.93656395401706 M415.3931221715802,303.93656395401706 L425.46990292954223,307.3723520744975 M425.46990292954223,307.3723520744975 L435.2289733348455,311.1286498905516 M435.2289733348455,311.1286498905516 L444.6429091517614,315.1955697190158 M444.6429091517614,315.1955697190158 L453.6850931549144,319.56239143475034 M453.6850931549144,319.56239143475034 L462.32982364601355,324.2175925499412 M462.32982364601355,324.2175925499412 L433.80833652562654,341.1715137399216 M433.80833652562654,341.1715137399216 L440.7921425485354,345.3448771531764 M440.7921425485354,345.3448771531764 L469.3136684154056,328.3713916196882 M469.3136684154056,328.3713916196882 L477.160448028117,333.5258305446737 M477.160448028117,333.5258305446737 L484.5420203716995,338.93140213734057 M484.5420203716995,338.93140213734057 L491.4367717874662,344.5735856942931 M491.4367717874662,344.5735856942931 L497.8242553198358,350.4371368338343 M497.8242553198358,350.4371368338343 L503.6852830487219,356.5061489108366 M503.6852830487219,356.5061489108366 L467.68308969866473,367.47978953503605 M324.5557860531877,410.31385923194887 L327.00629375554263,412.13640054328107 M327.00629375554263,412.13640054328107 L328.8143854862086,414.2168245544011 M328.8143854862086,414.2168245544011 L329.9101295438103,416.47558410789225 M329.9101295438103,416.47558410789225 L330.25080173500663,418.8260780298649 M330.25080173500663,418.8260780298649 L329.82257660383164,421.1780856863395 M329.82257660383164,421.1780856863395 L328.6412274712091,423.44114302314335 M328.6412274712091,423.44114302314335 L326.7514863388327,425.5280315605213 M326.7514863388327,425.5280315605213 L324.2256716633792,427.358182982465 M324.2256716633792,427.358182982465 L321.1606396345994,428.86082272918327 M321.1606396345994,428.86082272918327 L317.6743430935145,429.9778154240714 M317.6743430935145,429.9778154240714 L313.90120243112426,430.66579464299116 M313.90120243112426,430.66579464299116 L309.9867780111882,430.8981505662481 M309.9867780111882,430.8981505662481 L306.0822755186333,430.66580768895096 M306.0822755186333,430.66580768895096 L302.3384067045839,429.9778023805652 M302.3384067045839,429.9778023805652 L298.8997041790577,428.8608357687067 M298.8997041790577,428.8608357687067 L295.8987209285866,427.358182982465 M295.8987209285866,427.358182982465 L293.45086634245297,425.52804458816445 M293.45086634245297,425.52804458816445 L291.6500898797367,423.44115604335013 M291.6500898797367,423.44115604335013 L290.56514740397705,421.1780856863395 M290.56514740397705,421.1780856863395 L290.23714035620367,418.8260780298648 M290.23714035620367,418.8260780298648 L290.6779880225563,416.4755711124907 M290.6779880225563,416.4755711124907 L291.8699331262325,414.2168375417641 M291.8699331262325,414.2168375417641 L293.76669275481936,412.1364005432813 M293.76669275481936,412.1364005432813 L296.2948581963568,410.31385923194887 M296.2948581963568,410.31385923194887 L299.3572152282791,408.8188295419129 M299.3572152282791,408.8188295419129 L302.83621838583963,407.7082885288419 M302.83621838583963,407.7082885288419 L306.5985793850152,407.02460703259726 M306.5985793850152,407.02460703259726 L310.50031673613023,406.79377794279617 M310.50031673613023,406.79377794279617 L314.3922185542233,407.02460703259726 M314.3922185542233,407.02460703259726 L318.12546945578805,407.7083014930556 M318.12546945578805,407.7083014930556 L321.5571316243379,408.8188295419129 M321.5571316243379,408.8188295419129 L324.5557860531877,410.31385923194887 M486.5258245863716,469.16394095529654 L526.8331979659669,473.03516493878556 M486.5258245863716,469.16394095529654 L486.5718812804734,438.7491211963646 M472.26382527451506,495.9283547426837 L467.70495140839114,501.3807818191282 M467.70495140839114,501.3807818191282 L504.2558489867713,512.7256003520889 M504.2558489867713,512.7256003520889 L498.36127372413017,519.0296843034072 M498.36127372413017,519.0296843034072 L491.909042121613,525.1406518864703 M491.909042121613,525.1406518864703 L484.9170116142978,531.0398424981386 M484.9170116142978,531.0398424981386 L477.404698051499,536.7091028189171 M477.404698051499,536.7091028189171 L469.39341666083214,542.1310156799811 M469.39341666083214,542.1310156799811 L440.3347286776667,524.3356860436344 M440.3347286776667,524.3356860436344 L433.185429350116,528.6954702275991 M433.185429350116,528.6954702275991 L462.2440761540858,546.5117720554488 M413.871392126561,568.0485025328785 L424.29231480811933,564.3826410269098 M424.29231480811933,564.3826410269098 L434.3692767500311,560.3829376771978 M434.3692767500311,560.3829376771978 L444.0723866646317,556.062047261145 M444.0723866646317,556.062047261145 L453.3730481671041,551.4334717833996 M453.3730481671041,551.4334717833996 L462.2440761540858,546.5117720554488 M413.871392126561,568.0485025328785 L395.32417019950975,545.4826162219778 M395.32417019950975,545.4826162219778 L386.2839662734763,548.2971732628184 M386.2839662734763,548.2971732628184 L404.810771303761,570.8801829619784 M347.75595779933707,582.2615019952593 L359.5351521761136,580.7435319712347 M359.5351521761136,580.7435319712347 L371.16516119331965,578.8397180019547 M371.16516119331965,578.8397180019547 L382.61070517052724,576.5561797127463 M382.61070517052724,576.5561797127463 L393.83717216196317,573.9001774880107 M393.83717216196317,573.9001774880107 L404.810771303761,570.8801829619784 M347.75595779933707,582.2615019952593 L341.69765220687583,557.1599370257768 M341.69765220687583,557.1599370257768 L331.6766624967592,558.1326027756745 M331.6766624967592,558.1326027756745 L337.70196053012694,583.2407402131417 M277.80113323151164,583.2407267037048 L289.7279103632461,584.0347066640991 M289.7279103632461,584.0347066640991 L301.7179709368312,584.432341043327 M301.7179709368312,584.432341043327 L313.73471541682443,584.4323275295792 M313.73471541682443,584.4323275295792 L325.74156704118315,584.0347201764082 M325.74156704118315,584.0347201764082 L337.70196053012694,583.2407402131417 M277.80113323151164,583.2407267037048 L284.88948525130286,558.1325893569166 M284.88948525130286,558.1325893569166 L274.9096980994982,557.1599638562795 M274.9096980994982,557.1599638562795 L267.7886168241952,582.2615290070485 M211.21569936358145,570.8801964267369 L222.06141346139157,573.9001774880107 M222.06141346139157,573.9001774880107 L233.17542792220343,576.5561797127463 M233.17542792220343,576.5561797127463 L244.52428912670587,578.8397180019547 M244.52428912670587,578.8397180019547 L256.0736486768077,580.7435319712347 M256.0736486768077,580.7435319712347 L267.7886168241952,582.2615290070485 M211.21569936358145,570.8801964267369 L230.69866911050235,548.2971732628184 M230.69866911050235,548.2971732628184 L221.77760849339288,545.4826295951658 M221.77760849339288,545.4826295951658 L202.2749914535518,568.0485025328783 M154.814107707541,546.5117720554488 L163.47675575258387,551.4334717833996 M163.47675575258387,551.4334717833996 L172.58142658262767,556.0620338498509 M172.58142658262767,556.0620338498509 L182.10161555651183,560.3829376771978 M182.10161555651183,560.3829376771978 L192.00923397934358,564.3826410269098 M192.00923397934358,564.3826410269098 L202.2749914535518,568.0485025328783 M154.814107707541,546.5117720554488 L184.62707926630418,528.6954702275991 M184.62707926630418,528.6954702275991 L177.662368927383,524.3356860436343 M177.662368927383,524.3356860436343 L147.85024413145413,542.1310156799811 M114.23284116837266,512.7255937243166 L119.86047479334246,519.0296843034072 M119.86047479334246,519.0296843034072 L126.05397401872636,525.1406518864701 M126.05397401872636,525.1406518864701 L132.79623857828074,531.0398424981386 M132.79623857828074,531.0398424981386 L140.06852121644363,536.7091028189171 M140.06852121644363,536.7091028189171 L147.85024413145413,542.1310156799811 M114.23284116837266,512.7255937243166 L151.264044904302,501.3807884265892 M151.264044904302,501.3807884265892 L146.93603313726453,495.9283415472629 M146.93603313726453,495.9283415472629 L109.92551836984518,507.25641879406703 M93.33590161469687,473.03518460933185 L95.41111893466064,480.0729098018371 M95.41111893466064,480.0729098018371 L98.11480752837144,487.0344181844521 M98.11480752837144,487.0344181844521 L101.44076144869018,493.8991139411987 M101.44076144869018,493.8991139411987 L105.38099100873592,500.64651479704344 M105.38099100873592,500.64651479704344 L109.92551836984518,507.25641879406703 M93.33590161469687,473.03518460933185 L133.80717893728695,469.16396060515126 M133.80717893728695,469.16396060515126 L132.51328997312112,463.17295362141067 M132.51328997312112,463.17295362141067 L92.07432743925858,467.0378781639987 M93.88334127510097,431.4535162447173 L92.26008242499904,438.52227317135646 M92.26008242499904,438.52227317135646 L91.26377483073026,445.63554313220595 M91.26377483073026,445.63554313220595 L90.89907390403852,452.7729791894376 M90.89907390403852,452.7729791894376 L91.16889094178418,459.9139905735964 M91.16889094178418,459.9139905735964 L92.07432743925858,467.0378781639987 M93.88334127510097,431.4535162447173 L133.77831957667377,435.2851327272467 M133.77831957667377,435.2851327272467 L135.60480391771864,429.3491710403065 M135.60480391771864,429.3491710403065 L95.74119156481692,425.5237576023011 M115.4721849842316,392.0533028056017 L110.3677087021847,398.47020177690126 M110.3677087021847,398.47020177690126 L105.82875070852037,405.04414685305585 M105.82875070852037,405.04414685305585 L101.86970257411133,411.756929817675 M101.86970257411133,411.756929817675 L98.50341559720721,418.5898594384805 M98.50341559720721,418.5898594384805 L95.74119156481692,425.5237576023011 M115.4721849842316,392.0533028056017 L150.94835491777235,403.0645429061069 M150.94835491777235,403.0645429061069 L155.67730325254885,397.7562438544128 M155.67730325254885,397.7562438544128 L120.21978759972143,386.7610217728818 M155.70932337555223,358.570615914569 L147.66108618382944,363.73529093362936 M147.66108618382944,363.73529093362936 L140.0663764717732,369.1515862010101 M140.0663764717732,369.1515862010101 L132.94745702573607,374.8049211356313 M132.94745702573607,374.8049211356313 L126.32531508703369,380.6800602854721 M126.32531508703369,380.6800602854721 L120.21978759972143,386.7610217728818 M155.70932337555223,358.570615914569 L183.4481954435298,375.5777436194859 M183.4481954435298,375.5777436194859 L190.59375508797422,371.3961262360689 M190.59375508797422,371.3961262360689 L162.85409335368615,354.40855870210487 M210.5487673194477,334.08705559552345 L200.3481764398403,337.5297270077335 M200.3481764398403,337.5297270077335 L190.45101812740592,341.2935253340786 M190.45101812740592,341.2935253340786 L180.88509315220563,345.36856307793266 M180.88509315220563,345.36856307793266 L171.67741162362614,349.7440933036354 M171.67741162362614,349.7440933036354 L162.85409335368615,354.40855870210487 M210.5487673194477,334.08705559552345 L228.02170089495746,355.3854592168557 M228.02170089495746,355.3854592168557 L236.8857474009473,352.7150538694966 M236.8857474009473,352.7150538694966 L219.3931807185905,331.43233699779125 M274.72349776521423,320.8021883182821 L263.3378093888511,322.2163213818966 M263.3378093888511,322.2163213818966 L252.08120473568187,323.9914509537516 M252.08120473568187,323.9914509537516 L240.98458699933366,326.123009074797 M240.98458699933366,326.123009074797 L230.07852997839734,328.6054577545259 M230.07852997839734,328.6054577545259 L219.3931807185905,331.43233699779125 M274.72349776521423,320.8021883182821 L280.3701048652656,344.3322388848693 M280.3701048652656,344.3322388848693 L290.1097697722274,343.41466775944355 M290.1097697722274,343.41466775944355 L284.4321927676956,319.89058602464195 M342.22090996292144,319.89058602464195 L330.710463482278,319.1517591551651 M330.710463482278,319.1517591551651 L319.1447197820389,318.7818777526113 M319.1447197820389,318.7818777526113 L307.55532484619823,318.7818651829456 M307.55532484619823,318.7818651829456 L295.973909727158,319.1517654406433 M295.973909727158,319.1517654406433 L284.4321927676956,319.89058602464195 M342.22090996292144,319.89058602464195 L335.54733589750765,343.4146614315589 M335.54733589750765,343.4146614315589 L345.2481727521691,344.33224521436046 M345.2481727521691,344.33224521436046 L351.89100841899216,320.8022008949987 M406.7712555897337,331.43233699779125 L396.20559362601165,328.6054577545259 M396.20559362601165,328.6054577545259 L385.40465170760626,326.12300277714917 M385.40465170760626,326.12300277714917 L374.39827139374825,323.9914509537516 M374.39827139374825,323.9914509537516 L363.2168134932712,322.21631509107 M363.2168134932712,322.21631509107 L351.89100841899216,320.8022008949987 M406.7712555897337,331.43233699779125 L388.3775995376127,352.7150538694966 M388.3775995376127,352.7150538694966 L397.1286049620472,355.3854592168557 M397.1286049620472,355.3854592168557 L415.50328668421287,334.0870587513059 M462.33755225033536,354.408558702105 L453.7117281899512,349.74409013415016 M453.7117281899512,349.74409013415016 L444.68929700500235,345.36856307793266 M444.68929700500235,345.36856307793266 L435.2959051332826,341.2935253340787 M435.2959051332826,341.2935253340787 L425.5581129931011,337.52972069014754 M425.5581129931011,337.52972069014754 L415.50328668421287,334.0870587513059 M462.33755225033536,354.408558702105 L433.8786642420754,371.39611985910165 M433.8786642420754,371.39611985910165 L440.84717830560464,375.5777372351673 M440.84717830560464,375.5777372351673 L469.3061048059892,358.570615914569 M503.6021131756662,386.76103137888117 L497.75403153349316,380.6800538921781 M497.75403153349316,380.6800538921781 L491.3806265865764,374.8049211356315 M491.3806265865764,374.8049211356315 L484.5010424635987,369.15157345496414 M484.5010424635987,369.15157345496414 L477.135680037098,363.7352877518741 M477.135680037098,363.7352877518741 L469.3061048059892,358.570615914569 M503.6021131756662,386.76103137888117 L467.67907593708384,397.7562502777919 M467.67907593708384,397.7562502777919 L472.18326542487387,403.06455577159863 M472.18326542487387,403.06455577159863 L508.1256405013946,392.05331563224945 M526.4395171245706,425.52377701965486 L523.9708350964031,418.589846518121 M523.9708350964031,418.589846518121 L520.8938692131584,411.7569298176751 M520.8938692131584,411.7569298176751 L517.2190443883554,405.04414041681514 M517.2190443883554,405.04414041681514 L512.958410125891,398.47020177690126 M512.958410125891,398.47020177690126 L508.1256405013946,392.05331563224945 M526.4395171245706,425.52377701965486 L486.4139511379168,429.34918399875926 M486.4139511379168,429.34918399875926 L487.98906962612233,435.2851197477539 M487.98906962612233,435.2851197477539 L528.0462747538763,431.4535032788077 M528.3487031846985,467.0378781639989 L529.5557473710896,459.91399710708254 M529.5557473710896,459.91399710708254 L530.1279292766643,452.77297266864866 M530.1279292766643,452.77297266864866 L530.0654206137174,445.635562656537 M530.0654206137174,445.635562656537 L529.3702493417072,438.52226018038266 M529.3702493417072,438.52226018038266 L528.0462747538763,431.4535032788077 M528.3487031846985,467.0378781639989 L488.07336699726403,463.17296016069554 M488.07336699726403,463.17296016069554 L486.5258245863716,469.16394095529654 M324.8687922474384,440.67384659740685 L321.87671483018914,439.17592039396743 M321.87671483018914,439.17592039396743 L318.4526029357018,438.0632398959855 M318.4526029357018,438.0632398959855 L314.7275872995817,437.3782199111896 M314.7275872995817,437.3782199111896 L310.84429175402556,437.1469432333224 M310.84429175402556,437.1469432333224 L306.9512041806397,437.3782199111896 M306.9512041806397,437.3782199111896 L303.1972072643173,438.0632269066401 M303.1972072643173,438.0632269066401 L299.7259637738043,439.17592039396743 M299.7259637738043,439.17592039396743 L296.6704656294577,440.67384659740685 M296.6704656294577,440.67384659740685 L294.1479953856845,442.4999171132083 M294.1479953856845,442.4999171132083 L292.2555480054892,444.58438024028544 M292.2555480054892,444.58438024028544 L291.06636447954173,446.8474820033639 M291.06636447954173,446.8474820033639 L290.6266192205693,449.2025312989373 M290.6266192205693,449.2025312989373 L290.95402375040794,451.5590808692257 M290.95402375040794,451.5590808692257 L292.0366788164158,453.8265182179007 M292.0366788164158,453.8265182179007 L293.8335681866869,455.91743101913823 M293.8335681866869,455.91743101913823 L296.27608343899647,457.75109638438744 M296.27608343899647,457.75109638438744 L299.27047967034537,459.2566435007162 M299.27047967034537,459.2566435007162 L302.7016010809318,460.3757606643169 M302.7016010809318,460.3757606643169 L306.4371877898596,461.0650902460069 M306.4371877898596,461.0650902460069 L310.33302825400744,461.29788027205734 M310.33302825400744,461.29788027205734 L314.2387466629273,461.0650771749389 M314.2387466629273,461.0650771749389 L318.0034752328419,460.3757737329321 M318.0034752328419,460.3757737329321 L321.48197949025837,459.2566304360827 M321.48197949025837,459.2566304360827 L324.54014042205404,457.75109638438744 M324.54014042205404,457.75109638438744 L327.06026995686335,455.9174179663812 M327.06026995686335,455.9174179663812 L328.94572963269917,453.8265051725781 M328.94572963269917,453.8265051725781 L330.1243639777728,451.5590808692257 M330.1243639777728,451.5590808692257 L330.5515425063876,449.2025312989373 M330.5515425063876,449.2025312989373 L330.2115290168939,446.84749502388854 M330.2115290168939,446.84749502388854 L329.11812042795395,444.5843672277971 M329.11812042795395,444.5843672277971 L327.31394845559544,442.4999171132083 M327.31394845559544,442.4999171132083 L324.8687922474384,440.67384659740685 M467.70495140839114,501.3807818191282 L467.7090803264572,470.9045486538407 M467.67907593708384,397.7562502777919 L467.68308969866473,367.47978953503605 M472.18326542487387,403.06455577159863 L472.19723012499804,372.777703576827 M503.6852830487219,356.5061489108366 L503.6021131756662,386.76103137888117 M508.2188466234802,361.7880378526844 L508.1256405013946,392.05331563224945 M469.3136684154056,328.3713916196882 L469.3061048059892,358.570615914569 M526.57372602788,395.19314763006537 L526.4395171245706,425.52377701965486 M440.84717830560464,375.5777372351673 L440.7921425485354,345.3448771531764 M486.4139511379168,429.34918399875926 L486.45950997044883,399.01112859016257 M433.8786642420754,371.39611985910165 L433.80833652562654,341.1715137399216 M487.98906962612233,435.2851197477539 L488.03815974996985,404.9355588092385 M462.32982364601355,324.2175925499412 L462.33755225033536,354.408558702105 M528.1841553083768,401.1113666630315 L528.0462747538763,431.4535032788077 M415.3931221715802,303.93656395401706 L415.50328668421287,334.0870587513059 M528.4879296105494,436.6271332995127 L528.3487031846985,467.0378781639989 M397.1286049620472,355.3854592168557 L396.9777982582928,325.19255380725883 M488.07336699726403,463.17296016069554 L488.122832261629,432.7696299511622 M388.3775995376127,352.7150538694966 L388.20765480644826,322.52745088260724 M406.6420359618984,301.2871476669545 L406.7712555897337,331.43233699779125 M351.6421413920524,290.67829861794735 L351.89100841899216,320.8022008949987 M345.2481727521691,344.33224521436046 L344.98393837767867,314.1613153602416 M335.54733589750765,343.4146614315589 L335.2618854792474,313.2455592024281 M341.9509612480495,289.7685124559148 L342.22090996292144,319.89058602464195 M504.34192832258907,482.22789058216347 L504.2558489867713,512.7256003520889 M284.03607088000183,289.7685124559148 L284.4321927676956,319.89058602464195 M469.4013688855247,511.5780016583062 L469.39341666083214,542.1310156799811 M290.1097697722274,343.41466775944355 L289.7247885059537,313.2455655177073 M440.3347286776667,524.3356860436344 L440.27741218784206,493.81607810712455 M280.3701048652656,344.3322388848693 L279.96373720600684,314.1613090433557 M433.185429350116,528.6954702275991 L433.11201625175715,498.1676602171822 M274.30612545511326,290.6782860664563 L274.72349776521423,320.8021883182821 M462.2359314919112,515.9505636918229 L462.2440761540858,546.5117720554488 M218.85419183519156,301.2871476669545 L219.3931807185905,331.43233699779125 M413.7539634971869,537.4471778749278 L413.871392126561,568.0485025328785 M236.8857474009473,352.7150538694966 L236.38353236576057,322.52745088260724 M395.32417019950975,545.4826162219778 L395.1653320434374,514.9233318832366 M228.02170089495746,355.3854592168557 L227.4998512791252,325.19255380725883 M386.2839662734763,548.2971732628184 L386.10470276926407,517.7326285802735 M209.9902311294469,303.9365608045389 L210.5487673194477,334.08705559552345 M404.67282476986134,540.27360462767 L404.810771303761,570.8801829619784 M162.1893472816431,324.2175925499412 L162.85409335368615,354.40855870210487 M347.4886831254717,551.6338565899226 L347.75595779933707,582.2615019952593 M190.59375508797422,371.3961262360689 L189.98844519611163,341.17152010429334 M341.69765220687583,557.1599370257768 L341.41761398424376,526.5788593410874 M183.4481954435298,375.5777436194859 L182.8268138663285,345.3448835249011 M331.6766624967592,558.1326027756745 L331.3739831717935,527.5497135297578 M155.02851083432887,328.3713916196882 L155.70932337555223,358.570615914569 M337.41189518031376,552.6112858776095 L337.70196053012694,583.2407402131417 M119.45811292187943,356.5061393237211 L120.21978759972143,386.7610217728818 M277.37549233191544,552.6112723931244 L277.80113323151164,583.2407267037048 M155.67730325254885,397.7562438544128 L154.99272915264726,367.4797831242415 M284.88948525130286,558.1325893569166 L284.48126773880284,527.549700135988 M150.94835491777235,403.0645429061069 L150.25283635962086,372.77769073649995 M274.9096980994982,557.1599638562795 L274.47902551454393,526.5788861216112 M114.69948504828517,361.78802505121075 L115.4721849842316,392.0533028056017 M267.34037316908405,551.6338835518055 L267.7886168241952,582.2615290070485 M94.92121729876862,395.1931282504278 L95.74119156481692,425.5237576023011 M210.64030941349026,540.2736180674583 L211.21569936358145,570.8801964267369 M135.60480391771864,429.3491710403065 L134.87276112037563,399.0111156568504 M230.69866911050235,548.2971732628184 L230.16891545001207,517.7326285802735 M133.77831957667377,435.2851327272467 L133.0416295420029,404.9355717635965 M221.77760849339288,545.4826295951658 L221.22796682967527,514.9233452314189 M93.0585811860401,401.11137960380256 L93.88334127510097,431.4535162447173 M201.67962596371004,537.4471778749278 L202.2749914535518,568.0485025328783 M91.24151680283506,436.6271332995126 L92.07432743925858,467.0378781639987 M154.11357602507064,515.9505636918229 L154.814107707541,546.5117720554488 M132.51328997312112,463.17295362141067 L131.7709702743689,432.76962342443016 M184.62707926630418,528.6954702275991 L183.99521350249614,498.1676602171822 M133.80717893728695,469.16396060515126 L133.06713638347009,438.74914080857025 M177.662368927383,524.3356860436343 L177.01523669871457,493.81607810712444 M92.50522329119872,442.6129520966143 L93.33590161469687,473.03518460933185 M147.13445170971062,511.5780016583061 L147.85024413145413,542.1310156799811 M109.12813324325265,476.7690528813663 L109.92551836984518,507.25641879406703 M113.44452146783595,482.2278839669152 L114.23284116837266,512.7255937243166 M146.93603313726453,495.9283415472629 L146.2226582739003,465.46245796741675 M151.264044904302,501.3807884265892 L150.55983003837287,470.90455524877063 M324.8687922474384,440.67384659740685 L324.5557860531877,410.31385923194887" stroke="black"  stroke-width="4"  fill="red"/>
<path d="M72.41474715725667,548.7290111787445 L71.5283724898947,518.1636598248889 M101.88791048606606,531.2264912889362 L101.06986930724798,500.6939249369393 M72.41474715725667,548.7290111787445 L101.88791048606606,531.2264912889362 M71.5283724898947,518.1636598248889 L101.06986930724798,500.6939249369393 M72.41474715725667,548.7290111787445 L334.2228812944164,714.6308368471717 M334.2228812944164,714.6308368471717 L333.91968817713786,683.7639287981577 M71.5283724898947,518.1636598248889 L333.91968817713786,683.7639287981577 M101.88791048606606,531.2264912889362 L122.69211083550084,544.3456412947845 M122.69211083550084,544.3456412947845 L121.91946046776991,513.7884832955543 M101.06986930724798,500.6939249369393 L121.91946046776991,513.7884832955543 M123.30578255397455,543.9799610440168 L132.29975970591693,550.3303745220444 M132.29975970591693,550.3303745220444 L141.90272632688277,556.3544249535777 M141.90272632688277,556.3544249535777 L152.0832138583704,562.0307124044411 M152.0832138583704,562.0307124044411 L162.8076312208031,567.3389107430098 M162.8076312208031,567.3389107430098 L174.04012795110776,572.2599835108908 M174.04012795110776,572.2599835108908 L185.74306339114827,576.7761713349752 M185.74306339114827,576.7761713349752 L197.87684064206417,580.8711264740743 M197.87684064206417,580.8711264740743 L210.40014116696926,584.5300196907382 M210.40014116696926,584.5300196907382 L223.27014724038045,587.7395241087032 M223.27014724038045,587.7395241087032 L236.44267740961493,590.4879051025579 M236.44267740961493,590.4879051025579 L249.8723481641369,592.7651217688215 M249.8723481641369,592.7651217688215 L263.51263354186415,594.5628041509007 M263.51263354186415,594.5628041509007 L277.31627471375555,595.8743901867521 M277.31627471375555,595.8743901867521 L291.2352594169005,596.6950429659048 M291.2352594169005,596.6950429659048 L305.22125985443,597.0217409295619 M305.22125985443,597.0217409295619 L319.2255250289693,596.8532970762847 M319.2255250289693,596.8532970762847 L333.19928057826604,596.1903069762403 M333.19928057826604,596.1903069762403 L347.09397244119816,595.0352154105977 M347.09397244119816,595.0352154105977 L360.86118260455976,593.3922846826943 M360.86118260455976,593.3922846826943 L374.45322462671584,591.2675460693065 M374.45322462671584,591.2675460693065 L387.82298981713257,588.6687752178818 M387.82298981713257,588.6687752178818 L400.92425221471194,585.6054780343527 M400.92425221471194,585.6054780343527 L413.71203636893983,582.0888601360881 M413.71203636893983,582.0888601360881 L426.14243315091414,578.1317801380239 M426.14243315091414,578.1317801380239 L438.17304852783053,573.7484984593318 M438.17304852783053,573.7484984593318 L449.76311533802607,568.9550312192885 M449.76311533802607,568.9550312192885 L460.8735172287346,563.7685854516631 M460.8735172287346,563.7685854516631 L471.46706634337426,558.2078022555878 M471.46706634337426,558.2078022555878 L481.5086022643562,552.292621299815 M481.5086022643562,552.292621299815 L490.96508499569995,546.044145320352 M490.96508499569995,546.044145320352 L499.8057475264882,539.484518435032 M499.8057475264882,539.484518435032 L508.0020032782246,532.6368985104291 M508.0020032782246,532.6368985104291 L515.5278928683524,525.5253099015731 M515.5278928683524,525.5253099015731 L522.3598066590241,518.1746174197543 M522.3598066590241,518.1746174197543 L528.4767462452019,510.6103287503121 M528.4767462452019,510.6103287503121 L533.8603643124086,502.85858500933466 M533.8603643124086,502.85858500933466 L538.4948472582853,494.94598085077416 M538.4948472582853,494.94598085077416 L542.3671203590304,486.8994801660374 M542.3671203590304,486.8994801660374 L623.6682272906838,297.96629985983543 M610.4549110615707,270.10499565862085 L614.2706639158711,272.60188037992305 M614.2706639158711,272.60188037992305 L617.5773455095363,275.3418388792908 M617.5773455095363,275.3418388792908 L620.3299704075654,278.2883461538339 M620.3299704075654,278.2883461538339 L622.4908031935493,281.4020064387255 M622.4908031935493,281.4020064387255 L624.0299657565294,284.64108455019095 M624.0299657565294,284.64108455019095 L624.9258406904179,287.96204614508497 M624.9258406904179,287.96204614508497 L625.1654694674727,291.32016435083983 M625.1654694674727,291.32016435083983 L624.7446812260241,294.6700474163936 M624.7446812260241,294.6700474163936 L623.6682272906838,297.96629985983543 M610.4549110615707,270.10499565862085 L575.7157408139606,249.84573374560875 M575.7157408139606,249.84573374560875 L636.6390231645497,213.6666867530082 M898.4078290400852,364.79897729069546 L636.6390231645497,213.6666867530082 M334.2228812944164,714.6308368471717 L898.4078290400852,364.79897729069546 M122.69211083550084,544.3456412947845 L123.30578255397455,543.9799610440168 M651.1363574452974,245.8076397751713 L648.5572437237298,244.61254752347054 M648.5572437237298,244.61254752347054 L645.5999050934781,243.7811088911768 M645.5999050934781,243.7811088911768 L642.4123233263639,243.3547821425616 M642.4123233263639,243.3547821425616 L639.1537929872504,243.3547821425616 M639.1537929872504,243.3547821425616 L635.9871372352109,243.78111735382868 M635.9871372352109,243.78111735382868 L633.0706086453044,244.61253598079895 M633.0706086453044,244.61253598079895 L630.5501427666356,245.8076397751713 M630.5501427666356,245.8076397751713 L628.551965844199,247.30680677456257 M628.551965844199,247.30680677456257 L627.176451979309,249.03521584642 M627.176451979309,249.03521584642 L626.4928911781675,250.9064388920233 M626.4928911781675,250.9064388920233 L626.5361166720871,252.8268055833846 M626.5361166720871,252.8268055833846 L627.3045214354111,254.70002140676024 M627.3045214354111,254.70002140676024 L628.7601213452523,256.4320204411496 M628.7601213452523,256.4320204411496 L630.8302273200869,257.9356566999885 M630.8302273200869,257.9356566999885 L633.4111830059064,259.1352205192112 M633.4111830059064,259.1352205192112 L636.3734669844687,259.9702445218454 M636.3734669844687,259.9702445218454 L639.5681179440501,260.39856019087165 M639.5681179440501,260.39856019087165 L642.8344388655237,260.39856019087165 M642.8344388655237,260.39856019087165 L646.008064850744,259.9702352478861 M646.008064850744,259.9702352478861 L648.9293628587012,259.135231336302 M648.9293628587012,259.135231336302 L651.4514525679299,257.9356566999884 M651.4514525679299,257.9356566999884 L653.4477862453157,256.43201889701993 M653.4477862453157,256.43201889701993 L654.8183547415327,254.7000244935216 M654.8183547415327,254.7000244935216 L655.4948476716175,252.8268117536686 M655.4948476716175,252.8268117536686 L655.4438316062218,250.90644505898786 M655.4438316062218,250.90644505898786 L654.6684553009408,249.0352196987518 M654.6684553009408,249.0352196987518 L653.2080859908417,247.30680600446942 M653.2080859908417,247.30680600446942 L651.1363574452974,245.8076397751713 M542.538041887741,456.4507743252386 L538.6572953517133,464.48196385729136 M538.6572953517133,464.48196385729136 L534.0126107221554,472.37954983983195 M534.0126107221554,472.37954983983195 L528.617086584297,480.1166174455035 M528.617086584297,480.1166174455035 L522.4865670609538,487.66661992425725 M522.4865670609538,487.66661992425725 L515.6394362672346,495.0034627817537 M515.6394362672346,495.0034627817537 L508.0967360262839,502.1016833765276 M508.0967360262839,502.1016833765276 L499.8821259850401,508.93646039455234 M499.8821259850401,508.93646039455234 L491.02162159303066,515.4838111136858 M491.02162159303066,515.4838111136858 L481.54387221922536,521.7206174447495 M481.54387221922536,521.7206174447495 L471.47971341379457,527.6247729766959 M471.47971341379457,527.6247729766959 L460.8622596860303,533.1752106205861 M460.8622596860303,533.1752106205861 L449.7267516021174,538.3520241316801 M449.7267516021174,538.3520241316801 L438.11046258385363,543.1366034241987 M438.11046258385363,543.1366034241987 L426.0525997193759,547.5117698799586 M426.0525997193759,547.5117698799586 L413.5940254164954,551.4615337092902 M413.5940254164954,551.4615337092902 L400.777233357531,554.9716577505637 M400.777233357531,554.9716577505637 L387.6462364167972,558.0293042851272 M387.6462364167972,558.0293042851272 L374.24611679675604,560.6232858175299 M374.24611679675604,560.6232858175299 L360.6232105523238,562.7441117497767 M360.6232105523238,562.7441117497767 L346.82473888661,564.3840189124774 M346.82473888661,564.3840189124774 L332.8985023840968,565.536985684643 M332.8985023840968,565.536985684643 L318.8930350764306,566.1987565775473 M318.8930350764306,566.1987565775473 L304.857007459392,566.3668907129835 M304.857007459392,566.3668907129835 L290.8393108248108,566.040793464759 M290.8393108248108,566.040793464759 L276.88881293350164,565.2216499445925 M276.88881293350164,565.2216499445925 L263.05395715930206,563.912476886898 M263.05395715930206,563.912476886898 L249.38287029130217,562.1181034649245 M249.38287029130217,562.1181034649245 L235.92292354164684,559.8450812353808 M235.92292354164684,559.8450812353808 L222.72075305378237,557.1017667002991 M222.72075305378237,557.1017667002991 L209.82184930585922,553.8981845757227 M209.82184930585922,553.8981845757227 L197.27049728342334,550.246050482493 M197.27049728342334,550.246050482493 L185.10961437643573,546.1586696142756 M185.10961437643573,546.1586696142756 L173.3806145543998,541.6508469612604 M173.3806145543998,541.6508469612604 L162.12318535943126,536.7389033657422 M162.12318535943126,536.7389033657422 L151.37505274184846,531.4405687875421 M151.37505274184846,531.4405687875421 L141.1721474652295,525.7748479445772 M141.1721474652295,525.7748479445772 L131.5481348424234,519.7620328133908 M131.5481348424234,519.7620328133908 L122.53455192621163,513.4234870962277 M542.538041887741,456.4507743252386 L624.0117267678877,267.88835802698304 M610.7684258030034,240.08355573873348 L614.5925646331966,242.575357699032 M614.5925646331966,242.575357699032 L617.9065446304696,245.30974296545412 M617.9065446304696,245.30974296545412 L620.6652804568442,248.2502619417212 M620.6652804568442,248.2502619417212 L622.830951903705,251.35759992299813 M622.830951903705,251.35759992299813 L624.3736125908906,254.5901072917709 M624.3736125908906,254.5901072917709 L625.2715943617603,257.90433862441773 M625.2715943617603,257.90433862441773 L625.5119064646555,261.2556580489228 M625.5119064646555,261.2556580489228 L625.0903647736718,264.59876580121886 M625.0903647736718,264.59876580121886 L624.0117267678877,267.88835802698304 M610.7684258030034,240.08355573873348 L575.953257049535,219.86567382151964 M575.953257049535,219.86567382151964 L637.0063843350661,183.76114078608015 M899.358131799276,334.5874145684859 L637.0063843350661,183.76114078608015 M333.91968817713786,683.7639287981577 L899.358131799276,334.5874145684859 M121.91946046776991,513.7884832955543 L122.53455192621163,513.4234870962277 M651.5367120712874,215.8358574176018 L653.6130026133483,217.33194940047468 M653.6130026133483,217.33194940047468 L655.0766273342018,219.05682043180468 M655.0766273342018,219.05682043180468 L655.8537876028234,220.92421245034274 M655.8537876028234,220.92421245034274 L655.9050245713154,222.84064733550042 M655.9050245713154,222.84064733550042 L655.2271758810745,224.71002695893355 M655.2271758810745,224.71002695893355 L653.8537407443443,226.43847910636464 M653.8537407443443,226.43847910636464 L651.8531715785869,227.93904315690145 M651.8531715785869,227.93904315690145 L649.3256893949407,229.13616659052252 M649.3256893949407,229.13616659052252 L646.3981127384859,229.9694647744958 M646.3981127384859,229.9694647744958 L643.2176383741717,230.39691490834582 M643.2176383741717,230.39691490834582 L639.9442449308783,230.39691490834582 M639.9442449308783,230.39691490834582 L636.7426544575495,229.96947402951298 M636.7426544575495,229.96947402951298 L633.7739141837318,229.13615579553152 M633.7739141837318,229.13615579553152 L631.1873108851153,227.93904315690145 M631.1873108851153,227.93904315690145 L629.1126497041942,226.43848064733697 M629.1126497041942,226.43848064733697 L627.6538148443651,224.71002387848682 M627.6538148443651,224.71002387848682 L626.8836561960835,222.840641177846 M626.8836561960835,222.840641177846 L626.8402435327819,220.92420629600815 M626.8402435327819,220.92420629600815 L627.5251908045016,219.05681658736688 M627.5251908045016,219.05681658736688 L628.9035929148,217.33195016898895 M628.9035929148,217.33195016898895 L630.9060135452936,215.8358574176018 M630.9060135452936,215.8358574176018 L633.4318651053788,214.64320532151072 M633.4318651053788,214.64320532151072 L636.3546518829475,213.81349281958546 M636.3546518829475,213.81349281958546 L639.5281259384991,213.3880326380223 M639.5281259384991,213.3880326380223 L642.7936950656236,213.3880326380223 M642.7936950656236,213.3880326380223 L645.9881856331504,213.8134843743017 M645.9881856331504,213.8134843743017 L648.9519589538581,214.64321684049878 M648.9519589538581,214.64321684049878 L651.5367120712874,215.8358574176018 M898.4078290400852,364.79897729069546 L899.358131799276,334.5874145684859 M123.30578255397455,543.9799610440168 L122.53455192621163,513.4234870962277 M542.3671203590304,486.8994801660374 L542.538041887741,456.4507743252386 M623.6682272906838,297.96629985983543 L624.0117267678877,267.88835802698304 M610.4549110615707,270.10499565862085 L610.7684258030034,240.08355573873348 M575.7157408139606,249.84573374560875 L575.953257049535,219.86567382151964 M636.6390231645497,213.6666867530082 L637.0063843350661,183.76114078608015 M651.1363574452974,245.8076397751713 L651.5367120712874,215.8358574176018" stroke="black"  stroke-width="4"  fill="red"/></svg>