<svg viewBox="0 0 800 800" xmlns="http://www.w3.org/2000/svg"><path d="M479.6470600995202,95.1465008142954 L479.6470600995202,84.22384542480972 M-106.13282882244482,433.3466773692611 L-106.82935663329135,422.0728759202806 M479.6470600995202,95.1465008142954 L-106.13282882244482,433.3466773692611 M479.6470600995202,84.22384542480972 L-106.82935663329135,422.0728759202806 M479.6470600995202,95.1465008142954 L479.6470600995202,323.5062030270309 M479.6470600995202,312.34076939148395 L479.6470600995202,323.5062030270309 M479.6470600995202,84.22384542480972 L479.6470600995202,312.34076939148395 M117.48621200352898,339.3978897704171 L-106.13282882244482,433.3466773692611 M-106.82935663329135,422.0728759202806 L117.06329897801868,328.2164395728031 M117.06329897801868,328.2164395728031 L117.48621200352898,339.3978897704171 M479.6470600995202,323.5062030270309 L479.3721575622357,323.6723001764633 M479.3721575622357,323.6723001764633 L470.613468940905,319.15171714950407 M470.613468940905,319.15171714950407 L461.53617631551083,314.88552300470326 M461.53617631551083,314.88552300470326 L452.15880302379776,310.88139608973086 M452.15880302379776,310.88139608973086 L442.5002796125484,307.1465049943944 M442.5002796125484,307.1465049943944 L432.579906934498,303.6875115341534 M432.579906934498,303.6875115341534 L422.41745633797007,300.51054605774107 M422.41745633797007,300.51054605774107 L412.03300030276495,297.6212364597336 M412.03300030276495,297.6212364597336 L401.44691127151583,295.02463712844474 M401.44691127151583,295.02463712844474 L390.67991979604733,292.72531968509793 M390.67991979604733,292.72531968509793 L379.75291331862155,290.7273048826563 M379.75291331862155,290.7273048826563 L368.6870881069499,289.03406143482414 M368.6870881069499,289.03406143482414 L357.5037861462766,287.648548831241 M357.5037861462766,287.648548831241 L346.22453731540776,286.57316468367026 M346.22453731540776,286.57316468367026 L334.8710110134288,285.8097630647437 M334.8710110134288,285.8097630647437 L323.46495295546436,285.35968071647517 M323.46495295546436,285.35968071647517 L312.02819964597205,285.2236813389213 M312.02819964597205,285.2236813389213 L300.5826448909312,285.4020155675403 M300.5826448909312,285.4020155675403 L289.15018776411455,285.89435858097795 M289.15018776411455,285.89435858097795 L277.75266843261016,286.69988582227984 M277.75266843261016,286.69988582227984 L266.4119864580324,287.81716570073434 M266.4119864580324,287.81716570073434 L255.14989948080986,289.24427804483435 M255.14989948080986,289.24427804483435 L243.98802609856293,290.97876306682906 M243.98802609856293,290.97876306682906 L232.94793799576027,293.01758714026676 M232.94793799576027,293.01758714026676 L222.050988372843,295.35720429760545 M222.050988372843,295.35720429760545 L211.3183769983844,297.99350423669796 M211.3183769983844,297.99350423669796 L200.77103993569273,300.9218742867205 M200.77103993569273,300.9218742867205 L190.42963967947122,304.1371749490106 M190.42963967947122,304.1371749490106 L180.314638475567,307.63369180350617 M180.314638475567,307.63369180350617 L170.4460484200135,311.4052608877578 M170.4460484200135,311.4052608877578 L160.8436832672854,315.44510708057976 M160.8436832672854,315.44510708057976 L151.52682586281347,319.74603194171425 M151.52682586281347,319.74603194171425 L142.51443707236808,324.3002631688877 M142.51443707236808,324.3002631688877 L133.82494928552558,329.0995726770557 M133.82494928552558,329.0995726770557 L125.47639339940184,334.13518846794386 M125.47639339940184,334.13518846794386 L117.48621200352898,339.3978897704171 M479.6470600995202,312.34076939148395 L479.37183752564164,312.5066985473894 M117.06329897801868,328.2164395728031 L125.06323370059386,322.9590296644111 M125.06323370059386,322.9590296644111 L133.42192365772655,317.9284886818176 M133.42192365772655,317.9284886818176 L142.12190530819333,313.1340265200565 M142.12190530819333,313.1340265200565 L151.14512641088456,308.5844047497584 M151.14512641088456,308.5844047497584 L160.47313305948535,304.28784158778194 M160.47313305948535,304.28784158778194 L170.08694253703806,300.25209995292664 M170.08694253703806,300.25209995292664 L179.96725005204473,296.4843695204463 M179.96725005204473,296.4843695204463 L190.09421954506251,292.99141712526637 M190.09421954506251,292.99141712526637 L200.44781664279054,289.7793991261701 M200.44781664279054,289.7793991261701 L211.00755653276087,286.85402286940166 M211.00755653276087,286.85402286940166 L221.75275414693968,284.2204214486778 M221.75275414693968,284.2204214486778 L232.66245073695063,281.88320175998126 M232.66245073695063,281.88320175998126 L243.71542372978232,279.84646894490595 M243.71542372978232,279.84646894490595 L254.89029711342846,278.1137644965779 M254.89029711342846,278.1137644965779 L266.1654762867221,276.6881182071977 M266.1654762867221,276.6881182071977 L277.51931981108334,275.57198673986295 M277.51931981108334,275.57198673986295 L288.93004715104473,274.7672878211149 M288.93004715104473,274.7672878211149 L300.3757357686813,274.2754512279487 M300.3757357686813,274.2754512279487 L311.83452265489296,274.0973004596292 M311.83452265489296,274.0973004596292 L323.28448586431875,274.23315992731204 M323.28448586431875,274.23315992731204 L334.70370874439476,274.68277931137675 M334.70370874439476,274.68277931137675 L346.0703320042932,275.4453958889567 M346.0703320042932,275.4453958889567 L357.36258722104793,276.51967461661195 M357.36258722104793,276.51967461661195 L368.5587823256083,277.9037637815708 M368.5587823256083,277.9037637815708 L379.6373648593402,279.5952688162454 M379.6373648593402,279.5952688162454 L390.57697038248733,281.59123397323845 M390.57697038248733,281.59123397323845 L401.3563802277395,283.8881949189665 M401.3563802277395,283.8881949189665 L411.9546847783673,286.48213595521736 M411.9546847783673,286.48213595521736 L422.35113133856413,289.3684911806372 M422.35113133856413,289.3684911806372 L432.5253255667891,292.5422125130733 M432.5253255667891,292.5422125130733 L442.45717324721386,295.99767903306156 M442.45717324721386,295.99767903306156 L452.1268814437558,299.7287679522882 M452.1268814437558,299.7287679522882 L461.5151280476715,303.728825618811 M461.5151280476715,303.728825618811 L470.60296145968283,307.99069217171086 M470.60296145968283,307.99069217171086 L479.37183752564164,312.5066985473894 M479.37183752564164,312.5066985473894 L479.3721575622357,323.6723001764633" stroke="black"  stroke-width="4"  fill="red"/>
<path d="M471.9185765709297,539.8633580316749 L471.9092001881228,528.4896845855964 M466.75844530317926,543.1094631876563 L466.7427990333203,531.7328267897514 M471.9185765709297,539.8633580316749 L466.75844530317926,543.1094631876563 M471.9092001881228,528.4896845855964 L466.7427990333203,531.7328267897514 M466.75844530317926,543.1094631876563 L482.2294797905697,552.8714368772048 M482.2326204651712,541.4859187755512 L466.7427990333203,531.7328267897514 M482.2294797905697,552.8714368772048 L482.2326204651712,541.4859187755512 M487.38961673924024,549.6134954303842 L487.3990273216039,538.2309366937917 M482.2294797905697,552.8714368772048 L487.38961673924024,549.6134954303842 M482.2326204651712,541.4859187755512 L487.3990273216039,538.2309366937917 M487.38961673924024,549.6134954303842 L471.9185765709297,539.8633580316749 M471.9092001881228,528.4896845855964 L487.3990273216039,538.2309366937917" stroke="black"  stroke-width="4"  fill="red"/>
<path d="M513.6373077037804,502.5427066993765 L513.6782577181209,491.20344119974504 M510.3756273162544,506.57684256173866 L510.4126759173665,495.2338273742332 M513.6373077037804,502.5427066993765 L510.3756273162544,506.57684256173866 M513.6782577181209,491.20344119974504 L510.4126759173665,495.2338273742332 M510.3756273162544,506.57684256173866 L529.7896345352203,512.7551295547241 M529.8501603572837,501.4063859957813 L510.4126759173665,495.2338273742332 M529.7896345352203,512.7551295547241 L529.8501603572837,501.4063859957813 M533.0403326218106,508.7116434904261 L533.1047333018882,497.36664700854203 M529.7896345352203,512.7551295547241 L533.0403326218106,508.7116434904261 M529.8501603572837,501.4063859957813 L533.1047333018882,497.36664700854203 M533.0403326218106,508.7116434904261 L513.6373077037804,502.5427066993765 M513.6782577181209,491.20344119974504 L533.1047333018882,497.36664700854203" stroke="black"  stroke-width="4"  fill="red"/>
<path d="M534.5000386849357,459.5955013838485 L534.5655888240982,448.2966116166515 M533.4220836097998,463.9957269891647 L533.4863992539186,452.6926620657166 M534.5000386849357,459.5955013838485 L533.4220836097998,463.9957269891647 M534.5655888240982,448.2966116166515 L533.4863992539186,452.6926620657166 M533.4220836097998,463.9957269891647 L554.7362543445213,466.0890962096521 M554.8260976789838,454.784048068851 L533.4863992539186,452.6926620657166 M554.7362543445213,466.0890962096521 L554.8260976789838,454.784048068851 M555.7968620274473,461.68538130376453 L555.8878982943236,450.38450746000694 M554.7362543445213,466.0890962096521 L555.7968620274473,461.68538130376453 M554.8260976789838,454.784048068851 L555.8878982943236,450.38450746000694 M555.7968620274473,461.68538130376453 L534.5000386849357,459.5955013838485 M534.5655888240982,448.2966116166515 L555.8878982943236,450.38450746000694" stroke="black"  stroke-width="4"  fill="red"/>
<path d="M532.927060870528,415.4025432470362 L532.9901971438472,404.1460720950688 M534.0854039117751,419.7293265130984 L534.1499662417914,408.4686632526473 M532.927060870528,415.4025432470362 L534.0854039117751,419.7293265130984 M532.9901971438472,404.1460720950688 L534.1499662417914,408.4686632526473 M534.0854039117751,419.7293265130984 L555.1616314039404,417.67254473422895 M555.251154308459,406.41387317965155 L534.1499662417914,408.4686632526473 M555.1616314039404,417.67254473422895 L555.251154308459,406.41387317965155 M553.9863279867147,413.3491597439174 L554.0743846559119,402.0946810276366 M555.1616314039404,417.67254473422895 L553.9863279867147,413.3491597439174 M555.251154308459,406.41387317965155 L554.0743846559119,402.0946810276366 M553.9863279867147,413.3491597439174 L532.927060870528,415.4025432470362 M532.9901971438472,404.1460720950688 L554.0743846559119,402.0946810276366" stroke="black"  stroke-width="4"  fill="red"/>
<path d="M509.61154062893394,374.2624883516057 L509.6467686038972,363.04630013327915 M512.8418080759718,378.10425747164936 L512.8808626682057,366.88427509016606 M509.61154062893394,374.2624883516057 L512.8418080759718,378.10425747164936 M509.6467686038972,363.04630013327915 L512.8808626682057,366.88427509016606 M512.8418080759718,378.10425747164936 L531.6714482470011,372.2341412933173 M531.7325871872363,361.01995898249334 L512.8808626682057,366.88427509016606 M531.6714482470011,372.2341412933173 L531.7325871872363,361.01995898249334 M528.4309300484921,368.4010777995253 L528.488218322097,357.1906912325344 M531.6714482470011,372.2341412933173 L528.4309300484921,368.4010777995253 M531.7325871872363,361.01995898249334 L528.488218322097,357.1906912325344 M528.4309300484921,368.4010777995253 L509.61154062893394,374.2624883516057 M509.6467686038972,363.04630013327915 L528.488218322097,357.1906912325344" stroke="black"  stroke-width="4"  fill="red"/>
<path d="M467.2470775351782,339.9888586985537 L467.2325958037162,328.80681509299075 M472.2027285769415,342.99707343765976 L472.19402938731537,331.8120116526476 M467.2470775351782,339.9888586985537 L472.2027285769415,342.99707343765976 M467.2325958037162,328.80681509299075 L472.19402938731537,331.8120116526476 M472.2027285769415,342.99707343765976 L487.0783808475183,333.98294438983487 M487.08704963812545,322.8069388470268 L472.19402938731537,331.8120116526476 M487.0783808475183,333.98294438983487 L487.08704963812545,322.8069388470268 M482.12272474075047,330.9852325754829 L482.1256109717516,319.81224689971907 M487.0783808475183,333.98294438983487 L482.12272474075047,330.9852325754829 M487.08704963812545,322.8069388470268 L482.1256109717516,319.81224689971907 M482.12272474075047,330.9852325754829 L467.2470775351782,339.9888586985537 M467.2325958037162,328.80681509299075 L482.1256109717516,319.81224689971907" stroke="black"  stroke-width="4"  fill="red"/>
<path d="M410.1169382202172,315.6218724461703 L410.036119471803,304.46442752521614 M416.31374595938985,317.53464037294145 L416.24010262795485,306.3752547747912 M410.1169382202172,315.6218724461703 L416.31374595938985,317.53464037294145 M410.036119471803,304.46442752521614 L416.24010262795485,306.3752547747912 M416.31374595938985,317.53464037294145 L425.94354824309573,306.29304288271805 M425.8812392900961,295.14508664517746 L416.24010262795485,306.3752547747912 M425.94354824309573,306.29304288271805 L425.8812392900961,295.14508664517746 M419.7567431031577,304.38863477637926 L419.6872818440626,293.2426204218805 M425.94354824309573,306.29304288271805 L419.7567431031577,304.38863477637926 M425.8812392900961,295.14508664517746 L419.6872818440626,293.2426204218805 M419.7567431031577,304.38863477637926 L410.1169382202172,315.6218724461703 M410.036119471803,304.46442752521614 L419.6872818440626,293.2426204218805" stroke="black"  stroke-width="4"  fill="red"/>
<path d="M343.6335122820661,303.24824252934695 L343.47579788697794,292.1033917936394 M350.4957259128037,303.90400108543054 L350.3459493808047,292.7584811633004 M343.6335122820661,303.24824252934695 L350.4957259128037,303.90400108543054 M343.47579788697794,292.1033917936394 L350.3459493808047,292.7584811633004 M350.4957259128037,303.90400108543054 L354.0693776366415,291.51155875241056 M353.92409846084547,280.3787179507974 L350.3459493808047,292.7584811633004 M354.0693776366415,291.51155875241056 L353.92409846084547,280.3787179507974 M347.2233193409303,290.8589714803502 L347.07013965232807,279.7268002893296 M354.0693776366415,291.51155875241056 L347.2233193409303,290.8589714803502 M353.92409846084547,280.3787179507974 L347.07013965232807,279.7268002893296 M347.2233193409303,290.8589714803502 L343.6335122820661,303.24824252934695 M343.47579788697794,292.1033917936394 L347.07013965232807,279.7268002893296" stroke="black"  stroke-width="4"  fill="red"/>
<path d="M273.88001782242907,303.90399656194154 L273.64139021429196,292.75847664442676 M280.78511699675255,303.24824252934695 L280.55452679771884,292.1033917936394 M273.88001782242907,303.90399656194154 L280.78511699675255,303.24824252934695 M273.64139021429196,292.75847664442676 L280.55452679771884,292.1033917936394 M280.78511699675255,303.24824252934695 L278.0059698508335,290.85897598081146 M277.7727237632058,279.72680478517225 L280.55452679771884,292.1033917936394 M278.0059698508335,290.85897598081146 L277.7727237632058,279.72680478517225 M271.1172334586247,291.51155875241056 L270.87598803388744,280.3787179507974 M278.0059698508335,290.85897598081146 L271.1172334586247,291.51155875241056 M277.7727237632058,279.72680478517225 L270.87598803388744,280.3787179507974 M271.1172334586247,291.51155875241056 L273.88001782242907,303.90399656194154 M273.64139021429196,292.75847664442676 L270.87598803388744,280.3787179507974" stroke="black"  stroke-width="4"  fill="red"/>
<path d="M207.17008413560433,317.53465174197504 L206.8532506875801,306.37526613229466 M213.49207752021462,315.6218633577221 L213.1827107025428,304.4644184459928 M207.17008413560433,317.53465174197504 L213.49207752021462,315.6218633577221 M206.8532506875801,306.37526613229466 L213.1827107025428,304.4644184459928 M213.49207752021462,315.6218633577221 L204.58730103863294,304.38862798986077 M204.26828457447633,293.24261364228494 L213.1827107025428,304.4644184459928 M204.58730103863294,304.38862798986077 L204.26828457447633,293.24261364228494 M198.2758774503747,306.29303156343644 L197.94941940042082,295.145075337433 M204.58730103863294,304.38862798986077 L198.2758774503747,306.29303156343644 M204.26828457447633,293.24261364228494 L197.94941940042082,295.145075337433 M198.2758774503747,306.29303156343644 L207.17008413560433,317.53465174197504 M206.8532506875801,306.37526613229466 L197.94941940042082,295.145075337433" stroke="black"  stroke-width="4"  fill="red"/>
<path d="M149.61502926519654,342.99707343765976 L149.22936519177048,331.81201165264747 M154.76751691375878,339.9888586985537 L154.38809554945428,328.80681509299075 M149.61502926519654,342.99707343765976 L154.76751691375878,339.9888586985537 M149.22936519177048,331.81201165264747 L154.38809554945428,328.80681509299075 M154.76751691375878,339.9888586985537 L140.48100425098153,330.9852325754829 M140.08559060382493,319.81224689971907 L154.38809554945428,328.80681509299075 M140.48100425098153,330.9852325754829 L140.08559060382493,319.81224689971907 M135.3291987756105,333.98294438983487 L134.92754481081158,322.8069388470268 M140.48100425098153,330.9852325754829 L135.3291987756105,333.98294438983487 M140.08559060382493,319.81224689971907 L134.92754481081158,322.8069388470268 M135.3291987756105,333.98294438983487 L149.61502926519654,342.99707343765976 M149.22936519177048,331.81201165264747 L134.92754481081158,322.8069388470268" stroke="black"  stroke-width="4"  fill="red"/>
<path d="M106.6787803222146,378.10425747164936 L106.23997222844139,366.88427509016606 M110.16043000911361,374.2624906759571 L109.72604017388392,363.04630245533303 M106.6787803222146,378.10425747164936 L110.16043000911361,374.2624906759571 M106.23997222844139,366.88427509016606 L109.72604017388392,363.04630245533303 M110.16043000911361,374.2624906759571 L91.72456316974785,368.40107548042215 M91.2690148470138,357.19068891572965 L109.72604017388392,363.04630245533303 M91.72456316974785,368.40107548042215 L91.2690148470138,357.19068891572965 M88.23324327474978,372.23414361585185 L87.77325466523484,361.01996130272994 M91.72456316974785,368.40107548042215 L88.23324327474978,372.23414361585185 M91.2690148470138,357.19068891572965 L87.77325466523484,361.01996130272994 M88.23324327474978,372.23414361585185 L106.6787803222146,378.10425747164936 M106.23997222844139,366.88427509016606 L87.77325466523484,361.01996130272994" stroke="black"  stroke-width="4"  fill="red"/>
<path d="M82.71152274721982,419.72932178257076 L82.24076847109944,408.4686585266983 M84.15298765661566,415.4025432470362 L83.68433109707013,404.1460720950688 M82.71152274721982,419.72932178257076 L84.15298765661566,415.4025432470362 M82.24076847109944,408.4686585266983 L83.68433109707013,404.1460720950688 M84.15298765661566,415.4025432470362 L63.228079645833475,413.3491597439174 M62.73482124483775,402.0946810276366 L83.68433109707013,404.1460720950688 M63.228079645833475,413.3491597439174 L62.73482124483775,402.0946810276366 M61.769876741737505,417.6725400074182 L61.274481237184546,406.41386845742034 M63.228079645833475,413.3491597439174 L61.769876741737505,417.6725400074182 M62.73482124483775,402.0946810276366 L61.274481237184546,406.41386845742034 M61.769876741737505,417.6725400074182 L82.71152274721982,419.72932178257076 M82.24076847109944,408.4686585266983 L61.274481237184546,406.41386845742034" stroke="black"  stroke-width="4"  fill="red"/>
<path d="M80.47837302968139,463.99573180004245 L80.00096196468144,452.69266687203424 M79.68832328444859,459.5954965809881 L79.21036654427314,448.2966068183531 M80.47837302968139,463.99573180004245 L79.68832328444859,459.5954965809881 M80.00096196468144,452.69266687203424 L79.21036654427314,448.2966068183531 M79.68832328444859,459.5954965809881 L58.25474541883426,461.68537169042975 M57.75097545256216,450.3844978557943 L79.21036654427314,448.2966068183531 M58.25474541883426,461.68537169042975 L57.75097545256216,450.3844978557943 M59.027219416266234,466.0890962096521 L58.5239527424381,454.784048068851 M58.25474541883426,461.68537169042975 L59.027219416266234,466.0890962096521 M57.75097545256216,450.3844978557943 L58.5239527424381,454.784048068851 M59.027219416266234,466.0890962096521 L80.47837302968139,463.99573180004245 M80.00096196468144,452.69266687203424 L58.5239527424381,454.784048068851" stroke="black"  stroke-width="4"  fill="red"/>
<path d="M100.73859557262062,506.57683278412424 L100.28175590172339,495.23381760569805 M97.74094339305657,502.5426969365818 L97.28083903873886,491.2034314460336 M100.73859557262062,506.57683278412424 L97.74094339305657,502.5426969365818 M100.28175590172339,495.23381760569805 L97.28083903873886,491.2034314460336 M97.74094339305657,502.5426969365818 L77.93423359613814,508.71165327588744 M77.44970477727816,497.3666567849266 L97.28083903873886,491.2034314460336 M77.93423359613814,508.71165327588744 L77.44970477727816,497.3666567849266 M80.92032139744146,512.7551589557227 L80.43902852320116,501.40641536956093 M77.93423359613814,508.71165327588744 L80.92032139744146,512.7551589557227 M77.44970477727816,497.3666567849266 L80.43902852320116,501.40641536956093 M80.92032139744146,512.7551589557227 L100.73859557262062,506.57683278412424 M100.28175590172339,495.23381760569805 L80.43902852320116,501.40641536956093" stroke="black"  stroke-width="4"  fill="red"/>
<path d="M141.96535243538693,543.1094631876563 L141.5554201650815,531.7328267897514 M137.01762366534052,539.8633580316749 L136.6019373609011,528.4896845855964 M141.96535243538693,543.1094631876563 L137.01762366534052,539.8633580316749 M141.5554201650815,531.7328267897514 L136.6019373609011,528.4896845855964 M137.01762366534052,539.8633580316749 L120.90860245916144,549.6134954303842 M120.47257880964418,538.2309366937917 L136.6019373609011,528.4896845855964 M120.90860245916144,549.6134954303842 L120.47257880964418,538.2309366937917 M125.85556242574847,552.8714368772048 L125.42529000534864,541.4859187755512 M120.90860245916144,549.6134954303842 L125.85556242574847,552.8714368772048 M120.47257880964418,538.2309366937917 L125.42529000534864,541.4859187755512 M125.85556242574847,552.8714368772048 L141.96535243538693,543.1094631876563 M141.5554201650815,531.7328267897514 L125.42529000534864,541.4859187755512" stroke="black"  stroke-width="4"  fill="red"/>
<path d="M200.31100145389678,569.6909587359291 L199.97021403302278,558.2902389959611 M193.89425763195814,567.5856419561353 L193.54577832183008,556.1868180080234 M200.31100145389678,569.6909587359291 L193.89425763195814,567.5856419561353 M199.97021403302278,558.2902389959611 L193.54577832183008,556.1868180080234 M193.89425763195814,567.5856419561353 L183.2365013320789,580.0051424379292 M182.87418961164724,568.5951639990818 L193.54577832183008,556.1868180080234 M183.2365013320789,580.0051424379292 L182.87418961164724,568.5951639990818 M189.663848580886,582.120168366554 L189.30925406504025,570.7082972905664 M183.2365013320789,580.0051424379292 L189.663848580886,582.120168366554 M182.87418961164724,568.5951639990818 L189.30925406504025,570.7082972905664 M189.663848580886,582.120168366554 L200.31100145389678,569.6909587359291 M199.97021403302278,558.2902389959611 L189.30925406504025,570.7082972905664" stroke="black"  stroke-width="4"  fill="red"/>
<path d="M269.8998069783358,583.3882374403674 L269.643265495578,571.9752326002373 M262.67388478238456,582.6589062202236 L262.40854118717004,571.2465533767462 M269.8998069783358,583.3882374403674 L262.67388478238456,582.6589062202236 M269.643265495578,571.9752326002373 L262.40854118717004,571.2465533767462 M262.67388478238456,582.6589062202236 L258.66143847649016,596.5067729714407 M258.39049368978476,585.0820817439975 L262.40854118717004,571.2465533767462 M258.66143847649016,596.5067729714407 L258.39049368978476,585.0820817439975 M265.9053593429221,597.2398517783945 L265.643260594196,585.8145098010003 M258.66143847649016,596.5067729714407 L265.9053593429221,597.2398517783945 M258.39049368978476,585.0820817439975 L265.643260594196,585.8145098010003 M265.9053593429221,597.2398517783945 L269.8998069783358,583.3882374403674 M269.643265495578,571.9752326002373 L265.643260594196,585.8145098010003" stroke="black"  stroke-width="4"  fill="red"/>
<path d="M343.462073043651,582.6589062202236 L343.29552796716024,571.2465533767462 M336.1884284957216,583.3882374403674 L336.0129645050453,571.9752326002373 M343.462073043651,582.6589062202236 L336.1884284957216,583.3882374403674 M343.29552796716024,571.2465533767462 L336.0129645050453,571.9752326002373 M336.1884284957216,583.3882374403674 L339.27652302756786,597.2398517783945 M339.10439497770983,585.8145098010003 L336.0129645050453,571.9752326002373 M339.27652302756786,597.2398517783945 L339.10439497770983,585.8145098010003 M346.56841146194023,596.5067729714407 L346.4052471537588,585.0820817439975 M339.27652302756786,597.2398517783945 L346.56841146194023,596.5067729714407 M339.10439497770983,585.8145098010003 L346.4052471537588,585.0820817439975 M346.56841146194023,596.5067729714407 L343.462073043651,582.6589062202236 M343.29552796716024,571.2465533767462 L346.4052471537588,585.0820817439975" stroke="black"  stroke-width="4"  fill="red"/>
<path d="M413.227989554527,567.5856419561353 L413.1469906222926,556.1868180080234 M406.67351982660966,569.690978757797 L406.58449277870614,558.2902589998093 M413.227989554527,567.5856419561353 L406.67351982660966,569.690978757797 M413.1469906222926,556.1868180080234 L406.58449277870614,558.2902589998093 M406.67351982660966,569.690978757797 L416.5073604955646,582.120168366554 M416.4301526079271,570.7082972905664 L406.58449277870614,558.2902589998093 M416.5073604955646,582.120168366554 L416.4301526079271,570.7082972905664 M423.0730688282258,580.0051223392801 L423.0039167031532,568.5951439184273 M416.5073604955646,582.120168366554 L423.0730688282258,580.0051223392801 M416.4301526079271,570.7082972905664 L423.0039167031532,568.5951439184273 M423.0730688282258,580.0051223392801 L413.227989554527,567.5856419561353 M413.1469906222926,556.1868180080234 L423.0039167031532,568.5951439184273" stroke="black"  stroke-width="4"  fill="red"/>
<path d="M318.0526079831161,433.3466773692611 L317.860462380124,422.0728759202806 M317.860462380124,422.0728759202806 L319.5980759613658,423.40762154049344 M319.5980759613658,423.40762154049344 L320.87370405064996,424.9312655412393 M320.87370405064996,424.9312655412393 L321.63804154946047,426.5855271531325 M321.63804154946047,426.5855271531325 L321.86124859389844,428.30699493537554 M321.86124859389844,428.30699493537554 L321.53419530262386,430.02960345448923 M321.53419530262386,430.02960345448923 L320.6689981450992,431.68706744370854 M320.6689981450992,431.68706744370854 L319.2983759263792,433.21553265531986 M319.2983759263792,433.21553265531986 L317.4747970697082,434.5559747824493 M317.4747970697082,434.5559747824493 L315.26819276482627,435.65655055900277 M315.26819276482627,435.65655055900277 L312.7634856165772,436.47467351776754 M312.7634856165772,436.47467351776754 L310.0572578221685,436.97857513449617 M310.0572578221685,436.97857513449617 L307.25391997517414,437.1487617075903 M307.25391997517414,437.1487617075903 L304.4617703493007,436.9785846898617 M304.4617703493007,436.9785846898617 L301.7885943360101,436.4746639642357 M301.7885943360101,436.4746639642357 L299.33759784078313,435.65656010955786 M299.33759784078313,435.65656010955786 L297.2032641909817,434.5559747824493 M297.2032641909817,434.5559747824493 L295.4676720698021,433.21554219699624 M295.4676720698021,433.21554219699624 L294.19742736785986,431.68707697982745 M294.19742736785986,431.68707697982745 L293.4410155861435,430.0295939243948 M293.4410155861435,430.0295939243948 L293.2270698798133,428.30699493537554 M293.2270698798133,428.30699493537554 L293.56331028381214,426.58551763555045 M293.56331028381214,426.58551763555045 L294.436221596837,424.9312750528144 M294.436221596837,424.9312750528144 L295.8119106373923,423.4076310465373 M295.8119106373923,423.4076310465373 L297.6371376651995,422.0728759202806 M297.6371376651995,422.0728759202806 L299.84172046217316,420.97798710454254 M299.84172046217316,420.97798710454254 L302.34104427392117,420.16468545850535 M302.34104427392117,420.16468545850535 L305.0393464131492,419.6640051969305 M305.0393464131492,419.6640051969305 L307.8334228536398,419.49494993336316 M307.8334228536398,419.49494993336316 L310.61638538439814,419.6639957044698 M310.61638538439814,419.6639957044698 L313.28184716549026,420.16469495278216 M313.28184716549026,420.16469495278216 L315.72777680472075,420.97797760731544 M315.72777680472075,420.97797760731544 L317.860462380124,422.0728759202806 M318.0526079831161,433.3466773692611 L315.92241463274985,432.2507247739594 M315.92241463274985,432.2507247739594 L313.4793586420481,431.4366586537287 M313.4793586420481,431.4366586537287 L310.81704216868644,430.93547691368883 M310.81704216868644,430.93547691368883 L308.0373767211893,430.7662682183209 M308.0373767211893,430.7662682183209 L305.24662371629404,430.93548641529776 M305.24662371629404,430.93548641529776 L302.55154484857405,431.4366491503041 M302.55154484857405,431.4366491503041 L300.05522140077545,432.25073428033375 M300.05522140077545,432.25073428033375 L297.8533014685656,433.3466773692611 M297.8533014685656,433.3466773692611 L296.0302977525204,434.68271700081823 M296.0302977525204,434.68271700081823 L294.656306887318,436.20782630145004 M294.656306887318,436.20782630145004 L293.78450258203,437.8636585822927 M293.78450258203,437.8636585822927 L293.4487345530829,439.5867888723868 M293.4487345530829,439.5867888723868 L293.6624985247614,441.3110405819285 M293.6624985247614,441.3110405819285 L294.41808022093824,442.9701126116056 M294.41808022093824,442.9701126116056 L295.68687732165637,444.50004201241995 M295.68687732165637,444.50004201241995 L297.4204591861109,445.8417577838535 M297.4204591861109,445.8417577838535 L299.5522969153569,446.9433960830979 M299.5522969153569,446.9433960830979 L302.0004079073507,447.76228229273113 M302.0004079073507,447.76228229273113 L304.6704204038431,448.26668476789234 M304.6704204038431,448.26668476789234 L307.4592511554089,448.43702444925464 M307.4592511554089,448.43702444925464 L310.25924351104186,448.2666752033931 M310.25924351104186,448.2666752033931 L312.9622290715025,447.7622918553973 M312.9622290715025,447.7622918553973 L315.46392287344077,446.94338652340787 M315.46392287344077,446.94338652340787 L317.6678592876009,445.8417577838535 M317.6678592876009,445.8417577838535 L319.48921852831666,444.50003246160657 M319.48921852831666,444.50003246160657 L320.8581544263315,442.970103066348 M320.8581544263315,442.970103066348 L321.7222627849851,441.3110501211628 M321.7222627849851,441.3110501211628 L322.04886549224045,439.5867888723868 M322.04886549224045,439.5867888723868 L321.8258622379958,437.86366810901757 M321.8258622379958,437.86366810901757 L321.0623737872906,436.20781678073104 M321.0623737872906,436.20781678073104 L319.78820628173173,434.6827074856292 M319.78820628173173,434.6827074856292 L318.0526079831161,433.3466773692611" stroke="black"  stroke-width="4"  fill="red"/>
<path d="M526.6003921099366,495.3031067300583 L526.5438491839578,506.6461863074501 M547.6848388419247,454.0841894046787 L545.518211290196,461.14750904115533 M545.518211290196,461.14750904115533 L542.8058840347662,468.15518438842696 M542.8058840347662,468.15518438842696 L539.5518497445944,475.0908745538352 M539.5518497445944,475.0908745538352 L535.7615886270311,481.93823166168227 M535.7615886270311,481.93823166168227 L531.4417498914704,488.6810046997323 M531.4417498914704,488.6810046997323 L526.6003921099366,495.3031067300583 M547.6848388419247,454.0841894046787 L547.6035405145376,465.38857410530784 M526.5438491839578,506.6461863074501 L531.3794545182484,500.0179196870964 M531.3794545182484,500.0179196870964 L535.6941833328143,493.2688492683251 M535.6941833328143,493.2688492683251 L539.4799844695002,486.41507597976124 M539.4799844695002,486.41507597976124 L542.7302142579415,479.4728651623424 M542.7302142579415,479.4728651623424 L545.4393964719355,472.4585793046274 M545.4393964719355,472.4585793046274 L547.6035405145376,465.38857410530784 M526.5438491839578,506.6461863074501 L513.6373077037804,502.5427066993765 M513.6373077037804,502.5427066993765 L513.6782577181209,491.20344119974504 M526.6003921099366,495.3031067300583 L513.6782577181209,491.20344119974504 M509.6467686038972,363.04630013327915 L512.8808626682057,366.88427509016606 M512.8808626682057,366.88427509016606 L525.4303131846817,362.9804289456123 M525.4303131846817,362.9804289456123 L530.2757313382573,369.29214410796556 M530.2757313382573,369.29214410796556 L534.636562781074,375.75099198458884 M534.636562781074,375.75099198458884 L538.501514158165,382.3433990498878 M538.501514158165,382.3433990498878 L541.8602075670676,389.0554522631752 M541.8602075670676,389.0554522631752 L544.7032272373564,395.87279490641504 M544.7032272373564,395.87279490641504 L547.0223096164875,402.78081385262874 M547.0223096164875,402.78081385262874 L532.9901971438472,404.1460720950688 M532.9901971438472,404.1460720950688 L534.1499662417914,408.4686632526473 M534.1499662417914,408.4686632526473 L548.193440864156,407.10115217478096 M548.193440864156,407.10115217478096 L549.649011514148,414.1241324427705 M549.649011514148,414.1241324427705 L550.5641021865067,421.197961623733 M550.5641021865067,421.197961623733 L550.9344311459345,428.30699493537554 M550.9344311459345,428.30699493537554 L550.7569432086477,435.43535947136 M550.7569432086477,435.43535947136 L550.0298045528689,442.5670086387281 M550.0298045528689,442.5670086387281 L548.7524596854012,449.6857784857143 M548.7524596854012,449.6857784857143 L534.5655888240982,448.2966116166515 M534.5655888240982,448.2966116166515 L533.4863992539186,452.6926620657166 M533.4863992539186,452.6926620657166 L547.6848388419247,454.0841894046787 M513.6782577181209,491.20344119974504 L510.4126759173665,495.2338273742332 M510.4126759173665,495.2338273742332 L523.3421398076734,499.33970649105436 M523.3421398076734,499.33970649105436 L517.676475246983,505.73262764341234 M517.676475246983,505.73262764341234 L511.51666402470363,511.96360683655223 M511.51666402470363,511.96360683655223 L504.8754380050995,518.0173622103538 M504.8754380050995,518.0173622103538 L497.7668936904656,523.8789886058631 M497.7668936904656,523.8789886058631 L490.20637778375846,529.5338935179183 M490.20637778375846,529.5338935179183 L482.2104968159472,534.9679704068783 M482.2104968159472,534.9679704068783 L471.9092001881228,528.4896845855964 M471.9092001881228,528.4896845855964 L466.7427990333203,531.7328267897514 M466.7427990333203,531.7328267897514 L477.0440880508978,538.2189841546226 M477.0440880508978,538.2189841546226 L468.3811679225353,543.2665878783955 M468.3811679225353,543.2665878783955 L459.33188722809695,548.0587080892808 M459.33188722809695,548.0587080892808 L449.916947566216,552.5831086192098 M449.916947566216,552.5831086192098 L440.1581917306587,556.8281956312746 M440.1581917306587,556.8281956312746 L430.0783448000006,560.7830343106195 M430.0783448000006,560.7830343106195 L419.70113128871446,564.4374452239675 M419.70113128871446,564.4374452239675 L413.1469906222926,556.1868180080234 M413.1469906222926,556.1868180080234 L406.58449277870614,558.2902589998093 M406.58449277870614,558.2902589998093 L413.13115093154954,566.547335030611 M413.13115093154954,566.547335030611 L402.3247827235674,569.6952865431156 M402.3247827235674,569.6952865431156 L391.2871270516872,572.5195939744308 M391.2871270516872,572.5195939744308 L380.044691255863,575.012851991112 M380.044691255863,575.012851991112 L368.6246557040628,577.1685569747578 M368.6246557040628,577.1685569747578 L357.05475980505065,578.9809773847282 M357.05475980505065,578.9809773847282 L345.3631154893981,580.4453852327432 M345.3631154893981,580.4453852327432 L343.29552796716024,571.2465533767462 M343.29552796716024,571.2465533767462 L336.0129645050453,571.9752326002373 M336.0129645050453,571.9752326002373 L338.06832857714426,581.1765558725447 M338.06832857714426,581.1765558725447 L326.24008613878453,582.0694106960827 M326.24008613878453,582.0694106960827 L314.36537852507894,582.6060849620108 M314.36537852507894,582.6060849620108 L302.4732698567982,582.785134682469 M302.4732698567982,582.785134682469 L290.59291613750196,582.6060849620108 M290.59291613750196,582.6060849620108 L278.7534421929757,582.0694106960827 M278.7534421929757,582.0694106960827 L266.98378475244067,581.1765760471724 M266.98378475244067,581.1765760471724 L269.643265495578,571.9752326002373 M269.643265495578,571.9752326002373 L262.40854118717004,571.2465533767462 M262.40854118717004,571.2465533767462 L259.73703315107986,580.4453852327432 M259.73703315107986,580.4453852327432 L248.14149730099552,578.9809975429409 M248.14149730099552,578.9809975429409 L236.69062283946664,577.1685569747578 M236.69062283946664,577.1685569747578 L225.41208064209846,575.0128721196743 M225.41208064209846,575.0128721196743 L214.33336460672368,572.5195939744308 M214.33336460672368,572.5195939744308 L203.4811299993762,569.6952865431156 M203.4811299993762,569.6952865431156 L192.88143069509573,566.547335030611 M192.88143069509573,566.547335030611 L199.97021403302278,558.2902389959611 M199.97021403302278,558.2902389959611 L193.54577832183008,556.1868180080234 M193.54577832183008,556.1868180080234 L186.44993575926947,564.4374652736152 M186.44993575926947,564.4374652736152 L176.31267394858713,560.7830343106195 M176.31267394858713,560.7830343106195 L166.49246957307332,556.8281956312746 M166.49246957307332,556.8281956312746 L157.01236359741037,552.5831185998967 M157.01236359741037,552.5831185998967 L147.89454016591617,548.0586881615467 M147.89454016591617,548.0586881615467 L139.15983829139782,543.2665878783955 M139.15983829139782,543.2665878783955 L130.82830278689897,538.2189841546226 M130.82830278689897,538.2189841546226 L141.5554201650815,531.7328267897514 M141.5554201650815,531.7328267897514 L136.6019373609011,528.4896845855964 M136.6019373609011,528.4896845855964 L125.87532915402869,534.9679704068782 M125.87532915402869,534.9679704068782 L118.23620549610945,529.533893517918 M118.23620549610945,529.533893517918 L111.04697749378994,523.878968857429 M111.04697749378994,523.878968857429 L104.32320929967688,518.0173917679899 M104.32320929967688,518.0173917679899 L98.0794414335511,511.96360683655223 M98.0794414335511,511.96360683655223 L92.3287056477003,505.7326276434121 M92.3287056477003,505.7326276434121 L87.08271555671894,499.33972605835095 M87.08271555671894,499.33972605835095 L100.28175590172339,495.23381760569805 M100.28175590172339,495.23381760569805 L97.28083903873886,491.2034314460336 M97.28083903873886,491.2034314460336 L84.08950633669542,495.3031067300583 M84.08950633669542,495.3031067300583 L79.6829019372804,488.6810046997323 M79.6829019372804,488.6810046997323 L75.80572399669234,481.9382219420057 M75.80572399669234,481.9382219420057 L72.46497204039287,475.0908842483965 M72.46497204039287,475.0908842483965 L69.6663410967954,468.15519405758255 M69.6663410967954,468.15519405758255 L67.41403342260054,461.1475283281951 M67.41403342260054,461.1475283281951 L65.71115122565391,454.08418459582094 M65.71115122565391,454.08418459582094 L80.00096196468144,452.69266687203424 M80.00096196468144,452.69266687203424 L79.21036654427314,448.2966068183531 M79.21036654427314,448.2966068183531 L64.9322838885385,449.68580729070504 M64.9322838885385,449.68580729070504 L64.12231735392157,442.5670086387281 M64.12231735392157,442.5670086387281 L63.86339215881776,435.4353642462353 M63.86339215881776,435.4353642462353 L64.15389467417117,428.3069996972931 M64.15389467417117,428.3069996972931 L64.99094495573212,421.19796637274567 M64.99094495573212,421.19796637274567 L66.37043107669251,414.1241277065815 M66.37043107669251,414.1241277065815 L68.28708084330685,407.10115217478096 M68.28708084330685,407.10115217478096 L82.24076847109944,408.4686585266983 M82.24076847109944,408.4686585266983 L83.68433109707013,404.1460720950688 M83.68433109707013,404.1460720950688 L69.74184306550455,402.78080913696704 M69.74184306550455,402.78080913696704 L72.51446443113895,395.87279960959734 M72.51446443113895,395.87279960959734 L75.80505538830272,389.0554569540584 M75.80505538830272,389.0554569540584 L79.60440763670317,382.34340372867746 M79.60440763670317,382.34340372867746 L83.9021519247737,375.75098965112534 M83.9021519247737,375.75098965112534 L88.6870297402088,369.29214876328456 M88.6870297402088,369.29214876328456 L93.94682015263089,362.98043126760706 M93.94682015263089,362.98043126760706 L106.23997222844139,366.88427509016606 M106.23997222844139,366.88427509016606 L109.72604017388392,363.04630245533303 M109.72604017388392,363.04630245533303 L97.43933415451517,359.1482584223713 M97.43933415451517,359.1482584223713 L103.44013725945933,353.10255254848073 M103.44013725945933,353.10255254848073 L109.87960077212585,347.23750338159766 M109.87960077212585,347.23750338159766 L116.74243553978823,341.56508080676724 M116.74243553978823,341.56508080676724 L124.01257253964422,336.0967783024646 M124.01257253964422,336.0967783024646 L131.67317620039705,330.84363137831986 M131.67317620039705,330.84363137831986 L139.70677108092156,325.8161558117549 M139.70677108092156,325.8161558117549 L149.22936519177048,331.81201165264747 M149.22936519177048,331.81201165264747 L154.38809554945428,328.80681509299075 M154.38809554945428,328.80681509299075 L144.8650488858766,322.8179555925833 M144.8650488858766,322.8179555925833 L153.46409479977405,318.17698454702827 M153.46409479977405,318.17698454702827 L162.38741718621662,313.78674447671494 M162.38741718621662,313.78674447671494 L171.61540252014547,309.6558278649094 M171.61540252014547,309.6558278649094 L181.12791273809216,305.7922996051575 M181.12791273809216,305.7922996051575 L190.90440609169374,302.20363981070864 M190.90440609169374,302.20363981070864 L200.9239197278398,298.89675224790597 M200.9239197278398,298.89675224790597 L206.8532506875801,306.37526613229466 M206.8532506875801,306.37526613229466 L213.1827107025428,304.4644184459928 M213.1827107025428,304.4644184459928 L207.24631433961537,296.9914963901906 M207.24631433961537,296.9914963901906 L217.61394807960684,294.1542635597184 M217.61394807960684,294.1542635597184 L228.16789697304324,291.614226652846 M228.16789697304324,291.614226652846 L238.88598449910913,289.3762127244986 M238.88598449910913,289.3762127244986 L249.7457945252773,287.44445224606886 M249.7457945252773,287.44445224606886 L260.72461688430394,285.82263922401273 M260.72461688430394,285.82263922401273 L271.7996786351322,284.51379638645324 M271.7996786351322,284.51379638645324 L273.64139021429196,292.75847664442676 M273.64139021429196,292.75847664442676 L280.55452679771884,292.1033917936394 M280.55452679771884,292.1033917936394 L278.70192351352034,283.8608066601346 M278.70192351352034,283.8608066601346 L289.88408586198375,283.06388855811633 M289.88408586198375,283.06388855811633 L301.10212748353115,282.5851380240721 M301.10212748353115,282.5851380240721 L312.3328648143982,282.42545147874034 M312.3328648143982,282.42545147874034 L323.55311842540897,282.5851380240721 M323.55311842540897,282.5851380240721 L334.7397065231406,283.063893059851 M334.7397065231406,283.063893059851 L345.86957213131006,283.8608156664193 M345.86957213131006,283.8608156664193 L343.47579788697794,292.1033917936394 M343.47579788697794,292.1033917936394 L350.3459493808047,292.7584811633004 M350.3459493808047,292.7584811633004 L352.7289172035213,284.51379638645324 M352.7289172035213,284.51379638645324 L363.7180736145971,285.8226347174042 M363.7180736145971,285.8226347174042 L374.59043575542165,287.4444567555439 M374.59043575542165,287.4444567555439 L385.32339236884167,289.3761991858273 M385.32339236884167,289.3761991858273 L395.89453866929426,291.6142198775725 M395.89453866929426,291.6142198775725 L406.28175567566365,294.1542590383747 M406.28175567566365,294.1542590383747 L416.46311597656245,296.99149412700694 M416.46311597656245,296.99149412700694 L410.036119471803,304.46442752521614 M410.036119471803,304.46442752521614 L416.24010262795485,306.3752547747912 M416.24010262795485,306.3752547747912 L422.6604193933706,298.8967545127771 M422.6604193933706,298.8967545127771 L432.4628372586041,302.20363754290725 M432.4628372586041,302.20363754290725 L442.00372459572634,305.7922996051575 M442.00372459572634,305.7922996051575 L451.2625982188017,309.6558392369692 M451.2625982188017,309.6558392369692 L460.21937367773216,313.78674219863456 M460.21937367773216,313.78674219863456 L468.8544610217578,318.17698682901073 M468.8544610217578,318.17698682901073 L477.14881850781825,322.8179578786944 M477.14881850781825,322.8179578786944 L467.2325958037162,328.80681509299075 M467.2325958037162,328.80681509299075 L472.19402938731537,331.8120116526476 M472.19402938731537,331.8120116526476 L482.1102588615252,325.8161581005352 M482.1102588615252,325.8161581005352 L489.8137905690793,330.84363367157925 M489.8137905690793,330.84363367157925 L497.12952288220976,336.0967760045204 M497.12952288220976,336.0967760045204 L504.04063278771673,341.5650738982886 M504.04063278771673,341.5650738982886 L510.53108142812687,347.23750338159766 M510.53108142812687,347.23750338159766 L516.5854972848608,353.1025502353373 M516.5854972848608,353.1025502353373 L522.1893809114265,359.14826074093025 M522.1893809114265,359.14826074093025 L509.6467686038972,363.04630013327915 M317.860462380124,422.0728759202806 L319.5980759613658,423.40762154049344 M319.5980759613658,423.40762154049344 L320.87370405064996,424.9312655412393 M320.87370405064996,424.9312655412393 L321.63804154946047,426.5855271531325 M321.63804154946047,426.5855271531325 L321.86124859389844,428.30699493537554 M321.86124859389844,428.30699493537554 L321.53419530262386,430.02960345448923 M321.53419530262386,430.02960345448923 L320.6689981450992,431.68706744370854 M320.6689981450992,431.68706744370854 L319.2983759263792,433.21553265531986 M319.2983759263792,433.21553265531986 L317.4747970697082,434.5559747824493 M317.4747970697082,434.5559747824493 L315.26819276482627,435.65655055900277 M315.26819276482627,435.65655055900277 L312.7634856165772,436.47467351776754 M312.7634856165772,436.47467351776754 L310.0572578221685,436.97857513449617 M310.0572578221685,436.97857513449617 L307.25391997517414,437.1487617075903 M307.25391997517414,437.1487617075903 L304.4617703493007,436.9785846898617 M304.4617703493007,436.9785846898617 L301.7885943360101,436.4746639642357 M301.7885943360101,436.4746639642357 L299.33759784078313,435.65656010955786 M299.33759784078313,435.65656010955786 L297.2032641909817,434.5559747824493 M297.2032641909817,434.5559747824493 L295.4676720698021,433.21554219699624 M295.4676720698021,433.21554219699624 L294.19742736785986,431.68707697982745 M294.19742736785986,431.68707697982745 L293.4410155861435,430.0295939243948 M293.4410155861435,430.0295939243948 L293.2270698798133,428.30699493537554 M293.2270698798133,428.30699493537554 L293.56331028381214,426.58551763555045 M293.56331028381214,426.58551763555045 L294.436221596837,424.9312750528144 M294.436221596837,424.9312750528144 L295.8119106373923,423.4076310465373 M295.8119106373923,423.4076310465373 L297.6371376651995,422.0728759202806 M297.6371376651995,422.0728759202806 L299.84172046217316,420.97798710454254 M299.84172046217316,420.97798710454254 L302.34104427392117,420.16468545850535 M302.34104427392117,420.16468545850535 L305.0393464131492,419.6640051969305 M305.0393464131492,419.6640051969305 L307.8334228536398,419.49494993336316 M307.8334228536398,419.49494993336316 L310.61638538439814,419.6639957044698 M310.61638538439814,419.6639957044698 L313.28184716549026,420.16469495278216 M313.28184716549026,420.16469495278216 L315.72777680472075,420.97797760731544 M315.72777680472075,420.97797760731544 L317.860462380124,422.0728759202806 M533.4220836097998,463.9957269891647 L547.6035405145376,465.38857410530784 M533.4220836097998,463.9957269891647 L533.4863992539186,452.6926620657166 M513.6373077037804,502.5427066993765 L510.3756273162544,506.57684256173866 M510.3756273162544,506.57684256173866 L523.2894806355887,510.6865340182826 M523.2894806355887,510.6865340182826 L517.6305889859104,517.085375810266 M517.6305889859104,517.085375810266 L511.4781652053555,523.3221078089609 M511.4781652053555,523.3221078089609 L504.8449272621782,529.3814354832159 M504.8449272621782,529.3814354832159 L497.74495583358396,535.2484414758338 M497.74495583358396,535.2484414758338 L490.1935799905889,540.9085214800034 M490.1935799905889,540.9085214800034 L482.20738679956526,546.3475576916258 M482.20738679956526,546.3475576916258 L471.9185765709297,539.8633580316749 M471.9185765709297,539.8633580316749 L466.75844530317926,543.1094631876563 M466.75844530317926,543.1094631876563 L477.0472479492206,549.6015320153401 M419.77425912617196,575.8436938654766 L430.1387724782532,572.1859981808002 M430.1387724782532,572.1859981808002 L440.2062960064034,568.2275978593447 M440.2062960064034,568.2275978593447 L449.95313540108424,563.9786799123287 M449.95313540108424,563.9786799123287 L459.3565942704729,559.4501873775124 M459.3565942704729,559.4501873775124 L468.39485712151674,554.6537228936062 M468.39485712151674,554.6537228936062 L477.0472479492206,549.6015320153401 M419.77425912617196,575.8436938654766 L413.227989554527,567.5856419561353 M413.227989554527,567.5856419561353 L406.67351982660966,569.690978757797 M406.67351982660966,569.690978757797 L413.21232525483066,577.9554773882489 M345.52741493144833,591.8659511828175 L357.204713591819,590.4002384204291 M357.204713591819,590.4002384204291 L368.76041172128674,588.5862016386294 M368.76041172128674,588.5862016386294 L380.166434443055,586.4285721898041 M380.166434443055,586.4285721898041 L391.3950787974733,583.9330857327533 M391.3950787974733,583.9330857327533 L402.41919999791213,581.1062505645315 M402.41919999791213,581.1062505645315 L413.21232525483066,577.9554773882489 M345.52741493144833,591.8659511828175 L343.462073043651,582.6589062202236 M343.462073043651,582.6589062202236 L336.1884284957216,583.3882374403674 M336.1884284957216,583.3882374403674 L338.24157680374304,592.5977729946648 M267.24401829923113,592.5977931872568 L278.99931397628495,593.4914226551593 M278.99931397628495,593.4914226551593 L290.82432068328364,594.02857450495 M290.82432068328364,594.02857450495 L302.69013989228586,594.2077835318092 M302.69013989228586,594.2077835318092 L314.56768529100975,594.02857450495 M314.56768529100975,594.02857450495 L326.42783947138344,593.4914226551593 M326.42783947138344,593.4914226551593 L338.24157680374304,592.5977729946648 M267.24401829923113,592.5977931872568 L269.8998069783358,583.3882374403674 M269.8998069783358,583.3882374403674 L262.67388478238456,582.6589062202236 M262.67388478238456,582.6589062202236 L260.0060980406598,591.8659511828175 M193.23139217346048,577.9554773882489 L203.818352793011,581.1062505645315 M203.818352793011,581.1062505645315 L214.6575056016461,583.9330857327533 M214.6575056016461,583.9330857327533 L225.722830046652,586.4285923363456 M225.722830046652,586.4285923363456 L236.98770520280533,588.5862016386294 M236.98770520280533,588.5862016386294 L248.42467280097216,590.4002585966113 M248.42467280097216,590.4002585966113 L260.0060980406598,591.8659511828175 M193.23139217346048,577.9554773882489 L200.31100145389678,569.6909587359291 M200.31100145389678,569.6909587359291 L193.89425763195814,567.5856419561353 M193.89425763195814,567.5856419561353 L186.80760594900372,575.8437139331294 M131.25175405168278,549.6015320153401 L139.57356471951596,554.6537228936062 M139.57356471951596,554.6537228936062 L148.2980131557731,559.4501674317346 M148.2980131557731,559.4501674317346 L157.40507826098167,563.9786899020323 M157.40507826098167,563.9786899020323 L166.8739460598822,568.2275978593447 M166.8739460598822,568.2275978593447 L176.6824594590351,572.1859981808002 M176.6824594590351,572.1859981808002 L186.80760594900372,575.8437139331294 M131.25175405168278,549.6015320153401 L141.96535243538693,543.1094631876563 M141.96535243538693,543.1094631876563 L137.01762366534052,539.8633580316749 M137.01762366534052,539.8633580316749 L126.30453260253444,546.3475576916255 M87.55581489851505,510.6865536037293 L92.79604365596754,517.0853758102659 M92.79604365596754,517.0853758102659 L98.5403791613806,523.3221078089607 M98.5403791613806,523.3221078089607 L104.77711916380866,529.3814650680184 M104.77711916380866,529.3814650680184 L111.49324515890521,535.2484217093012 M111.49324515890521,535.2484217093012 L118.67423203388091,540.9085214800033 M118.67423203388091,540.9085214800033 L126.30453260253444,546.3475576916255 M87.55581489851505,510.6865536037293 L100.73859557262062,506.57683278412424 M100.73859557262062,506.57683278412424 L97.74094339305657,502.5426969365818 M97.74094339305657,502.5426969365818 L84.56585126313826,506.64618630744985 M66.20576315491274,465.38856929189103 L67.90727015233495,472.45859860989174 M67.90727015233495,472.45859860989174 L70.15753373834792,479.4728748406038 M70.15753373834792,479.4728748406038 L72.95345139235695,486.4150856834218 M72.95345139235695,486.4150856834218 L76.29082196937975,493.2688395395562 M76.29082196937975,493.2688395395562 L80.16395350083354,500.0179196870964 M80.16395350083354,500.0179196870964 L84.56585126313826,506.64618630744985 M66.20576315491274,465.38856929189103 L80.47837302968139,463.99573180004245 M80.47837302968139,463.99573180004245 L79.68832328444859,459.5954965809881 M79.68832328444859,459.5954965809881 L65.42741329264112,460.9860173970536 M68.77423676373127,418.36049012153444 L66.86051428166581,425.39026290380957 M66.86051428166581,425.39026290380957 L65.48332847018202,432.4709254112198 M65.48332847018202,432.4709254112198 L64.64794124468523,439.58679363887495 M64.64794124468523,439.58679363887495 L64.35845554129662,446.72198863737844 M64.35845554129662,446.72198863737844 L64.6177437158488,453.8604435357638 M64.6177437158488,453.8604435357638 L65.42741329264112,460.9860173970536 M68.77423676373127,418.36049012153444 L82.71152274721982,419.72932178257076 M82.71152274721982,419.72932178257076 L84.15298765661566,415.4025432470362 M84.15298765661566,415.4025432470362 L70.22687500913963,414.0359544752265 M94.39973341145009,374.19655431060664 L89.14667836829688,380.51450811750556 M89.14667836829688,380.51450811750556 L84.36800512075922,386.9797119568568 M84.36800512075922,386.9797119568568 L80.07591736071674,393.57860104337215 M80.07591736071674,393.57860104337215 L76.28165724631356,400.29722651328916 M76.28165724631356,400.29722651328916 L72.99557848753994,407.12122357072906 M72.99557848753994,407.12122357072906 L70.22687500913963,414.0359544752265 M94.39973341145009,374.19655431060664 L106.6787803222146,378.10425747164936 M106.6787803222146,378.10425747164936 L110.16043000911361,374.2624906759571 M110.16043000911361,374.2624906759571 L97.8878144875523,370.3605862505351 M140.10308821011938,336.995191766988 L132.0792555505658,342.027721047305 M132.0792555505658,342.027721047305 L124.42801489072906,347.2861362735713 M124.42801489072906,347.2861362735713 L117.16682021430495,352.75990954614804 M117.16682021430495,352.75990954614804 L110.3124860705895,358.4379927544933 M110.3124860705895,358.4379927544933 L103.88106105121267,364.30887941886056 M103.88106105121267,364.30887941886056 L97.8878144875523,370.3605862505351 M140.10308821011938,336.995191766988 L149.61502926519654,342.99707343765976 M149.61502926519654,342.99707343765976 L154.76751691375878,339.9888586985537 M154.76751691375878,339.9888586985537 L145.25512488738127,333.99397223723213 M201.2471675301942,310.04853306514633 L191.2394902836952,313.35878648593666 M191.2394902836952,313.35878648593666 L181.474585180748,316.9510933172594 M181.474585180748,316.9510933172594 L171.97339150934926,320.8185414170364 M171.97339150934926,320.8185414170364 L162.7564276714323,324.9536416569133 M162.7564276714323,324.9536416569133 L153.84380856949264,329.3483194946066 M153.84380856949264,329.3483194946066 L145.25512488738127,333.99397223723213 M201.2471675301942,310.04853306514633 L207.17008413560433,317.53465174197504 M207.17008413560433,317.53465174197504 L213.49207752021462,315.6218633577221 M213.49207752021462,315.6218633577221 L207.5621122037744,308.14133572135825 M272.04005139241355,295.65087999773664 L260.9778627161153,296.96106415975123 M260.9778627161153,296.96106415975123 L250.0118249425665,298.5845381643545 M250.0118249425665,298.5845381643545 L239.16468671533147,300.518275500032 M239.16468671533147,300.518275500032 L228.45913382192128,302.7585775698527 M228.45913382192128,302.7585775698527 L217.91755818598455,305.3012086505813 M217.91755818598455,305.3012086505813 L207.5621122037744,308.14133572135825 M272.04005139241355,295.65087999773664 L273.88001782242907,303.90399656194154 M273.88001782242907,303.90399656194154 L280.78511699675255,303.24824252934695 M280.78511699675255,303.24824252934695 L278.9342841901191,294.9972207855694 M346.0242642437987,294.99722980108913 L334.90724237130013,294.1994898773662 M334.90724237130013,294.1994898773662 L323.7335708114041,293.7202436957713 M323.7335708114041,293.7202436957713 L312.52628232082543,293.56039330785995 M312.52628232082543,293.56039330785995 L301.30853433540733,293.7202436957713 M301.30853433540733,293.7202436957713 L290.1034819107381,294.1994853710138 M290.1034819107381,294.1994853710138 L278.9342841901191,294.9972207855694 M346.0242642437987,294.99722980108913 L343.6335122820661,303.24824252934695 M343.6335122820661,303.24824252934695 L350.4957259128037,303.90400108543054 M350.4957259128037,303.90400108543054 L352.87569636302766,295.65087999773664 M416.5363659764429,308.1413334558674 L406.3667619089949,305.3012041246225 M406.3667619089949,305.3012041246225 L395.99153207459807,302.7585707876557 M395.99153207459807,302.7585707876557 L385.43258034743644,300.518261947512 M385.43258034743644,300.518261947512 L374.71200210508096,298.58454267844627 M374.71200210508096,298.58454267844627 L363.8521783329454,296.96105964852563 M363.8521783329454,296.96105964852563 L352.87569636302766,295.65087999773664 M416.5363659764429,308.1413334558674 L410.1169382202172,315.6218724461703 M410.1169382202172,315.6218724461703 L416.31374595938985,317.53464037294145 M416.31374595938985,317.53464037294145 L422.7265093719616,310.04853533232426 M477.1517293693899,333.993974525647 L468.86702482464966,329.3483217788935 M468.86702482464966,329.3483217788935 L460.2419703746335,324.9536393765278 M460.2419703746335,324.9536393765278 L451.295586142576,320.81855280062393 M451.295586142576,320.81855280062393 L442.0474400732231,316.9510933172594 M442.0474400732231,316.9510933172594 L432.5175942782526,313.3587842158287 M432.5175942782526,313.3587842158287 L422.7265093719616,310.04853533232426 M477.1517293693899,333.993974525647 L467.2470775351782,339.9888586985537 M467.2470775351782,339.9888586985537 L472.2027285769415,342.99707343765976 M472.2027285769415,342.99707343765976 L482.10738715759965,336.99519405807155 M522.1394619984393,370.3605885713922 L516.5422045255066,364.308877103418 M516.5422045255066,364.308877103418 L510.49492562681615,358.4379927544933 M510.49492562681615,358.4379927544933 L504.0121066745423,352.7599026307664 M504.0121066745423,352.7599026307664 L497.1091003537655,347.28613397332526 M497.1091003537655,347.28613397332526 L489.80192617495294,342.02772334286715 M489.80192617495294,342.02772334286715 L482.10738715759965,336.99519405807155 M522.1394619984393,370.3605885713922 L509.61154062893394,374.2624883516057 M509.61154062893394,374.2624883516057 L512.8418080759718,378.10425747164936 M512.8418080759718,378.10425747164936 L525.376551635693,374.19655198631426 M546.9425859464839,414.0359591954689 L544.6263494909651,407.12121886296336 M544.6263494909651,407.12121886296336 L541.7867855324523,400.29722181782006 M541.7867855324523,400.29722181782006 L538.4321454366191,393.578596359994 M538.4321454366191,393.578596359994 L534.5718315993147,386.97971429261565 M534.5718315993147,386.97971429261565 L530.216207608339,380.5145034575934 M530.216207608339,380.5145034575934 L525.376551635693,374.19655198631426 M546.9425859464839,414.0359591954689 L532.927060870528,415.4025432470362 M532.927060870528,415.4025432470362 L534.0854039117751,419.7293265130984 M534.0854039117751,419.7293265130984 L548.1122643353319,418.36049012153467 M548.6699545105365,460.9859885646948 L549.9458878484229,453.8604435357638 M549.9458878484229,453.8604435357638 L550.6722744206646,446.7219838579357 M550.6722744206646,446.7219838579357 L550.8496661387449,439.5867888723868 M550.8496661387449,439.5867888723868 L550.4798917260546,432.47092065763354 M550.4798917260546,432.47092065763354 L549.5659998499855,425.3902676445749 M549.5659998499855,425.3902676445749 L548.1122643353319,418.36049012153467 M548.6699545105365,460.9859885646948 L534.5000386849357,459.5955013838485 M534.5000386849357,459.5955013838485 L533.4220836097998,463.9957269891647 M318.0526079831161,433.3466773692611 L315.92241463274985,432.2507247739594 M315.92241463274985,432.2507247739594 L313.4793586420481,431.4366586537287 M313.4793586420481,431.4366586537287 L310.81704216868644,430.93547691368883 M310.81704216868644,430.93547691368883 L308.0373767211893,430.7662682183209 M308.0373767211893,430.7662682183209 L305.24662371629404,430.93548641529776 M305.24662371629404,430.93548641529776 L302.55154484857405,431.4366491503041 M302.55154484857405,431.4366491503041 L300.05522140077545,432.25073428033375 M300.05522140077545,432.25073428033375 L297.8533014685656,433.3466773692611 M297.8533014685656,433.3466773692611 L296.0302977525204,434.68271700081823 M296.0302977525204,434.68271700081823 L294.656306887318,436.20782630145004 M294.656306887318,436.20782630145004 L293.78450258203,437.8636585822927 M293.78450258203,437.8636585822927 L293.4487345530829,439.5867888723868 M293.4487345530829,439.5867888723868 L293.6624985247614,441.3110405819285 M293.6624985247614,441.3110405819285 L294.41808022093824,442.9701126116056 M294.41808022093824,442.9701126116056 L295.68687732165637,444.50004201241995 M295.68687732165637,444.50004201241995 L297.4204591861109,445.8417577838535 M297.4204591861109,445.8417577838535 L299.5522969153569,446.9433960830979 M299.5522969153569,446.9433960830979 L302.0004079073507,447.76228229273113 M302.0004079073507,447.76228229273113 L304.6704204038431,448.26668476789234 M304.6704204038431,448.26668476789234 L307.4592511554089,448.43702444925464 M307.4592511554089,448.43702444925464 L310.25924351104186,448.2666752033931 M310.25924351104186,448.2666752033931 L312.9622290715025,447.7622918553973 M312.9622290715025,447.7622918553973 L315.46392287344077,446.94338652340787 M315.46392287344077,446.94338652340787 L317.6678592876009,445.8417577838535 M317.6678592876009,445.8417577838535 L319.48921852831666,444.50003246160657 M319.48921852831666,444.50003246160657 L320.8581544263315,442.970103066348 M320.8581544263315,442.970103066348 L321.7222627849851,441.3110501211628 M321.7222627849851,441.3110501211628 L322.04886549224045,439.5867888723868 M322.04886549224045,439.5867888723868 L321.8258622379958,437.86366810901757 M321.8258622379958,437.86366810901757 L321.0623737872906,436.20781678073104 M321.0623737872906,436.20781678073104 L319.78820628173173,434.6827074856292 M319.78820628173173,434.6827074856292 L318.0526079831161,433.3466773692611 M510.3756273162544,506.57684256173866 L510.4126759173665,495.2338273742332 M509.61154062893394,374.2624883516057 L509.6467686038972,363.04630013327915 M512.8418080759718,378.10425747164936 L512.8808626682057,366.88427509016606 M522.1893809114265,359.14826074093025 L522.1394619984393,370.3605885713922 M525.4303131846817,362.9804289456123 L525.376551635693,374.19655198631426 M482.1102588615252,325.8161581005352 L482.10738715759965,336.99519405807155 M547.0223096164875,402.78081385262874 L546.9425859464839,414.0359591954689 M472.2027285769415,342.99707343765976 L472.19402938731537,331.8120116526476 M532.927060870528,415.4025432470362 L532.9901971438472,404.1460720950688 M467.2470775351782,339.9888586985537 L467.2325958037162,328.80681509299075 M534.0854039117751,419.7293265130984 L534.1499662417914,408.4686632526473 M477.14881850781825,322.8179578786944 L477.1517293693899,333.993974525647 M548.193440864156,407.10115217478096 L548.1122643353319,418.36049012153467 M422.6604193933706,298.8967545127771 L422.7265093719616,310.04853533232426 M548.7524596854012,449.6857784857143 L548.6699545105365,460.9859885646948 M416.31374595938985,317.53464037294145 L416.24010262795485,306.3752547747912 M534.5000386849357,459.5955013838485 L534.5655888240982,448.2966116166515 M410.1169382202172,315.6218724461703 L410.036119471803,304.46442752521614 M416.46311597656245,296.99149412700694 L416.5363659764429,308.1413334558674 M352.7289172035213,284.51379638645324 L352.87569636302766,295.65087999773664 M350.4957259128037,303.90400108543054 L350.3459493808047,292.7584811633004 M343.6335122820661,303.24824252934695 L343.47579788697794,292.1033917936394 M345.86957213131006,283.8608156664193 L346.0242642437987,294.99722980108913 M523.3421398076734,499.33970649105436 L523.2894806355887,510.6865340182826 M278.70192351352034,283.8608066601346 L278.9342841901191,294.9972207855694 M482.2104968159472,534.9679704068783 L482.20738679956526,546.3475576916258 M280.78511699675255,303.24824252934695 L280.55452679771884,292.1033917936394 M471.9185765709297,539.8633580316749 L471.9092001881228,528.4896845855964 M273.88001782242907,303.90399656194154 L273.64139021429196,292.75847664442676 M466.75844530317926,543.1094631876563 L466.7427990333203,531.7328267897514 M271.7996786351322,284.51379638645324 L272.04005139241355,295.65087999773664 M477.0440880508978,538.2189841546226 L477.0472479492206,549.6015320153401 M207.24631433961537,296.9914963901906 L207.5621122037744,308.14133572135825 M419.70113128871446,564.4374452239675 L419.77425912617196,575.8436938654766 M213.49207752021462,315.6218633577221 L213.1827107025428,304.4644184459928 M413.227989554527,567.5856419561353 L413.1469906222926,556.1868180080234 M207.17008413560433,317.53465174197504 L206.8532506875801,306.37526613229466 M406.67351982660966,569.690978757797 L406.58449277870614,558.2902589998093 M200.9239197278398,298.89675224790597 L201.2471675301942,310.04853306514633 M413.13115093154954,566.547335030611 L413.21232525483066,577.9554773882489 M144.8650488858766,322.8179555925833 L145.25512488738127,333.99397223723213 M345.3631154893981,580.4453852327432 L345.52741493144833,591.8659511828175 M154.76751691375878,339.9888586985537 L154.38809554945428,328.80681509299075 M343.462073043651,582.6589062202236 L343.29552796716024,571.2465533767462 M149.61502926519654,342.99707343765976 L149.22936519177048,331.81201165264747 M336.1884284957216,583.3882374403674 L336.0129645050453,571.9752326002373 M139.70677108092156,325.8161558117549 L140.10308821011938,336.995191766988 M338.06832857714426,581.1765558725447 L338.24157680374304,592.5977729946648 M97.43933415451517,359.1482584223713 L97.8878144875523,370.3605862505351 M266.98378475244067,581.1765760471724 L267.24401829923113,592.5977931872568 M110.16043000911361,374.2624906759571 L109.72604017388392,363.04630245533303 M269.8998069783358,583.3882374403674 L269.643265495578,571.9752326002373 M106.6787803222146,378.10425747164936 L106.23997222844139,366.88427509016606 M262.67388478238456,582.6589062202236 L262.40854118717004,571.2465533767462 M93.94682015263089,362.98043126760706 L94.39973341145009,374.19655431060664 M259.73703315107986,580.4453852327432 L260.0060980406598,591.8659511828175 M69.74184306550455,402.78080913696704 L70.22687500913963,414.0359544752265 M192.88143069509573,566.547335030611 L193.23139217346048,577.9554773882489 M84.15298765661566,415.4025432470362 L83.68433109707013,404.1460720950688 M200.31100145389678,569.6909587359291 L199.97021403302278,558.2902389959611 M82.71152274721982,419.72932178257076 L82.24076847109944,408.4686585266983 M193.89425763195814,567.5856419561353 L193.54577832183008,556.1868180080234 M68.28708084330685,407.10115217478096 L68.77423676373127,418.36049012153444 M186.44993575926947,564.4374652736152 L186.80760594900372,575.8437139331294 M64.9322838885385,449.68580729070504 L65.42741329264112,460.9860173970536 M130.82830278689897,538.2189841546226 L131.25175405168278,549.6015320153401 M79.68832328444859,459.5954965809881 L79.21036654427314,448.2966068183531 M141.96535243538693,543.1094631876563 L141.5554201650815,531.7328267897514 M80.47837302968139,463.99573180004245 L80.00096196468144,452.69266687203424 M137.01762366534052,539.8633580316749 L136.6019373609011,528.4896845855964 M65.71115122565391,454.08418459582094 L66.20576315491274,465.38856929189103 M125.87532915402869,534.9679704068782 L126.30453260253444,546.3475576916255 M84.08950633669542,495.3031067300583 L84.56585126313826,506.64618630744985 M87.08271555671894,499.33972605835095 L87.55581489851505,510.6865536037293 M97.74094339305657,502.5426969365818 L97.28083903873886,491.2034314460336 M100.73859557262062,506.57683278412424 L100.28175590172339,495.23381760569805 M318.0526079831161,433.3466773692611 L317.860462380124,422.0728759202806" stroke="black"  stroke-width="4"  fill="red"/>
<path d="M71.74861725347535,551.2419716271631 L71.25269209499993,539.8579330565434 M93.33991097963366,538.2417800623257 L92.87137592915474,526.8695885330358 M71.74861725347535,551.2419716271631 L93.33991097963366,538.2417800623257 M71.25269209499993,539.8579330565434 L92.87137592915474,526.8695885330358 M71.74861725347535,551.2419716271631 L319.9992245057949,715.7761545751904 M319.9992245057949,715.7761545751904 L319.7991645614419,704.2487892351066 M71.25269209499993,539.8579330565434 L319.7991645614419,704.2487892351066 M93.33991097963366,538.2417800623257 L108.1170970721808,547.9860073866372 M108.1170970721808,547.9860073866372 L107.66566333824721,536.6049287856954 M92.87137592915474,526.8695885330358 L107.66566333824721,536.6049287856954 M108.41654159408262,547.8050818775738 L116.43115661070522,553.4588200165527 M116.43115661070522,553.4588200165527 L124.88970961856768,558.8698179525485 M124.88970961856768,558.8698179525485 L133.77373314177032,564.0248027691172 M133.77373314177032,564.0248027691172 L143.0637307689674,568.9108996687845 M143.0637307689674,568.9108996687845 L152.73894981443038,573.5159988555981 M152.73894981443038,573.5159988555981 L162.77763770570874,577.8285232942417 M162.77763770570874,577.8285232942417 L173.15708854502782,581.8375555585171 M173.15708854502782,581.8375555585171 L183.8534352199432,585.5330457583381 M183.8534352199432,585.5330457583381 L194.8421054992637,588.9055362593342 M194.8421054992637,588.9055362593342 L206.09759949016765,591.9464384534027 M206.09759949016765,591.9464384534027 L217.59362228970042,594.6479567567881 M217.59362228970042,594.6479567567881 L229.30319127374918,597.0032434330109 M229.30319127374918,597.0032434330109 L241.19873427004438,599.0061277778254 M241.19873427004438,599.0061277778254 L253.25209343976104,600.6515312845545 M253.25209343976104,600.6515312845545 L265.43469211225573,601.9351534191466 M265.43469211225573,601.9351534191466 L277.71751929919213,602.8537020328137 M277.71751929919213,602.8537020328137 L290.0712879984927,603.4048185683014 M290.0712879984927,603.4048185683014 L302.4665933503958,603.587001359 M302.4665933503958,603.587001359 L314.87380582663224,603.3998515927855 M314.87380582663224,603.3998515927855 L327.2632050987237,602.8438106501189 M327.2632050987237,602.8438106501189 L339.60528975733354,601.920341651861 M339.60528975733354,601.920341651861 L351.8706504788657,600.6318253931295 M351.8706504788657,600.6318253931295 L364.0300610780312,598.9815964238379 M364.0300610780312,598.9815964238379 L376.0546658913087,596.9739166043327 M376.0546658913087,596.9739166043327 L387.91600645049084,594.6139672707427 M387.91600645049084,594.6139672707427 L399.5860155378772,591.907819606898 M399.5860155378772,591.907819606898 L411.03732711213354,588.8624036161248 M411.03732711213354,588.8624036161248 L422.2432339584718,585.485536243878 M422.2432339584718,585.485536243878 L433.17758225956527,581.7857869801111 M433.17758225956527,581.7857869801111 L443.81520029779267,577.772564173208 M443.81520029779267,577.772564173208 L454.1315973551356,573.4560590751422 M454.1315973551356,573.4560590751422 L464.10335726162344,568.8471092201434 M464.10335726162344,568.8471092201434 L473.7079576054921,563.9573020317092 M473.7079576054921,563.9573020317092 L482.92396745814114,558.7987973458053 M482.92396745814114,558.7987973458053 L491.7309253909278,553.3844298809663 M491.7309253909278,553.3844298809663 L500.1096570881948,547.7275716436948 M500.1096570881948,547.7275716436948 L508.04205297625236,541.8420550562344 M508.04205297625236,541.8420550562344 L515.5112544272122,535.7423143447379 M515.5112544272122,535.7423143447379 L522.5016456220804,529.4430514751707 M522.5016456220804,529.4430514751707 L528.9988146640374,522.9594773683333 M528.9988146640374,522.9594773683333 L534.9897292401298,516.3070983769671 M534.9897292401298,516.3070983769671 L540.4626281108067,509.50168231404984 M540.4626281108067,509.50168231404984 L545.407037286732,502.5593035021893 M545.407037286732,502.5593035021893 L549.8138753412914,495.4961733725172 M549.8138753412914,495.4961733725172 L553.6752781210339,488.3286879483353 M553.6752781210339,488.3286879483353 L556.9848579740847,481.07339777219613 M556.9848579740847,481.07339777219613 L649.6604447325278,258.1217201923872 M640.0981552434026,238.31197449998126 L642.8133950664027,240.0872484798707 M642.8133950664027,240.0872484798707 L645.1711866288441,242.03535662160834 M645.1711866288441,242.03535662160834 L647.1394584048958,244.13033218796522 M647.1394584048958,244.13033218796522 L648.6912335302502,246.3441669133299 M648.6912335302502,246.3441669133299 L649.8050632105362,248.64718863857672 M649.8050632105362,248.64718863857672 L650.4653162851893,251.00844531321513 M650.4653162851893,251.00844531321513 L650.6624656991235,253.3961362223738 M650.6624656991235,253.3961362223738 L650.393184120385,255.77798709809485 M650.393184120385,255.77798709809485 L649.6604447325278,258.1217201923872 M640.0981552434026,238.31197449998126 L615.399297952155,223.90804328202375 M615.399297952155,223.90804328202375 L658.1181874830445,198.1868542517492 M906.3308942102648,341.4925272969955 L658.1181874830445,198.1868542517492 M319.9992245057949,715.7761545751904 L906.3308942102648,341.4925272969955 M108.1170970721808,547.9860073866372 L108.41654159408262,547.8050818775738 M668.6227943800928,221.0371058802906 L666.7916395094333,220.18744317971402 M666.7916395094333,220.18744317971402 L664.6964421963862,219.59632477860066 M664.6964421963862,219.59632477860066 L662.4420406716285,219.29322449880885 M662.4420406716285,219.29322449880885 L660.1410919546345,219.29322449880885 M660.1410919546345,219.29322449880885 L657.9085677928389,219.5963307951905 M657.9085677928389,219.5963307951905 L655.8560358193271,220.18743497334663 M655.8560358193271,220.18743497334663 L654.0861994354334,221.0371058802906 M654.0861994354334,221.0371058802906 L652.6876943134374,222.1029562948455 M652.6876943134374,222.1029562948455 L651.7307760520712,223.33179286048096 M651.7307760520712,223.33179286048096 L651.2636554479557,224.6621696067134 M651.2636554479557,224.6621696067134 L651.3101528054141,226.0274907983179 M651.3101528054141,226.0274907983179 L651.8683351193763,227.3592940286028 M651.8683351193763,227.3592940286028 L652.9106003506284,228.5907003907381 M652.9106003506284,228.5907003907381 L654.3848965918305,229.65975006289307 M654.3848965918305,229.65975006289307 L656.2173985428182,230.51261366204153 M656.2173985428182,230.51261366204153 L658.3161419090465,231.1062985949776 M658.3161419090465,231.1062985949776 L660.5755860817702,231.41082261639747 M660.5755860817702,231.41082261639747 L662.8820736614432,231.41082261639747 M662.8820736614432,231.41082261639747 L665.1195367588913,231.10629200137748 M665.1195367588913,231.10629200137748 L667.1754295777364,230.512621352765 M667.1754295777364,230.512621352765 L668.9463829661898,229.65975006289307 M668.9463829661898,229.65975006289307 L670.3435401097544,228.59069929290035 M670.3435401097544,228.59069929290035 L671.2969123037653,227.35929622320646 M671.2969123037653,227.35929622320646 L671.7589911867817,226.0274951852066 M671.7589911867817,226.0274951852066 L671.7069549744616,224.66217399122604 M671.7069549744616,224.66217399122604 L671.1438328067403,223.33179559935468 M671.1438328067403,223.33179559935468 L670.0982067432444,222.102955747338 M670.0982067432444,222.102955747338 L668.6227943800928,221.0371058802906 M557.0776546225595,469.75421172108486 L553.7642254875124,477.00269294876466 M553.7642254875124,477.00269294876466 L549.8982971923798,484.16347522828016 M549.8982971923798,484.16347522828016 L545.4862623766992,491.2200225609058 M545.4862623766992,491.2200225609058 L540.5359921456103,498.15595312553205 M540.5359921456103,498.15595312553205 L535.0565765578718,504.95506933461036 M535.0565765578718,504.95506933461036 L529.0585001523605,511.60131040659644 M529.0585001523605,511.60131040659644 L522.5535365352068,518.0789216241676 M522.5535365352068,518.0789216241676 L515.554732204645,524.372409342154 M515.554732204645,524.372409342154 L508.0765152131571,530.4665749444677 M508.0765152131571,530.4665749444677 L500.1345193113383,536.3467281901167 M500.1345193113383,536.3467281901167 L491.74562289364275,541.9984462378397 M491.74562289364275,541.9984462378397 L482.9279571577456,547.4079074259273 M482.9279571577456,547.4079074259273 L473.70071968031993,552.5617500341097 M473.70071968031993,552.5617500341097 L464.0843970628304,557.4471491072865 M464.0843970628304,557.4471491072865 L454.1004469313001,562.051953948026 M454.1004469313001,562.051953948026 L443.7714200644866,566.3645857608948 M443.7714200644866,566.3645857608948 L433.12076241923216,570.3742149914946 M433.12076241923216,570.3742149914946 L422.1729961308367,574.0706578338853 M422.1729961308367,574.0706578338853 L410.95332546775865,577.4445127502291 M410.95332546775865,577.4445127502291 L399.48793828061724,580.4872163959321 M399.48793828061724,580.4872163959321 L387.8035767550348,583.190957401513 M387.8035767550348,583.190957401513 L375.92764294278777,585.5488106679794 M375.92764294278777,585.5488106679794 L363.8882411365611,587.5547092853093 M363.8882411365611,587.5547092853093 L351.7138675334535,589.2034755473412 M351.7138675334535,589.2034755473412 L339.43341615376045,590.4908505659845 M339.43341615376045,590.4908505659845 L327.076152100126,591.4135021092997 M327.076152100126,591.4135021092997 L314.6715239073198,591.9690510306523 M314.6715239073198,591.9690510306523 L302.2490723421049,592.1560352260274 M302.2490723421049,592.1560352260274 L289.8385573505264,591.9740136116951 M289.8385573505264,591.9740136116951 L277.4696479275071,591.4233847382308 M277.4696479275071,591.4233847382308 L265.171788034929,590.5056492188437 M265.171788034929,590.5056492188437 L252.97430351649965,589.223163979579 M252.97430351649965,589.223163979579 L240.90624370787776,587.5792188865041 M240.90624370787776,587.5792188865041 L228.99622289883078,585.5781114649266 M228.99622289883078,585.5781114649266 L217.2724358169254,583.2249166807736 M217.2724358169254,583.2249166807736 L205.76249053869407,580.5258008742173 M205.76249053869407,580.5258008742173 L194.4934045981391,577.4876069488084 M194.4934045981391,577.4876069488084 L183.49150665097284,574.1181249299672 M183.49150665097284,574.1181249299672 L172.7823290399873,570.4259372621932 M172.7823290399873,570.4259372621932 L162.39047495570173,566.4204947240956 M162.39047495570173,566.4204947240956 L152.33984125362005,562.1118398855762 M152.33984125362005,562.1118398855762 L142.6531617679725,557.5108821209715 M142.6531617679725,557.5108821209715 L133.35221545991385,552.6291898465481 M133.35221545991385,552.6291898465481 L124.45777980307179,547.4788637649135 M124.45777980307179,547.4788637649135 L115.98937406275724,542.0727688742234 M115.98937406275724,542.0727688742234 L107.96548694219513,536.4241678952546 M557.0776546225595,469.75421172108486 L649.8558433396021,247.02338763837986 M640.2818428165496,227.23435375417478 L643.0002568032139,229.00776437446325 M643.0002568032139,229.00776437446325 L645.36082170354,230.95382938843613 M645.36082170354,230.95382938843613 L647.3314280500133,233.04660971314433 M647.3314280500133,233.04660971314433 L648.88506661285,235.25812680803017 M648.88506661285,235.25812680803017 L650.0002623450933,237.55873988864312 M650.0002623450933,237.55873988864312 L650.661364328194,239.91752950558862 M650.661364328194,239.91752950558862 L650.858832631426,242.3027283047502 M650.858832631426,242.3027283047502 L650.5893341015579,244.68209573710533 M650.5893341015579,244.68209573710533 L649.8558433396021,247.02338763837986 M640.2818428165496,227.23435375417478 L615.554266260206,212.8455939068183 M615.554266260206,212.8455939068183 L658.3208804159049,187.15173007036344 M906.8293566332914,330.3089745298637 L658.3208804159049,187.15173007036344 M319.7991645614419,704.2487892351066 L906.8293566332914,330.3089745298637 M107.66566333824721,536.6049287856954 L107.96548694219513,536.4241678952546 M668.8383970432766,209.97769163034013 L670.3155387499748,211.0424142565173 M670.3155387499748,211.0424142565173 L671.3624113985359,212.269955127951 M671.3624113985359,212.269955127951 L671.9262342827144,213.59892797558007 M671.9262342827144,213.59892797558007 L671.9783894009387,214.96280754125712 M671.9783894009387,214.96280754125712 L671.5158407031864,216.2932031575076 M671.5158407031864,216.2932031575076 L670.5614327024816,217.52330746769144 M670.5614327024816,217.52330746769144 L669.162725049466,218.59123126757981 M669.162725049466,218.59123126757981 L667.3897839921901,219.44320385004596 M667.3897839921901,219.44320385004596 L665.3315661594919,220.03624911655447 M665.3315661594919,220.03624911655447 L663.0915578842396,220.3404589960885 M663.0915578842396,220.3404589960885 L660.7824334026524,220.3404589960885 M660.7824334026524,220.3404589960885 L658.5203937692353,220.0362557032098 M658.5203937692353,220.0362557032098 L656.4192273730611,219.44319616742507 M656.4192273730611,219.44319616742507 L654.5845969763931,218.59123126757981 M654.5845969763931,218.59123126757981 L653.1085738109496,217.52330856437175 M653.1085738109496,217.52330856437175 L652.0650695683532,216.29320096521928 M652.0650695683532,216.29320096521928 L651.5061977659242,214.962803158999 M651.5061977659242,214.962803158999 L651.4595941591813,213.59892359569847 M651.4595941591813,213.59892359569847 L651.9271961574946,212.26995239197174 M651.9271961574946,212.26995239197174 L652.8851584345334,211.04241480344604 M652.8851584345334,211.04241480344604 L654.2852172783723,209.97769163034013 M654.2852172783723,209.97769163034013 L656.0570389108416,209.12891970215355 M656.0570389108416,209.12891970215355 L658.1118883244583,208.5384411237086 M658.1118883244583,208.5384411237086 L660.3469464370986,208.23565568358038 M660.3469464370986,208.23565568358038 L662.6505193993513,208.23565568358038 M662.6505193993513,208.23565568358038 L664.9075048042683,208.53843511348725 M664.9075048042683,208.53843511348725 L667.0051169383173,209.12892789983687 M667.0051169383173,209.12892789983687 L668.8383970432766,209.97769163034013 M906.3308942102648,341.4925272969955 L906.8293566332914,330.3089745298637 M108.41654159408262,547.8050818775738 L107.96548694219513,536.4241678952546 M556.9848579740847,481.07339777219613 L557.0776546225595,469.75421172108486 M649.6604447325278,258.1217201923872 L649.8558433396021,247.02338763837986 M640.0981552434026,238.31197449998126 L640.2818428165496,227.23435375417478 M615.399297952155,223.90804328202375 L615.554266260206,212.8455939068183 M658.1181874830445,198.1868542517492 L658.3208804159049,187.15173007036344 M668.6227943800928,221.0371058802906 L668.8383970432766,209.97769163034013" stroke="black"  stroke-width="4"  fill="red"/></svg>