<svg viewBox="0 0 800 800" xmlns="http://www.w3.org/2000/svg"><path d="M602.8169121416656,536.161547986027 L602.7278269599472,488.7259002811302 M591.7049855093168,542.9378207038867 L591.5908818852492,495.48942477859543 M602.8169121416656,536.161547986027 L591.7049855093168,542.9378207038867 M602.7278269599472,488.7259002811302 L591.5908818852492,495.48942477859543 M648.0515968232685,577.4847919003821 L648.0641284393798,529.9716804811903 M591.7049855093168,542.9378207038867 L648.0515968232685,577.4847919003821 M591.5908818852492,495.48942477859543 L648.0641284393798,529.9716804811903 M659.1635835926943,570.6678406638962 L659.2011340575759,523.1674623862649 M648.0515968232685,577.4847919003821 L659.1635835926943,570.6678406638962 M648.0641284393798,529.9716804811903 L659.2011340575759,523.1674623862649 M659.1635835926943,570.6678406638962 L602.8169121416656,536.161547986027 M659.2011340575759,523.1674623862649 L602.7278269599472,488.7259002811302" stroke="black"  stroke-width="4"  fill="red"/>
<path d="M652.4432828622369,492.0089441048948 L652.4655449852793,444.6567984053979 M645.3575714371625,500.4834766242151 L645.3639888820782,453.1152449349912 M652.4432828622369,492.0089441048948 L645.3575714371625,500.4834766242151 M652.4655449852793,444.6567984053979 L645.3639888820782,453.1152449349912 M716.2169628503971,522.4771092179888 L716.3823138396697,475.06726057283777 M645.3575714371625,500.4834766242151 L716.2169628503971,522.4771092179888 M645.3639888820782,453.1152449349912 L716.3823138396697,475.06726057283777 M723.2638684394182,513.9701100536734 L723.4448897362015,466.5763362593698 M716.2169628503971,522.4771092179888 L723.2638684394182,513.9701100536734 M716.3823138396697,475.06726057283777 L723.4448897362015,466.5763362593698 M723.2638684394182,513.9701100536734 L652.4432828622369,492.0089441048948 M723.4448897362015,466.5763362593698 L652.4655449852793,444.6567984053979" stroke="black"  stroke-width="4"  fill="red"/>
<path d="M677.0155464737577,441.098284929377 L677.0924287475709,393.8433639659328 M674.6102509416462,450.40987421881664 L674.6818353840287,403.1370954172676 M677.0155464737577,441.098284929377 L674.6102509416462,450.40987421881664 M677.0924287475709,393.8433639659328 L674.6818353840287,403.1370954172676 M752.7326639148985,457.91299158734785 L752.9785203447093,410.62584779965243 M674.6102509416462,450.40987421881664 L752.7326639148985,457.91299158734785 M674.6818353840287,403.1370954172676 L752.9785203447093,410.62584779965243 M755.0758573648613,448.5891386901269 L755.3267343543209,401.3198490552511 M752.7326639148985,457.91299158734785 L755.0758573648613,448.5891386901269 M752.9785203447093,410.62584779965243 L755.3267343543209,401.3198490552511 M755.0758573648613,448.5891386901269 L677.0155464737577,441.098284929377 M755.3267343543209,401.3198490552511 L677.0924287475709,393.8433639659328" stroke="black"  stroke-width="4"  fill="red"/>
<path d="M674.4363696290334,388.5270745322888 L674.5071802611467,341.3736080982636 M676.8845257736148,397.75310907290236 L676.9608249785545,350.5817599627619 M674.4363696290334,388.5270745322888 L676.8845257736148,397.75310907290236 M674.5071802611467,341.3736080982636 L676.9608249785545,350.5817599627619 M754.5019560283872,390.32872246432464 L754.7502790322144,343.1717613219221 M676.8845257736148,397.75310907290236 L754.5019560283872,390.32872246432464 M676.9608249785545,350.5817599627619 L754.7502790322144,343.1717613219221 M751.9925015695699,381.1146788255023 L752.2350641002031,333.97560371879945 M754.5019560283872,390.32872246432464 L751.9925015695699,381.1146788255023 M754.7502790322144,343.1717613219221 L752.2350641002031,333.97560371879945 M751.9925015695699,381.1146788255023 L674.4363696290334,388.5270745322888 M752.2350641002031,333.97560371879945 L674.5071802611467,341.3736080982636" stroke="black"  stroke-width="4"  fill="red"/>
<path d="M645.3173540220606,339.4231909873373 L645.3235924829451,292.36545916679063 M652.3180712718819,347.67371995343694 L652.3397761573697,300.59983703232615 M645.3173540220606,339.4231909873373 L652.3180712718819,347.67371995343694 M645.3235924829451,292.36545916679063 L652.3397761573697,300.59983703232615 M721.9453710174421,326.34282604257714 L722.1205244282023,279.31075442173847 M652.3180712718819,347.67371995343694 L721.9453710174421,326.34282604257714 M652.3397761573697,300.59983703232615 L722.1205244282023,279.31075442173847 M714.9072115186029,318.12332753234364 L715.0667333978447,271.10741444905955 M721.9453710174421,326.34282604257714 L714.9072115186029,318.12332753234364 M722.1205244282023,279.31075442173847 L715.0667333978447,271.10741444905955 M714.9072115186029,318.12332753234364 L645.3173540220606,339.4231909873373 M715.0667333978447,271.10741444905955 L645.3235924829451,292.36545916679063" stroke="black"  stroke-width="4"  fill="red"/>
<path d="M592.7824582665073,298.45248577390976 L592.6731501525796,251.47534993155944 M603.613396161642,304.9518395369191 L603.527855849691,257.9618748249161 M592.7824582665073,298.45248577390976 L603.613396161642,304.9518395369191 M592.6731501525796,251.47534993155944 L603.527855849691,257.9618748249161 M658.7325117777436,272.0125265816513 L658.7681435614163,225.0877492007396 M603.613396161642,304.9518395369191 L658.7325117777436,272.0125265816513 M603.527855849691,257.9618748249161 L658.7681435614163,225.0877492007396 M647.9015176297637,265.55104592925784 L647.9133812396935,218.6391054393216 M658.7325117777436,272.0125265816513 L647.9015176297637,265.55104592925784 M658.7681435614163,225.0877492007396 L647.9133812396935,218.6391054393216 M647.9015176297637,265.55104592925784 L592.7824582665073,298.45248577390976 M647.9133812396935,218.6391054393216 L592.6731501525796,251.47534993155944" stroke="black"  stroke-width="4"  fill="red"/>
<path d="M522.0616128346563,269.41710409802795 L521.7974731899534,222.49748103732827 M535.6630198789627,273.567629476667 L535.4286258564146,226.63976503042738 M522.0616128346563,269.41710409802795 L535.6630198789627,273.567629476667 M521.7974731899534,222.49748103732827 L535.4286258564146,226.63976503042738 M571.2457581045394,232.32308714563635 L571.0900114531889,185.47741656056564 M535.6630198789627,273.567629476667 L571.2457581045394,232.32308714563635 M535.4286258564146,226.63976503042738 L571.0900114531889,185.47741656056564 M557.6811045207367,228.20292219105602 L557.4957728115969,181.36549881144117 M571.2457581045394,232.32308714563635 L557.6811045207367,228.20292219105602 M571.0900114531889,185.47741656056564 L557.4957728115969,181.36549881144117 M557.6811045207367,228.20292219105602 L522.0616128346563,269.41710409802795 M557.4957728115969,181.36549881144117 L521.7974731899534,222.49748103732827" stroke="black"  stroke-width="4"  fill="red"/>
<path d="M439.94922857984625,254.961802440121 L439.50556215051404,208.07093451379728 M455.0269281504858,256.38797348239814 L454.6162371374844,209.494264937176 M439.94922857984625,254.961802440121 L455.0269281504858,256.38797348239814 M439.50556215051404,208.07093451379728 L454.6162371374844,209.494264937176 M467.889876770912,210.82533123243695 L467.5089199365726,164.0227647203019 M455.0269281504858,256.38797348239814 L467.889876770912,210.82533123243695 M454.6162371374844,209.494264937176 L467.5089199365726,164.0227647203019 M452.8716619192493,209.41073062288262 L452.4579896520876,162.6110067618191 M467.889876770912,210.82533123243695 L452.8716619192493,209.41073062288262 M467.5089199365726,164.0227647203019 L452.4579896520876,162.6110067618191 M452.8716619192493,209.41073062288262 L439.94922857984625,254.961802440121 M452.4579896520876,162.6110067618191 L439.50556215051404,208.07093451379728" stroke="black"  stroke-width="4"  fill="red"/>
<path d="M354.1890281859859,256.38796364467316 L353.55742396736804,209.49425511904303 M369.3270769529132,254.96181227534896 L368.72871291894734,208.07094432943302 M354.1890281859859,256.38796364467316 L369.3270769529132,254.96181227534896 M353.55742396736804,209.49425511904303 L368.72871291894734,208.07094432943302 M358.33324807850806,209.41073062288262 L357.71333110227465,162.6110067618191 M369.3270769529132,254.96181227534896 L358.33324807850806,209.41073062288262 M368.72871291894734,208.07094432943302 L357.71333110227465,162.6110067618191 M343.25513990189177,210.82535074865507 L342.6022458650094,164.02278419730737 M358.33324807850806,209.41073062288262 L343.25513990189177,210.82535074865507 M357.71333110227465,162.6110067618191 L342.6022458650094,164.02278419730737 M343.25513990189177,210.82535074865507 L354.1890281859859,256.38796364467316 M342.6022458650094,164.02278419730737 L353.55742396736804,209.49425511904303" stroke="black"  stroke-width="4"  fill="red"/>
<path d="M272.82558296038076,273.567629476667 L272.0144888407233,226.63976503042738 M286.6026861319768,269.41710409802795 L285.8221094112411,222.49748103732827 M272.82558296038076,273.567629476667 L286.6026861319768,269.41710409802795 M272.0144888407233,226.63976503042738 L285.8221094112411,222.49748103732827 M252.72815444857395,228.20291729683788 L251.87641863814196,181.3654939270234 M286.6026861319768,269.41710409802795 L252.72815444857395,228.20291729683788 M285.8221094112411,222.49748103732827 L251.87641863814196,181.3654939270234 M238.98908199436292,232.32307735000256 L238.10699779426403,185.47740678453158 M252.72815444857395,228.20291729683788 L238.98908199436292,232.32307735000256 M251.87641863814196,181.3654939270234 L238.10699779426403,185.47740678453158 M238.98908199436292,232.32307735000256 L272.82558296038076,273.567629476667 M238.10699779426403,185.47740678453158 L272.0144888407233,226.63976503042738" stroke="black"  stroke-width="4"  fill="red"/>
<path d="M203.54641312422933,304.9518494598607 L202.58061966948532,257.9618847282834 M214.6525272870758,298.45249568542533 L213.7117135373573,251.47535982349837 M203.54641312422933,304.9518494598607 L214.6525272870758,298.45249568542533 M202.58061966948532,257.9618847282834 L213.7117135373573,251.47535982349837 M160.9264664499952,265.55104592925784 L159.8706051662297,218.6391054393215 M214.6525272870758,298.45249568542533 L160.9264664499952,265.55104592925784 M213.7117135373573,251.47535982349837 L159.8706051662297,218.6391054393215 M149.82189954512023,272.0125265816513 L148.74106877371258,225.0877492007395 M160.9264664499952,265.55104592925784 L149.82189954512023,272.0125265816513 M159.8706051662297,218.6391054393215 L148.74106877371258,225.0877492007395 M149.82189954512023,272.0125265816513 L203.54641312422933,304.9518494598607 M148.74106877371258,225.0877492007395 L202.58061966948532,257.9618847282834" stroke="black"  stroke-width="4"  fill="red"/>
<path d="M153.03295342146163,347.67369995701586 L151.9519312351567,300.5998170750174 M160.3830061380552,339.42318100368493 L159.31899457216664,292.3654492026982 M153.03295342146163,347.67369995701586 L160.3830061380552,339.42318100368493 M151.9519312351567,300.5998170750174 L159.31899457216664,292.3654492026982 M91.69494784175822,318.12330764010926 L90.48163406668118,271.1073945959629 M160.3830061380552,339.42318100368493 L91.69494784175822,318.12330764010926 M159.31899457216664,292.3654492026982 L90.48163406668118,271.1073945959629 M84.30877481604307,326.34280114109356 L83.07829404404993,279.31072956916853 M91.69494784175822,318.12330764010926 L84.30877481604307,326.34280114109356 M90.48163406668118,271.1073945959629 L83.07829404404993,279.31072956916853 M84.30877481604307,326.34280114109356 L153.03295342146163,347.67369995701586 M83.07829404404993,279.31072956916853 L151.9519312351567,300.5998170750174" stroke="black"  stroke-width="4"  fill="red"/>
<path d="M126.34611821652265,397.75312924651166 L125.20110452483135,350.581780097305 M129.1849642436589,388.5270543913815 L128.04717360388696,341.37358799643107 M126.34611821652265,397.75312924651166 L129.1849642436589,388.5270543913815 M125.20110452483135,350.581780097305 L128.04717360388696,341.37358799643107 M51.94264773518955,381.114688882829 L50.63449752342842,333.9756137565852 M129.1849642436589,388.5270543913815 L51.94264773518955,381.114688882829 M128.04717360388696,341.37358799643107 L50.63449752342842,333.9756137565852 M49.043029098364855,390.3287426116161 L47.72738736475469,343.1717814301401 M51.94264773518955,381.114688882829 L49.043029098364855,390.3287426116161 M50.63449752342842,333.9756137565852 L47.72738736475469,343.1717814301401 M49.043029098364855,390.3287426116161 L126.34611821652265,397.75312924651166 M47.72738736475469,343.1717814301401 L125.20110452483135,350.581780097305" stroke="black"  stroke-width="4"  fill="red"/>
<path d="M126.39097339506509,450.4099047599552 L125.24074899039658,403.1371258998895 M124.379923279313,441.0982747655763 L123.22615958131053,393.8433538216426 M126.39097339506509,450.4099047599552 L124.379923279313,441.0982747655763 M125.24074899039658,403.1371258998895 L123.22615958131053,393.8433538216426 M46.00243866732518,448.5891590444005 L44.67326564567918,401.31986937051136 M124.379923279313,441.0982747655763 L46.00243866732518,448.5891590444005 M123.22615958131053,393.8433538216426 L44.67326564567918,401.31986937051136 M47.95092233481705,457.9129610061027 L46.62500799186978,410.62581727691145 M46.00243866732518,448.5891590444005 L47.95092233481705,457.9129610061027 M44.67326564567918,401.31986937051136 L46.62500799186978,410.62581727691145 M47.95092233481705,457.9129610061027 L126.39097339506509,450.4099047599552 M46.62500799186978,410.62581727691145 L125.24074899039658,403.1371258998895" stroke="black"  stroke-width="4"  fill="red"/>
<path d="M153.52362024182622,500.48348689397994 L152.42908166327516,453.11525518527935 M146.79673037250257,492.00892359567524 L145.68795470374334,444.6567779351419 M153.52362024182622,500.48348689397994 L146.79673037250257,492.00892359567524 M152.42908166327516,453.11525518527935 L145.68795470374334,444.6567779351419 M75.04629598044266,513.9701100536734 L73.77459276248464,466.5763362593698 M146.79673037250257,492.00892359567524 L75.04629598044266,513.9701100536734 M145.68795470374334,444.6567779351419 L73.77459276248464,466.5763362593698 M81.73303995115305,522.4771195271375 L80.47539027281084,475.0672708625235 M75.04629598044266,513.9701100536734 L81.73303995115305,522.4771195271375 M73.77459276248464,466.5763362593698 L80.47539027281084,475.0672708625235 M81.73303995115305,522.4771195271375 L153.52362024182622,500.48348689397994 M80.47539027281084,475.0672708625235 L152.42908166327516,453.11525518527935" stroke="black"  stroke-width="4"  fill="red"/>
<path d="M205.37871443748537,542.9378207038867 L204.39662574777685,495.48942477859543 M194.55368854950535,536.161547986027 L193.5478716831335,488.7259002811302 M205.37871443748537,542.9378207038867 L194.55368854950535,536.161547986027 M204.39662574777685,495.48942477859543 L193.5478716831335,488.7259002811302 M136.74605449161442,570.6678406638962 L135.607023723539,523.1674623862649 M194.55368854950535,536.161547986027 L136.74605449161442,570.6678406638962 M193.5478716831335,488.7259002811302 L135.607023723539,523.1674623862649 M147.56941822806823,577.4847919003821 L146.45410439415153,529.9716804811903 M136.74605449161442,570.6678406638962 L147.56941822806823,577.4847919003821 M135.607023723539,523.1674623862649 L146.45410439415153,529.9716804811903 M147.56941822806823,577.4847919003821 L205.37871443748537,542.9378207038867 M146.45410439415153,529.9716804811903 L204.39662574777685,495.48942477859543" stroke="black"  stroke-width="4"  fill="red"/>
<path d="M276.9863087945382,573.4041190105022 L276.1629296717896,525.8986275625809 M263.1205904187462,569.029564063841 L262.26630001048534,521.5322485607039 M276.9863087945382,573.4041190105022 L263.1205904187462,569.029564063841 M276.1629296717896,525.8986275625809 L262.26630001048534,521.5322485607039 M225.29778047089138,612.7931356338031 L224.35475036681746,565.2143624681742 M263.1205904187462,569.029564063841 L225.29778047089138,612.7931356338031 M262.26630001048534,521.5322485607039 L224.35475036681746,565.2143624681742 M239.20160857443622,617.2009533841936 L238.28965955177756,569.614017216212 M225.29778047089138,612.7931356338031 L239.20160857443622,617.2009533841936 M224.35475036681746,565.2143624681742 L238.28965955177756,569.614017216212 M239.20160857443622,617.2009533841936 L276.9863087945382,573.4041190105022 M238.28965955177756,569.614017216212 L276.1629296717896,525.8986275625809" stroke="black"  stroke-width="4"  fill="red"/>
<path d="M361.21335616170757,588.6909907763938 L360.5788767755305,541.1569870008605 M345.702093091498,587.1792701575382 L345.0327125064476,539.648081916996 M361.21335616170757,588.6909907763938 L345.702093091498,587.1792701575382 M360.5788767755305,541.1569870008605 L345.0327125064476,539.648081916996 M331.8905481224465,635.8644572443434 L331.1870618295095,588.243041235306 M345.702093091498,587.1792701575382 L331.8905481224465,635.8644572443434 M345.0327125064476,539.648081916996 L331.1870618295095,588.243041235306 M347.46525327592417,637.388993238181 L346.7969546424403,589.7647667188605 M331.8905481224465,635.8644572443434 L347.46525327592417,637.388993238181 M331.1870618295095,588.243041235306 L346.7969546424403,589.7647667188605 M347.46525327592417,637.388993238181 L361.21335616170757,588.6909907763938 M346.7969546424403,589.7647667188605 L360.5788767755305,541.1569870008605" stroke="black"  stroke-width="4"  fill="red"/>
<path d="M449.5084679492309,587.1792284557482 L449.0732135219685,539.6480402928867 M433.93316506420155,588.691011632739 L433.4627202977912,541.1570078183674 M449.5084679492309,587.1792284557482 L433.93316506420155,588.691011632739 M449.0732135219685,539.6480402928867 L433.4627202977912,541.1570078183674 M445.61940837836437,637.388993238181 L445.17345087535614,589.7647667188605 M433.93316506420155,588.691011632739 L445.61940837836437,637.388993238181 M433.4627202977912,541.1570078183674 L445.17345087535614,589.7647667188605 M461.25876290995586,635.8644782711172 L460.84828603710844,588.2430622233101 M445.61940837836437,637.388993238181 L461.25876290995586,635.8644782711172 M445.17345087535614,589.7647667188605 L460.84828603710844,588.2430622233101 M461.25876290995586,635.8644782711172 L449.5084679492309,587.1792284557482 M460.84828603710844,588.2430622233101 L449.0732135219685,539.6480402928867" stroke="black"  stroke-width="4"  fill="red"/>
<path d="M532.8584448044644,569.0295432783241 L532.6115677531859,521.5322278140522 M518.8075458051117,573.4041190105022 L518.5289222903584,525.8986275625809 M532.8584448044644,569.0295432783241 L518.8075458051117,573.4041190105022 M532.6115677531859,521.5322278140522 L518.5289222903584,525.8986275625809 M554.7378973481503,617.2009324249307 L554.5394638359132,569.6139962957461 M518.8075458051117,573.4041190105022 L554.7378973481503,617.2009324249307 M518.5289222903584,525.8986275625809 L554.5394638359132,569.6139962957461 M568.8283480959835,612.7931146904687 L568.6618404699691,565.2143415636435 M554.7378973481503,617.2009324249307 L568.8283480959835,612.7931146904687 M554.5394638359132,569.6139962957461 L568.6618404699691,565.2143415636435 M568.8283480959835,612.7931146904687 L532.8584448044644,569.0295432783241 M568.6618404699691,565.2143415636435 L532.6115677531859,521.5322278140522" stroke="black"  stroke-width="4"  fill="red"/>
<path d="M423.3519106968704,406.12863437289343 L422.8654152087628,358.94107980178194 M378.91118050179364,432.6712559671464 L378.3246580556969,385.4325255136548 M423.3519106968704,406.12863437289343 L427.15233856327245,408.9668372047273 M427.15233856327245,408.9668372047273 L429.9565051914245,412.2066311594782 M429.9565051914245,412.2066311594782 L431.65595509033426,415.7241381035343 M431.65595509033426,415.7241381035343 L432.18442715118397,419.38449544848663 M432.18442715118397,419.38449544848663 L431.520477265831,423.0472048596911 M431.520477265831,423.0472048596911 L429.68856370776314,426.57138972717337 M429.68856370776314,426.57138972717337 L426.75805420938445,429.8212284169381 M426.75805420938445,429.8212284169381 L422.8410977061224,432.6712559671464 M422.8410977061224,432.6712559671464 L418.0878962597827,435.0112592539681 M418.0878962597827,435.0112592539681 L412.68136866486554,436.75070778394536 M412.68136866486554,436.75070778394536 L406.8299718016249,437.82207001457505 M406.8299718016249,437.82207001457505 L400.75943895384154,438.18390840130985 M400.75943895384154,438.18390840130985 L394.70425907878405,437.82209033051697 M394.70425907878405,437.82209033051697 L388.8981564753554,436.75068747181604 M388.8981564753554,436.75068747181604 L383.56527451947017,435.01127955990887 M383.56527451947017,435.01127955990887 L378.91118050179364,432.6712559671464 M422.8654152087628,358.94107980178194 L426.6741607309484,361.7737973043079 M426.6741607309484,361.7737973043079 L429.4844197137123,365.00733361557354 M429.4844197137123,365.00733361557354 L431.18749955665317,368.5180511402667 M431.18749955665317,368.5180511402667 L431.7169954164316,372.17134845152805 M431.7169954164316,372.17134845152805 L431.05141883028875,375.8269985117728 M431.05141883028875,375.8269985117728 L429.2152857650101,379.3443959432185 M429.2152857650101,379.3443959432185 L426.2781217360573,382.58797986029856 M426.2781217360573,382.58797986029856 L422.35232900104177,385.4325255136548 M422.35232900104177,385.4325255136548 L417.5884480290489,387.76803027508504 M417.5884480290489,387.76803027508504 L412.16980913756197,389.50413619341407 M412.16980913756197,389.50413619341407 L406.3053376288027,390.573440226574 M406.3053376288027,390.573440226574 L400.22127330734065,390.9345835853187 M400.22127330734065,390.9345835853187 L394.15263031936297,390.5734605034909 M394.15263031936297,390.5734605034909 L388.33365510559076,389.5041159203107 M388.33365510559076,389.5041159203107 L382.98899006591756,387.76805054199815 M382.98899006591756,387.76805054199815 L378.3246580556969,385.4325255136548 M378.91118050179364,432.6712559671464 L375.1148573883572,429.8212487044193 M375.1148573883572,429.8212487044193 L372.3220098750415,426.57141000310014 M372.3220098750415,426.57141000310014 L370.6392738319079,423.0472048596911 M370.6392738319079,423.0472048596911 L370.13039947261973,419.38449544848663 M370.13039947261973,419.38449544848663 L370.8138814238922,415.72411786615055 M370.8138814238922,415.72411786615055 L372.6621912354291,412.2066513843713 M372.6621912354291,412.2066513843713 L375.60356149856455,408.9668372047274 M375.60356149856455,408.9668372047274 L379.52415609069124,406.12863437289343 M379.52415609069124,406.12863437289343 L384.27321885190736,403.80045572059555 M384.27321885190736,403.80045572059555 L389.6684612697141,402.07103192268187 M389.6684612697141,402.07103192268187 L395.50317826799215,401.0063475211268 M395.50317826799215,401.0063475211268 L401.5540794132369,400.64688159887464 M401.5540794132369,400.64688159887464 L407.58976112370317,401.0063475211268 M407.58976112370317,401.0063475211268 L413.37943344773214,402.0710521116051 M413.37943344773214,402.0710521116051 L418.7014207375736,403.80045572059555 M418.7014207375736,403.80045572059555 L423.3519106968704,406.12863437289343 M378.3246580556969,385.4325255136548 L374.52003618695574,382.5880001087464 M374.52003618695574,382.5880001087464 L371.72114709053017,379.3444161801084 M371.72114709053017,379.3444161801084 L370.0348557997877,375.8269985117728 M370.0348557997877,375.8269985117728 L369.52504496619935,372.17134845152805 M369.52504496619935,372.17134845152805 L370.21024035390326,368.5180309419309 M370.21024035390326,368.5180309419309 L372.06284239712693,365.0073538014153 M372.06284239712693,365.0073538014153 L375.01091504962267,361.7737973043081 M375.01091504962267,361.7737973043081 L378.940361504962,358.94107980178194 M378.940361504962,358.94107980178194 L383.70008481513935,356.61740310736184 M383.70008481513935,356.61740310736184 L389.1073878345482,354.89132483114463 M389.1073878345482,354.89132483114463 L394.95510485852867,353.82870061049016 M394.95510485852867,353.82870061049016 L401.01945007585766,353.46993036001277 M401.01945007585766,353.46993036001277 L407.0685082396835,353.82870061049016 M407.0685082396835,353.82870061049016 L412.87098037264855,354.8913449810062 M412.87098037264855,354.8913449810062 L418.20470281129167,356.61740310736184 M418.20470281129167,356.61740310736184 L422.8654152087628,358.94107980178194" stroke="black"  stroke-width="4"  fill="red"/>
<path d="M709.3715429612247,462.2302557529381 L709.2220476573557,509.6157907143855 M737.4700281619043,409.1424933390666 L733.7733947675765,420.0601149542731 M733.7733947675765,420.0601149542731 L729.1028594288321,430.8595373492525 M729.1028594288321,430.8595373492525 L723.4693066593395,441.5088084076125 M723.4693066593395,441.5088084076125 L716.8865778904099,451.9761618922287 M716.8865778904099,451.9761618922287 L709.3715429612247,462.2302557529381 M737.4700281619043,409.1424933390666 L737.2587085339516,456.4267934875551 M709.2220476573557,509.6157907143855 L716.7204333044806,499.34222894326865 M716.7204333044806,499.34222894326865 L723.2886264052448,488.8549602146728 M723.2886264052448,488.8549602146728 L728.9097893113644,478.1853837838172 M728.9097893113644,478.1853837838172 L733.5701055406463,467.3653243832191 M733.5701055406463,467.3653243832191 L737.2587085339516,456.4267934875551 M709.2220476573557,509.6157907143855 L652.4432828622369,492.0089441048948 M652.4432828622369,492.0089441048948 L652.4655449852793,444.6567984053979 M709.3715429612247,462.2302557529381 L652.4655449852793,444.6567984053979 M645.3235924829451,292.36545916679063 L652.3397761573697,300.59983703232615 M652.3397761573697,300.59983703232615 L708.3270192942258,283.5189520888015 M708.3270192942258,283.5189520888015 L715.855145457489,293.472957264534 M715.855145457489,293.472957264534 L722.4920885586512,303.6706256301575 M722.4920885586512,303.6706256301575 L728.2165435731414,314.08372491243574 M728.2165435731414,314.08372491243574 L733.0097355324648,324.6832131130128 M733.0097355324648,324.6832131130128 L736.8554196230978,335.4394427530227 M736.8554196230978,335.4394427530227 L674.5071802611467,341.3736080982636 M674.5071802611467,341.3736080982636 L676.9608249785545,350.5817599627619 M676.9608249785545,350.5817599627619 L739.3584581995508,344.63794077017303 M739.3584581995508,344.63794077017303 L741.4210439954974,355.60340521442106 M741.4210439954974,355.60340521442106 L742.5041399902036,366.638018751696 M742.5041399902036,366.638018751696 L742.6017275591271,377.71007726677567 M742.6017275591271,377.71007726677567 L741.7106406854016,388.78779066819004 M741.7106406854016,388.78779066819004 L739.8306048539124,399.8389576915624 M739.8306048539124,399.8389576915624 L677.0924287475709,393.8433639659328 M677.0924287475709,393.8433639659328 L674.6818353840287,403.1370954172676 M674.6818353840287,403.1370954172676 L737.4700281619043,409.1424933390666 M652.4655449852793,444.6567984053979 L645.3639888820782,453.1152449349912 M645.3639888820782,453.1152449349912 L702.3012495305934,470.7147521000703 M702.3012495305934,470.7147521000703 L693.1190571085245,480.49449108230533 M693.1190571085245,480.49449108230533 L683.068133372393,489.97467776711903 M683.068133372393,489.97467776711903 L672.1762927106683,499.126359733988 M672.1762927106683,499.126359733988 L660.473933695032,507.9213712439815 M660.473933695032,507.9213712439815 L647.9942587095919,516.3326883462955 M647.9942587095919,516.3326883462955 L602.7278269599472,488.7259002811302 M602.7278269599472,488.7259002811302 L591.5908818852492,495.48942477859543 M591.5908818852492,495.48942477859543 L636.8572491987873,523.1288212658661 M636.8572491987873,523.1288212658661 L623.0382129948601,530.7641739233204 M623.0382129948601,530.7641739233204 L608.5498670683658,537.9448046622913 M608.5498670683658,537.9448046622913 L593.4345609538116,544.6481203662997 M593.4345609538116,544.6481203662997 L577.7368434678444,550.8531705522278 M577.7368434678444,550.8531705522278 L561.5032813948083,556.5403191907137 M561.5032813948083,556.5403191907137 L532.6115677531859,521.5322278140522 M532.6115677531859,521.5322278140522 L518.5289222903584,525.8986275625809 M518.5289222903584,525.8986275625809 L547.3887587467832,560.9333436353816 M547.3887587467832,560.9333436353816 L530.2942037084542,565.6185239140202 M530.2942037084542,565.6185239140202 L512.8057185068981,569.7390183521034 M512.8057185068981,569.7390183521034 L494.9759472130263,573.2816813878778 M494.9759472130263,573.2816813878778 L476.8588134754874,576.2352468990468 M476.8588134754874,576.2352468990468 L458.50928155975123,578.5902188823154 M458.50928155975123,578.5902188823154 L449.0732135219685,539.6480402928867 M449.0732135219685,539.6480402928867 L433.4627202977912,541.1570078183674 M433.4627202977912,541.1570078183674 L442.8472532677152,580.1094058733022 M442.8472532677152,580.1094058733022 L424.21547018463,581.3411844716427 M424.21547018463,581.3411844716427 L405.5113347447516,581.9580317822702 M405.5113347447516,581.9580317822702 L386.79181464909385,581.9580527474759 M386.79181464909385,581.9580527474759 L368.1138954410399,581.3411635086736 M368.1138954410399,581.3411635086736 L349.5345979770469,580.1093849147996 M349.5345979770469,580.1093849147996 L360.5788767755305,541.1569870008605 M360.5788767755305,541.1569870008605 L345.0327125064476,539.648081916996 M345.0327125064476,539.648081916996 L333.9373341368624,578.5902607883049 M333.9373341368624,578.5902607883049 L315.6880794232231,576.2352468990468 M315.6880794232231,576.2352468990468 L297.696864211676,573.2816813878778 M297.696864211676,573.2816813878778 L280.01804433949934,569.7390183521034 M280.01804433949934,569.7390183521034 L262.70513171914405,565.6185239140202 M262.70513171914405,565.6185239140202 L245.81024368567643,560.9333645244135 M245.81024368567643,560.9333645244135 L276.1629296717896,525.8986275625809 M276.1629296717896,525.8986275625809 L262.26630001048534,521.5322485607039 M262.26630001048534,521.5322485607039 L231.8829408119593,556.5403191907137 M231.8829408119593,556.5403191907137 L215.89163762201056,550.8531705522278 M215.89163762201056,550.8531705522278 L200.4583147843059,544.6481203662995 M200.4583147843059,544.6481203662995 L185.628600991819,537.9447838563901 M185.628600991819,537.9447838563901 L171.44625201752493,530.7641739233204 M171.44625201752493,530.7641739233204 L157.95255506464946,523.1288212658661 M157.95255506464946,523.1288212658661 L204.39662574777685,495.48942477859543 M204.39662574777685,495.48942477859543 L193.5478716831335,488.7259002811302 M193.5478716831335,488.7259002811302 L147.10512599541627,516.3326883462954 M147.10512599541627,516.3326883462954 L134.98385378836707,507.9213712439815 M134.98385378836707,507.9213712439815 L123.65624661275984,499.126359733988 M123.65624661275984,499.126359733988 L113.15435537322156,489.97467776711903 M113.15435537322156,489.97467776711903 L103.50737851082818,480.49449108230533 M103.50737851082818,480.49449108230533 L94.74194801879673,470.7147418182021 M94.74194801879673,470.7147418182021 L152.42908166327516,453.11525518527935 M152.42908166327516,453.11525518527935 L145.68795470374334,444.6567779351419 M145.68795470374334,444.6567779351419 L88.03312424868659,462.2302557529381 M88.03312424868659,462.2302557529381 L80.95501206119019,451.9761618922287 M80.95501206119019,451.9761618922287 L74.81829293922232,441.5088084076125 M74.81829293922232,441.5088084076125 L69.63850125003694,430.85953734925226 M69.63850125003694,430.85953734925226 L65.42807382357455,420.0601251453795 M65.42807382357455,420.0601251453795 L62.19666848699342,409.14252385385873 M62.19666848699342,409.14252385385873 L125.24074899039658,403.1371258998895 M125.24074899039658,403.1371258998895 L123.22615958131053,393.8433538216426 M123.22615958131053,393.8433538216426 L60.232530025283324,399.8389576915624 M60.232530025283324,399.8389576915624 L58.82336361677443,388.78778053291535 M58.82336361677443,388.78778053291535 L58.404326119711186,377.7100873823091 M58.404326119711186,377.7100873823091 L58.973691630696976,366.63798846422924 M58.973691630696976,366.63798846422924 L60.52691512920603,355.6034253668141 M60.52691512920603,355.6034253668141 L63.056734914092544,344.6379608835987 M63.056734914092544,344.6379608835987 L125.20110452483135,350.581780097305 M125.20110452483135,350.581780097305 L128.04717360388696,341.37358799643107 M128.04717360388696,341.37358799643107 L65.95177048039517,335.43941263187344 M65.95177048039517,335.43941263187344 L70.2557204313365,324.6832331556227 M70.2557204313365,324.6832331556227 L75.50058666917363,314.0837249124356 M75.50058666917363,314.0837249124356 L81.66875575948,303.67063561424493 M81.66875575948,303.67063561424493 L88.74020115687813,293.472957264534 M88.74020115687813,293.472957264534 L96.69249765916254,283.5189321918815 M96.69249765916254,283.5189321918815 L151.9519312351567,300.5998170750174 M151.9519312351567,300.5998170750174 L159.31899457216664,292.3654492026982 M159.31899457216664,292.3654492026982 L104.08868033097474,275.30946662115923 M104.08868033097474,275.30946662115923 L113.60019236040705,265.8766206305896 M113.60019236040705,265.8766206305896 L123.91636074488065,256.7630812494057 M123.91636074488065,256.7630812494057 L135.00628095540003,247.99363609045076 M135.00628095540003,247.99363609045076 L146.83725751257177,239.59191471057943 M146.83725751257177,239.59191471057943 L159.37460889231352,231.58053068164713 M159.37460889231352,231.58053068164713 L202.58061966948532,257.9618847282834 M202.58061966948532,257.9618847282834 L213.7117135373573,251.47535982349837 M213.7117135373573,251.47535982349837 L170.50446729985995,225.12441401988178 M170.50446729985995,225.12441401988178 L184.2490013975794,217.8889891576963 M184.2490013975794,217.8889891576963 L198.59217017379518,211.1017733135002 M198.59217017379518,211.1017733135002 L213.4932874245957,204.78069026982496 M213.4932874245957,204.78069026982496 L228.91028097607466,198.94240685652028 M228.91028097607466,198.94240685652028 L244.79984785992932,193.60225688837204 M244.79984785992932,193.60225688837204 L272.0144888407233,226.63976503042738 M272.0144888407233,226.63976503042738 L285.8221094112411,222.49748103732827 M285.8221094112411,222.49748103732827 L258.5768176749563,189.48435902806477 M258.5768176749563,189.48435902806477 L275.2213470117832,185.09941944861293 M275.2213470117832,185.09941944861293 L292.2095998574465,181.24875268138214 M292.2095998574465,181.24875268138214 L309.49462115463336,177.9423767589218 M309.49462115463336,177.9423767589218 L327.02879165182156,175.1888798358583 M327.02879165182156,175.1888798358583 L344.7639794898122,172.99534571969798 M344.7639794898122,172.99534571969798 L353.55742396736804,209.49425511904303 M353.55742396736804,209.49425511904303 L368.72871291894734,208.07094432943302 M368.72871291894734,208.07094432943302 L359.8869215775037,171.58131377765483 M359.8869215775037,171.58131377765483 L377.8650682894555,170.43529276604568 M377.8650682894555,170.43529276604568 L395.90501565074095,169.86152244306982 M395.90501565074095,169.86152244306982 L413.9573631989796,169.86154194048902 M413.9573631989796,169.86154194048902 L431.9728465478239,170.43528301633296 M431.9728465478239,170.43528301633296 L449.90217806708625,171.58131377765483 M449.90217806708625,171.58131377765483 L439.50556215051404,208.07093451379728 M439.50556215051404,208.07093451379728 L454.6162371374844,209.494264937176 M454.6162371374844,209.494264937176 L464.96486852208636,172.99536522807796 M464.96486852208636,172.99536522807796 L482.60657473515266,175.18887007783133 M482.60657473515266,175.18887007783133 L500.0234362003516,177.9423767589218 M500.0234362003516,177.9423767589218 L517.1675907762017,181.24874291275125 M517.1675907762017,181.24874291275125 L533.991751684071,185.09941944861293 M533.991751684071,185.09941944861293 L550.4494405404789,189.48435902806477 M550.4494405404789,189.48435902806477 L521.7974731899534,222.49748103732827 M521.7974731899534,222.49748103732827 L535.4286258564146,226.63976503042738 M535.4286258564146,226.63976503042738 L564.0509731467043,193.602261783505 M564.0509731467043,193.602261783505 L579.7129902679121,198.9423970568946 M579.7129902679121,198.9423970568946 L594.8812003784838,204.78069026982496 M594.8812003784838,204.78069026982496 L609.5129788684535,211.1017733135003 M609.5129788684535,211.1017733135003 L623.5669554381627,217.8889842412616 M623.5669554381627,217.8889842412616 L637.003182762335,225.12441401988178 M637.003182762335,225.12441401988178 L592.6731501525796,251.47534993155944 M592.6731501525796,251.47534993155944 L603.527855849691,257.9618748249161 M603.527855849691,257.9618748249161 L647.8579486818624,231.58053068164713 M647.8579486818624,231.58053068164713 L660.0539465498846,239.59190977507012 M660.0539465498846,239.59190977507012 L671.5268876809373,247.9936163188362 M671.5268876809373,247.9936163188362 L682.2431786585779,256.7630812494058 M682.2431786585779,256.7630812494058 L692.1710394355786,265.87661071326863 M692.1710394355786,265.87661071326863 L701.2806468431982,275.30948152210533 M701.2806468431982,275.30948152210533 L645.3235924829451,292.36545916679063 M422.8654152087628,358.94107980178194 L426.6741607309484,361.7737973043079 M426.6741607309484,361.7737973043079 L429.4844197137123,365.00733361557354 M429.4844197137123,365.00733361557354 L431.18749955665317,368.5180511402667 M431.18749955665317,368.5180511402667 L431.7169954164316,372.17134845152805 M431.7169954164316,372.17134845152805 L431.05141883028875,375.8269985117728 M431.05141883028875,375.8269985117728 L429.2152857650101,379.3443959432185 M429.2152857650101,379.3443959432185 L426.2781217360573,382.58797986029856 M426.2781217360573,382.58797986029856 L422.35232900104177,385.4325255136548 M422.35232900104177,385.4325255136548 L417.5884480290489,387.76803027508504 M417.5884480290489,387.76803027508504 L412.16980913756197,389.50413619341407 M412.16980913756197,389.50413619341407 L406.3053376288027,390.573440226574 M406.3053376288027,390.573440226574 L400.22127330734065,390.9345835853187 M400.22127330734065,390.9345835853187 L394.15263031936297,390.5734605034909 M394.15263031936297,390.5734605034909 L388.33365510559076,389.5041159203107 M388.33365510559076,389.5041159203107 L382.98899006591756,387.76805054199815 M382.98899006591756,387.76805054199815 L378.3246580556969,385.4325255136548 M378.3246580556969,385.4325255136548 L374.52003618695574,382.5880001087464 M374.52003618695574,382.5880001087464 L371.72114709053017,379.3444161801084 M371.72114709053017,379.3444161801084 L370.0348557997877,375.8269985117728 M370.0348557997877,375.8269985117728 L369.52504496619935,372.17134845152805 M369.52504496619935,372.17134845152805 L370.21024035390326,368.5180309419309 M370.21024035390326,368.5180309419309 L372.06284239712693,365.0073538014153 M372.06284239712693,365.0073538014153 L375.01091504962267,361.7737973043081 M375.01091504962267,361.7737973043081 L378.940361504962,358.94107980178194 M378.940361504962,358.94107980178194 L383.70008481513935,356.61740310736184 M383.70008481513935,356.61740310736184 L389.1073878345482,354.89132483114463 M389.1073878345482,354.89132483114463 L394.95510485852867,353.82870061049016 M394.95510485852867,353.82870061049016 L401.01945007585766,353.46993036001277 M401.01945007585766,353.46993036001277 L407.0685082396835,353.82870061049016 M407.0685082396835,353.82870061049016 L412.87098037264855,354.8913449810062 M412.87098037264855,354.8913449810062 L418.20470281129167,356.61740310736184 M418.20470281129167,356.61740310736184 L422.8654152087628,358.94107980178194 M674.6102509416462,450.40987421881664 L737.2587085339516,456.4267934875551 M674.6102509416462,450.40987421881664 L674.6818353840287,403.1370954172676 M652.4432828622369,492.0089441048948 L645.3575714371625,500.4834766242151 M645.3575714371625,500.4834766242151 L702.1674591799106,518.1163641870247 M702.1674591799106,518.1163641870247 L693.0057099166066,527.9145996702234 M693.0057099166066,527.9145996702234 L682.9772132909582,537.4126805764154 M682.9772132909582,537.4126805764154 L672.1097245415326,546.5816033286756 M672.1097245415326,546.5816033286756 L660.4335765269526,555.3931528047781 M660.4335765269526,555.3931528047781 L647.9818988218185,563.8202580578704 M647.9818988218185,563.8202580578704 L602.8169121416656,536.161547986027 M602.8169121416656,536.161547986027 L591.7049855093168,542.9378207038867 M591.7049855093168,542.9378207038867 L636.8699081859667,570.6291271803034 M561.6857969469426,604.1029765746971 L577.8827028217072,598.4052456178051 M577.8827028217072,598.4052456178051 L593.5450015513168,592.1886349910978 M593.5450015513168,592.1886349910978 L608.6262340661119,585.4728136091935 M608.6262340661119,585.4728136091935 L623.0819539223949,578.2787672048421 M623.0819539223949,578.2787672048421 L636.8699081859667,570.6291271803034 M561.6857969469426,604.1029765746971 L532.8584448044644,569.0295432783241 M532.8584448044644,569.0295432783241 L518.8075458051117,573.4041190105022 M518.8075458051117,573.4041190105022 L547.6031646198137,608.5041666400177 M458.9246980125541,626.1937857597275 L477.2327220168811,623.8344536399961 M477.2327220168811,623.8344536399961 L495.3088720019209,620.8754166520275 M495.3088720019209,620.8754166520275 L513.0983138919732,617.3261863331825 M513.0983138919732,617.3261863331825 L530.5472514498947,613.1980472660598 M530.5472514498947,613.1980472660598 L547.6031646198137,608.5041666400177 M458.9246980125541,626.1937857597275 L449.5084679492309,587.1792284557482 M449.5084679492309,587.1792284557482 L433.93316506420155,588.691011632739 M433.93316506420155,588.691011632739 L443.298092537137,627.7157843128964 M350.19615797493555,627.7157633156119 L368.733565121604,628.9498209012913 M368.733565121604,628.9498209012913 L387.36933169213603,629.5678512628756 M387.36933169213603,629.5678512628756 L406.0465722025169,629.5678302588908 M406.0465722025169,629.5678302588908 L424.70843656469657,628.9498419030401 M424.70843656469657,628.9498419030401 L443.298092537137,627.7157843128964 M350.19615797493555,627.7157633156119 L361.21335616170757,588.6909907763938 M361.21335616170757,588.6909907763938 L345.702093091498,587.1792701575382 M345.702093091498,587.1792701575382 L334.63402487266876,626.1938277432853 M246.70455382957618,608.5041875678594 L263.5616993775143,613.1980472660598 M263.5616993775143,613.1980472660598 L280.83585557398123,617.3261863331825 M280.83585557398123,617.3261863331825 L298.47502653150013,620.8754166520275 M298.47502653150013,620.8754166520275 L316.42582563663655,623.8344536399961 M316.42582563663655,623.8344536399961 L334.63402487266876,626.1938277432853 M246.70455382957618,608.5041875678594 L276.9863087945382,573.4041190105022 M276.9863087945382,573.4041190105022 L263.1205904187462,569.029564063841 M263.1205904187462,569.029564063841 L232.8082982965815,604.1029765746971 M159.0413689892881,570.6291271803034 L172.50544499285286,578.2787672048421 M172.50544499285286,578.2787672048421 L186.65654283334487,585.4727927644497 M186.65654283334487,585.4727927644497 L201.45346719713973,592.1886349910978 M201.45346719713973,592.1886349910978 L216.85256072670563,598.4052456178051 M216.85256072670563,598.4052456178051 L232.8082982965815,604.1029765746971 M159.0413689892881,570.6291271803034 L205.37871443748537,542.9378207038867 M205.37871443748537,542.9378207038867 L194.55368854950535,536.161547986027 M194.55368854950535,536.161547986027 L148.21765919762177,563.8202580578702 M95.96720804413121,518.1163538856907 L104.71405848210674,527.9145996702234 M104.71405848210674,527.9145996702234 L114.34041567277052,537.4126805764154 M114.34041567277052,537.4126805764154 L124.81970122078815,546.5816033286756 M124.81970122078815,546.5816033286756 L136.12277686815452,555.3931528047781 M136.12277686815452,555.3931528047781 L148.21765919762177,563.8202580578702 M95.96720804413121,518.1163538856907 L153.52362024182622,500.48348689397994 M153.52362024182622,500.48348689397994 L146.79673037250257,492.00892359567524 M146.79673037250257,492.00892359567524 L89.27247437496783,509.6157907143855 M63.48776516135183,456.42682406085396 L66.71320887955721,467.3653345938217 M66.71320887955721,467.3653345938217 L70.91546534044664,478.1853837838171 M70.91546534044664,478.1853837838171 L76.08488883943676,488.8549602146727 M76.08488883943676,488.8549602146727 L82.20906126247633,499.34222894326865 M82.20906126247633,499.34222894326865 L89.27247437496783,509.6157907143855 M63.48776516135183,456.42682406085396 L126.39097339506509,450.4099047599552 M126.39097339506509,450.4099047599552 L124.379923279313,441.0982747655763 M124.379923279313,441.0982747655763 L61.526940885228214,447.10540301537594 M64.33863306649141,391.79777064611085 L61.81565390150752,402.7845128081058 M61.81565390150752,402.7845128081058 L60.26712496411858,413.8404401514265 M60.26712496411858,413.8404401514265 L59.70028201147704,424.9339280832306 M59.70028201147704,424.9339280832306 L60.11964997891323,436.032973031 M60.11964997891323,436.032973031 L61.526940885228214,447.10540301537594 M64.33863306649141,391.79777064611085 L126.34611821652265,397.75312924651166 M126.34611821652265,397.75312924651166 L129.1849642436589,388.5270543913815 M129.1849642436589,388.5270543913815 L67.22623018158998,382.58133698412314 M97.8934803853956,330.559282652305 L89.95975662534931,340.5328629025396 M89.95975662534931,340.5328629025396 L82.90499980204112,350.75053487632545 M82.90499980204112,350.75053487632545 L76.75157827247108,361.18399812695225 M76.75157827247108,361.18399812695225 L71.51946639730556,371.80420147160726 M71.51946639730556,371.80420147160726 L67.22623018158998,382.58133698412314 M97.8934803853956,330.559282652305 L153.03295342146163,347.67369995701586 M153.03295342146163,347.67369995701586 L160.3830061380552,339.42318100368493 M160.3830061380552,339.42318100368493 L105.27252685216922,322.3336599920907 M160.43277398819984,278.51821636860643 L147.92365706683515,286.54550509472915 M147.92365706683515,286.54550509472915 L136.11944336030552,294.96387910214276 M136.11944336030552,294.96387910214276 L125.05473520336398,303.7506762613449 M125.05473520336398,303.7506762613449 L114.7621523920256,312.88221659793294 M114.7621523920256,312.88221659793294 L105.27252685216922,322.3336599920907 M160.43277398819984,278.51821636860643 L203.54641312422933,304.9518494598607 M203.54641312422933,304.9518494598607 L214.6525272870758,298.45249568542533 M214.6525272870758,298.45249568542533 L171.53766079802816,272.04926434049446 M245.66796274510185,240.4642038704153 L229.8135115230076,245.81503762336024 M229.8135115230076,245.81503762336024 L214.43067580752628,251.66498863885818 M214.43067580752628,251.66498863885818 L199.5626654438595,257.9986890980432 M199.5626654438595,257.9986890980432 L185.25146137868256,264.7994353835244 M185.25146137868256,264.7994353835244 L171.53766079802816,272.04926434049446 M245.66796274510185,240.4642038704153 L272.82558296038076,273.567629476667 M272.82558296038076,273.567629476667 L286.6026861319768,269.41710409802795 M286.6026861319768,269.41710409802795 L259.4145508084538,236.33805990357178 M345.41268788426186,219.81596077107758 L327.71627763474464,222.01390243379524 M327.71627763474464,222.01390243379524 L310.2204980758509,224.77292939037454 M310.2204980758509,224.77292939037454 L292.9733810502212,228.08594180858006 M292.9733810502212,228.08594180858006 L276.02244643235616,231.9443321673973 M276.02244643235616,231.9443321673973 L259.4145508084538,236.33805990357178 M345.41268788426186,219.81596077107758 L354.1890281859859,256.38796364467316 M354.1890281859859,256.38796364467316 L369.3270769529132,254.96181227534896 M369.3270769529132,254.96181227534896 L360.5026011220093,218.39908656554906 M450.32175069605626,218.39908656554906 L432.43143292664934,217.2507516600573 M432.43143292664934,217.2507516600573 L414.45516846247324,216.67585685994595 M414.45516846247324,216.67585685994595 L396.4421436414105,216.67583732331775 M396.4421436414105,216.67583732331775 L378.44152159364955,217.2507614293744 M378.44152159364955,217.2507614293744 L360.5026011220093,218.39908656554906 M450.32175069605626,218.39908656554906 L439.94922857984625,254.961802440121 M439.94922857984625,254.961802440121 L455.0269281504858,256.38797348239814 M455.0269281504858,256.38797348239814 L465.3516745596946,219.81598031866486 M550.6502824633276,236.33805990357178 L534.2284129647817,231.9443321673973 M534.2284129647817,231.9443321673973 L517.440855379233,228.08593202034797 M517.440855379233,228.08593202034797 L500.33399148503105,224.77292939037454 M500.33399148503105,224.77292939037454 L482.9550101135285,222.01389265616547 M482.9550101135285,222.01389265616547 L465.3516745596946,219.81598031866486 M550.6502824633276,236.33805990357178 L522.0616128346563,269.41710409802795 M522.0616128346563,269.41710409802795 L535.6630198789627,273.567629476667 M535.6630198789627,273.567629476667 L564.2221983151827,240.46420877534695 M637.0151950841387,272.04926434049446 L623.6083534188065,264.7994304572951 M623.6083534188065,264.7994304572951 L609.585078020864,257.9986890980432 M609.585078020864,257.9986890980432 L594.9852303259695,251.66498863885818 M594.9852303259695,251.66498863885818 L579.85009234038,245.81502780413905 M579.85009234038,245.81502780413905 L564.2221983151827,240.46420877534695 M637.0151950841387,272.04926434049446 L592.7824582665073,298.45248577390976 M592.7824582665073,298.45248577390976 L603.613396161642,304.9518395369191 M603.613396161642,304.9518395369191 L647.846192806348,278.51821636860643 M701.151378577166,322.33367492238733 L692.0618928568813,312.8822066610411 M692.0618928568813,312.8822066610411 L682.1559139736819,303.750676261345 M682.1559139736819,303.750676261345 L671.4631970327353,294.9638592913725 M671.4631970327353,294.9638592913725 L660.0154504558725,286.54550014942924 M660.0154504558725,286.54550014942924 L647.846192806348,278.51821636860643 M701.151378577166,322.33367492238733 L645.3173540220606,339.4231909873373 M645.3173540220606,339.4231909873373 L652.3180712718819,347.67371995343694 M652.3180712718819,347.67371995343694 L708.1821520082374,330.5593025883521 M736.6468230294099,382.58136716389345 L732.8098297355518,371.80418138990683 M732.8098297355518,371.80418138990683 L728.0274003563404,361.18399812695225 M728.0274003563404,361.18399812695225 L722.3157380004807,350.7505248726832 M722.3157380004807,350.7505248726832 L715.6935708253937,340.5328629025398 M715.6935708253937,340.5328629025398 L708.1821520082374,330.5593025883521 M736.6468230294099,382.58136716389345 L674.4363696290334,388.5270745322888 M674.4363696290334,388.5270745322888 L676.8845257736148,397.75310907290236 M676.8845257736148,397.75310907290236 L739.144154876184,391.79775049361376 M739.6142096858746,447.10540301537594 L741.4902797490618,436.03298318578766 M741.4902797490618,436.03298318578766 L742.3796037322668,424.93391794817774 M742.3796037322668,424.93391794817774 L742.2824485224023,413.8404704974681 M742.2824485224023,413.8404704974681 L741.2019661118078,402.78449261665196 M741.2019661118078,402.78449261665196 L739.144154876184,391.79775049361376 M739.6142096858746,447.10540301537594 L677.0155464737577,441.098284929377 M677.0155464737577,441.098284929377 L674.6102509416462,450.40987421881664 M423.3519106968704,406.12863437289343 L418.7014207375736,403.80045572059555 M418.7014207375736,403.80045572059555 L413.37943344773214,402.0710521116051 M413.37943344773214,402.0710521116051 L407.58976112370317,401.0063475211268 M407.58976112370317,401.0063475211268 L401.5540794132369,400.64688159887464 M401.5540794132369,400.64688159887464 L395.50317826799215,401.0063475211268 M395.50317826799215,401.0063475211268 L389.6684612697141,402.07103192268187 M389.6684612697141,402.07103192268187 L384.27321885190736,403.80045572059555 M384.27321885190736,403.80045572059555 L379.52415609069124,406.12863437289343 M379.52415609069124,406.12863437289343 L375.60356149856455,408.9668372047274 M375.60356149856455,408.9668372047274 L372.6621912354291,412.2066513843713 M372.6621912354291,412.2066513843713 L370.8138814238922,415.72411786615055 M370.8138814238922,415.72411786615055 L370.13039947261973,419.38449544848663 M370.13039947261973,419.38449544848663 L370.6392738319079,423.0472048596911 M370.6392738319079,423.0472048596911 L372.3220098750415,426.57141000310014 M372.3220098750415,426.57141000310014 L375.1148573883572,429.8212487044193 M375.1148573883572,429.8212487044193 L378.91118050179364,432.6712559671464 M378.91118050179364,432.6712559671464 L383.56527451947017,435.01127955990887 M383.56527451947017,435.01127955990887 L388.8981564753554,436.75068747181604 M388.8981564753554,436.75068747181604 L394.70425907878405,437.82209033051697 M394.70425907878405,437.82209033051697 L400.75943895384154,438.18390840130985 M400.75943895384154,438.18390840130985 L406.8299718016249,437.82207001457505 M406.8299718016249,437.82207001457505 L412.68136866486554,436.75070778394536 M412.68136866486554,436.75070778394536 L418.0878962597827,435.0112592539681 M418.0878962597827,435.0112592539681 L422.8410977061224,432.6712559671464 M422.8410977061224,432.6712559671464 L426.75805420938445,429.8212284169381 M426.75805420938445,429.8212284169381 L429.68856370776314,426.57138972717337 M429.68856370776314,426.57138972717337 L431.520477265831,423.0472048596911 M431.520477265831,423.0472048596911 L432.18442715118397,419.38449544848663 M432.18442715118397,419.38449544848663 L431.65595509033426,415.7241381035343 M431.65595509033426,415.7241381035343 L429.9565051914245,412.2066311594782 M429.9565051914245,412.2066311594782 L427.15233856327245,408.9668372047273 M427.15233856327245,408.9668372047273 L423.3519106968704,406.12863437289343 M645.3575714371625,500.4834766242151 L645.3639888820782,453.1152449349912 M645.3173540220606,339.4231909873373 L645.3235924829451,292.36545916679063 M652.3180712718819,347.67371995343694 L652.3397761573697,300.59983703232615 M701.2806468431982,275.30948152210533 L701.151378577166,322.33367492238733 M708.3270192942258,283.5189520888015 L708.1821520082374,330.5593025883521 M647.8579486818624,231.58053068164713 L647.846192806348,278.51821636860643 M736.8554196230978,335.4394427530227 L736.6468230294099,382.58136716389345 M603.613396161642,304.9518395369191 L603.527855849691,257.9618748249161 M674.4363696290334,388.5270745322888 L674.5071802611467,341.3736080982636 M592.7824582665073,298.45248577390976 L592.6731501525796,251.47534993155944 M676.8845257736148,397.75310907290236 L676.9608249785545,350.5817599627619 M637.003182762335,225.12441401988178 L637.0151950841387,272.04926434049446 M739.3584581995508,344.63794077017303 L739.144154876184,391.79775049361376 M564.0509731467043,193.602261783505 L564.2221983151827,240.46420877534695 M739.8306048539124,399.8389576915624 L739.6142096858746,447.10540301537594 M535.6630198789627,273.567629476667 L535.4286258564146,226.63976503042738 M677.0155464737577,441.098284929377 L677.0924287475709,393.8433639659328 M522.0616128346563,269.41710409802795 L521.7974731899534,222.49748103732827 M550.4494405404789,189.48435902806477 L550.6502824633276,236.33805990357178 M464.96486852208636,172.99536522807796 L465.3516745596946,219.81598031866486 M455.0269281504858,256.38797348239814 L454.6162371374844,209.494264937176 M439.94922857984625,254.961802440121 L439.50556215051404,208.07093451379728 M449.90217806708625,171.58131377765483 L450.32175069605626,218.39908656554906 M702.3012495305934,470.7147521000703 L702.1674591799106,518.1163641870247 M359.8869215775037,171.58131377765483 L360.5026011220093,218.39908656554906 M647.9942587095919,516.3326883462955 L647.9818988218185,563.8202580578704 M369.3270769529132,254.96181227534896 L368.72871291894734,208.07094432943302 M602.8169121416656,536.161547986027 L602.7278269599472,488.7259002811302 M354.1890281859859,256.38796364467316 L353.55742396736804,209.49425511904303 M591.7049855093168,542.9378207038867 L591.5908818852492,495.48942477859543 M344.7639794898122,172.99534571969798 L345.41268788426186,219.81596077107758 M636.8572491987873,523.1288212658661 L636.8699081859667,570.6291271803034 M258.5768176749563,189.48435902806477 L259.4145508084538,236.33805990357178 M561.5032813948083,556.5403191907137 L561.6857969469426,604.1029765746971 M286.6026861319768,269.41710409802795 L285.8221094112411,222.49748103732827 M532.8584448044644,569.0295432783241 L532.6115677531859,521.5322278140522 M272.82558296038076,273.567629476667 L272.0144888407233,226.63976503042738 M518.8075458051117,573.4041190105022 L518.5289222903584,525.8986275625809 M244.79984785992932,193.60225688837204 L245.66796274510185,240.4642038704153 M547.3887587467832,560.9333436353816 L547.6031646198137,608.5041666400177 M170.50446729985995,225.12441401988178 L171.53766079802816,272.04926434049446 M458.50928155975123,578.5902188823154 L458.9246980125541,626.1937857597275 M214.6525272870758,298.45249568542533 L213.7117135373573,251.47535982349837 M449.5084679492309,587.1792284557482 L449.0732135219685,539.6480402928867 M203.54641312422933,304.9518494598607 L202.58061966948532,257.9618847282834 M433.93316506420155,588.691011632739 L433.4627202977912,541.1570078183674 M159.37460889231352,231.58053068164713 L160.43277398819984,278.51821636860643 M442.8472532677152,580.1094058733022 L443.298092537137,627.7157843128964 M104.08868033097474,275.30946662115923 L105.27252685216922,322.3336599920907 M349.5345979770469,580.1093849147996 L350.19615797493555,627.7157633156119 M160.3830061380552,339.42318100368493 L159.31899457216664,292.3654492026982 M361.21335616170757,588.6909907763938 L360.5788767755305,541.1569870008605 M153.03295342146163,347.67369995701586 L151.9519312351567,300.5998170750174 M345.702093091498,587.1792701575382 L345.0327125064476,539.648081916996 M96.69249765916254,283.5189321918815 L97.8934803853956,330.559282652305 M333.9373341368624,578.5902607883049 L334.63402487266876,626.1938277432853 M65.95177048039517,335.43941263187344 L67.22623018158998,382.58133698412314 M245.81024368567643,560.9333645244135 L246.70455382957618,608.5041875678594 M129.1849642436589,388.5270543913815 L128.04717360388696,341.37358799643107 M276.9863087945382,573.4041190105022 L276.1629296717896,525.8986275625809 M126.34611821652265,397.75312924651166 L125.20110452483135,350.581780097305 M263.1205904187462,569.029564063841 L262.26630001048534,521.5322485607039 M63.056734914092544,344.6379608835987 L64.33863306649141,391.79777064611085 M231.8829408119593,556.5403191907137 L232.8082982965815,604.1029765746971 M60.232530025283324,399.8389576915624 L61.526940885228214,447.10540301537594 M157.95255506464946,523.1288212658661 L159.0413689892881,570.6291271803034 M124.379923279313,441.0982747655763 L123.22615958131053,393.8433538216426 M205.37871443748537,542.9378207038867 L204.39662574777685,495.48942477859543 M126.39097339506509,450.4099047599552 L125.24074899039658,403.1371258998895 M194.55368854950535,536.161547986027 L193.5478716831335,488.7259002811302 M62.19666848699342,409.14252385385873 L63.48776516135183,456.42682406085396 M147.10512599541627,516.3326883462954 L148.21765919762177,563.8202580578702 M88.03312424868659,462.2302557529381 L89.27247437496783,509.6157907143855 M94.74194801879673,470.7147418182021 L95.96720804413121,518.1163538856907 M146.79673037250257,492.00892359567524 L145.68795470374334,444.6567779351419 M153.52362024182622,500.48348689397994 L152.42908166327516,453.11525518527935 M423.3519106968704,406.12863437289343 L422.8654152087628,358.94107980178194" stroke="black"  stroke-width="4"  fill="red"/></svg>